<?xml version="1.0" standalone="no"?>
<!DOCTYPE svg PUBLIC "-//W3C//DTD SVG 1.1//EN" "http://www.w3.org/Graphics/SVG/1.1/DTD/svg11.dtd" >
<svg>
<metadata>
Created by FontForge 20120731 at Sun Nov 23 06:57:48 2014
 By root
Copyright (c) 2011 by Jovanny Lemonad. All rights reserved.
</metadata>
<defs>
<font id="Philosopher-BoldItalic" horiz-adv-x="550" >
  <font-face 
    font-family="Philosopher"
    font-weight="700"
    font-style="italic"
    font-stretch="normal"
    units-per-em="1000"
    panose-1="2 0 8 3 0 0 0 9 0 4"
    ascent="800"
    descent="-200"
    x-height="470"
    cap-height="660"
    bbox="-96 -220 1047 864"
    underline-thickness="50"
    underline-position="-150"
    slope="-10"
    unicode-range="U+0020-F406"
  />
<missing-glyph horiz-adv-x="270" 
 />
    <glyph glyph-name=".notdef" horiz-adv-x="270" 
 />
    <glyph glyph-name=".null" horiz-adv-x="0" 
 />
    <glyph glyph-name="nonmarkingreturn" horiz-adv-x="270" 
 />
    <glyph glyph-name="space" unicode=" " horiz-adv-x="250" 
 />
    <glyph glyph-name="exclam" unicode="!" horiz-adv-x="248" 
d="M149 155h-94l70 505h133zM145 61q0 -29 -20 -52t-53 -23q-25 0 -38 12.5t-13 33.5q0 30 19.5 53t53.5 23q26 0 38.5 -12.5t12.5 -34.5z" />
    <glyph glyph-name="quotedbl" unicode="&#x22;" horiz-adv-x="392" 
d="M264 390l18 270h130l-78 -270h-70zM94 390l18 270h130l-78 -270h-70z" />
    <glyph glyph-name="numbersign" unicode="#" horiz-adv-x="702" 
d="M69 0l66 172h-123l11 65h136l68 176h-113l12 65h127l76 197h99l-76 -197h127l76 197h99l-76 -197h128l-12 -65h-142l-67 -176h118l-11 -65h-132l-66 -172h-99l66 172h-127l-66 -172h-99zM259 237h126l68 176h-127z" />
    <glyph glyph-name="dollar" unicode="$" horiz-adv-x="552" 
d="M376 676q33 -3 63.5 -11.5t53.5 -22t37 -32t14 -40.5q0 -2 -0.5 -5t-2.5 -15.5t-6.5 -38t-12.5 -70.5h-28v8q0 90 -32.5 132.5t-93.5 49.5l-43 -241l75 -49q52 -35 77.5 -67.5t25.5 -75.5q0 -49 -21 -86.5t-56 -64t-80 -42.5t-92 -21l-12 -64h-70l12 65q-35 3 -66 11
t-55 21.5t-38 31.5t-14 41q0 1 0.5 4.5t2.5 16.5t6 38.5t12 70.5h28v-8q0 -90 32.5 -132.5t99.5 -50.5l45 258l-61 41q-51 33 -73 67.5t-22 76.5q0 45 18.5 81t49 62t71.5 41.5t86 20.5l10 58h70zM262 31q21 4 40 13.5t34 23.5t24 33t9 43q0 32 -18.5 55t-50.5 46zM297 628
q-37 -11 -64.5 -39.5t-27.5 -70.5q0 -28 15.5 -47t42.5 -39z" />
    <glyph glyph-name="percent" unicode="%" horiz-adv-x="758" 
d="M36 0l600 660h106l-600 -660h-106zM568 271q65 0 101 -28.5t36 -81.5q0 -37 -14.5 -67.5t-39.5 -52.5t-59 -34t-72 -12q-66 0 -102.5 28.5t-36.5 81.5q0 37 15 67.5t40.5 52.5t59.5 34t72 12zM559 231q-24 0 -42.5 -11.5t-31 -29.5t-18.5 -41t-6 -46q0 -68 65 -68
q24 0 42 10.5t31 28.5t19.5 41t6.5 47q0 33 -17 51t-49 18zM260 665q64 0 100 -28t36 -80q0 -37 -14.5 -68t-39.5 -53t-58.5 -34.5t-72.5 -12.5q-66 0 -102.5 28.5t-36.5 81.5q0 37 15 67.5t40.5 52.5t60 34t72.5 12zM251 625q-24 0 -42.5 -11.5t-31 -29.5t-19 -41t-6.5 -46
q0 -68 65 -68q25 0 43.5 11.5t31 29.5t18.5 41t6 47q0 67 -65 67z" />
    <glyph glyph-name="ampersand" unicode="&#x26;" horiz-adv-x="633" 
d="M5 108q0 40 17 73t45 59t62.5 47t69.5 39q-5 5 -18 20.5t-26.5 38.5t-23.5 51.5t-10 59.5q0 44 19.5 78.5t51.5 58t73 35.5t85 12q81 0 122 -32t41 -84q0 -39 -18 -71.5t-46.5 -60t-62.5 -50.5t-66 -42l150 -200q22 20 41.5 42t33.5 39q17 20 31 40l33 -25
q-13 -21 -30 -43q-14 -19 -34.5 -42.5t-46.5 -47.5l79 -103h-136l-32 38l-14 -9t-39 -20t-58.5 -20t-70.5 -9q-62 0 -104.5 10t-68.5 27t-37.5 40.5t-11.5 50.5zM243 20q30 0 56 8t45 18q22 11 41 26q-41 56 -77.5 103t-76.5 103q-37 -29 -66 -70t-29 -93q0 -44 26.5 -69.5
t80.5 -25.5zM343 640q-26 0 -44 -14.5t-29 -37t-15.5 -49t-4.5 -49.5q0 -40 14 -67.5t27 -41.5q43 34 72.5 81t29.5 107q0 39 -15.5 55t-34.5 16z" />
    <glyph glyph-name="quotesingle" unicode="'" horiz-adv-x="222" 
d="M94 390l18 270h130l-78 -270h-70z" />
    <glyph glyph-name="parenleft" unicode="(" horiz-adv-x="321" 
d="M10 148q0 88 27.5 167.5t76 148.5t114.5 128t144 108l10 -20q-64 -51 -111 -120.5t-78 -148.5t-46 -164t-15 -168q0 -84 22 -154.5t73 -124.5l-17 -20q-99 75 -149.5 166t-50.5 202z" />
    <glyph glyph-name="parenright" unicode=")" horiz-adv-x="321" 
d="M298 331q0 -88 -27.5 -167t-76 -148t-114.5 -128.5t-143 -107.5l-11 20q64 51 111 120t78 148t46 164t15 168q0 85 -22.5 155.5t-73.5 124.5l18 20q99 -75 149.5 -166t50.5 -203z" />
    <glyph glyph-name="asterisk" unicode="*" horiz-adv-x="436" 
d="M229 660h112l-45 -121l113 89l34 -86l-153 -50l135 -50l-64 -86l-83 90l4 -122h-112l45 121l-114 -89l-34 86l153 50l-135 50l64 86l83 -89z" />
    <glyph glyph-name="plus" unicode="+" horiz-adv-x="547" 
d="M232 295h-197l12 70h197l34 195h90l-34 -195h197l-12 -70h-197l-35 -195h-90z" />
    <glyph glyph-name="comma" unicode="," horiz-adv-x="230" 
d="M62 -14q-25 0 -38 12.5t-13 33.5q0 30 19.5 53t53.5 23q28 0 41 -17.5t13 -42.5q0 -34 -12.5 -64t-33.5 -56t-48.5 -48t-56.5 -40l-13 24q13 8 29.5 20t31.5 28t27 35.5t16 41.5z" />
    <glyph glyph-name="hyphen" unicode="-" horiz-adv-x="397" 
d="M65 312h279l-17 -95h-279z" />
    <glyph glyph-name="period" unicode="." horiz-adv-x="226" 
d="M135 61q0 -29 -20 -52t-53 -23q-25 0 -38 12.5t-13 33.5q0 30 19.5 53t53.5 23q26 0 38.5 -12.5t12.5 -34.5z" />
    <glyph glyph-name="slash" unicode="/" horiz-adv-x="480" 
d="M-25 0l437 660h112l-437 -660h-112z" />
    <glyph glyph-name="zero" unicode="0" horiz-adv-x="609" 
d="M367 635q-29 0 -54.5 -22.5t-46.5 -60t-38 -86.5t-28.5 -101.5t-17.5 -105t-6 -96.5q0 -71 20.5 -104.5t63.5 -33.5q29 0 54.5 22.5t47 59.5t38 85.5t28.5 101t18 104.5t6 97q0 140 -85 140zM375 680q57 0 97 -16t65.5 -46t37 -72.5t11.5 -94.5q0 -48 -7.5 -102t-24 -106
t-42.5 -100t-63 -84t-86 -57.5t-111 -21.5q-57 0 -96.5 16t-65 45.5t-37 71.5t-11.5 95q0 48 7.5 102t23.5 106.5t42 100t63 84t85.5 58t111.5 21.5z" />
    <glyph glyph-name="one" unicode="1" horiz-adv-x="324" 
d="M200 0h-130l95 542l-97 -56l-18 31l179 143h87z" />
    <glyph glyph-name="two" unicode="2" horiz-adv-x="540" 
d="M-6 0l11 65q29 24 68.5 55.5t82.5 68.5t85.5 78.5t76 85t54 88.5t20.5 90q0 54 -26.5 79t-61.5 25q-63 0 -113 -42t-81 -133h-35q6 38 16 77.5t32 62.5q33 33 89.5 56.5t119.5 23.5q31 0 66 -5.5t65 -22t49.5 -46t19.5 -76.5q0 -52 -27 -103.5t-69 -99.5t-93.5 -91
t-101 -79.5t-90.5 -65t-63 -46.5h207q60 0 97.5 28.5t47.5 81.5h30l-13 -75q-3 -15 -9 -29.5t-17 -25.5t-29 -18t-44 -7h-364z" />
    <glyph glyph-name="three" unicode="3" horiz-adv-x="543" 
d="M268 615q-60 0 -97.5 -28.5t-46.5 -81.5h-30l13 75q3 15 9 29.5t17 25.5t29 18t44 7h338l-8 -45l-290 -234l7 1t16.5 1.5t20.5 1t20 0.5q31 0 64 -8.5t61 -27.5t46 -50t18 -75q0 -54 -23 -98.5t-61.5 -77t-88 -50.5t-102.5 -18q-48 0 -84 7.5t-63 22t-47 34.5t-37 44
l33 29q34 -47 76.5 -69.5t85.5 -22.5q40 0 71.5 17t53.5 45.5t34 65t12 75.5q0 58 -30 85t-75 27q-23 0 -43 -3t-34 -7q-18 -4 -31 -9l-17 38l318 256h-179z" />
    <glyph glyph-name="four" unicode="4" horiz-adv-x="574" 
d="M412 0h-130l29 170h-320l8 40l425 450h104l-79 -445h90l-8 -45h-90zM319 215l58 328l-309 -328h251z" />
    <glyph glyph-name="five" unicode="5" horiz-adv-x="549" 
d="M282 390q36 0 76 -7.5t73.5 -26t55.5 -49.5t22 -79q0 -62 -24 -108t-64.5 -77.5t-94 -47t-113.5 -15.5q-41 0 -72.5 7.5t-56.5 21.5t-44.5 34t-35.5 45l34 26q30 -47 73.5 -68t86.5 -21q40 0 72 17.5t54 46t33.5 65.5t11.5 75q0 58 -35 86.5t-100 28.5q-21 0 -43.5 -3.5
t-41.5 -8.5q-22 -5 -44 -11l-33 39l64 300h389l-8 -44h-273l-50 -231q15 1 31 2q14 1 28.5 2t28.5 1z" />
    <glyph glyph-name="six" unicode="6" horiz-adv-x="561" 
d="M42 208q0 53 8 108.5t25 108t44.5 99t67 81t91 55t117.5 20.5q34 0 62.5 -5.5t48.5 -11.5q24 -8 43 -17l-11 -28q-21 4 -44 8q-20 3 -43 6t-44 3q-75 0 -130.5 -61t-78.5 -189q18 13 42 24q20 9 47.5 16.5t59.5 7.5q48 0 81.5 -11t55 -31.5t31 -50t9.5 -66.5
q0 -57 -20 -110t-56.5 -94t-89 -65.5t-116.5 -24.5q-100 0 -150 57.5t-50 170.5zM309 388q-23 0 -44 -7.5t-38 -17t-27 -17.5t-10 -9q-9 -51 -13 -93t-4 -75q0 -76 20 -110t57 -34q38 0 65 29t43.5 69.5t24 84.5t7.5 75q0 51 -19.5 78t-61.5 27z" />
    <glyph glyph-name="seven" unicode="7" horiz-adv-x="476" 
d="M168 0h-121l358 615h-170q-60 0 -97.5 -28.5t-46.5 -81.5h-30l13 75q3 15 9 29.5t17 25.5t29 18t44 7h361l-8 -45z" />
    <glyph glyph-name="eight" unicode="8" horiz-adv-x="580" 
d="M560 550q0 -36 -13.5 -65.5t-36.5 -53t-53 -41.5t-63 -32q25 -15 48 -31.5t41 -36t28.5 -43.5t10.5 -54q0 -56 -25 -96.5t-65 -66.5t-91.5 -38t-103.5 -12q-47 0 -87.5 8t-70.5 25.5t-47.5 44t-17.5 64.5q0 42 18 75t47 58.5t65 45t73 34.5q-24 14 -44.5 29t-36 32.5
t-24.5 38t-9 46.5q0 52 21.5 89.5t57.5 62t82 36t96 11.5q42 0 78.5 -6.5t63.5 -22t42.5 -40.5t15.5 -61zM245 25q28 0 53.5 11t44 29.5t29.5 44.5t11 56q0 25 -9.5 46t-25.5 38t-37.5 32t-45.5 29q-54 -28 -85 -78t-31 -115q0 -48 26 -70.5t70 -22.5zM352 635
q-24 0 -44 -11t-34.5 -28.5t-23 -40t-8.5 -45.5q0 -41 31 -72t73 -54q39 27 59 72.5t20 95.5q0 24 -7 40t-17.5 25.5t-23.5 13.5t-25 4z" />
    <glyph glyph-name="nine" unicode="9" horiz-adv-x="561" 
d="M537 451q0 -53 -8 -108.5t-25.5 -107.5t-45 -98.5t-67 -81.5t-91.5 -55t-117 -20q-35 0 -63 5t-48 12q-24 7 -43 17l11 28q21 -5 44 -9q20 -3 42.5 -5.5t44.5 -2.5q75 0 130.5 61t78.5 189q-19 -13 -42 -24q-20 -9 -47 -16.5t-59 -7.5q-96 0 -136.5 42.5t-40.5 116.5
q0 57 19.5 110t56 94t88.5 65.5t117 24.5q201 0 201 -229zM269 272q22 0 43.5 7.5t38.5 17t27 17.5t10 9q18 102 18 168q0 76 -20.5 110t-57.5 34q-39 0 -65.5 -29t-43 -70t-23.5 -85.5t-7 -75.5q0 -51 19 -77t61 -26z" />
    <glyph glyph-name="colon" unicode=":" horiz-adv-x="239" 
d="M141 61q0 -29 -20 -52t-53 -23q-25 0 -38 12.5t-13 33.5q0 30 19.5 53t53.5 23q26 0 38.5 -12.5t12.5 -34.5zM203 414q0 -29 -20 -52t-53 -23q-26 0 -38.5 12.5t-12.5 34.5q0 29 20 52t53 23q26 0 38.5 -12.5t12.5 -34.5z" />
    <glyph glyph-name="semicolon" unicode=";" horiz-adv-x="251" 
d="M208 414q0 -29 -20 -52t-53 -23q-26 0 -38.5 12.5t-12.5 34.5q0 29 20 52t53 23q26 0 38.5 -12.5t12.5 -34.5zM73 -14q-25 0 -38 12.5t-13 33.5q0 30 19.5 53t53.5 23q28 0 41 -17.5t13 -42.5q0 -34 -12.5 -64t-33.5 -56t-48.5 -48t-56.5 -40l-13 24q13 8 29.5 20
t31.5 28t27 35.5t16 41.5z" />
    <glyph glyph-name="less" unicode="&#x3c;" horiz-adv-x="611" 
d="M46 370l560 226l-16 -91l-422 -170l362 -170l-16 -91l-481 226z" />
    <glyph glyph-name="equal" unicode="=" horiz-adv-x="670" 
d="M91 455h549l-13 -70h-549zM59 275h549l-12 -70h-549z" />
    <glyph glyph-name="greater" unicode="&#x3e;" horiz-adv-x="610" 
d="M584 300l-559 -226l16 91l422 170l-362 170l16 91l480 -226z" />
    <glyph glyph-name="question" unicode="?" horiz-adv-x="500" 
d="M288 635q-59 0 -110.5 -43.5t-88.5 -144.5h-30q1 2 1 4t1 4q8 42 18 81t33 63q17 16 41 30.5t52 26t59 18t62 6.5q40 0 74 -10t58.5 -29.5t38 -48.5t13.5 -66q0 -47 -15.5 -81.5t-39.5 -62.5t-54 -52t-59 -49.5t-54 -55t-39 -69.5h-68q9 37 26.5 68t38.5 59.5t43.5 56
t40.5 58t29.5 65.5t11.5 78q0 53 -23 73.5t-60 20.5zM258 61q0 -29 -20 -52t-53 -23q-25 0 -38 12.5t-13 33.5q0 30 19.5 53t53.5 23q26 0 38.5 -12.5t12.5 -34.5z" />
    <glyph glyph-name="at" unicode="@" horiz-adv-x="877" 
d="M434 495q30 0 50 -8.5t32 -19.5q14 -12 23 -27h5l43 45h85l-68 -383q-1 -5 -1 -15q0 -16 7.5 -26t24.5 -10q30 0 52.5 16.5t39 43.5t27.5 61t17.5 68.5t9.5 67t3 55.5q0 67 -19.5 117.5t-56 85t-88.5 52t-117 17.5q-101 0 -178 -41.5t-129.5 -110t-79 -157t-26.5 -183.5
q0 -70 19.5 -122t55.5 -86.5t87.5 -52t115.5 -17.5q95 0 177 24.5t156 70.5l19 -40q-71 -44 -159 -72t-201 -28q-78 0 -140.5 20.5t-107 61.5t-68.5 101t-24 140q0 102 33 199t95.5 172t154 120.5t208.5 45.5q78 0 141.5 -21t108.5 -61t69 -99t24 -135q0 -58 -14.5 -121.5
t-46 -116t-82.5 -87t-124 -34.5q-13 0 -30 1t-33.5 6.5t-30.5 16.5t-21 31q-15 -16 -33 -28q-16 -11 -39 -19t-53 -8q-45 0 -77.5 13.5t-53.5 37.5t-31.5 56.5t-10.5 70.5q0 52 17 107.5t50 101t81.5 74.5t111.5 29zM446 450q-26 0 -46.5 -16t-36.5 -41.5t-26.5 -57.5
t-17.5 -64.5t-10 -62.5t-3 -51q0 -48 15.5 -77.5t53.5 -29.5q23 0 41 10t32 22q16 14 29 33l47 270q-6 18 -17 32q-9 12 -23.5 22.5t-37.5 10.5z" />
    <glyph glyph-name="A" unicode="A" horiz-adv-x="647" 
d="M549 126q11 -44 32 -70t54 -30l-4 -25q-8 -2 -23 -3.5t-26 -1.5q-24 0 -50.5 4.5t-50.5 18t-43.5 39t-29.5 68.5l-13 56h-266l-114 -182h-52l411 660h45zM158 227h226l-64 261z" />
    <glyph glyph-name="B" unicode="B" horiz-adv-x="646" 
d="M347 620q-12 0 -23.5 -1t-19.5 -3q-10 -2 -18 -3l-45 -252h75q34 0 64 10.5t52.5 31t36 49.5t13.5 66q0 29 -11.5 48.5t-30 31.5t-43 17t-50.5 5zM48 0q24 137 40.5 231.5l27.5 157.5t17 98.5t9 54t3.5 24.5t0.5 9q0 26 -12.5 40.5t-44.5 14.5h-10l5 30h270
q43 0 90.5 -4.5t86.5 -19t64.5 -42.5t25.5 -76q0 -35 -13.5 -63t-36.5 -50.5t-53 -38.5t-64 -25q40 -4 68 -15t44.5 -27.5t24 -37t7.5 -44.5q0 -63 -29 -104.5t-76 -66.5t-106 -35.5t-119 -10.5h-91h-129zM260 40q37 0 72.5 10.5t63.5 31.5t44.5 53t16.5 75q0 106 -149 106
h-75l-47 -266q8 -3 19 -5q20 -5 50 -5h5z" />
    <glyph glyph-name="C" unicode="C" horiz-adv-x="680" 
d="M630 447q-2 91 -44.5 139.5t-125.5 48.5q-75 0 -129 -38t-88 -97.5t-50 -130.5t-16 -137q0 -44 9.5 -81.5t30.5 -65.5t54.5 -44t81.5 -16q69 0 134.5 36.5t113.5 106.5l30 -27q-31 -42 -64.5 -72t-72 -50t-83 -29.5t-96.5 -9.5q-68 0 -120 20t-87 55t-52.5 84t-17.5 107
q0 77 29.5 154.5t83 139.5t127 101t160.5 39q31 0 71.5 -5t76.5 -19.5t61 -41t25 -69.5q0 -23 -3.5 -47.5t-8.5 -50.5h-30z" />
    <glyph glyph-name="D" unicode="D" horiz-adv-x="737" 
d="M362 620q-15 0 -28.5 -1t-24.5 -3q-12 -2 -23 -3l-100 -566q10 -2 22 -4q10 -2 23.5 -2.5t28.5 -0.5h10q69 0 124 32.5t94 84t59.5 116.5t20.5 130q0 100 -52.5 158.5t-145.5 58.5h-8zM356 660q181 0 271 -68.5t90 -189.5q0 -90 -35 -164.5t-96 -127t-143.5 -81.5
t-176.5 -29h-88h-130l93 530q5 28 5 45q0 26 -12.5 40.5t-44.5 14.5h-10l5 30h272z" />
    <glyph glyph-name="E" unicode="E" horiz-adv-x="602" 
d="M525 660q43 0 58 -17t15 -41q0 -3 -0.5 -7t-2 -14.5t-5 -31t-9.5 -54.5h-30q3 18 3 33q0 46 -27.5 66.5t-79.5 20.5h-161l-44 -250h260l-8 -45h-260l-49 -275h171q55 0 98 24.5t81 89.5l25 -10l-43 -79q-17 -32 -37.5 -51t-61.5 -19h-240h-130q24 137 40.5 231.5
l27.5 157.5t17 98.5t9 54t3.5 24.5t0.5 9q0 26 -12.5 40.5t-44.5 14.5h-10l5 30h441z" />
    <glyph glyph-name="F" unicode="F" horiz-adv-x="542" 
d="M503 660q43 0 58 -17t15 -41q0 -3 -0.5 -7t-2 -14.5t-5 -31t-9.5 -54.5h-30q3 18 3 33q0 47 -27.5 67t-79.5 20h-139l-45 -255h220l-8 -45h-220l-55 -315h-130l93 530q5 28 5 45q0 26 -12.5 40.5t-44.5 14.5h-10l5 30h419z" />
    <glyph glyph-name="G" unicode="G" horiz-adv-x="734" 
d="M620 47q-64 -35 -132 -51t-145 -16q-69 0 -125 22t-95.5 61t-61 93t-21.5 117q0 77 30 150t82.5 130t125 92t158.5 35q32 0 73.5 -5t78.5 -20t62.5 -42t25.5 -70q0 -21 -3 -42.5t-7 -40.5h-30q-3 92 -47 133.5t-131 41.5q-51 0 -91.5 -18t-72 -49t-54 -72t-37 -86.5
t-21.5 -92.5t-7 -91q0 -58 13.5 -97.5t36.5 -63.5t55 -34.5t70 -10.5q45 0 78.5 7t61.5 19l31 178q4 21 14 42.5t34 39t64 29t104 11.5l-5 -25q-34 0 -53.5 -25t-27.5 -70z" />
    <glyph glyph-name="H" unicode="H" horiz-adv-x="723" 
d="M564 660h130l-94 -530q-2 -12 -3 -22.5t-1 -20.5q0 -26 12 -41.5t45 -15.5h10l-5 -30h-120q-40 0 -57 15t-17 54q0 25 6 61l34 190h-270l-56 -320h-130l93 530q5 28 5 45q0 26 -12.5 40.5t-44.5 14.5h-10l5 30h120q39 0 56.5 -14.5t17.5 -52.5q0 -28 -7 -63l-29 -165h270
z" />
    <glyph glyph-name="I" unicode="I" horiz-adv-x="307" 
d="M148 660h130l-94 -530q-2 -12 -3 -22.5t-1 -20.5q0 -26 12 -41.5t45 -15.5h10l-5 -30h-120q-40 0 -57 15t-17 54q0 25 6 61z" />
    <glyph glyph-name="J" unicode="J" horiz-adv-x="280" 
d="M171 83q-11 -65 -28 -107t-46.5 -67.5t-74.5 -35.5t-112 -10l6 30q22 3 41 13t34.5 31.5t28 57t21.5 88.5l102 577h130z" />
    <glyph glyph-name="K" unicode="K" horiz-adv-x="694" 
d="M49 0q24 137 40.5 231.5t27 157.5t16.5 98.5t9 54t3.5 24.5t0.5 9q0 26 -12.5 40.5t-44.5 14.5h-10l5 30h120q40 0 57.5 -15t17.5 -53q0 -6 -1 -16t-5 -35.5t-12.5 -72.5t-22.5 -128l211 215q20 21 42 40t46 33.5t51 23t57 8.5h70l-6 -35q-57 0 -105.5 -14.5t-90.5 -56.5
l-181 -184l188 -240q16 -21 34.5 -39t37.5 -32.5t36.5 -23.5t32.5 -11l-4 -24q-12 -4 -32 -7t-43 -3q-28 0 -55.5 4.5t-55 18t-55.5 36.5t-57 61l-131 168l-49 -278h-130z" />
    <glyph glyph-name="L" unicode="L" horiz-adv-x="567" 
d="M530 45l-7 -45h-475l93 530q5 28 5 45q0 26 -12.5 40.5t-44.5 14.5h-10l5 30h120q39 0 56.5 -14.5t17.5 -52.5q0 -28 -7 -63l-86 -485h345z" />
    <glyph glyph-name="M" unicode="M" horiz-adv-x="869" 
d="M755 170q-5 -30 -8 -55t-3 -45q0 -80 51 -90l-4 -25q-91 0 -132 35t-41 110q0 16 2 33t5 37l63 354l-311 -524h-33l-173 544l-95 -544h-50l116 660h122l155 -491l292 491h131z" />
    <glyph glyph-name="N" unicode="N" horiz-adv-x="695" 
d="M556 200l81 460h50l-117 -663h-46l-336 498l-87 -495h-50q24 137 41 232t27.5 157t16.5 97t9 52t3.5 21.5t0.5 6.5q0 28 -17 46t-60 18h-5l5 30h70q57 0 89.5 -15t50.5 -45z" />
    <glyph glyph-name="O" unicode="O" horiz-adv-x="735" 
d="M323 25q47 0 84 20t65.5 53t48.5 75.5t32.5 88.5t18.5 91.5t6 84.5q0 95 -38 146t-110 51q-46 0 -83 -20t-65.5 -53.5t-48.5 -76.5t-32.5 -89t-18.5 -91.5t-6 -83.5q0 -94 37.5 -145t109.5 -51zM40 256q0 78 29 154t81.5 136t126 97t161.5 37q65 0 116 -20.5t86.5 -57
t54 -87.5t18.5 -111q0 -78 -29 -154t-81.5 -136t-126 -97t-161.5 -37q-65 0 -116 20.5t-86.5 57t-54 87.5t-18.5 111z" />
    <glyph glyph-name="P" unicode="P" horiz-adv-x="580" 
d="M352 620q-12 0 -24 -1t-21 -3q-11 -2 -21 -3l-54 -306h60q41 0 72 17t52 45.5t32 65.5t11 76q0 31 -9 52t-24 34t-34.5 18t-39.5 5zM359 660q31 0 72.5 -5t78.5 -21.5t62.5 -48t25.5 -85.5q0 -56 -23.5 -99.5t-62.5 -73t-89 -45t-103 -15.5h-95l-47 -267h-130
q24 137 40.5 231.5l27.5 157.5t17 98.5t9 54t3.5 24.5t0.5 9q0 26 -12.5 40.5t-44.5 14.5h-10l5 30h275z" />
    <glyph glyph-name="Q" unicode="Q" horiz-adv-x="737" 
d="M41 256q0 78 29 154t81.5 136t126 97t161.5 37q65 0 116 -20.5t86.5 -57t54 -87.5t18.5 -111q0 -68 -21 -132.5t-60 -119t-94.5 -96.5t-125.5 -63q6 -36 26.5 -67.5t48.5 -55t61 -36.5t64 -13l-5 -26q-57 0 -112.5 10.5t-105.5 34.5t-94.5 62t-80.5 94q-42 13 -74 37.5
t-54.5 58.5t-34 75.5t-11.5 88.5zM324 25q47 0 84 20t65.5 53t48.5 75.5t32.5 88.5t18.5 91.5t6 84.5q0 95 -38 146t-110 51q-46 0 -83 -20t-65.5 -53.5t-48.5 -76.5t-32.5 -89t-18.5 -91.5t-6 -83.5q0 -94 37.5 -145t109.5 -51z" />
    <glyph glyph-name="R" unicode="R" horiz-adv-x="616" 
d="M353 620q-12 0 -24 -1t-21 -3q-11 -2 -21 -3l-48 -271h60q35 0 65 13.5t51.5 37t33.5 55.5t12 68q0 29 -9.5 49t-25 32t-35 17.5t-38.5 5.5zM272 302h-40l-53 -302h-131q24 137 40.5 231.5l27.5 157.5t17 98.5t9 54t3.5 24.5t0.5 9q0 26 -12.5 40.5t-44.5 14.5h-10l5 30
h276q33 0 74.5 -4.5t78.5 -20.5t62 -45.5t25 -78.5q0 -42 -15.5 -75t-42 -57.5t-62 -41.5t-74.5 -27l74 -175q13 -32 27.5 -52.5t28 -32.5t26 -17.5t23.5 -7.5l-4 -25q-8 -4 -29.5 -7t-40.5 -3q-26 0 -49 7t-44 24t-39.5 45t-36.5 69z" />
    <glyph glyph-name="S" unicode="S" horiz-adv-x="562" 
d="M222 -17q-39 0 -76 7.5t-66 21t-46.5 33.5t-17.5 46q0 1 0.5 4.5t2.5 16t6 38t12 70.5h28v-7q0 -100 40 -142.5t123 -42.5q25 0 51 7t47 21t34.5 36t13.5 52q0 35 -22.5 59.5t-60.5 50.5l-110 74q-51 33 -73 67.5t-22 76.5q0 49 21.5 87.5t57.5 65t82.5 40t95.5 13.5
q39 0 76 -7.5t66 -21t46.5 -34t17.5 -45.5q0 -2 -0.5 -5t-2.5 -15.5t-6.5 -38t-12.5 -70.5h-28v11q0 98 -39.5 139.5t-113.5 41.5q-24 0 -48.5 -7.5t-44 -22t-31.5 -36t-12 -49.5q0 -34 23 -56t61 -48l111 -73q52 -35 77.5 -67.5t25.5 -75.5q0 -54 -25.5 -94.5t-66 -67
t-91.5 -40t-103 -13.5z" />
    <glyph glyph-name="T" unicode="T" horiz-adv-x="577" 
d="M637 660l-8 -45h-209l-108 -615h-130l108 615h-71q-53 0 -88.5 -26.5t-47.5 -93.5h-30l15 85q3 15 9 29.5t17 25.5t29 18t44 7h470z" />
    <glyph glyph-name="U" unicode="U" horiz-adv-x="697" 
d="M268 530q-13 -76 -22 -130t-15 -91.5t-10 -61t-5.5 -37.5t-2 -22t-0.5 -14q0 -69 28 -106.5t91 -37.5q55 0 96.5 15.5t71.5 47t49 80t31 115.5l66 372h50l-66 -372q-12 -71 -35 -126t-60.5 -93.5t-92 -58.5t-129.5 -20q-118 0 -172.5 51t-54.5 154q0 10 1 25t6.5 49.5
t16 95.5t28.5 165q5 28 5 45q0 26 -12.5 40.5t-44.5 14.5l5 30h110q39 0 56.5 -14.5t17.5 -52.5q0 -28 -7 -63z" />
    <glyph glyph-name="V" unicode="V" horiz-adv-x="637" 
d="M109 543q-14 56 -32.5 78.5t-47.5 26.5l3 20q4 0 20 1t23 1q26 0 52.5 -4t50.5 -17t42.5 -38t29.5 -68l92 -374l298 491h51l-406 -670h-40z" />
    <glyph glyph-name="W" unicode="W" horiz-adv-x="905" 
d="M644 179l256 481h48l-355 -669h-40l-85 392l-206 -392h-40l-119 552q-12 57 -31.5 79t-48.5 26l3 20q4 0 20 1t23 1q26 0 53 -3.5t51 -16.5t43 -38.5t28 -68.5l74 -345l136 256l-20 89q-12 57 -35 79t-52 26l3 20q4 0 18.5 1t21.5 1q26 0 53.5 -3.5t51.5 -16.5
t42.5 -38.5t27.5 -68.5z" />
    <glyph glyph-name="X" unicode="X" horiz-adv-x="645" 
d="M371 416l236 244h65l-280 -289l114 -241q9 -19 22 -38t28 -34.5t31.5 -25.5t33.5 -12l-3 -20h-110q-28 0 -50.5 10t-40.5 26t-31 35.5t-22 38.5l-74 156l-257 -266h-65l300 311l-103 219q-9 19 -22 38t-28 34.5t-32 25.5t-33 12l4 20h110q28 0 50.5 -10t40 -26
t30.5 -35.5t22 -38.5z" />
    <glyph glyph-name="Y" unicode="Y" horiz-adv-x="639" 
d="M385 345l250 315h65l-292 -369l-51 -291h-130l46 264l-130 266q-9 19 -22 38t-28 34.5t-31.5 25.5t-32.5 12l4 20h109q28 0 50.5 -10t40 -26t30.5 -35.5t22 -38.5z" />
    <glyph glyph-name="Z" unicode="Z" horiz-adv-x="599" 
d="M649 660l-501 -615h387l-7 -45h-545l5 32l475 584h-217q-53 0 -88.5 -26.5t-47.5 -94.5h-30l15 85q3 15 9 29.5t17 25.5t29 18t44 7h455z" />
    <glyph glyph-name="bracketleft" unicode="[" horiz-adv-x="332" 
d="M228 -200h-245l155 880h245l-8 -45h-125l-139 -790h125z" />
    <glyph glyph-name="backslash" unicode="\" horiz-adv-x="475" 
d="M293 0l-205 660h112l205 -660h-112z" />
    <glyph glyph-name="bracketright" unicode="]" horiz-adv-x="332" 
d="M-56 -155h124l139 790h-125l8 45h245l-155 -880h-244z" />
    <glyph glyph-name="asciicircum" unicode="^" horiz-adv-x="514" 
d="M348 680l154 -350h-98l-99 227l-179 -227h-98l276 350h44z" />
    <glyph glyph-name="underscore" unicode="_" horiz-adv-x="434" 
d="M369 -70h-420l13 70h420z" />
    <glyph glyph-name="grave" unicode="`" horiz-adv-x="227" 
d="M89 680h125l27 -203h-74z" />
    <glyph glyph-name="a" unicode="a" 
d="M296 435q-26 0 -46.5 -16t-36 -41t-26.5 -57t-18 -64.5t-10 -62t-3 -50.5q0 -48 16 -78.5t54 -30.5q23 0 41 10t32 22q16 14 28 33l48 270q-6 18 -17 32q-9 12 -24 22.5t-38 10.5zM284 480q30 0 50 -8.5t32 -19.5q14 -12 23 -27h5l43 45h85l-65 -370l-17 -100h-85l-28 45
h-5q-14 -16 -32 -28q-16 -11 -39 -19t-53 -8q-45 0 -77.5 14t-54 38t-32 57t-10.5 71q0 52 17.5 107t50.5 100t81.5 74t110.5 29z" />
    <glyph glyph-name="b" unicode="b" 
d="M160 100q6 -19 17 -33q9 -12 24 -22t38 -10q27 0 48 15.5t36 41t26 57t17 64t9 62t3 50.5q0 51 -16.5 80.5t-57.5 29.5q-19 0 -35.5 -5t-28.5 -10q-14 -7 -26 -15zM13 0q24 137 40.5 231.5l27.5 157.5t17 98.5t9 54t3.5 24.5t0.5 9q0 26 -12.5 40.5t-44.5 14.5h-10l5 30
h120q39 0 56.5 -14.5t17.5 -52.5q0 -6 -0.5 -14.5t-3 -24t-6.5 -40.5t-11 -64q14 8 31 15q14 5 34 10t45 5q46 0 79.5 -13.5t55.5 -38t32.5 -58t10.5 -73.5q0 -53 -17 -107.5t-49.5 -99t-81 -72.5t-111.5 -28q-30 0 -50.5 8t-32.5 19q-15 12 -23 28h-5l-42 -45h-85z" />
    <glyph glyph-name="c" unicode="c" horiz-adv-x="498" 
d="M320 435q-45 0 -76 -29.5t-50.5 -72.5t-28 -91t-8.5 -85q0 -122 98 -122q52 0 88.5 24t68.5 59l27 -23q-14 -17 -32.5 -35.5t-44 -34t-59 -25.5t-76.5 -10q-52 0 -90 14.5t-63 40t-37 60t-12 75.5q0 61 20.5 115.5t58 95.5t90.5 65t119 24q21 0 49 -1.5t53 -9t42.5 -23.5
t17.5 -46q0 -17 -3.5 -40.5t-9.5 -54.5h-30q1 6 1 12v12q0 53 -29.5 79.5t-83.5 26.5z" />
    <glyph glyph-name="d" unicode="d" 
d="M381 405q-9 8 -21 15q-11 5 -25.5 10t-33.5 5q-42 0 -70 -33t-44.5 -79.5t-23 -96t-6.5 -82.5q0 -50 15.5 -79.5t53.5 -29.5q23 0 41 10t32 22q16 14 28 33zM389 450q6 36 10 58.5t6 35.5t2.5 19.5t0.5 11.5q0 26 -12.5 40.5t-44.5 14.5h-10l5 30h120q39 0 56.5 -14.5
t17.5 -52.5q0 -4 -0.5 -11t-3.5 -27t-9 -57t-17.5 -101.5t-28.5 -161t-41 -235.5h-85l-28 45h-5q-14 -16 -32 -28q-16 -11 -39 -19t-53 -8q-44 0 -76.5 13.5t-54 38t-32 58t-10.5 73.5q0 54 17 108.5t50.5 99t83 72t113.5 27.5q24 0 42.5 -5t31.5 -10q15 -7 26 -15z" />
    <glyph glyph-name="e" unicode="e" horiz-adv-x="508" 
d="M272 245q20 0 35.5 11t26 28t16 37.5t5.5 40.5q0 38 -18.5 55.5t-41.5 17.5q-21 0 -40 -9.5t-35.5 -32t-30 -58.5t-22.5 -90h105zM490 358q0 -43 -20 -73t-52.5 -49t-73 -27.5t-80.5 -8.5h-105q-6 -32 -6 -56q0 -55 23.5 -82t63.5 -27q52 0 88.5 24t68.5 59l27 -23
q-14 -17 -32.5 -35.5t-43.5 -34t-57.5 -25.5t-73.5 -10q-46 0 -81.5 14t-60 39.5t-37.5 61t-13 77.5q0 57 19.5 110.5t55.5 95t87.5 67t115.5 25.5q89 0 138 -32.5t49 -89.5z" />
    <glyph glyph-name="f" unicode="f" horiz-adv-x="345" 
d="M99 425h-60l8 45h60l5 27q15 85 71.5 129t154.5 44q26 0 51 -4.5t37 -12.5q23 -15 31 -43l-46 -35q-11 23 -30.5 36.5t-45.5 13.5q-34 0 -57 -27.5t-36 -100.5l-5 -27h130l-8 -45h-130l-70 -400q-11 -62 -29 -103.5t-48 -66t-73.5 -35t-104.5 -10.5l4 25q23 4 41.5 15
t33 33t26 56.5t20.5 85.5z" />
    <glyph glyph-name="g" unicode="g" 
d="M375 370q-6 18 -17 32q-9 12 -24 22.5t-38 10.5q-27 0 -47.5 -14.5t-35.5 -38.5t-25.5 -54t-17 -60.5t-9 -59.5t-2.5 -50q0 -48 17 -75.5t58 -27.5q19 0 35.5 4.5t28.5 10.5q14 6 26 15zM446 35q-9 -53 -32 -96t-57.5 -74t-80.5 -48t-102 -17q-41 0 -70 10t-49 25.5
t-32 34t-20 35.5l35 23q10 -17 21.5 -32.5t26 -26.5t33.5 -17.5t43 -6.5q54 0 95 44.5t59 145.5l1 5q-13 -9 -31 -15q-15 -6 -35.5 -10.5t-44.5 -4.5q-92 0 -135.5 48.5t-43.5 126.5q0 52 17 105t49.5 95t80.5 68.5t110 26.5q30 0 50 -8.5t32 -19.5q14 -12 23 -27h5l43 45
h85z" />
    <glyph glyph-name="h" unicode="h" horiz-adv-x="546" 
d="M105 530q5 28 5 45q0 26 -12.5 40.5t-44.5 14.5h-10l5 30h120q39 0 56.5 -14.5t17.5 -52.5q0 -28 -7 -63l-16 -88q16 10 34 19q16 7 37 13t46 6q30 0 59.5 -6t52 -21.5t36.5 -42t14 -66.5q0 -4 -0.5 -9t-2 -17t-5 -33.5t-9.5 -58.5t-15.5 -92.5t-23.5 -133.5h-130
q20 116 31.5 182t17 99t6.5 43.5t1 15.5q0 50 -21 70t-50 20q-17 0 -32.5 -5.5t-27.5 -12.5q-14 -8 -26 -17l-69 -395h-130z" />
    <glyph glyph-name="i" unicode="i" horiz-adv-x="271" 
d="M256 596q0 -29 -15.5 -50.5t-50.5 -21.5q-32 0 -47.5 17.5t-15.5 42.5q0 27 17.5 49.5t48.5 22.5q32 0 47.5 -17.5t15.5 -42.5zM92 340q5 28 5 45q0 26 -12.5 40.5t-44.5 14.5h-10l5 30h120q39 0 56.5 -14.5t17.5 -52.5q0 -13 -2 -28.5t-5 -34.5l-59 -340h-130z" />
    <glyph glyph-name="j" unicode="j" horiz-adv-x="270" 
d="M37 25q14 83 24.5 141t17 97t10.5 61.5t5.5 35t2 17.5t0.5 8q0 26 -12.5 40.5t-44.5 14.5h-10l5 30h120q39 0 56.5 -14.5t17.5 -52.5q0 -4 -0.5 -10t-2.5 -20t-6 -38t-11 -64.5t-17 -100.5t-25 -145q-11 -62 -29 -103.5t-48 -66t-73.5 -35t-104.5 -10.5l4 25
q23 4 41.5 15t33 33t26 56.5t20.5 85.5zM256 596q0 -27 -17.5 -49.5t-48.5 -22.5q-32 0 -47.5 17.5t-15.5 42.5q0 27 17.5 49.5t48.5 22.5q32 0 47.5 -17.5t15.5 -42.5z" />
    <glyph glyph-name="k" unicode="k" horiz-adv-x="507" 
d="M177 196l-34 -196h-130q24 137 40.5 231.5l27.5 157.5t17 98.5t9 54t3.5 24.5t0.5 9q0 26 -12.5 40.5t-44.5 14.5h-10l5 30h120q39 0 56.5 -14.5t17.5 -52.5q0 -6 -1 -18t-6.5 -46.5t-17 -101t-32.5 -182.5l147 148q18 18 35 32.5t35.5 24.5t39.5 15t47 5h20l-4 -26
q-30 0 -56.5 -12t-52.5 -38l-118 -118l102 -176q38 -67 80 -76l-4 -24q-8 -4 -30 -7t-41 -3q-42 0 -76 17.5t-59 62.5z" />
    <glyph glyph-name="l" unicode="l" horiz-adv-x="261" 
d="M17 0q24 137 40.5 231.5l27.5 157.5t17 98.5t9 54t3.5 24.5t0.5 9q0 26 -12.5 40.5t-44.5 14.5h-10l5 30h120q39 0 56.5 -14.5t17.5 -52.5q0 -4 -0.5 -11t-3.5 -27t-9 -57t-17.5 -101.5t-28.5 -161t-41 -235.5h-130z" />
    <glyph glyph-name="m" unicode="m" horiz-adv-x="827" 
d="M217 432q20 16 54.5 32t79.5 16q28 0 49.5 -6.5t37.5 -15.5t26 -18.5t15 -16.5q23 22 58.5 39.5t93.5 17.5q71 0 109.5 -31.5t38.5 -100.5q0 -6 -1 -17t-6.5 -45t-17 -101t-32.5 -185h-130q14 79 23.5 134.5t16 93t10 59.5t5 34.5t2 17.5t0.5 9q0 45 -17.5 63.5
t-44.5 18.5q-28 0 -52.5 -11t-39.5 -27q1 -4 2 -9t2 -12t1 -17q0 -4 -0.5 -9.5t-2 -18t-5.5 -35t-10.5 -60.5t-16 -94.5t-23.5 -136.5h-130q14 79 23.5 134.5t16 93t10 59.5t5 34.5t2 17.5t0.5 9q0 45 -17.5 63.5t-44.5 18.5q-23 0 -47.5 -13.5t-36.5 -26.5v-5q0 -2 0.5 -5
t0.5 -8q0 -2 -0.5 -6t-2 -16.5t-5 -35.5t-10.5 -63.5t-17.5 -101.5t-26.5 -149h-130q15 89 26 151.5t18 104.5l11 66t6 37.5t2.5 18.5t0.5 8q0 26 -12 40t-44 14h-10l5 30h99q30 0 51 -8.5t28 -29.5h4z" />
    <glyph glyph-name="n" unicode="n" horiz-adv-x="577" 
d="M322 430q-32 0 -57 -9t-40 -22q3 -29 -2 -53l-61 -346h-130l59 340q5 28 5 47q0 25 -12 39t-44 14h-10l5 30h99q34 0 52 -8.5t26 -28.5q20 17 56.5 32t97.5 15q81 0 122 -31.5t41 -100.5q0 -12 -1.5 -25t-3.5 -27l-52 -296h-130l52 297q4 23 4 46q0 48 -21 67.5t-55 19.5
z" />
    <glyph glyph-name="o" unicode="o" horiz-adv-x="553" 
d="M234 35q41 0 69 31t45.5 74.5t25 91.5t7.5 81q0 56 -18.5 89t-58.5 33q-41 0 -69 -31t-45.5 -74.5t-25 -91.5t-7.5 -81q0 -56 18.5 -89t58.5 -33zM24 184q0 56 21.5 109.5t60 95t91 66.5t115.5 25q49 0 87 -14.5t63.5 -40.5t38.5 -61.5t13 -77.5q0 -56 -21.5 -109.5
t-60 -95t-91 -66.5t-115.5 -25q-49 0 -87 14.5t-63.5 40.5t-38.5 61.5t-13 77.5z" />
    <glyph glyph-name="p" unicode="p" horiz-adv-x="569" 
d="M356 480q44 0 76.5 -13.5t54 -38t32 -58t10.5 -73.5q0 -59 -18.5 -114t-53 -98t-83 -69t-109.5 -26q-25 0 -43 4.5t-31 10.5q-15 6 -26 15l-37 -210h-130q24 137 40.5 232t27.5 157.5t17 98.5t9 54.5t3.5 24.5t0.5 9q0 26 -12 40t-44 14h-10l5 30h99q34 0 52.5 -9
t24.5 -33q10 8 24.5 17t32.5 17t40 13t48 5zM328 435q-38 0 -63.5 -14t-40.5 -27v-5q0 -2 0.5 -5.5t0.5 -8.5v-5.5t-1.5 -13.5t-5 -29.5t-9 -53t-14.5 -84.5t-22 -124q9 -9 21 -15q11 -6 25.5 -10.5t33.5 -4.5q28 0 50 16t38 41.5t26.5 58t17 64.5t9.5 61.5t3 49.5
q0 50 -15.5 79.5t-53.5 29.5z" />
    <glyph glyph-name="q" unicode="q" horiz-adv-x="549" 
d="M374 370q-6 18 -17 32q-9 12 -24 22.5t-38 10.5q-27 0 -48 -15.5t-36 -41t-26 -57t-17 -64t-9 -62t-3 -50.5q0 -51 16.5 -80.5t57.5 -29.5q19 0 35.5 4.5t28.5 10.5q14 6 26 15zM405 -190h-130l37 210q-14 -9 -31 -15q-14 -6 -34.5 -10.5t-44.5 -4.5q-46 0 -79.5 13.5
t-55.5 38t-32.5 58t-10.5 73.5q0 53 17 107.5t49.5 99t81 72.5t111.5 28q30 0 50 -8.5t32 -19.5q14 -12 23 -27h5l43 45h85z" />
    <glyph glyph-name="r" unicode="r" horiz-adv-x="420" 
d="M346 480q44 0 68 -20q7 -6 12 -14t8 -15t4.5 -11.5l1.5 -4.5l-58 -39q-5 10 -14 19q-8 8 -19.5 14t-28.5 6q-32 0 -56 -9t-39 -22q-1 -7 -1 -15q-1 -7 -1 -15.5t-2 -17.5l-59 -336h-130q15 89 26 151.5t18 104.5l11 66t6 37.5t2.5 18.5t0.5 8q0 26 -12 40t-44 14h-10
l5 30h99q34 0 52 -8.5t26 -28.5q21 16 55 31.5t79 15.5z" />
    <glyph glyph-name="s" unicode="s" horiz-adv-x="469" 
d="M167 35q17 0 37 3.5t37 12.5t28 23.5t11 36.5q0 25 -22.5 41.5t-54.5 31.5l-48 22q-49 23 -77 51t-28 68t19.5 69.5t50.5 48.5t69 28t76 9q21 0 50 -2t54.5 -10t43.5 -25.5t18 -47.5q0 -17 -2.5 -35.5t-6.5 -39.5h-35v3q0 47 -25.5 79.5t-84.5 32.5q-17 0 -34 -4.5
t-31.5 -14.5t-23.5 -24.5t-9 -35.5q0 -22 15.5 -36.5t43.5 -26.5l56 -25q56 -25 85.5 -52t29.5 -69t-21.5 -72t-54.5 -49t-74 -27.5t-80 -8.5q-21 0 -50 2t-54.5 10t-43.5 25.5t-18 47.5q0 17 2.5 35.5t6.5 39.5h35v-3q0 -47 25.5 -79.5t84.5 -32.5z" />
    <glyph glyph-name="t" unicode="t" horiz-adv-x="355" 
d="M246 470h110l-8 -45h-110q-14 -78 -23.5 -133t-16 -91.5t-10 -58t-5 -33t-2 -16t-0.5 -7.5q0 -29 11 -40t30 -11q16 0 31.5 4t26.5 9q13 6 25 14l9 -28q-15 -12 -35 -22q-17 -8 -42.5 -15t-59.5 -7q-59 0 -91 27.5t-32 81.5q0 3 0.5 7t2 15t4.5 31.5t9 56t15.5 88
t22.5 128.5h-60l8 45h60l16 90l61 60h80z" />
    <glyph glyph-name="u" unicode="u" horiz-adv-x="567" 
d="M81 340q5 28 5 45q0 26 -12.5 40.5t-44.5 14.5h-10l5 30h120q39 0 56.5 -14.5t17.5 -52.5q0 -28 -7 -63q-12 -71 -19 -113t-10.5 -65t-4.5 -32.5t-1 -15.5q0 -44 17.5 -61.5t49.5 -17.5q23 0 41 10t32 22q16 14 28 33l65 370h130l-82 -470h-85l-28 45h-5q-17 -16 -37 -28
q-18 -11 -42.5 -19t-54.5 -8q-80 0 -119 30.5t-39 98.5q0 6 0.5 15.5t4 32t10.5 63t19 110.5z" />
    <glyph glyph-name="v" unicode="v" horiz-adv-x="502" 
d="M88 355q-16 55 -31 78t-40 25l4 20q4 0 17 1t20 1q30 0 56.5 -5t48 -18.5t38 -38t27.5 -63.5l54 -192l190 307h54l-297 -480h-36z" />
    <glyph glyph-name="w" unicode="w" horiz-adv-x="776" 
d="M563 154l177 316h53l-268 -480h-46l-81 281l-165 -281h-45l-99 365q-15 56 -32 79t-43 25l4 19q2 0 8.5 0.5t14 0.5t15 0.5t10.5 0.5q32 0 57 -6t44.5 -20t34 -38t24.5 -61l51 -191l96 160l-9 31q-15 55 -31.5 78.5t-38.5 25.5l4 19q4 0 17.5 1t20.5 1q32 0 59 -5.5
t48.5 -20t37 -38.5t25.5 -61z" />
    <glyph glyph-name="x" unicode="x" horiz-adv-x="497" 
d="M180 209l-67 161q-15 36 -36 56t-43 24l3 20h95q49 0 74 -21.5t40 -58.5l34 -81l159 161h67l-205 -208l68 -162q15 -36 36 -56t43 -24l-3 -20h-95q-49 0 -74 21.5t-40 58.5l-35 81l-159 -161h-67z" />
    <glyph glyph-name="y" unicode="y" horiz-adv-x="509" 
d="M226 -65q-23 -41 -44 -67t-43 -41t-45.5 -21t-49.5 -6h-40l6 35q26 0 48.5 4.5t42 15.5t37 29.5t34.5 47.5l30 54l-110 394q-11 38 -30.5 57t-48.5 23l3 20h88q45 0 75 -21.5t41 -58.5l71 -252l178 322h53z" />
    <glyph glyph-name="z" unicode="z" horiz-adv-x="495" 
d="M515 470l-359 -425h263l-7 -45h-420l5 31l332 394h-118q-64 0 -93.5 -23t-37.5 -72h-30l10 60q3 15 9 29.5t17 25.5t29 18t44 7h356z" />
    <glyph glyph-name="braceleft" unicode="{" horiz-adv-x="312" 
d="M106 240q98 -28 98 -108q0 -32 -6 -63t-12.5 -61t-12.5 -60.5t-6 -60.5q0 -27 10.5 -42.5t34.5 -20.5l-6 -35q-44 3 -75 15.5t-50.5 31.5t-28 43.5t-8.5 52.5q0 26 5 51.5t10.5 51t10.5 50.5t5 51q0 32 -18 57t-64 31l6 32q57 8 84.5 40.5t35.5 73.5l24 140q6 34 21.5 65
t42.5 55.5t66 40.5t92 20l-6 -35q-35 -6 -52.5 -32.5t-25.5 -71.5l-30 -172q-10 -57 -44.5 -90t-100.5 -50z" />
    <glyph glyph-name="bar" unicode="|" horiz-adv-x="264" 
d="M268 680l-153 -870h-130l153 870h130z" />
    <glyph glyph-name="braceright" unicode="}" horiz-adv-x="312" 
d="M193 240q-98 28 -98 108q0 30 6 60.5t12.5 60.5t12.5 60.5t6 62.5q0 27 -10.5 43t-35.5 21l6 35q44 -3 75 -15.5t50.5 -31.5t28 -43.5t8.5 -52.5q0 -26 -5 -51.5t-10.5 -51t-10.5 -51t-5 -52.5q0 -32 18.5 -56t64.5 -30l-6 -32q-58 -8 -85.5 -40.5t-34.5 -73.5l-25 -140
q-6 -34 -21.5 -65t-42 -55.5t-65.5 -40.5t-92 -20l6 35q35 6 52.5 32.5t25.5 71.5l30 172q10 57 44.5 90t100.5 50z" />
    <glyph glyph-name="asciitilde" unicode="~" horiz-adv-x="614" 
d="M184 343q37 0 71 -12.5t65.5 -27.5t61 -27.5t58.5 -12.5q42 0 63.5 15t26.5 45h40q-14 -78 -49.5 -117t-97.5 -39q-38 0 -71.5 12.5t-65 27.5t-61 27.5t-58.5 12.5q-42 0 -63.5 -15t-27.5 -45h-40q14 78 50 117t98 39z" />
    <glyph glyph-name="uni00A0" unicode="&#xa0;" horiz-adv-x="250" 
 />
    <glyph glyph-name="exclamdown" unicode="&#xa1;" horiz-adv-x="241" 
d="M104 -194h-133l108 505h94zM207 434q0 -29 -19 -52.5t-53 -23.5q-26 0 -39 13t-13 35q0 29 20.5 51.5t52.5 22.5q25 0 38 -12.5t13 -33.5z" />
    <glyph glyph-name="cent" unicode="&#xa2;" horiz-adv-x="496" 
d="M190 -8q-88 8 -130 60t-42 128q0 55 18 105.5t51.5 90.5t81.5 67t107 35l7 42h60l-7 -41q19 -1 42.5 -3.5t43 -10.5t33 -23t13.5 -42q0 -17 -3.5 -40.5t-9.5 -54.5h-30q1 6 1 12v11q0 49 -25 75.5t-73 30.5l-70 -399q47 2 81.5 26t65.5 57l27 -23q-13 -15 -29.5 -32
t-38.5 -31.5t-50 -25.5t-64 -14l-7 -42h-60zM266 424q-34 -17 -56 -47.5t-35.5 -68t-19 -78t-5.5 -75.5q0 -86 49 -110z" />
    <glyph glyph-name="sterling" unicode="&#xa3;" horiz-adv-x="536" 
d="M134 460q11 64 37.5 104.5t61 64t72 32.5t71.5 9q21 0 48 -1.5t51.5 -9.5t41 -24.5t16.5 -46.5q0 -13 -2 -26.5t-4 -26.5h-55q-3 49 -24.5 69.5t-59.5 20.5q-19 0 -37.5 -7.5t-35 -26.5t-29.5 -50.5t-22 -80.5l-17 -95h130l-8 -45h-130l-18 -100q-12 -71 -41 -112
t-60 -63h190q60 0 93 30t44 90h30l-15 -85q-3 -15 -9 -29.5t-17 -25.5t-29 -18t-44 -7h-375l5 30q19 6 34 18t26 34t20 55.5t18 82.5l18 100h-60l8 45h60z" />
    <glyph glyph-name="currency" unicode="&#xa4;" horiz-adv-x="607" 
d="M316 330q36 1 65.5 16t50.5 40t32 58t11 69q0 28 -9.5 48.5t-24 33.5t-33 19t-36.5 6q-19 0 -34.5 -0.5t-31.5 -4.5l-50 -285h60zM481 190h-250l-33 -190h-130l33 190h-50l8 45h50l9 50h-50l8 45h50q15 82 23 129t11.5 71.5t4.5 32t1 12.5q0 25 -12 40t-45 15h-10l5 30
h275q50 0 93 -9t75 -27t50 -46t18 -67q0 -58 -27.5 -100.5t-71.5 -70.5t-99 -41.5t-109 -13.5h-60l-9 -50h250z" />
    <glyph glyph-name="yen" unicode="&#xa5;" horiz-adv-x="716" 
d="M441 345l250 315h65l-292 -369l-5 -26h86l-8 -45h-86l-7 -40h86l-8 -45h-86l-23 -135h-130l23 135h-84l8 45h84l7 40h-84l8 45h83l-129 265q-9 19 -22 38t-28 34.5t-31.5 25.5t-32.5 12l4 20h109q28 0 50.5 -10t40 -26t30.5 -35.5t22 -38.5z" />
    <glyph glyph-name="brokenbar" unicode="&#xa6;" horiz-adv-x="267" 
d="M269 680l-62 -353h-130l62 353h130zM178 163l-62 -353h-130l62 353h130z" />
    <glyph glyph-name="section" unicode="&#xa7;" horiz-adv-x="452" 
d="M322 625q-46 0 -72 -31.5t-26 -78.5q0 -38 23.5 -61.5t54.5 -45.5q19 -14 37.5 -28.5t33.5 -31.5t24.5 -37.5t9.5 -44.5q0 -29 -11.5 -54t-31 -45.5t-45.5 -37.5t-54 -29q32 -23 53.5 -53t21.5 -70t-17 -72.5t-45 -56t-65 -36t-77 -12.5q-21 0 -47.5 3.5t-49.5 13
t-38.5 27.5t-15.5 47q0 13 2.5 27.5t5.5 32.5h32v-6q0 -47 22.5 -73.5t66.5 -26.5q46 0 72.5 31.5t26.5 78.5q0 17 -6.5 31t-17 26.5t-24 24t-27.5 23.5q-16 13 -35 26.5t-35.5 30t-27.5 37.5t-11 49q0 29 12 54.5t31.5 46.5t44.5 38t52 28q-31 23 -52 52.5t-21 69.5
t16.5 72.5t45 56t65 36.5t77.5 13q22 0 48 -3.5t48.5 -13.5t38 -28t15.5 -47q0 -13 -2 -27t-5 -32h-32v3q0 48 -22 75.5t-67 27.5zM232 125q29 11 44 41.5t15 64.5q0 35 -25 62.5t-62 50.5q-28 -11 -44 -40.5t-16 -63.5q0 -36 25.5 -64t62.5 -51z" />
    <glyph glyph-name="dieresis" unicode="&#xa8;" horiz-adv-x="282" 
d="M364 758q0 -26 -19 -47t-48 -21q-23 0 -35 13t-12 33q0 26 19.5 46t47.5 20q23 0 35 -12.5t12 -31.5zM194 758q0 -26 -19 -47t-48 -21q-23 0 -35 13t-12 33q0 26 19.5 46t47.5 20q23 0 35 -12.5t12 -31.5z" />
    <glyph glyph-name="copyright" unicode="&#xa9;" horiz-adv-x="806" 
d="M475 688q71 0 129 -21.5t99 -59.5t63 -92t22 -118q0 -84 -34.5 -160.5t-94.5 -135.5t-140 -94t-170 -35q-71 0 -129 21.5t-99 59.5t-63 91.5t-22 117.5q0 84 34.5 161t94 136t139.5 94t171 35zM356 17q75 0 140.5 31t115 83t78 120.5t28.5 143.5q0 55 -17.5 101t-50 78.5
t-79 50.5t-104.5 18q-75 0 -141 -31t-115 -83.5t-77 -121t-28 -144.5q0 -55 17.5 -100.5t50 -77.5t78.5 -50t104 -18zM576 409q-1 64 -26.5 94t-82.5 30q-48 0 -82 -25t-56 -63.5t-32.5 -84.5t-10.5 -88q0 -28 6 -53t19.5 -44t34.5 -30t51 -11q86 0 161 96l22 -18
q-43 -60 -93.5 -85t-115.5 -25q-43 0 -76.5 13.5t-56 37t-34.5 56t-12 71.5q0 49 19.5 100t54.5 92t82.5 67t104.5 26q23 0 51 -3.5t52.5 -14t41 -29t16.5 -49.5q0 -13 -2 -27l-4 -28q0 -2 -0.5 -2.5t-0.5 -2.5h-31z" />
    <glyph glyph-name="ordfeminine" unicode="&#xaa;" horiz-adv-x="323" 
d="M238 522h-16q-28 0 -52.5 -17.5t-24.5 -51.5q0 -18 9 -25t20 -7q17 0 30.5 11.5t21.5 22.5zM242 401l-17 25q-11 -10 -29 -20t-46 -10q-32 0 -54.5 12.5t-22.5 42.5q0 28 14.5 46.5t36.5 29.5t49 15.5t53 4.5h16q2 12 3 21.5t1 17.5q0 31 -11 40t-24 9q-28 0 -43.5 -14
t-25.5 -38h-29q2 14 7 30.5t18 27.5q11 11 35.5 15t52.5 4q19 0 36 -3t29.5 -11t19.5 -23t7 -39q0 -4 -1 -10.5t-4 -25t-9 -53t-16 -94.5h-46z" />
    <glyph glyph-name="guillemotleft" unicode="&#xab;" horiz-adv-x="428" 
d="M326 370h64l-88 -145l37 -145h-64l-77 145zM211 30h-64l-124 195l193 195h64l-132 -194z" />
    <glyph glyph-name="logicalnot" unicode="&#xac;" horiz-adv-x="665" 
d="M504 220h-455l13 70h545l-31 -175h-90z" />
    <glyph glyph-name="uni00AD" unicode="&#xad;" horiz-adv-x="397" 
d="M65 312h279l-17 -95h-279z" />
    <glyph glyph-name="registered" unicode="&#xae;" horiz-adv-x="806" 
d="M474 685q71 0 129 -21t99 -59t63.5 -91t22.5 -117q0 -84 -34.5 -160.5t-94.5 -134.5t-140 -92.5t-170 -34.5q-71 0 -129 21t-99 59t-63 90.5t-22 116.5q0 84 34.5 160.5t94 135t139 93t170.5 34.5zM357 20q75 0 140.5 30.5t114.5 82t77.5 119.5t28.5 143
q0 55 -17.5 100.5t-50.5 77.5t-79.5 49.5t-104.5 17.5q-75 0 -140.5 -30.5t-114.5 -82t-77 -119.5t-28 -144q0 -55 17.5 -100t50 -77t79 -49.5t104.5 -17.5zM390 349q47 0 75 32t28 80q0 35 -20 50t-52 15q-8 0 -13.5 -0.5t-10.5 -0.5q-5 -1 -10 -1l-31 -173q6 -1 11 -1
q5 -1 10.5 -1h12.5zM371 320h-20l-34 -195h-88l62 352q2 10 3 18t1 15q0 29 -23 29h-18l2 16h173q31 0 59.5 -4.5t50.5 -15.5t35 -30t13 -47q0 -53 -35 -85.5t-89 -46.5l49 -110q16 -36 31.5 -55t38.5 -22l-2 -14q-1 -1 -14.5 -4t-39.5 -3q-38 0 -61 20.5t-46 73.5z" />
    <glyph glyph-name="macron" unicode="&#xaf;" horiz-adv-x="250" 
 />
    <glyph glyph-name="degree" unicode="&#xb0;" horiz-adv-x="418" 
d="M269 620q-21 0 -41 -9.5t-35 -26t-24.5 -38.5t-9.5 -47q0 -36 20.5 -57.5t53.5 -21.5q22 0 42 9.5t35 26t24 39t9 47.5q0 35 -21 56.5t-53 21.5zM279 680q72 0 108.5 -35.5t36.5 -91.5q0 -39 -14.5 -74.5t-40.5 -61.5t-63.5 -41.5t-82.5 -15.5q-72 0 -108.5 35.5
t-36.5 91.5q0 39 14.5 74.5t40.5 61.5t63.5 41.5t82.5 15.5z" />
    <glyph glyph-name="plusminus" unicode="&#xb1;" horiz-adv-x="583" 
d="M12 55l13 70h197l30 170h-197l12 70h197l34 195h90l-34 -195h197l-12 -70h-197l-30 -170h197l-13 -70h-484z" />
    <glyph glyph-name="twosuperior" unicode="&#xb2;" horiz-adv-x="319" 
d="M213 404q28 0 44 10t20 34h15l-6 -35q-2 -14 -11.5 -25t-33.5 -11h-171l4 23q43 39 76 66.5t55.5 51t34 48t11.5 58.5q0 22 -10 30t-27 8q-31 0 -52 -20.5t-35 -58.5h-16q3 17 8 38t16 32q15 15 41 25.5t56 10.5q16 0 32.5 -3t29.5 -10.5t21 -21t8 -33.5q0 -35 -16 -61
t-42 -50t-61 -48.5t-72 -57.5h81z" />
    <glyph glyph-name="threesuperior" unicode="&#xb3;" horiz-adv-x="305" 
d="M163 547q13 3 24 3.5t16 0.5q18 0 35 -4t30.5 -13t22 -23t8.5 -33q0 -32 -14.5 -53.5t-35 -34t-43 -18t-37.5 -5.5q-42 0 -64.5 14t-37.5 37l16 12q27 -36 77 -36q11 0 23 5.5t21.5 16.5t16 26.5t6.5 35.5q0 26 -15 36t-35 10q-11 0 -20.5 -1t-23.5 -5l-11 28l137 107
h-78q-51 0 -58 -43h-13l6 33q2 14 11.5 25.5t33.5 11.5h153l-3 -18z" />
    <glyph glyph-name="acute" unicode="&#xb4;" horiz-adv-x="201" 
d="M148 700h-55l67 140h119z" />
    <glyph glyph-name="mu" unicode="&#xb5;" horiz-adv-x="552" 
d="M223 -10q-30 0 -52 11t-40 34l-40 -225h-110l116 660h130l-41 -235q-9 -53 -9 -91q0 -56 18 -82.5t51 -26.5q34 0 57 19.5t39 45.5l65 370h130l-82 -470h-85l-28 45h-5q-13 -16 -31 -28q-15 -11 -36 -19t-47 -8z" />
    <glyph glyph-name="paragraph" unicode="&#xb6;" horiz-adv-x="636" 
d="M255 270q-44 0 -80.5 12t-63 33.5t-41 51.5t-14.5 66q0 49 22.5 91t59.5 72t85.5 47t100.5 17h340l-8 -45h-55l-142 -805h-120l142 805h-45l-142 -805h-120z" />
    <glyph glyph-name="periodcentered" unicode="&#xb7;" horiz-adv-x="227" 
d="M184 345q0 -29 -20 -52t-53 -23q-26 0 -38.5 12.5t-12.5 34.5q0 29 20 52t53 23q26 0 38.5 -12.5t12.5 -34.5z" />
    <glyph glyph-name="cedilla" unicode="&#xb8;" horiz-adv-x="200" 
d="M-5 0h65l-9 -50q37 0 57 -17t20 -46q0 -23 -9.5 -40t-24.5 -29t-33.5 -18t-37.5 -6h-70l8 46h50q19 0 31.5 10t14.5 27q0 12 -8.5 20t-25.5 8h-45z" />
    <glyph glyph-name="onesuperior" unicode="&#xb9;" horiz-adv-x="213" 
d="M168 377h-72l42 237l-38 -20l-12 22l79 64h54z" />
    <glyph glyph-name="ordmasculine" unicode="&#xba;" horiz-adv-x="338" 
d="M236 664q-25 0 -41.5 -25.5t-26 -60t-13.5 -69.5t-4 -54q0 -36 10.5 -49.5t26.5 -13.5q25 0 41.5 25.5t26 59.5t13.5 69t4 55q0 36 -10 49.5t-27 13.5zM240 689q55 0 78.5 -32.5t23.5 -80.5q0 -33 -9 -70t-28.5 -67.5t-49.5 -51t-72 -20.5q-55 0 -78 33t-23 82
q0 33 9 69.5t28.5 67t49.5 50.5t71 20z" />
    <glyph glyph-name="guillemotright" unicode="&#xbb;" horiz-adv-x="427" 
d="M211 225l-127 -145h-64l87 145l-36 145h64zM261 226l-62 194h64l123 -195l-192 -195h-64z" />
    <glyph glyph-name="onequarter" unicode="&#xbc;" horiz-adv-x="619" 
d="M-22 0l571 660h95l-571 -660h-95zM508 100h34l-5 -27h-34l-12 -73h-72l12 73h-145l5 24l186 207h67zM436 100l26 146l-132 -146h106zM203 377h-72l42 237l-38 -20l-12 22l79 64h54z" />
    <glyph glyph-name="onehalf" unicode="&#xbd;" horiz-adv-x="633" 
d="M-22 0l571 660h95l-571 -660h-95zM203 377h-72l42 237l-38 -20l-12 22l79 64h54zM466 27q28 0 44 10t21 34h15l-6 -35q-2 -14 -11.5 -25t-33.5 -11h-171l4 23q22 19 52 43t57.5 52.5t47 61t19.5 68.5q0 21 -9.5 29t-26.5 8q-31 0 -52 -20.5t-35 -58.5h-16q3 17 8 38
t15 32q16 15 42 25.5t56 10.5q16 0 32 -3t29 -11t21 -21t8 -33q0 -35 -20 -65.5t-49.5 -57t-62.5 -50t-59 -44.5h81z" />
    <glyph glyph-name="threequarters" unicode="&#xbe;" horiz-adv-x="627" 
d="M-3 0l571 660h95l-571 -660h-95zM517 100h34l-5 -27h-34l-12 -73h-72l12 73h-145l5 24l186 207h67zM445 100l26 146l-132 -146h106zM158 547q13 3 24 3.5t16 0.5q18 0 35 -4t30.5 -13t22 -23t8.5 -33q0 -25 -11 -45.5t-29 -35t-41.5 -22.5t-48.5 -8q-42 0 -64.5 14
t-37.5 37l16 12q27 -36 77 -36q15 0 27.5 7t21 19t13.5 27t5 31q0 26 -15 36t-35 10q-11 0 -20.5 -1t-23.5 -5l-11 28l137 107h-78q-51 0 -58 -43h-13l6 33q2 14 11.5 25.5t33.5 11.5h153l-3 -18z" />
    <glyph glyph-name="questiondown" unicode="&#xbf;" horiz-adv-x="492" 
d="M192 -167q58 0 110 43.5t89 144.5h30q-8 -44 -18.5 -85t-35.5 -66q-16 -17 -39.5 -31.5t-52 -26t-59.5 -18t-62 -6.5q-41 0 -74.5 10t-58 29.5t-38 48.5t-13.5 66q0 48 17 83.5t43.5 64.5t58 53.5t60.5 49.5t51.5 53.5t31.5 65.5h68q-14 -56 -45.5 -99t-64 -85t-57 -89.5
t-24.5 -111.5q0 -53 23 -73.5t60 -20.5zM223 406q0 29 19 52.5t53 23.5q26 0 39 -13t13 -35q0 -29 -20.5 -51.5t-52.5 -22.5q-25 0 -38 12.5t-13 33.5z" />
    <glyph glyph-name="Agrave" unicode="&#xc0;" horiz-adv-x="647" 
d="M549 126q11 -44 32 -70t54 -30l-4 -25q-8 -2 -23 -3.5t-26 -1.5q-24 0 -50.5 4.5t-50.5 18t-43.5 39t-29.5 68.5l-13 56h-266l-114 -182h-52l411 660h45zM158 227h226l-64 261zM292 840h119l17 -140h-55z" />
    <glyph glyph-name="Aacute" unicode="&#xc1;" horiz-adv-x="647" 
d="M549 126q11 -44 32 -70t54 -30l-4 -25q-8 -2 -23 -3.5t-26 -1.5q-24 0 -50.5 4.5t-50.5 18t-43.5 39t-29.5 68.5l-13 56h-266l-114 -182h-52l411 660h45zM158 227h226l-64 261zM434 700h-55l67 140h119z" />
    <glyph glyph-name="Acircumflex" unicode="&#xc2;" horiz-adv-x="647" 
d="M549 126q11 -44 32 -70t54 -30l-4 -25q-8 -2 -23 -3.5t-26 -1.5q-24 0 -50.5 4.5t-50.5 18t-43.5 39t-29.5 68.5l-13 56h-266l-114 -182h-52l411 660h45zM158 227h226l-64 261zM412 765l-99 -80h-60l102 125h130l58 -125h-60z" />
    <glyph glyph-name="Atilde" unicode="&#xc3;" horiz-adv-x="647" 
d="M549 126q11 -44 32 -70t54 -30l-4 -25q-8 -2 -23 -3.5t-26 -1.5q-24 0 -50.5 4.5t-50.5 18t-43.5 39t-29.5 68.5l-13 56h-266l-114 -182h-52l411 660h45zM158 227h226l-64 261zM288 700q11 60 33.5 80t52.5 20q17 0 28.5 -6.5t20.5 -14t17.5 -13.5t18.5 -6
q17 0 28.5 12.5t13.5 27.5h40q-11 -60 -33 -80t-52 -20q-17 0 -28.5 6t-21 13.5t-18 14t-18.5 6.5q-17 0 -28 -12.5t-14 -27.5h-40z" />
    <glyph glyph-name="Adieresis" unicode="&#xc4;" horiz-adv-x="647" 
d="M549 126q11 -44 32 -70t54 -30l-4 -25q-8 -2 -23 -3.5t-26 -1.5q-24 0 -50.5 4.5t-50.5 18t-43.5 39t-29.5 68.5l-13 56h-266l-114 -182h-52l411 660h45zM158 227h226l-64 261zM552 758q0 -26 -19 -47t-48 -21q-23 0 -35 13t-12 33q0 26 19.5 46t47.5 20q23 0 35 -12.5
t12 -31.5zM382 758q0 -26 -19 -47t-48 -21q-23 0 -35 13t-12 33q0 26 19.5 46t47.5 20q23 0 35 -12.5t12 -31.5z" />
    <glyph glyph-name="Aring" unicode="&#xc5;" horiz-adv-x="647" 
d="M501 724q0 -33 -20 -61t-52 -44l120 -493q11 -44 32 -70t54 -30l-4 -25q-8 -2 -23 -3.5t-26 -1.5q-24 0 -50.5 4.5t-50.5 18t-43.5 39t-29.5 68.5l-13 56h-266l-114 -182h-52l385 619q-14 8 -27.5 25.5t-13.5 43.5q0 22 9 42t24.5 35.5t36.5 25t44 9.5q36 0 58 -21
t22 -55zM158 227h226l-64 261zM419 660q14 8 22.5 22.5t8.5 33.5q0 18 -10 28.5t-27 10.5q-23 0 -39 -18.5t-16 -43.5q0 -20 16 -33h45z" />
    <glyph glyph-name="AE" unicode="&#xc6;" horiz-adv-x="873" 
d="M796 660q43 0 58 -17t15 -41q0 -3 -0.5 -7t-2 -14.5t-5 -31t-9.5 -54.5h-30q3 18 3 33q0 46 -27.5 66.5t-79.5 20.5h-161l-44 -250h260l-8 -45h-260l-49 -275h171q55 0 98 24.5t81 89.5l25 -10l-43 -79q-17 -32 -37.5 -51t-61.5 -19h-240h-130l33 190h-218l-140 -190h-60
l486 660h376zM360 235l61 344l-254 -344h193z" />
    <glyph glyph-name="Ccedilla" unicode="&#xc7;" horiz-adv-x="680" 
d="M630 447q-2 91 -44.5 139.5t-125.5 48.5q-75 0 -129 -38t-88 -97.5t-50 -130.5t-16 -137q0 -44 9.5 -81.5t30.5 -65.5t54.5 -44t81.5 -16q69 0 134.5 36.5t113.5 106.5l30 -27q-59 -80 -129 -118.5t-167 -41.5l-5 -31q37 0 57 -17t20 -46q0 -42 -31 -67.5t-74 -25.5h-70
l8 46h50q19 0 31.5 10t14.5 27q0 12 -8.5 20t-25.5 8h-45l14 78q-57 6 -101 28t-73 56.5t-44 80t-15 98.5q0 77 29.5 154.5t83 139.5t127 101t160.5 39q31 0 71.5 -5t76.5 -19.5t61 -41t25 -69.5q0 -23 -3.5 -47.5t-8.5 -50.5h-30z" />
    <glyph glyph-name="Egrave" unicode="&#xc8;" horiz-adv-x="602" 
d="M525 660q43 0 58 -17t15 -41q0 -3 -0.5 -7t-2 -14.5t-5 -31t-9.5 -54.5h-30q3 18 3 33q0 46 -27.5 66.5t-79.5 20.5h-161l-44 -250h260l-8 -45h-260l-49 -275h171q55 0 98 24.5t81 89.5l25 -10l-43 -79q-17 -32 -37.5 -51t-61.5 -19h-240h-130q24 137 40.5 231.5
l27.5 157.5t17 98.5t9 54t3.5 24.5t0.5 9q0 26 -12.5 40.5t-44.5 14.5h-10l5 30h441zM292 840h119l17 -140h-55z" />
    <glyph glyph-name="Eacute" unicode="&#xc9;" horiz-adv-x="602" 
d="M525 660q43 0 58 -17t15 -41q0 -3 -0.5 -7t-2 -14.5t-5 -31t-9.5 -54.5h-30q3 18 3 33q0 46 -27.5 66.5t-79.5 20.5h-161l-44 -250h260l-8 -45h-260l-49 -275h171q55 0 98 24.5t81 89.5l25 -10l-43 -79q-17 -32 -37.5 -51t-61.5 -19h-240h-130q24 137 40.5 231.5
l27.5 157.5t17 98.5t9 54t3.5 24.5t0.5 9q0 26 -12.5 40.5t-44.5 14.5h-10l5 30h441zM412 700h-55l67 140h119z" />
    <glyph glyph-name="Ecircumflex" unicode="&#xca;" horiz-adv-x="602" 
d="M525 660q43 0 58 -17t15 -41q0 -3 -0.5 -7t-2 -14.5t-5 -31t-9.5 -54.5h-30q3 18 3 33q0 46 -27.5 66.5t-79.5 20.5h-161l-44 -250h260l-8 -45h-260l-49 -275h171q55 0 98 24.5t81 89.5l25 -10l-43 -79q-17 -32 -37.5 -51t-61.5 -19h-240h-130q24 137 40.5 231.5
l27.5 157.5t17 98.5t9 54t3.5 24.5t0.5 9q0 26 -12.5 40.5t-44.5 14.5h-10l5 30h441zM400 802l-99 -80h-60l102 125h130l58 -125h-60z" />
    <glyph glyph-name="Edieresis" unicode="&#xcb;" horiz-adv-x="602" 
d="M525 660q43 0 58 -17t15 -41q0 -3 -0.5 -7t-2 -14.5t-5 -31t-9.5 -54.5h-30q3 18 3 33q0 46 -27.5 66.5t-79.5 20.5h-161l-44 -250h260l-8 -45h-260l-49 -275h171q55 0 98 24.5t81 89.5l25 -10l-43 -79q-17 -32 -37.5 -51t-61.5 -19h-240h-130q24 137 40.5 231.5
l27.5 157.5t17 98.5t9 54t3.5 24.5t0.5 9q0 26 -12.5 40.5t-44.5 14.5h-10l5 30h441zM360 796q0 -26 -19.5 -46t-47.5 -20q-23 0 -35 12.5t-12 31.5q0 26 19 47t48 21q23 0 35 -13t12 -33zM540 796q0 -26 -19.5 -46t-47.5 -20q-23 0 -35 12.5t-12 31.5q0 26 19 47t48 21
q23 0 35 -13t12 -33z" />
    <glyph glyph-name="Igrave" unicode="&#xcc;" horiz-adv-x="307" 
d="M148 660h130l-94 -530q-2 -12 -3 -22.5t-1 -20.5q0 -26 12 -41.5t45 -15.5h10l-5 -30h-120q-40 0 -57 15t-17 54q0 25 6 61zM122 840h119l17 -140h-55z" />
    <glyph glyph-name="Iacute" unicode="&#xcd;" horiz-adv-x="307" 
d="M148 660h130l-94 -530q-2 -12 -3 -22.5t-1 -20.5q0 -26 12 -41.5t45 -15.5h10l-5 -30h-120q-40 0 -57 15t-17 54q0 25 6 61zM243 700h-55l67 140h119z" />
    <glyph glyph-name="Icircumflex" unicode="&#xce;" horiz-adv-x="307" 
d="M148 660h130l-94 -530q-2 -12 -3 -22.5t-1 -20.5q0 -26 12 -41.5t45 -15.5h10l-5 -30h-120q-40 0 -57 15t-17 54q0 25 6 61zM232 765l-99 -80h-60l102 125h130l58 -125h-60z" />
    <glyph glyph-name="Idieresis" unicode="&#xcf;" horiz-adv-x="307" 
d="M148 660h130l-94 -530q-2 -12 -3 -22.5t-1 -20.5q0 -26 12 -41.5t45 -15.5h10l-5 -30h-120q-40 0 -57 15t-17 54q0 25 6 61zM374 783q0 -26 -19 -47t-48 -21q-23 0 -35 13t-12 33q0 26 19.5 46t47.5 20q23 0 35 -12.5t12 -31.5zM204 783q0 -26 -19 -47t-48 -21
q-23 0 -35 13t-12 33q0 26 19.5 46t47.5 20q23 0 35 -12.5t12 -31.5z" />
    <glyph glyph-name="Eth" unicode="&#xd0;" horiz-adv-x="737" 
d="M356 660q181 0 271 -68.5t90 -189.5q0 -90 -35 -164.5t-96 -127t-143.5 -81.5t-176.5 -29h-88h-130l53 305h-70l9 50h70q13 72 20 113.5t10.5 63.5t4.5 30t1 13q0 26 -12.5 40.5t-44.5 14.5h-10l5 30h272zM362 620q-15 0 -28.5 -1t-24.5 -3q-12 -2 -23 -3l-46 -258h75
l-9 -50h-75l-45 -258q10 -2 22 -4q10 -2 23.5 -2.5t28.5 -0.5h10q69 0 124 32.5t94 84t59.5 116.5t20.5 130q0 100 -52.5 158.5t-145.5 58.5h-8z" />
    <glyph glyph-name="Ntilde" unicode="&#xd1;" horiz-adv-x="695" 
d="M556 200l81 460h50l-117 -663h-46l-336 498l-87 -495h-50q24 137 41 232t27.5 157t16.5 97t9 52t3.5 21.5t0.5 6.5q0 28 -17 46t-60 18h-5l5 30h70q57 0 89.5 -15t50.5 -45zM311 694q11 60 33.5 80t52.5 20q17 0 28.5 -6.5t20.5 -14t17.5 -13.5t18.5 -6q17 0 28.5 12.5
t13.5 27.5h40q-11 -60 -33 -80t-52 -20q-17 0 -28.5 6t-21 13.5t-18 14t-18.5 6.5q-17 0 -28 -12.5t-14 -27.5h-40z" />
    <glyph glyph-name="Ograve" unicode="&#xd2;" horiz-adv-x="735" 
d="M323 25q47 0 84 20t65.5 53t48.5 75.5t32.5 88.5t18.5 91.5t6 84.5q0 95 -38 146t-110 51q-46 0 -83 -20t-65.5 -53.5t-48.5 -76.5t-32.5 -89t-18.5 -91.5t-6 -83.5q0 -94 37.5 -145t109.5 -51zM40 256q0 78 29 154t81.5 136t126 97t161.5 37q65 0 116 -20.5t86.5 -57
t54 -87.5t18.5 -111q0 -78 -29 -154t-81.5 -136t-126 -97t-161.5 -37q-65 0 -116 20.5t-86.5 57t-54 87.5t-18.5 111zM342 864h119l17 -140h-55z" />
    <glyph glyph-name="Oacute" unicode="&#xd3;" horiz-adv-x="735" 
d="M323 25q47 0 84 20t65.5 53t48.5 75.5t32.5 88.5t18.5 91.5t6 84.5q0 95 -38 146t-110 51q-46 0 -83 -20t-65.5 -53.5t-48.5 -76.5t-32.5 -89t-18.5 -91.5t-6 -83.5q0 -94 37.5 -145t109.5 -51zM40 256q0 78 29 154t81.5 136t126 97t161.5 37q65 0 116 -20.5t86.5 -57
t54 -87.5t18.5 -111q0 -78 -29 -154t-81.5 -136t-126 -97t-161.5 -37q-65 0 -116 20.5t-86.5 57t-54 87.5t-18.5 111zM472 724h-55l67 140h119z" />
    <glyph glyph-name="Ocircumflex" unicode="&#xd4;" horiz-adv-x="735" 
d="M323 25q47 0 84 20t65.5 53t48.5 75.5t32.5 88.5t18.5 91.5t6 84.5q0 95 -38 146t-110 51q-46 0 -83 -20t-65.5 -53.5t-48.5 -76.5t-32.5 -89t-18.5 -91.5t-6 -83.5q0 -94 37.5 -145t109.5 -51zM40 256q0 78 29 154t81.5 136t126 97t161.5 37q65 0 116 -20.5t86.5 -57
t54 -87.5t18.5 -111q0 -78 -29 -154t-81.5 -136t-126 -97t-161.5 -37q-65 0 -116 20.5t-86.5 57t-54 87.5t-18.5 111zM466 810l-99 -80h-60l102 125h130l58 -125h-60z" />
    <glyph glyph-name="Otilde" unicode="&#xd5;" horiz-adv-x="735" 
d="M323 25q47 0 84 20t65.5 53t48.5 75.5t32.5 88.5t18.5 91.5t6 84.5q0 95 -38 146t-110 51q-46 0 -83 -20t-65.5 -53.5t-48.5 -76.5t-32.5 -89t-18.5 -91.5t-6 -83.5q0 -94 37.5 -145t109.5 -51zM40 256q0 78 29 154t81.5 136t126 97t161.5 37q65 0 116 -20.5t86.5 -57
t54 -87.5t18.5 -111q0 -78 -29 -154t-81.5 -136t-126 -97t-161.5 -37q-65 0 -116 20.5t-86.5 57t-54 87.5t-18.5 111zM331 738q11 60 33.5 80t52.5 20q17 0 28.5 -6.5t20.5 -14t17.5 -13.5t18.5 -6q17 0 28.5 12.5t13.5 27.5h40q-11 -60 -33 -80t-52 -20q-17 0 -28.5 6
t-21 13.5t-18 14t-18.5 6.5q-17 0 -28 -12.5t-14 -27.5h-40z" />
    <glyph glyph-name="Odieresis" unicode="&#xd6;" horiz-adv-x="735" 
d="M323 25q47 0 84 20t65.5 53t48.5 75.5t32.5 88.5t18.5 91.5t6 84.5q0 95 -38 146t-110 51q-46 0 -83 -20t-65.5 -53.5t-48.5 -76.5t-32.5 -89t-18.5 -91.5t-6 -83.5q0 -94 37.5 -145t109.5 -51zM40 256q0 78 29 154t81.5 136t126 97t161.5 37q65 0 116 -20.5t86.5 -57
t54 -87.5t18.5 -111q0 -78 -29 -154t-81.5 -136t-126 -97t-161.5 -37q-65 0 -116 20.5t-86.5 57t-54 87.5t-18.5 111zM425 801q0 -26 -19.5 -46t-47.5 -20q-23 0 -35 12.5t-12 31.5q0 26 19 47t48 21q23 0 35 -13t12 -33zM605 801q0 -26 -19.5 -46t-47.5 -20q-23 0 -35 12.5
t-12 31.5q0 26 19 47t48 21q23 0 35 -13t12 -33z" />
    <glyph glyph-name="multiply" unicode="&#xd7;" horiz-adv-x="490" 
d="M244 271l-164 -139l-52 63l163 139l-113 138l75 64l114 -138l163 139l53 -63l-165 -140l114 -138l-75 -63z" />
    <glyph glyph-name="Oslash" unicode="&#xd8;" horiz-adv-x="734" 
d="M55 -20l58 76q-36 36 -54.5 86.5t-18.5 111.5q0 78 29 154.5t81.5 136.5t125.5 97.5t162 37.5q78 0 138 -31l23 31h92l-56 -73q38 -37 57.5 -89t19.5 -115q0 -78 -29 -153.5t-81.5 -135.5t-125.5 -97t-161 -37q-42 0 -77.5 8.5t-64.5 24.5l-26 -33h-92zM323 25
q47 0 84 20t65.5 53t48.5 76t32.5 88.5t18.5 91t6 84.5q0 48 -9 84l-352 -452q37 -45 106 -45zM430 635q-47 0 -84 -20t-65 -53.5t-48 -77t-32.5 -90t-18.5 -92.5t-6 -84q0 -20 2 -38t5 -35l349 448q-39 42 -102 42z" />
    <glyph glyph-name="Ugrave" unicode="&#xd9;" horiz-adv-x="697" 
d="M268 530q-13 -76 -22 -130t-15 -91.5t-10 -61t-5.5 -37.5t-2 -22t-0.5 -14q0 -69 28 -106.5t91 -37.5q55 0 96.5 15.5t71.5 47t49 80t31 115.5l66 372h50l-66 -372q-12 -71 -35 -126t-60.5 -93.5t-92 -58.5t-129.5 -20q-118 0 -172.5 51t-54.5 154q0 10 1 25t6.5 49.5
t16 95.5t28.5 165q5 28 5 45q0 26 -12.5 40.5t-44.5 14.5l5 30h110q39 0 56.5 -14.5t17.5 -52.5q0 -28 -7 -63zM359 820h119l17 -140h-55z" />
    <glyph glyph-name="Uacute" unicode="&#xda;" horiz-adv-x="697" 
d="M268 530q-13 -76 -22 -130t-15 -91.5t-10 -61t-5.5 -37.5t-2 -22t-0.5 -14q0 -69 28 -106.5t91 -37.5q55 0 96.5 15.5t71.5 47t49 80t31 115.5l66 372h50l-66 -372q-12 -71 -35 -126t-60.5 -93.5t-92 -58.5t-129.5 -20q-118 0 -172.5 51t-54.5 154q0 10 1 25t6.5 49.5
t16 95.5t28.5 165q5 28 5 45q0 26 -12.5 40.5t-44.5 14.5l5 30h110q39 0 56.5 -14.5t17.5 -52.5q0 -28 -7 -63zM464 681h-55l67 140h119z" />
    <glyph glyph-name="Ucircumflex" unicode="&#xdb;" horiz-adv-x="697" 
d="M268 530q-13 -76 -22 -130t-15 -91.5t-10 -61t-5.5 -37.5t-2 -22t-0.5 -14q0 -69 28 -106.5t91 -37.5q55 0 96.5 15.5t71.5 47t49 80t31 115.5l66 372h50l-66 -372q-12 -71 -35 -126t-60.5 -93.5t-92 -58.5t-129.5 -20q-118 0 -172.5 51t-54.5 154q0 10 1 25t6.5 49.5
t16 95.5t28.5 165q5 28 5 45q0 26 -12.5 40.5t-44.5 14.5l5 30h110q39 0 56.5 -14.5t17.5 -52.5q0 -28 -7 -63zM474 761l-99 -80h-60l102 125h130l58 -125h-60z" />
    <glyph glyph-name="Udieresis" unicode="&#xdc;" horiz-adv-x="697" 
d="M268 530q-13 -76 -22 -130t-15 -91.5t-10 -61t-5.5 -37.5t-2 -22t-0.5 -14q0 -69 28 -106.5t91 -37.5q55 0 96.5 15.5t71.5 47t49 80t31 115.5l66 372h50l-66 -372q-12 -71 -35 -126t-60.5 -93.5t-92 -58.5t-129.5 -20q-118 0 -172.5 51t-54.5 154q0 10 1 25t6.5 49.5
t16 95.5t28.5 165q5 28 5 45q0 26 -12.5 40.5t-44.5 14.5l5 30h110q39 0 56.5 -14.5t17.5 -52.5q0 -28 -7 -63zM430 746q0 -26 -19.5 -46t-47.5 -20q-23 0 -35 12.5t-12 31.5q0 26 19 47t48 21q23 0 35 -13t12 -33zM610 746q0 -26 -19.5 -46t-47.5 -20q-23 0 -35 12.5
t-12 31.5q0 26 19 47t48 21q23 0 35 -13t12 -33z" />
    <glyph glyph-name="Yacute" unicode="&#xdd;" horiz-adv-x="639" 
d="M385 345l250 315h65l-292 -369l-51 -291h-130l46 264l-130 266q-9 19 -22 38t-28 34.5t-31.5 25.5t-32.5 12l4 20h109q28 0 50.5 -10t40 -26t30.5 -35.5t22 -38.5zM438 671h-55l67 140h119z" />
    <glyph glyph-name="Thorn" unicode="&#xde;" horiz-adv-x="557" 
d="M277 550q273 -6 273 -187q0 -75 -29 -127t-77.5 -85.5t-113 -50t-135.5 -20.5l-20 -110h-130q27 152 45.5 257t30.5 174.5t18.5 109t10 59t4 26t0.5 9.5q0 26 -12.5 40.5t-44.5 14.5h-10l5 30h120q39 0 56.5 -14.5t17.5 -52.5q0 -13 -2 -30t-7 -43zM203 125q48 4 86 23
t65 50.5t41.5 73t14.5 91.5q0 62 -34 99t-107 42z" />
    <glyph glyph-name="germandbls" unicode="&#xdf;" horiz-adv-x="574" 
d="M246 328q0 27 10.5 48.5t26.5 39.5t35 34.5t35 34.5t26.5 38t10.5 46q0 28 -16 42t-42 14q-34 0 -61.5 -27t-40.5 -98l-88 -500h-130l88 500q9 52 31 85.5t54 52t72.5 25.5t87.5 7q91 0 132 -23.5t41 -62.5q0 -31 -12 -54t-30 -41.5t-39 -33.5t-39 -30t-30 -31.5
t-12 -37.5q0 -23 13 -40t32 -32t42 -28.5t42 -30t32 -37t13 -48.5q0 -37 -18.5 -65t-47 -47t-64.5 -28.5t-70 -9.5q-21 0 -44 3.5t-42.5 13.5t-32.5 27t-13 43q0 12 1.5 23t3.5 20h30v-4q0 -15 5 -29.5t15.5 -26t26.5 -18.5t38 -7q32 0 57 22t25 59q0 22 -11.5 39t-28.5 32
t-37 28.5t-37 29.5t-28.5 36t-11.5 47z" />
    <glyph glyph-name="agrave" unicode="&#xe0;" 
d="M296 435q-26 0 -46.5 -16t-36 -41t-26.5 -57t-18 -64.5t-10 -62t-3 -50.5q0 -48 16 -78.5t54 -30.5q23 0 41 10t32 22q16 14 28 33l48 270q-6 18 -17 32q-9 12 -24 22.5t-38 10.5zM284 480q30 0 50 -8.5t32 -19.5q14 -12 23 -27h5l43 45h85l-65 -370l-17 -100h-85l-28 45
h-5q-14 -16 -32 -28q-16 -11 -39 -19t-53 -8q-45 0 -77.5 14t-54 38t-32 57t-10.5 71q0 52 17.5 107t50.5 100t81.5 74t110.5 29zM218 665h119l17 -140h-55z" />
    <glyph glyph-name="aacute" unicode="&#xe1;" 
d="M296 435q-26 0 -46.5 -16t-36 -41t-26.5 -57t-18 -64.5t-10 -62t-3 -50.5q0 -48 16 -78.5t54 -30.5q23 0 41 10t32 22q16 14 28 33l48 270q-6 18 -17 32q-9 12 -24 22.5t-38 10.5zM284 480q30 0 50 -8.5t32 -19.5q14 -12 23 -27h5l43 45h85l-65 -370l-17 -100h-85l-28 45
h-5q-14 -16 -32 -28q-16 -11 -39 -19t-53 -8q-45 0 -77.5 14t-54 38t-32 57t-10.5 71q0 52 17.5 107t50.5 100t81.5 74t110.5 29zM345 526h-55l67 140h119z" />
    <glyph glyph-name="acircumflex" unicode="&#xe2;" 
d="M296 435q-26 0 -46.5 -16t-36 -41t-26.5 -57t-18 -64.5t-10 -62t-3 -50.5q0 -48 16 -78.5t54 -30.5q23 0 41 10t32 22q16 14 28 33l48 270q-6 18 -17 32q-9 12 -24 22.5t-38 10.5zM284 480q30 0 50 -8.5t32 -19.5q14 -12 23 -27h5l43 45h85l-65 -370l-17 -100h-85l-28 45
h-5q-14 -16 -32 -28q-16 -11 -39 -19t-53 -8q-45 0 -77.5 14t-54 38t-32 57t-10.5 71q0 52 17.5 107t50.5 100t81.5 74t110.5 29zM333 611l-99 -80h-60l102 125h130l58 -125h-60z" />
    <glyph glyph-name="atilde" unicode="&#xe3;" 
d="M296 435q-26 0 -46.5 -16t-36 -41t-26.5 -57t-18 -64.5t-10 -62t-3 -50.5q0 -48 16 -78.5t54 -30.5q23 0 41 10t32 22q16 14 28 33l48 270q-6 18 -17 32q-9 12 -24 22.5t-38 10.5zM284 480q30 0 50 -8.5t32 -19.5q14 -12 23 -27h5l43 45h85l-65 -370l-17 -100h-85l-28 45
h-5q-14 -16 -32 -28q-16 -11 -39 -19t-53 -8q-45 0 -77.5 14t-54 38t-32 57t-10.5 71q0 52 17.5 107t50.5 100t81.5 74t110.5 29zM218 536q11 60 33.5 80t52.5 20q17 0 28.5 -6.5t20.5 -14t17.5 -13.5t18.5 -6q17 0 28.5 12.5t13.5 27.5h40q-11 -60 -33 -80t-52 -20
q-17 0 -28.5 6t-21 13.5t-18 14t-18.5 6.5q-17 0 -28 -12.5t-14 -27.5h-40z" />
    <glyph glyph-name="adieresis" unicode="&#xe4;" 
d="M296 435q-26 0 -46.5 -16t-36 -41t-26.5 -57t-18 -64.5t-10 -62t-3 -50.5q0 -48 16 -78.5t54 -30.5q23 0 41 10t32 22q16 14 28 33l48 270q-6 18 -17 32q-9 12 -24 22.5t-38 10.5zM284 480q30 0 50 -8.5t32 -19.5q14 -12 23 -27h5l43 45h85l-65 -370l-17 -100h-85l-28 45
h-5q-14 -16 -32 -28q-16 -11 -39 -19t-53 -8q-45 0 -77.5 14t-54 38t-32 57t-10.5 71q0 52 17.5 107t50.5 100t81.5 74t110.5 29zM296 601q0 -26 -19.5 -46t-47.5 -20q-23 0 -35 12.5t-12 31.5q0 26 19 47t48 21q23 0 35 -13t12 -33zM476 601q0 -26 -19.5 -46t-47.5 -20
q-23 0 -35 12.5t-12 31.5q0 26 19 47t48 21q23 0 35 -13t12 -33z" />
    <glyph glyph-name="aring" unicode="&#xe5;" 
d="M296 435q-26 0 -46.5 -16t-36 -41t-26.5 -57t-18 -64.5t-10 -62t-3 -50.5q0 -48 16 -78.5t54 -30.5q23 0 41 10t32 22q16 14 28 33l48 270q-6 18 -17 32q-9 12 -24 22.5t-38 10.5zM284 480q30 0 50 -8.5t32 -19.5q14 -12 23 -27h5l43 45h85l-65 -370l-17 -100h-85l-28 45
h-5q-14 -16 -32 -28q-16 -11 -39 -19t-53 -8q-45 0 -77.5 14t-54 38t-32 57t-10.5 71q0 52 17.5 107t50.5 100t81.5 74t110.5 29zM251 596q0 22 9 42.5t24 36.5t36 25.5t45 9.5q36 0 58 -21t22 -55q0 -22 -9 -42.5t-24 -36.5t-36 -25.5t-45 -9.5q-36 0 -58 21t-22 55z
M339 565q23 0 39 18t16 43q0 18 -10 28.5t-27 10.5q-23 0 -39 -18t-16 -43q0 -18 10 -28.5t27 -10.5z" />
    <glyph glyph-name="ae" unicode="&#xe6;" horiz-adv-x="792" 
d="M560 255q40 0 60.5 30t20.5 72q0 39 -18 58.5t-41 19.5q-19 0 -38 -10t-36 -31.5t-30.5 -55.5t-22.5 -83h105zM309 217h-15q-30 0 -58.5 -4.5t-51 -17.5t-36 -36t-13.5 -59q0 -26 13.5 -43t39.5 -17q24 0 43 10t32 22q15 14 26 33zM448 210l-1 -3q-6 -35 -6 -62
q0 -59 23.5 -84.5t62.5 -25.5q52 0 88.5 24t68.5 59l27 -23q-14 -17 -32.5 -35.5t-43.5 -34t-57.5 -25.5t-73.5 -10q-111 0 -154 90q-12 -17 -30 -33t-42 -29t-53.5 -20.5t-65.5 -7.5q-81 0 -120 29.5t-39 77.5q0 54 29.5 86.5t74.5 50t98 23t100 5.5h15q7 38 7 72
q0 53 -19.5 77t-57.5 24q-17 0 -33 -3.5t-31 -13.5t-28 -27.5t-24 -45.5h-55q5 26 13 53t30 47q11 10 27 16.5t35 10.5t38 6t36 2q64 0 104 -24.5t55 -66.5q37 46 82.5 68.5t93.5 22.5q88 0 134.5 -33.5t46.5 -90.5q0 -45 -18.5 -73t-49 -44.5t-69.5 -22.5t-81 -6h-105z" />
    <glyph glyph-name="ccedilla" unicode="&#xe7;" horiz-adv-x="498" 
d="M320 435q-45 0 -76 -29.5t-50.5 -72.5t-28 -91t-8.5 -85q0 -122 98 -122q52 0 88.5 24t68.5 59l27 -23q-13 -16 -30.5 -33.5t-40.5 -32.5t-53 -25.5t-69 -12.5l-4 -23q34 0 54 -16.5t20 -45.5q0 -19 -8 -36t-21.5 -30t-32 -20.5t-40.5 -7.5h-60l8 46h40q19 0 31.5 10
t14.5 27q0 12 -8.5 20t-25.5 8h-39l12 70q-83 11 -122.5 62t-39.5 125q0 57 20.5 111t58.5 96t91 67.5t118 25.5q21 0 49 -1.5t53 -9t42.5 -23.5t17.5 -46q0 -17 -3.5 -40.5t-9.5 -54.5h-30q1 6 1 12v12q0 53 -29.5 79.5t-83.5 26.5z" />
    <glyph glyph-name="egrave" unicode="&#xe8;" horiz-adv-x="508" 
d="M272 245q20 0 35.5 11t26 28t16 37.5t5.5 40.5q0 38 -18.5 55.5t-41.5 17.5q-21 0 -40 -9.5t-35.5 -32t-30 -58.5t-22.5 -90h105zM490 358q0 -43 -20 -73t-52.5 -49t-73 -27.5t-80.5 -8.5h-105q-6 -32 -6 -56q0 -55 23.5 -82t63.5 -27q52 0 88.5 24t68.5 59l27 -23
q-14 -17 -32.5 -35.5t-43.5 -34t-57.5 -25.5t-73.5 -10q-46 0 -81.5 14t-60 39.5t-37.5 61t-13 77.5q0 57 19.5 110.5t55.5 95t87.5 67t115.5 25.5q89 0 138 -32.5t49 -89.5zM194 665h119l17 -140h-55z" />
    <glyph glyph-name="eacute" unicode="&#xe9;" horiz-adv-x="508" 
d="M272 245q20 0 35.5 11t26 28t16 37.5t5.5 40.5q0 38 -18.5 55.5t-41.5 17.5q-21 0 -40 -9.5t-35.5 -32t-30 -58.5t-22.5 -90h105zM490 358q0 -43 -20 -73t-52.5 -49t-73 -27.5t-80.5 -8.5h-105q-6 -32 -6 -56q0 -55 23.5 -82t63.5 -27q52 0 88.5 24t68.5 59l27 -23
q-14 -17 -32.5 -35.5t-43.5 -34t-57.5 -25.5t-73.5 -10q-46 0 -81.5 14t-60 39.5t-37.5 61t-13 77.5q0 57 19.5 110.5t55.5 95t87.5 67t115.5 25.5q89 0 138 -32.5t49 -89.5zM329 526h-55l67 140h119z" />
    <glyph glyph-name="ecircumflex" unicode="&#xea;" horiz-adv-x="508" 
d="M272 245q20 0 35.5 11t26 28t16 37.5t5.5 40.5q0 38 -18.5 55.5t-41.5 17.5q-21 0 -40 -9.5t-35.5 -32t-30 -58.5t-22.5 -90h105zM490 358q0 -43 -20 -73t-52.5 -49t-73 -27.5t-80.5 -8.5h-105q-6 -32 -6 -56q0 -55 23.5 -82t63.5 -27q52 0 88.5 24t68.5 59l27 -23
q-14 -17 -32.5 -35.5t-43.5 -34t-57.5 -25.5t-73.5 -10q-46 0 -81.5 14t-60 39.5t-37.5 61t-13 77.5q0 57 19.5 110.5t55.5 95t87.5 67t115.5 25.5q89 0 138 -32.5t49 -89.5zM331 606l-99 -80h-60l102 125h130l58 -125h-60z" />
    <glyph glyph-name="edieresis" unicode="&#xeb;" horiz-adv-x="508" 
d="M272 245q20 0 35.5 11t26 28t16 37.5t5.5 40.5q0 38 -18.5 55.5t-41.5 17.5q-21 0 -40 -9.5t-35.5 -32t-30 -58.5t-22.5 -90h105zM490 358q0 -43 -20 -73t-52.5 -49t-73 -27.5t-80.5 -8.5h-105q-6 -32 -6 -56q0 -55 23.5 -82t63.5 -27q52 0 88.5 24t68.5 59l27 -23
q-14 -17 -32.5 -35.5t-43.5 -34t-57.5 -25.5t-73.5 -10q-46 0 -81.5 14t-60 39.5t-37.5 61t-13 77.5q0 57 19.5 110.5t55.5 95t87.5 67t115.5 25.5q89 0 138 -32.5t49 -89.5zM285 601q0 -26 -19.5 -46t-47.5 -20q-23 0 -35 12.5t-12 31.5q0 26 19 47t48 21q23 0 35 -13
t12 -33zM465 601q0 -26 -19.5 -46t-47.5 -20q-23 0 -35 12.5t-12 31.5q0 26 19 47t48 21q23 0 35 -13t12 -33z" />
    <glyph glyph-name="igrave" unicode="&#xec;" horiz-adv-x="271" 
d="M33 0q15 89 26 151.5t18 104t11 66t6 37.5t2.5 18t0.5 8q0 26 -12.5 40.5t-44.5 14.5h-10l5 30h120q39 0 56.5 -14.5t17.5 -52.5q0 -4 -0.5 -10.5t-2.5 -20.5t-6.5 -40t-11.5 -69t-18 -107.5t-27 -155.5h-130zM81 665h119l17 -140h-55z" />
    <glyph glyph-name="iacute" unicode="&#xed;" horiz-adv-x="271" 
d="M33 0q15 89 26 151.5t18 104t11 66t6 37.5t2.5 18t0.5 8q0 26 -12.5 40.5t-44.5 14.5h-10l5 30h120q39 0 56.5 -14.5t17.5 -52.5q0 -4 -0.5 -10.5t-2.5 -20.5t-6.5 -40t-11.5 -69t-18 -107.5t-27 -155.5h-130zM196 526h-55l67 140h119z" />
    <glyph glyph-name="icircumflex" unicode="&#xee;" horiz-adv-x="271" 
d="M33 0q15 89 26 151.5t18 104t11 66t6 37.5t2.5 18t0.5 8q0 26 -12.5 40.5t-44.5 14.5h-10l5 30h120q39 0 56.5 -14.5t17.5 -52.5q0 -4 -0.5 -10.5t-2.5 -20.5t-6.5 -40t-11.5 -69t-18 -107.5t-27 -155.5h-130zM196 612l-99 -80h-60l102 125h130l58 -125h-60z" />
    <glyph glyph-name="idieresis" unicode="&#xef;" horiz-adv-x="271" 
d="M178 606q0 -27 -17.5 -49.5t-48.5 -22.5q-32 0 -47.5 17.5t-15.5 42.5q0 27 17.5 49.5t48.5 22.5q32 0 47.5 -17.5t15.5 -42.5zM363 606q0 -27 -17.5 -49.5t-48.5 -22.5q-32 0 -47.5 17.5t-15.5 42.5q0 27 17.5 49.5t48.5 22.5q32 0 47.5 -17.5t15.5 -42.5zM33 0
q15 89 26 151.5t18 104t11 66t6 37.5t2.5 18t0.5 8q0 26 -12.5 40.5t-44.5 14.5h-10l5 30h120q39 0 56.5 -14.5t17.5 -52.5q0 -4 -0.5 -10.5t-2.5 -20.5t-6.5 -40t-11.5 -69t-18 -107.5t-27 -155.5h-130z" />
    <glyph glyph-name="eth" unicode="&#xf0;" horiz-adv-x="558" 
d="M428 400q-2 51 -11 88.5t-28 66.5l-55 -47l-33 40l55 47q-17 20 -43.5 25t-54.5 5q-11 0 -21 -1.5t-18 -3.5q-9 -2 -16 -4l-8 32q20 11 46 16.5t45 5.5q43 0 71 -9.5t50 -26.5l51 46l34 -38l-50 -42q37 -38 59.5 -98t22.5 -138q0 -64 -17 -130.5t-53 -120.5t-92.5 -88.5
t-135.5 -34.5q-52 0 -90 14.5t-63 40t-37 60t-12 75.5q0 55 19.5 109t56 96.5t88 68.5t114.5 26q49 0 81.5 -21t44.5 -59zM234 35q39 0 67 30.5t46 74t26 90t8 78.5q0 26 -4 49t-13.5 40.5t-24 27.5t-35.5 10q-39 0 -67 -31t-46 -74.5t-26 -90.5t-8 -79q0 -63 22 -94t55 -31
z" />
    <glyph glyph-name="ntilde" unicode="&#xf1;" horiz-adv-x="577" 
d="M322 430q-32 0 -57 -9t-40 -22q3 -29 -2 -53l-61 -346h-130l59 340q5 28 5 47q0 25 -12 39t-44 14h-10l5 30h99q34 0 52 -8.5t26 -28.5q20 17 56.5 32t97.5 15q81 0 122 -31.5t41 -100.5q0 -12 -1.5 -25t-3.5 -27l-52 -296h-130l52 297q4 23 4 46q0 48 -21 67.5t-55 19.5
zM225 544q11 60 33.5 80t52.5 20q17 0 28.5 -6.5t20.5 -14t17.5 -13.5t18.5 -6q17 0 28.5 12.5t13.5 27.5h40q-11 -60 -33 -80t-52 -20q-17 0 -28.5 6t-21 13.5t-18 14t-18.5 6.5q-17 0 -28 -12.5t-14 -27.5h-40z" />
    <glyph glyph-name="ograve" unicode="&#xf2;" horiz-adv-x="553" 
d="M234 35q41 0 69 31t45.5 74.5t25 91.5t7.5 81q0 56 -18.5 89t-58.5 33q-41 0 -69 -31t-45.5 -74.5t-25 -91.5t-7.5 -81q0 -56 18.5 -89t58.5 -33zM24 184q0 56 21.5 109.5t60 95t91 66.5t115.5 25q49 0 87 -14.5t63.5 -40.5t38.5 -61.5t13 -77.5q0 -56 -21.5 -109.5
t-60 -95t-91 -66.5t-115.5 -25q-49 0 -87 14.5t-63.5 40.5t-38.5 61.5t-13 77.5zM190 665h119l17 -140h-55z" />
    <glyph glyph-name="oacute" unicode="&#xf3;" horiz-adv-x="553" 
d="M234 35q41 0 69 31t45.5 74.5t25 91.5t7.5 81q0 56 -18.5 89t-58.5 33q-41 0 -69 -31t-45.5 -74.5t-25 -91.5t-7.5 -81q0 -56 18.5 -89t58.5 -33zM24 184q0 56 21.5 109.5t60 95t91 66.5t115.5 25q49 0 87 -14.5t63.5 -40.5t38.5 -61.5t13 -77.5q0 -56 -21.5 -109.5
t-60 -95t-91 -66.5t-115.5 -25q-49 0 -87 14.5t-63.5 40.5t-38.5 61.5t-13 77.5zM332 526h-55l67 140h119z" />
    <glyph glyph-name="ocircumflex" unicode="&#xf4;" horiz-adv-x="553" 
d="M234 35q41 0 69 31t45.5 74.5t25 91.5t7.5 81q0 56 -18.5 89t-58.5 33q-41 0 -69 -31t-45.5 -74.5t-25 -91.5t-7.5 -81q0 -56 18.5 -89t58.5 -33zM24 184q0 56 21.5 109.5t60 95t91 66.5t115.5 25q49 0 87 -14.5t63.5 -40.5t38.5 -61.5t13 -77.5q0 -56 -21.5 -109.5
t-60 -95t-91 -66.5t-115.5 -25q-49 0 -87 14.5t-63.5 40.5t-38.5 61.5t-13 77.5zM334 606l-99 -80h-60l102 125h130l58 -125h-60z" />
    <glyph glyph-name="otilde" unicode="&#xf5;" horiz-adv-x="553" 
d="M234 35q41 0 69 31t45.5 74.5t25 91.5t7.5 81q0 56 -18.5 89t-58.5 33q-41 0 -69 -31t-45.5 -74.5t-25 -91.5t-7.5 -81q0 -56 18.5 -89t58.5 -33zM24 184q0 56 21.5 109.5t60 95t91 66.5t115.5 25q49 0 87 -14.5t63.5 -40.5t38.5 -61.5t13 -77.5q0 -56 -21.5 -109.5
t-60 -95t-91 -66.5t-115.5 -25q-49 0 -87 14.5t-63.5 40.5t-38.5 61.5t-13 77.5zM203 536q11 60 33.5 80t52.5 20q17 0 28.5 -6.5t20.5 -14t17.5 -13.5t18.5 -6q17 0 28.5 12.5t13.5 27.5h40q-11 -60 -33 -80t-52 -20q-17 0 -28.5 6t-21 13.5t-18 14t-18.5 6.5
q-17 0 -28 -12.5t-14 -27.5h-40z" />
    <glyph glyph-name="odieresis" unicode="&#xf6;" horiz-adv-x="553" 
d="M234 35q41 0 69 31t45.5 74.5t25 91.5t7.5 81q0 56 -18.5 89t-58.5 33q-41 0 -69 -31t-45.5 -74.5t-25 -91.5t-7.5 -81q0 -56 18.5 -89t58.5 -33zM24 184q0 56 21.5 109.5t60 95t91 66.5t115.5 25q49 0 87 -14.5t63.5 -40.5t38.5 -61.5t13 -77.5q0 -56 -21.5 -109.5
t-60 -95t-91 -66.5t-115.5 -25q-49 0 -87 14.5t-63.5 40.5t-38.5 61.5t-13 77.5zM299 601q0 -26 -19.5 -46t-47.5 -20q-23 0 -35 12.5t-12 31.5q0 26 19 47t48 21q23 0 35 -13t12 -33zM479 601q0 -26 -19.5 -46t-47.5 -20q-23 0 -35 12.5t-12 31.5q0 26 19 47t48 21
q23 0 35 -13t12 -33z" />
    <glyph glyph-name="divide" unicode="&#xf7;" horiz-adv-x="547" 
d="M507 297h-460l11 65h460zM366 493q0 -26 -19 -47t-48 -21q-23 0 -35 13t-12 33q0 26 19.5 46t47.5 20q23 0 35 -12.5t12 -31.5zM313 191q0 -26 -19 -47t-48 -21q-23 0 -35 13t-12 33q0 26 19.5 46t47.5 20q23 0 35 -12.5t12 -31.5z" />
    <glyph glyph-name="oslash" unicode="&#xf8;" horiz-adv-x="553" 
d="M24 184q0 56 21.5 109.5t60 95t91 66.5t115.5 25q33 0 61 -7t51 -19l14 16h92l-55 -60q39 -51 39 -124q0 -56 -21.5 -109.5t-60 -95t-91 -66.5t-115.5 -25q-33 0 -61 7t-51 19l-14 -16h-92l54 60q-38 50 -38 124zM234 35q40 0 68 30t45 73t25 89.5t9 79.5l-211 -230
q9 -20 25 -31t39 -11zM304 435q-41 0 -68.5 -30.5t-45 -73.5t-25.5 -90t-9 -79l211 230q-10 20 -25 31.5t-38 11.5z" />
    <glyph glyph-name="ugrave" unicode="&#xf9;" horiz-adv-x="567" 
d="M81 340q5 28 5 45q0 26 -12.5 40.5t-44.5 14.5h-10l5 30h120q39 0 56.5 -14.5t17.5 -52.5q0 -28 -7 -63q-12 -71 -19 -113t-10.5 -65t-4.5 -32.5t-1 -15.5q0 -44 17.5 -61.5t49.5 -17.5q23 0 41 10t32 22q16 14 28 33l65 370h130l-82 -470h-85l-28 45h-5q-17 -16 -37 -28
q-18 -11 -42.5 -19t-54.5 -8q-80 0 -119 30.5t-39 98.5q0 6 0.5 15.5t4 32t10.5 63t19 110.5zM219 641h119l17 -140h-55z" />
    <glyph glyph-name="uacute" unicode="&#xfa;" horiz-adv-x="567" 
d="M81 340q5 28 5 45q0 26 -12.5 40.5t-44.5 14.5h-10l5 30h120q39 0 56.5 -14.5t17.5 -52.5q0 -28 -7 -63q-12 -71 -19 -113t-10.5 -65t-4.5 -32.5t-1 -15.5q0 -44 17.5 -61.5t49.5 -17.5q23 0 41 10t32 22q16 14 28 33l65 370h130l-82 -470h-85l-28 45h-5q-17 -16 -37 -28
q-18 -11 -42.5 -19t-54.5 -8q-80 0 -119 30.5t-39 98.5q0 6 0.5 15.5t4 32t10.5 63t19 110.5zM340 500h-55l67 140h119z" />
    <glyph glyph-name="ucircumflex" unicode="&#xfb;" horiz-adv-x="567" 
d="M81 340q5 28 5 45q0 26 -12.5 40.5t-44.5 14.5h-10l5 30h120q39 0 56.5 -14.5t17.5 -52.5q0 -28 -7 -63q-12 -71 -19 -113t-10.5 -65t-4.5 -32.5t-1 -15.5q0 -44 17.5 -61.5t49.5 -17.5q23 0 41 10t32 22q16 14 28 33l65 370h130l-82 -470h-85l-28 45h-5q-17 -16 -37 -28
q-18 -11 -42.5 -19t-54.5 -8q-80 0 -119 30.5t-39 98.5q0 6 0.5 15.5t4 32t10.5 63t19 110.5zM333 606l-99 -80h-60l102 125h130l58 -125h-60z" />
    <glyph glyph-name="udieresis" unicode="&#xfc;" horiz-adv-x="567" 
d="M81 340q5 28 5 45q0 26 -12.5 40.5t-44.5 14.5h-10l5 30h120q39 0 56.5 -14.5t17.5 -52.5q0 -28 -7 -63q-12 -71 -19 -113t-10.5 -65t-4.5 -32.5t-1 -15.5q0 -44 17.5 -61.5t49.5 -17.5q23 0 41 10t32 22q16 14 28 33l65 370h130l-82 -470h-85l-28 45h-5q-17 -16 -37 -28
q-18 -11 -42.5 -19t-54.5 -8q-80 0 -119 30.5t-39 98.5q0 6 0.5 15.5t4 32t10.5 63t19 110.5zM295 582q0 -26 -19.5 -46t-47.5 -20q-23 0 -35 12.5t-12 31.5q0 26 19 47t48 21q23 0 35 -13t12 -33zM475 582q0 -26 -19.5 -46t-47.5 -20q-23 0 -35 12.5t-12 31.5q0 26 19 47
t48 21q23 0 35 -13t12 -33z" />
    <glyph glyph-name="yacute" unicode="&#xfd;" horiz-adv-x="509" 
d="M226 -65q-23 -41 -44 -67t-43 -41t-45.5 -21t-49.5 -6h-40l6 35q26 0 48.5 4.5t42 15.5t37 29.5t34.5 47.5l30 54l-110 394q-11 38 -30.5 57t-48.5 23l3 20h88q45 0 75 -21.5t41 -58.5l71 -252l178 322h53zM343 500h-55l67 140h119z" />
    <glyph glyph-name="thorn" unicode="&#xfe;" horiz-adv-x="544" 
d="M-21 -190q33 184 55 311.5t37 211.5t23 131l12 70.5t4.5 30.5t0.5 10q0 26 -12.5 40.5t-44.5 14.5h-10l5 30h120q39 0 56.5 -14.5t17.5 -52.5q0 -6 -0.5 -14.5t-3 -24.5t-7 -42t-11.5 -67q20 14 49 24.5t71 10.5q84 0 124 -47.5t40 -126.5q0 -55 -16 -111t-48 -101.5
t-81 -74.5t-115 -29q-32 0 -57 6t-44 14l-35 -200h-130zM298 435q-26 0 -46.5 -8.5t-37.5 -21.5l-63 -355q17 -7 34.5 -11t32.5 -4q28 0 50.5 14.5t39.5 38t29 53t19.5 60.5t11 60.5t3.5 52.5q0 58 -19 89.5t-54 31.5z" />
    <glyph glyph-name="ydieresis" unicode="&#xff;" horiz-adv-x="509" 
d="M226 -65q-23 -41 -44 -67t-43 -41t-45.5 -21t-49.5 -6h-40l6 35q26 0 48.5 4.5t42 15.5t37 29.5t34.5 47.5l30 54l-110 394q-11 38 -30.5 57t-48.5 23l3 20h88q45 0 75 -21.5t41 -58.5l71 -252l178 322h53zM301 587q0 -26 -19.5 -46t-47.5 -20q-23 0 -35 12.5t-12 31.5
q0 26 19 47t48 21q23 0 35 -13t12 -33zM481 587q0 -26 -19.5 -46t-47.5 -20q-23 0 -35 12.5t-12 31.5q0 26 19 47t48 21q23 0 35 -13t12 -33z" />
    <glyph glyph-name="Gbreve" unicode="&#x11e;" horiz-adv-x="734" 
d="M620 47q-64 -35 -132 -51t-145 -16q-69 0 -125 22t-95.5 61t-61 93t-21.5 117q0 77 30 150t82.5 130t125 92t158.5 35q32 0 73.5 -5t78.5 -20t62.5 -42t25.5 -70q0 -21 -3 -42.5t-7 -40.5h-30q-3 92 -47 133.5t-131 41.5q-51 0 -91.5 -18t-72 -49t-54 -72t-37 -86.5
t-21.5 -92.5t-7 -91q0 -58 13.5 -97.5t36.5 -63.5t55 -34.5t70 -10.5q45 0 78.5 7t61.5 19l31 178q4 21 14 42.5t34 39t64 29t104 11.5l-5 -25q-34 0 -53.5 -25t-27.5 -70zM468 795q42 0 72.5 15.5t49.5 34.5l24 -21q-26 -42 -67.5 -68t-90.5 -26t-81 26t-43 68l32 21
q11 -19 36.5 -34.5t67.5 -15.5z" />
    <glyph glyph-name="gbreve" unicode="&#x11f;" 
d="M375 370q-6 18 -17 32q-9 12 -24 22.5t-38 10.5q-27 0 -47.5 -14.5t-35.5 -38.5t-25.5 -54t-17 -60.5t-9 -59.5t-2.5 -50q0 -48 17 -75.5t58 -27.5q19 0 35.5 4.5t28.5 10.5q14 6 26 15zM446 35q-9 -53 -32 -96t-57.5 -74t-80.5 -48t-102 -17q-41 0 -70 10t-49 25.5
t-32 34t-20 35.5l35 23q10 -17 21.5 -32.5t26 -26.5t33.5 -17.5t43 -6.5q54 0 95 44.5t59 145.5l1 5q-13 -9 -31 -15q-15 -6 -35.5 -10.5t-44.5 -4.5q-92 0 -135.5 48.5t-43.5 126.5q0 52 17 105t49.5 95t80.5 68.5t110 26.5q30 0 50 -8.5t32 -19.5q14 -12 23 -27h5l43 45
h85zM321 595q42 0 72.5 15.5t49.5 34.5l24 -21q-26 -42 -67.5 -68t-90.5 -26t-81 26t-43 68l32 21q11 -19 36.5 -34.5t67.5 -15.5z" />
    <glyph glyph-name="Idotaccent" unicode="&#x130;" horiz-adv-x="307" 
d="M278 660q-24 -136 -41 -231t-27.5 -157.5t-16.5 -98t-9 -53.5t-3.5 -24t-0.5 -9q0 -26 12 -41.5t45 -15.5h10l-5 -30h-120q-40 0 -57 15t-17 54q0 4 0.5 11t3.5 26.5t9 56.5t17.5 101.5t28 160.5t41.5 235h130zM293 786q0 -27 -17.5 -49.5t-48.5 -22.5q-32 0 -47 17.5
t-15 42.5q0 27 17.5 49.5t48.5 22.5q32 0 47 -17.5t15 -42.5z" />
    <glyph glyph-name="dotlessi" unicode="&#x131;" horiz-adv-x="271" 
d="M33 0q15 89 26 151.5t18 104t11 66t6 37.5t2.5 18t0.5 8q0 26 -12.5 40.5t-44.5 14.5h-10l5 30h120q39 0 56.5 -14.5t17.5 -52.5q0 -4 -0.5 -10.5t-2.5 -20.5t-6.5 -40t-11.5 -69t-18 -107.5t-27 -155.5h-130z" />
    <glyph glyph-name="OE" unicode="&#x152;" horiz-adv-x="958" 
d="M40 256q0 78 29 154t81.5 136t126 97t161.5 37q42 0 66.5 -6t45.5 -14h331q43 0 58 -17t15 -41q0 -3 -0.5 -7t-2 -14.5t-5 -31t-9.5 -54.5h-30q3 18 3 33q0 46 -27.5 66.5t-79.5 20.5h-161l-44 -250h260l-8 -45h-260l-49 -275h171q55 0 98 24.5t81 89.5l25 -10l-43 -79
q-17 -32 -37.5 -51t-61.5 -19h-340q-28 -11 -56.5 -15.5t-62.5 -4.5q-65 0 -116 20.5t-86.5 57t-54 87.5t-18.5 111zM323 25q46 0 89 23l99 563q-33 24 -81 24q-46 0 -83 -20t-65.5 -53.5t-48.5 -76.5t-32.5 -89t-18.5 -91.5t-6 -83.5q0 -94 37.5 -145t109.5 -51z" />
    <glyph glyph-name="oe" unicode="&#x153;" horiz-adv-x="848" 
d="M234 35q41 0 69 31t45.5 74.5t25 91.5t7.5 81q0 56 -18.5 89t-58.5 33q-41 0 -69 -31t-45.5 -74.5t-25 -91.5t-7.5 -81q0 -56 18.5 -89t58.5 -33zM617 255q40 0 60.5 30t20.5 72q0 39 -18 58.5t-41 19.5q-19 0 -38 -10t-36 -31.5t-30.5 -55.5t-22.5 -83h105zM505 210
q-3 -11 -4.5 -30t-1.5 -35q0 -60 23.5 -85t61.5 -25q52 0 88.5 24t68.5 59l27 -23q-14 -17 -32.5 -35.5t-43.5 -34t-57.5 -25.5t-73.5 -10q-51 0 -89.5 17t-63.5 49q-36 -31 -82 -48.5t-100 -17.5q-49 0 -87 14.5t-63.5 40.5t-38.5 61.5t-13 77.5q0 56 21.5 109.5t60 95
t91 66.5t115.5 25q53 0 92 -17t65 -46q71 63 168 63q95 0 143 -33.5t48 -90.5q0 -45 -18.5 -73t-49 -44.5t-69.5 -22.5t-81 -6h-105z" />
    <glyph glyph-name="Scedilla" unicode="&#x15e;" horiz-adv-x="562" 
d="M189 -15q-35 3 -66 11t-55 21.5t-38 31.5t-14 41q0 1 0.5 4.5t2.5 16.5t6 38.5t12 70.5h28v-7q0 -100 40 -142.5t123 -42.5q25 0 51 7t47 21t34.5 36t13.5 52q0 35 -22.5 59.5t-60.5 50.5l-110 74q-51 33 -73 67.5t-22 76.5q0 49 21.5 87.5t57.5 65t82.5 40t95.5 13.5
q39 0 76 -7.5t66 -21t46.5 -34t17.5 -45.5q0 -2 -0.5 -5t-2.5 -15.5t-6.5 -38t-12.5 -70.5h-28v11q0 98 -39.5 139.5t-113.5 41.5q-24 0 -48.5 -7.5t-44 -22t-31.5 -36t-12 -49.5q0 -34 23 -56t61 -48l111 -73q52 -35 77.5 -67.5t25.5 -75.5q0 -50 -21.5 -88t-57.5 -64.5
t-81.5 -42t-93.5 -19.5l-6 -34q37 0 57 -17t20 -46q0 -42 -31 -67.5t-74 -25.5h-70l8 46h50q19 0 31.5 10t14.5 27q0 12 -8.5 20t-25.5 8h-45z" />
    <glyph glyph-name="scedilla" unicode="&#x15f;" horiz-adv-x="470" 
d="M142 -8q-20 1 -42 4.5t-41.5 12.5t-32 24.5t-12.5 41.5q0 17 2.5 35.5t6.5 39.5h35v-3q0 -47 25.5 -79.5t84.5 -32.5q17 0 37 3.5t37 12.5t28 23.5t11 36.5q0 25 -22.5 41.5t-54.5 31.5l-48 22q-49 23 -77 51t-28 68t19.5 69.5t50.5 48.5t69 28t76 9q21 0 50 -2t54.5 -10
t43.5 -25.5t18 -47.5q0 -17 -2.5 -35.5t-6.5 -39.5h-35v3q0 47 -25.5 79.5t-84.5 32.5q-17 0 -34 -4.5t-31.5 -14.5t-23.5 -24.5t-9 -35.5q0 -22 15.5 -36.5t43.5 -26.5l56 -25q56 -25 85.5 -52t29.5 -69q0 -39 -18 -67t-47.5 -46.5t-65.5 -29t-72 -13.5l-4 -21
q37 0 57.5 -16.5t20.5 -45.5q0 -42 -31 -68t-74 -26h-70l8 46h50q16 0 31 10t15 28q0 11 -9 19t-26 8h-45z" />
    <glyph glyph-name="Scaron" unicode="&#x160;" horiz-adv-x="562" 
d="M222 -17q-39 0 -76 7.5t-66 21t-46.5 33.5t-17.5 46q0 1 0.5 4.5t2.5 16t6 38t12 70.5h28v-7q0 -100 40 -142.5t123 -42.5q25 0 51 7t47 21t34.5 36t13.5 52q0 35 -22.5 59.5t-60.5 50.5l-110 74q-51 33 -73 67.5t-22 76.5q0 49 21.5 87.5t57.5 65t82.5 40t95.5 13.5
q39 0 76 -7.5t66 -21t46.5 -34t17.5 -45.5q0 -2 -0.5 -5t-2.5 -15.5t-6.5 -38t-12.5 -70.5h-28v11q0 98 -39.5 139.5t-113.5 41.5q-24 0 -48.5 -7.5t-44 -22t-31.5 -36t-12 -49.5q0 -34 23 -56t61 -48l111 -73q52 -35 77.5 -67.5t25.5 -75.5q0 -54 -25.5 -94.5t-66 -67
t-91.5 -40t-103 -13.5zM443 845h70l-102 -125h-130l-58 125h70l61 -80z" />
    <glyph glyph-name="scaron" unicode="&#x161;" horiz-adv-x="469" 
d="M167 35q17 0 37 3.5t37 12.5t28 23.5t11 36.5q0 25 -22.5 41.5t-54.5 31.5l-48 22q-49 23 -77 51t-28 68t19.5 69.5t50.5 48.5t69 28t76 9q21 0 50 -2t54.5 -10t43.5 -25.5t18 -47.5q0 -17 -2.5 -35.5t-6.5 -39.5h-35v3q0 47 -25.5 79.5t-84.5 32.5q-17 0 -34 -4.5
t-31.5 -14.5t-23.5 -24.5t-9 -35.5q0 -22 15.5 -36.5t43.5 -26.5l56 -25q56 -25 85.5 -52t29.5 -69t-21.5 -72t-54.5 -49t-74 -27.5t-80 -8.5q-21 0 -50 2t-54.5 10t-43.5 25.5t-18 47.5q0 17 2.5 35.5t6.5 39.5h35v-3q0 -47 25.5 -79.5t84.5 -32.5zM363 645h70l-102 -125
h-130l-58 125h70l61 -80z" />
    <glyph glyph-name="Ydieresis" unicode="&#x178;" horiz-adv-x="639" 
d="M385 345l250 315h65l-292 -369l-51 -291h-130l46 264l-130 266q-9 19 -22 38t-28 34.5t-31.5 25.5t-32.5 12l4 20h109q28 0 50.5 -10t40 -26t30.5 -35.5t22 -38.5zM578 758q0 -26 -19 -47t-48 -21q-23 0 -35 13t-12 33q0 26 19.5 46t47.5 20q23 0 35 -12.5t12 -31.5z
M408 758q0 -26 -19 -47t-48 -21q-23 0 -35 13t-12 33q0 26 19.5 46t47.5 20q23 0 35 -12.5t12 -31.5z" />
    <glyph glyph-name="Zcaron" unicode="&#x17d;" horiz-adv-x="599" 
d="M649 660l-501 -615h387l-7 -45h-545l5 32l475 584h-217q-53 0 -88.5 -26.5t-47.5 -94.5h-30l15 85q3 15 9 29.5t17 25.5t29 18t44 7h455zM489 835h70l-102 -125h-130l-58 125h70l61 -80z" />
    <glyph glyph-name="zcaron" unicode="&#x17e;" horiz-adv-x="495" 
d="M515 470l-359 -425h263l-7 -45h-420l5 31l332 394h-118q-64 0 -93.5 -23t-37.5 -72h-30l10 60q3 15 9 29.5t17 25.5t29 18t44 7h356zM399 645h70l-102 -125h-130l-58 125h70l61 -80z" />
    <glyph glyph-name="florin" unicode="&#x192;" horiz-adv-x="225" 
 />
    <glyph glyph-name="circumflex" unicode="&#x2c6;" horiz-adv-x="330" 
d="M245 740l-99 -80h-60l102 125h130l58 -125h-60z" />
    <glyph glyph-name="caron" unicode="&#x2c7;" horiz-adv-x="300" 
d="M262 645h70l-102 -125h-130l-58 125h70l61 -80z" />
    <glyph glyph-name="breve" unicode="&#x2d8;" horiz-adv-x="300" 
d="M204 575q42 0 72.5 15.5t49.5 34.5l24 -21q-26 -42 -67.5 -68t-90.5 -26t-81 26t-43 68l32 21q11 -19 36.5 -34.5t67.5 -15.5z" />
    <glyph glyph-name="ring" unicode="&#x2da;" horiz-adv-x="198" 
d="M59 596q0 22 9 42.5t24 36.5t36 25.5t45 9.5q36 0 58 -21t22 -55q0 -22 -9 -42.5t-24 -36.5t-36 -25.5t-45 -9.5q-36 0 -58 21t-22 55zM147 565q23 0 39 18t16 43q0 18 -10 28.5t-27 10.5q-23 0 -39 -18t-16 -43q0 -18 10 -28.5t27 -10.5z" />
    <glyph glyph-name="tilde" unicode="&#x2dc;" horiz-adv-x="275" 
d="M89 680q11 60 33.5 80t52.5 20q17 0 28.5 -6.5t20.5 -14t17.5 -13.5t18.5 -6q17 0 28.5 12.5t13.5 27.5h40q-11 -60 -33 -80t-52 -20q-17 0 -28.5 6t-21 13.5t-18 14t-18.5 6.5q-17 0 -28 -12.5t-14 -27.5h-40z" />
    <glyph glyph-name="afii10023" unicode="&#x401;" horiz-adv-x="602" 
d="M525 660q43 0 58 -17t15 -41q0 -3 -0.5 -7t-2 -14.5t-5 -31t-9.5 -54.5h-30q3 18 3 33q0 46 -27.5 66.5t-79.5 20.5h-161l-44 -250h260l-8 -45h-260l-49 -275h171q55 0 98 24.5t81 89.5l25 -10l-43 -79q-17 -32 -37.5 -51t-61.5 -19h-240h-130q24 137 40.5 231.5
l27.5 157.5t17 98.5t9 54t3.5 24.5t0.5 9q0 26 -12.5 40.5t-44.5 14.5h-10l5 30h441zM360 796q0 -26 -19.5 -46t-47.5 -20q-23 0 -35 12.5t-12 31.5q0 26 19 47t48 21q23 0 35 -13t12 -33zM540 796q0 -26 -19.5 -46t-47.5 -20q-23 0 -35 12.5t-12 31.5q0 26 19 47t48 21
q23 0 35 -13t12 -33z" />
    <glyph glyph-name="afii10051" unicode="&#x402;" horiz-adv-x="636" 
d="M345 -15q23 0 42 16t33.5 41t24.5 56.5t16.5 62.5t9.5 59t3 47q0 64 -25 88.5t-59 24.5q-38 0 -74.5 -10t-62.5 -25l-60 -345h-130l108 615h-120l8 45h370l-8 -45h-120l-40 -225q26 15 68.5 27.5t88.5 12.5q40 0 74.5 -7t59.5 -25t39 -49t14 -79q0 -62 -15 -117.5
t-47.5 -97.5t-82.5 -67t-120 -28z" />
    <glyph glyph-name="afii10052" unicode="&#x403;" horiz-adv-x="546" 
d="M513 660q43 0 58 -17.5t15 -41.5q0 -3 -0.5 -7t-2 -14.5t-5 -30.5t-9.5 -54h-30q3 18 3 33q0 47 -27.5 67t-79.5 20h-149l-108 -615h-130q24 136 40.5 231t27.5 158t17 98.5t9 54t3.5 24.5t0.5 9q0 26 -12.5 40.5t-44.5 14.5h-10l5 30h429zM310 703h-55l67 140h119z" />
    <glyph glyph-name="afii10053" unicode="&#x404;" horiz-adv-x="681" 
d="M631 447q-2 91 -44.5 139.5t-125.5 48.5q-44 0 -84.5 -13.5t-75.5 -46t-62.5 -86t-45.5 -134.5h309l-8 -45h-310q-6 -39 -6 -76q0 -44 9.5 -82t30.5 -66.5t54.5 -44.5t81.5 -16q69 0 134.5 36.5t113.5 106.5l30 -27q-31 -42 -64.5 -72t-72 -50t-83 -29.5t-96.5 -9.5
q-68 0 -120 19.5t-87 55t-52.5 84t-17.5 106.5q0 88 33 167.5t88.5 138.5t127.5 94t151 35q64 0 108.5 -11t72.5 -30t40.5 -43t12.5 -51q0 -23 -3.5 -47.5t-8.5 -50.5h-30z" />
    <glyph glyph-name="afii10054" unicode="&#x405;" horiz-adv-x="562" 
d="M222 -17q-39 0 -76 7.5t-66 21t-46.5 33.5t-17.5 46q0 1 0.5 4.5t2.5 16t6 38t12 70.5h28v-7q0 -100 40 -142.5t123 -42.5q25 0 51 7t47 21t34.5 36t13.5 52q0 35 -22.5 59.5t-60.5 50.5l-110 74q-51 33 -73 67.5t-22 76.5q0 49 21.5 87.5t57.5 65t82.5 40t95.5 13.5
q39 0 76 -7.5t66 -21t46.5 -34t17.5 -45.5q0 -2 -0.5 -5t-2.5 -15.5t-6.5 -38t-12.5 -70.5h-28v11q0 98 -39.5 139.5t-113.5 41.5q-24 0 -48.5 -7.5t-44 -22t-31.5 -36t-12 -49.5q0 -34 23 -56t61 -48l111 -73q52 -35 77.5 -67.5t25.5 -75.5q0 -54 -25.5 -94.5t-66 -67
t-91.5 -40t-103 -13.5z" />
    <glyph glyph-name="uni0406" unicode="&#x406;" horiz-adv-x="307" 
d="M148 660h130l-94 -530q-2 -12 -3 -22.5t-1 -20.5q0 -26 12 -41.5t45 -15.5h10l-5 -30h-120q-40 0 -57 15t-17 54q0 25 6 61z" />
    <glyph glyph-name="afii10056" unicode="&#x407;" horiz-adv-x="307" 
d="M148 660h130l-94 -530q-2 -12 -3 -22.5t-1 -20.5q0 -26 12 -41.5t45 -15.5h10l-5 -30h-120q-40 0 -57 15t-17 54q0 25 6 61zM374 783q0 -26 -19 -47t-48 -21q-23 0 -35 13t-12 33q0 26 19.5 46t47.5 20q23 0 35 -12.5t12 -31.5zM204 783q0 -26 -19 -47t-48 -21
q-23 0 -35 13t-12 33q0 26 19.5 46t47.5 20q23 0 35 -12.5t12 -31.5z" />
    <glyph glyph-name="afii10057" unicode="&#x408;" horiz-adv-x="280" 
d="M171 83q-11 -65 -28 -107t-46.5 -67.5t-74.5 -35.5t-112 -10l6 30q22 3 41 13t34.5 31.5t28 57t21.5 88.5l102 577h130z" />
    <glyph glyph-name="afii10058" unicode="&#x409;" horiz-adv-x="989" 
d="M306 530q-28 -159 -62 -264.5t-73 -167.5t-81.5 -87.5t-87.5 -25.5q-19 0 -33 2.5t-25 6.5l5 31q33 7 65.5 29.5t63.5 77t61 149.5t57 249q2 13 3.5 24t1.5 22q0 25 -12 39.5t-44 14.5h-10l5 30h525l-48 -270h90q46 0 91.5 -7.5t81.5 -25.5t58.5 -48.5t22.5 -77.5
q0 -69 -31 -114t-78.5 -71t-104 -36t-108.5 -10h-91h-129l108 615h-206zM680 350q-15 0 -28 -1.5t-23 -3.5q-11 -3 -21 -5l-51 -290q8 -3 19 -5q20 -5 50 -5h5q89 0 140 51t51 145q0 56 -33.5 85t-103.5 29h-5z" />
    <glyph glyph-name="afii10059" unicode="&#x40a;" horiz-adv-x="1006" 
d="M493 365l52 295h130l-51 -290h89q49 0 97 -7t85 -24.5t60 -47t23 -73.5q0 -65 -30.5 -107t-78.5 -66.5t-106.5 -34.5t-114.5 -10h-219l56 320h-251l-56 -320h-130q24 136 40.5 231t27.5 158t17 98.5t9 54t3.5 24.5t0.5 9q0 26 -12.5 40.5t-44.5 14.5h-10l5 30h120
q39 0 56.5 -14.5t17.5 -52.5q0 -6 -1 -16t-4.5 -33t-11 -65.5t-19.5 -113.5h251zM686 330q-27 0 -47.5 -4t-24.5 -6l-48 -270q8 -3 19 -5q20 -5 50 -5h5q98 0 148 48.5t50 131.5q0 52 -34.5 81t-112.5 29h-5z" />
    <glyph glyph-name="afii10060" unicode="&#x40b;" horiz-adv-x="645" 
d="M193 0h-130l108 615h-120l8 45h370l-8 -45h-120l-40 -225q26 15 68.5 27.5t88.5 12.5q36 0 70.5 -6t61.5 -22t43.5 -43t16.5 -69q0 -5 -1 -13.5t-5.5 -37t-14 -84.5t-26.5 -155h-130q18 100 27.5 156.5t14 85t5.5 37t1 13.5q0 50 -25 69t-66 19q-38 0 -74.5 -10
t-62.5 -25z" />
    <glyph glyph-name="afii10061" unicode="&#x40c;" horiz-adv-x="694" 
d="M49 0q24 137 40.5 231.5t27 157.5t16.5 98.5t9 54t3.5 24.5t0.5 9q0 26 -12.5 40.5t-44.5 14.5h-10l5 30h120q40 0 57.5 -15t17.5 -53q0 -6 -1 -16t-5 -35.5t-12.5 -72.5t-22.5 -128l211 215q20 21 42 40t46 33.5t51 23t57 8.5h70l-6 -35q-57 0 -105.5 -14.5t-90.5 -56.5
l-181 -184l188 -240q16 -21 34.5 -39t37.5 -32.5t36.5 -23.5t32.5 -11l-4 -24q-12 -4 -32 -7t-43 -3q-28 0 -55.5 4.5t-55 18t-55.5 36.5t-57 61l-131 168l-49 -278h-130zM363 676h-55l67 140h119z" />
    <glyph glyph-name="afii10062" unicode="&#x40e;" horiz-adv-x="617" 
d="M134 530q-15 48 -40.5 77t-64.5 33l4 20h100q57 0 92.5 -31.5t50.5 -78.5l89 -282l246 392h65l-356 -565q-30 -48 -76 -76.5t-106 -28.5h-50l6 36q22 0 44.5 2.5t43.5 10t39.5 21t33.5 35.5l10 15zM408 765q42 0 72.5 15.5t49.5 34.5l24 -21q-26 -42 -67.5 -68t-90.5 -26
t-81 26t-43 68l32 21q11 -19 36.5 -34.5t67.5 -15.5z" />
    <glyph glyph-name="afii10145" unicode="&#x40f;" horiz-adv-x="692" 
d="M48 0q24 136 40.5 231t27.5 158t17 98.5t9 54t3.5 24.5t0.5 9q0 26 -12.5 40.5t-44.5 14.5h-10l5 30h120q39 0 56.5 -14.5t17.5 -52.5q0 -4 -0.5 -11t-3.5 -25.5t-9 -53t-16 -94t-26 -148.5t-38 -216h260l109 615h130l-116 -660h-210l-46 -175h-70l16 175h-210z" />
    <glyph glyph-name="afii10017" unicode="&#x410;" horiz-adv-x="647" 
d="M549 126q11 -44 32 -70t54 -30l-4 -25q-8 -2 -23 -3.5t-26 -1.5q-24 0 -50.5 4.5t-50.5 18t-43.5 39t-29.5 68.5l-13 56h-266l-114 -182h-52l411 660h45zM158 227h226l-64 261z" />
    <glyph glyph-name="afii10018" unicode="&#x411;" horiz-adv-x="637" 
d="M48 0q24 136 40.5 231t27.5 158t17 98.5t9 54t3.5 24.5t0.5 9q0 26 -12.5 40.5t-44.5 14.5h-10l5 30h439q43 0 58 -17.5t15 -41.5q0 -3 -0.5 -7t-2 -14.5t-5 -30.5t-9.5 -54h-30q3 18 3 33q0 47 -27.5 67t-79.5 20h-159l-41 -235h90q49 0 96.5 -6t85 -22.5t60 -46
t22.5 -77.5q0 -72 -31 -117t-79 -69.5t-107 -33t-114 -8.5h-92h-128zM307 340q-15 0 -28 -1.5t-23 -3.5q-11 -3 -20 -5l-50 -280q8 -3 19 -5q20 -5 50 -5h5q96 0 148 45.5t52 147.5q0 56 -36 81.5t-112 25.5h-5z" />
    <glyph glyph-name="afii10019" unicode="&#x412;" horiz-adv-x="646" 
d="M347 620q-12 0 -23.5 -1t-19.5 -3q-10 -2 -18 -3l-45 -252h75q34 0 64 10.5t52.5 31t36 49.5t13.5 66q0 29 -11.5 48.5t-30 31.5t-43 17t-50.5 5zM48 0q24 137 40.5 231.5l27.5 157.5t17 98.5t9 54t3.5 24.5t0.5 9q0 26 -12.5 40.5t-44.5 14.5h-10l5 30h270
q43 0 90.5 -4.5t86.5 -19t64.5 -42.5t25.5 -76q0 -35 -13.5 -63t-36.5 -50.5t-53 -38.5t-64 -25q40 -4 68 -15t44.5 -27.5t24 -37t7.5 -44.5q0 -63 -29 -104.5t-76 -66.5t-106 -35.5t-119 -10.5h-91h-129zM260 40q37 0 72.5 10.5t63.5 31.5t44.5 53t16.5 75q0 106 -149 106
h-75l-47 -266q8 -3 19 -5q20 -5 50 -5h5z" />
    <glyph glyph-name="afii10020" unicode="&#x413;" horiz-adv-x="546" 
d="M513 660q43 0 58 -17.5t15 -41.5q0 -3 -0.5 -7t-2 -14.5t-5 -30.5t-9.5 -54h-30q3 18 3 33q0 47 -27.5 67t-79.5 20h-149l-108 -615h-130q24 136 40.5 231t27.5 158t17 98.5t9 54t3.5 24.5t0.5 9q0 26 -12.5 40.5t-44.5 14.5h-10l5 30h429z" />
    <glyph glyph-name="afii10021" unicode="&#x414;" horiz-adv-x="697" 
d="M433 45l101 570h-220q-18 -102 -36.5 -184.5t-40.5 -151t-47.5 -126t-56.5 -108.5h300zM29 45q68 106 107.5 227.5t63.5 257.5q2 12 3.5 23.5t1.5 21.5q0 26 -12.5 40.5t-44.5 14.5h-10l5 30h529l-109 -615h35q13 0 21.5 -8t8.5 -20q0 -1 -0.5 -5t-4 -23t-10.5 -59.5
t-20 -113.5h-50q1 14 1.5 26.5t0.5 24.5q0 39 -6 64.5t-18 40.5t-29.5 21.5t-40.5 6.5h-324q-27 0 -49 -8.5t-41 -29.5t-36 -56.5t-32 -89.5h-49l34 194q2 15 13.5 25t26.5 10h35z" />
    <glyph glyph-name="afii10022" unicode="&#x415;" horiz-adv-x="602" 
d="M525 660q43 0 58 -17t15 -41q0 -3 -0.5 -7t-2 -14.5t-5 -31t-9.5 -54.5h-30q3 18 3 33q0 46 -27.5 66.5t-79.5 20.5h-161l-44 -250h260l-8 -45h-260l-49 -275h171q55 0 98 24.5t81 89.5l25 -10l-43 -79q-17 -32 -37.5 -51t-61.5 -19h-240h-130q24 137 40.5 231.5
l27.5 157.5t17 98.5t9 54t3.5 24.5t0.5 9q0 26 -12.5 40.5t-44.5 14.5h-10l5 30h441z" />
    <glyph glyph-name="afii10024" unicode="&#x416;" horiz-adv-x="989" 
d="M497 660h131l-57 -320l201 215q40 42 88 73.5t108 31.5h60l-6 -35q-32 0 -58 -3t-47.5 -11t-41 -22t-39.5 -35l-171 -184l158 -240q29 -45 66 -73t66 -33l-4 -24q-12 -4 -28 -7t-38 -3q-32 0 -61.5 5t-56.5 19t-52.5 39.5t-50.5 66.5l-102 165l-50 -285h-131l50 285
l-160 -165q-40 -41 -74.5 -66.5t-67 -39.5t-63 -19t-62.5 -5q-22 0 -36.5 3t-25.5 7l5 24q30 5 76 33.5t91 72.5l244 240l-107 184q-12 21 -26.5 34.5t-33.5 22t-43.5 11.5t-56.5 3l6 35h60q30 0 54 -8.5t43 -23t34 -33.5t27 -40l125 -215z" />
    <glyph glyph-name="afii10025" unicode="&#x417;" horiz-adv-x="580" 
d="M167 360h85q28 0 59 10t57.5 31t43.5 52.5t17 73.5q0 28 -10 48.5t-25.5 34t-35 19.5t-37.5 6q-68 0 -122.5 -45t-86.5 -120h-31q8 45 17.5 81t32.5 59q16 16 39.5 29t51.5 22t57 14t55 5q41 0 82.5 -5t74.5 -20t54 -42.5t21 -72.5q0 -28 -11 -57.5t-33.5 -56.5t-58 -48
t-83.5 -33q41 -5 70 -19t47 -33.5t26 -43t8 -48.5q0 -64 -30.5 -106.5t-76 -68t-99 -36t-99.5 -10.5q-91 0 -147.5 33.5t-89.5 101.5l34 25q13 -23 29.5 -43.5t39 -36.5t51 -25.5t66.5 -9.5q35 0 67.5 11.5t58 33t41 53.5t15.5 74q0 57 -39 87.5t-108 30.5h-85z" />
    <glyph glyph-name="afii10026" unicode="&#x418;" horiz-adv-x="712" 
d="M48 0q24 136 40.5 231t27.5 158t17 98.5t9 54t3.5 24.5t0.5 9q0 26 -12.5 40.5t-44.5 14.5h-10l5 30h120q39 0 56.5 -14.5t17.5 -52.5q0 -4 -0.5 -10.5t-3 -22.5t-7.5 -45.5t-13.5 -79.5t-21.5 -124.5t-32 -180.5l384 530h120l-116 -660h-130l93 530l-383 -530h-120z" />
    <glyph glyph-name="afii10027" unicode="&#x419;" horiz-adv-x="712" 
d="M48 0q24 136 40.5 231t27.5 158t17 98.5t9 54t3.5 24.5t0.5 9q0 26 -12.5 40.5t-44.5 14.5h-10l5 30h120q39 0 56.5 -14.5t17.5 -52.5q0 -4 -0.5 -10.5t-3 -22.5t-7.5 -45.5t-13.5 -79.5t-21.5 -124.5t-32 -180.5l384 530h120l-116 -660h-130l93 530l-383 -530h-120z
M453 770q42 0 72.5 15.5t49.5 34.5l24 -21q-26 -42 -67.5 -68t-90.5 -26t-81 26t-43 68l32 21q11 -19 36.5 -34.5t67.5 -15.5z" />
    <glyph glyph-name="afii10028" unicode="&#x41a;" horiz-adv-x="694" 
d="M49 0q24 137 40.5 231.5t27 157.5t16.5 98.5t9 54t3.5 24.5t0.5 9q0 26 -12.5 40.5t-44.5 14.5h-10l5 30h120q40 0 57.5 -15t17.5 -53q0 -6 -1 -16t-5 -35.5t-12.5 -72.5t-22.5 -128l211 215q20 21 42 40t46 33.5t51 23t57 8.5h70l-6 -35q-57 0 -105.5 -14.5t-90.5 -56.5
l-181 -184l188 -240q16 -21 34.5 -39t37.5 -32.5t36.5 -23.5t32.5 -11l-4 -24q-12 -4 -32 -7t-43 -3q-28 0 -55.5 4.5t-55 18t-55.5 36.5t-57 61l-131 168l-49 -278h-130z" />
    <glyph glyph-name="afii10029" unicode="&#x41b;" horiz-adv-x="682" 
d="M196 530q2 12 3.5 23.5t1.5 21.5q0 26 -12.5 40.5t-44.5 14.5h-10l5 30h535l-116 -660h-130l108 615h-216l-15 -85q-28 -159 -62 -264.5t-72.5 -167.5t-81 -87.5t-87.5 -25.5q-19 0 -33 2.5t-25 6.5l5 31q33 7 65.5 29.5t63.5 77t61 149.5t57 249z" />
    <glyph glyph-name="afii10030" unicode="&#x41c;" horiz-adv-x="869" 
d="M755 170q-5 -30 -8 -55t-3 -45q0 -80 51 -90l-4 -25q-91 0 -132 35t-41 110q0 16 2 33t5 37l63 354l-311 -524h-33l-173 544l-95 -544h-50l116 660h122l155 -491l292 491h131z" />
    <glyph glyph-name="afii10031" unicode="&#x41d;" horiz-adv-x="723" 
d="M564 660h130l-94 -530q-2 -12 -3 -22.5t-1 -20.5q0 -26 12 -41.5t45 -15.5h10l-5 -30h-120q-40 0 -57 15t-17 54q0 25 6 61l34 190h-270l-56 -320h-130l93 530q5 28 5 45q0 26 -12.5 40.5t-44.5 14.5h-10l5 30h120q39 0 56.5 -14.5t17.5 -52.5q0 -28 -7 -63l-29 -165h270
z" />
    <glyph glyph-name="afii10032" unicode="&#x41e;" horiz-adv-x="735" 
d="M323 25q47 0 84 20t65.5 53t48.5 75.5t32.5 88.5t18.5 91.5t6 84.5q0 95 -38 146t-110 51q-46 0 -83 -20t-65.5 -53.5t-48.5 -76.5t-32.5 -89t-18.5 -91.5t-6 -83.5q0 -94 37.5 -145t109.5 -51zM40 256q0 78 29 154t81.5 136t126 97t161.5 37q65 0 116 -20.5t86.5 -57
t54 -87.5t18.5 -111q0 -78 -29 -154t-81.5 -136t-126 -97t-161.5 -37q-65 0 -116 20.5t-86.5 57t-54 87.5t-18.5 111z" />
    <glyph glyph-name="afii10033" unicode="&#x41f;" horiz-adv-x="692" 
d="M48 0q24 136 40.5 231t27.5 158t17 98.5t9 54t3.5 24.5t0.5 9q0 26 -12.5 40.5t-44.5 14.5h-10l5 30h600l-116 -660h-130l108 615h-260l-108 -615h-130z" />
    <glyph glyph-name="afii10034" unicode="&#x420;" horiz-adv-x="580" 
d="M352 620q-12 0 -24 -1t-21 -3q-11 -2 -21 -3l-54 -306h60q41 0 72 17t52 45.5t32 65.5t11 76q0 31 -9 52t-24 34t-34.5 18t-39.5 5zM359 660q31 0 72.5 -5t78.5 -21.5t62.5 -48t25.5 -85.5q0 -56 -23.5 -99.5t-62.5 -73t-89 -45t-103 -15.5h-95l-47 -267h-130
q24 137 40.5 231.5l27.5 157.5t17 98.5t9 54t3.5 24.5t0.5 9q0 26 -12.5 40.5t-44.5 14.5h-10l5 30h275z" />
    <glyph glyph-name="afii10035" unicode="&#x421;" horiz-adv-x="680" 
d="M630 447q-2 91 -44.5 139.5t-125.5 48.5q-75 0 -129 -38t-88 -97.5t-50 -130.5t-16 -137q0 -44 9.5 -81.5t30.5 -65.5t54.5 -44t81.5 -16q69 0 134.5 36.5t113.5 106.5l30 -27q-31 -42 -64.5 -72t-72 -50t-83 -29.5t-96.5 -9.5q-68 0 -120 20t-87 55t-52.5 84t-17.5 107
q0 77 29.5 154.5t83 139.5t127 101t160.5 39q31 0 71.5 -5t76.5 -19.5t61 -41t25 -69.5q0 -23 -3.5 -47.5t-8.5 -50.5h-30z" />
    <glyph glyph-name="afii10036" unicode="&#x422;" horiz-adv-x="577" 
d="M637 660l-8 -45h-209l-108 -615h-130l108 615h-71q-53 0 -88.5 -26.5t-47.5 -93.5h-30l15 85q3 15 9 29.5t17 25.5t29 18t44 7h470z" />
    <glyph glyph-name="afii10037" unicode="&#x423;" horiz-adv-x="617" 
d="M134 530q-15 48 -40.5 77t-64.5 33l4 20h100q57 0 92.5 -31.5t50.5 -78.5l89 -282l246 392h65l-356 -565q-30 -48 -76 -76.5t-106 -28.5h-50l6 36q22 0 44.5 2.5t43.5 10t39.5 21t33.5 35.5l10 15z" />
    <glyph glyph-name="afii10038" unicode="&#x424;" horiz-adv-x="824" 
d="M395 550q-56 -1 -98.5 -29t-71 -71t-43 -96t-14.5 -105q0 -37 8.5 -68t26.5 -53.5t45.5 -35t64.5 -12.5zM443 80q56 1 98.5 28.5t71 70.5t43 96t14.5 105q0 37 -8.5 68.5t-26.5 54t-45.5 35t-64.5 12.5zM533 595q138 0 207 -59t69 -161q0 -76 -26 -138.5t-75 -107.5
t-118 -69.5t-155 -24.5l-14 -75h-130l14 75q-139 0 -208 58.5t-69 160.5q0 76 26.5 139t75 108t118 69.5t155.5 24.5l2 12t1 12q0 20 -12 35.5t-47 15.5h-10l5 30h120q41 0 58.5 -14.5t17.5 -47.5q0 -9 -1.5 -19.5t-3.5 -23.5z" />
    <glyph glyph-name="afii10039" unicode="&#x425;" horiz-adv-x="645" 
d="M371 416l236 244h65l-280 -289l114 -241q9 -19 22 -38t28 -34.5t31.5 -25.5t33.5 -12l-3 -20h-110q-28 0 -50.5 10t-40.5 26t-31 35.5t-22 38.5l-74 156l-257 -266h-65l300 311l-103 219q-9 19 -22 38t-28 34.5t-32 25.5t-33 12l4 20h110q28 0 50.5 -10t40 -26
t30.5 -35.5t22 -38.5z" />
    <glyph glyph-name="afii10040" unicode="&#x426;" horiz-adv-x="709" 
d="M48 0q24 136 40.5 231t27.5 158t17 98.5t9 54t3.5 24.5t0.5 9q0 26 -12.5 40.5t-44.5 14.5h-10l5 30h120q39 0 56.5 -14.5t17.5 -52.5q0 -4 -0.5 -11t-3.5 -25.5t-9 -53t-16 -94t-26 -148.5t-38 -216h260l109 615h130l-109 -615h35q13 0 21.5 -8t8.5 -20q0 -1 -0.5 -5
t-4 -23t-10.5 -59.5t-20 -114.5h-50q1 14 1.5 25.5t0.5 22.5q0 40 -6 66t-18 42t-29.5 22.5t-40.5 6.5h-415z" />
    <glyph glyph-name="afii10041" unicode="&#x427;" horiz-adv-x="660" 
d="M102 405q0 42 11 84t11 86q0 26 -12.5 40.5t-44.5 14.5h-10l5 30h120q39 0 56.5 -14.5t17.5 -52.5q0 -23 -4 -46t-8.5 -46.5t-8.5 -47t-4 -48.5q0 -60 32 -90t83 -30q31 0 60 5.5t53 14.5l63 355h130l-116 -660h-130l45 260q-24 -10 -59.5 -15t-72.5 -5q-106 0 -161.5 40
t-55.5 125z" />
    <glyph glyph-name="afii10042" unicode="&#x428;" horiz-adv-x="952" 
d="M48 0q24 136 40.5 231t27.5 158t17 98.5t9 54t3.5 24.5t0.5 9q0 26 -12.5 40.5t-44.5 14.5h-10l5 30h120q39 0 56.5 -14.5t17.5 -52.5q0 -4 -0.5 -11t-3.5 -25.5t-9 -53t-16 -94t-26 -148.5t-38 -216h195l109 615h130l-109 -615h195l109 615h130l-116 -660h-780z" />
    <glyph glyph-name="afii10043" unicode="&#x429;" horiz-adv-x="969" 
d="M48 0q24 136 40.5 231t27.5 158t17 98.5t9 54t3.5 24.5t0.5 9q0 26 -12.5 40.5t-44.5 14.5h-10l5 30h120q39 0 56.5 -14.5t17.5 -52.5q0 -4 -0.5 -11t-3.5 -25.5t-9 -53t-16 -94t-26 -148.5t-38 -216h195l109 615h130l-109 -615h195l109 615h130l-109 -615h35
q13 0 21.5 -8t8.5 -20q0 -1 -0.5 -5t-4 -23t-10.5 -59.5t-20 -114.5h-50q1 14 1.5 25.5t0.5 22.5q0 40 -6 66t-18 42t-29.5 22.5t-40.5 6.5h-675z" />
    <glyph glyph-name="afii10044" unicode="&#x42a;" horiz-adv-x="720" 
d="M338 390h90q49 0 96.5 -7.5t85 -25.5t60 -48.5t22.5 -77.5q0 -69 -31 -114t-79 -71t-107 -36t-115 -10h-89h-131l108 615h-11q-57 0 -90.5 -36t-51.5 -119h-40l29 165q2 15 13.5 25t27.5 10h261zM401 350q-15 0 -28 -1.5t-23 -3.5q-11 -3 -21 -5l-51 -290q8 -3 19 -5
q20 -5 50 -5h5q97 0 149 51t52 145q0 56 -35.5 85t-111.5 29h-5z" />
    <glyph glyph-name="afii10045" unicode="&#x42b;" horiz-adv-x="897" 
d="M304 350q-14 0 -26 -1.5t-21 -3.5l-20 -5l-51 -290q7 -3 18 -5q18 -5 46 -5q97 0 149 51t52 145q0 56 -35.5 85t-111.5 29zM326 390q49 0 96.5 -7.5t85 -25.5t60 -48.5t22.5 -77.5q0 -69 -31 -114t-79 -71t-107 -36t-115 -10h-83h-127q24 136 40.5 231t27.5 158t17 98.5
t9 54t3.5 24.5t0.5 9q0 26 -12.5 40.5t-44.5 14.5h-10l5 30h120q39 0 56.5 -14.5t17.5 -52.5q0 -6 -1 -15.5t-4 -30.5t-9.5 -58t-17.5 -99h80zM868 660q-24 -137 -41 -231.5t-28 -157t-17 -98t-9 -54t-3.5 -24t-0.5 -8.5q0 -27 12.5 -42t45.5 -15h10l-5 -30h-120
q-40 0 -57.5 15t-17.5 54q0 4 0.5 11t3.5 26t9.5 56t17.5 101.5t28 161t42 235.5h130z" />
    <glyph glyph-name="afii10046" unicode="&#x42c;" horiz-adv-x="628" 
d="M309 350q-15 0 -28 -1.5t-23 -3.5q-11 -3 -21 -5l-51 -290q8 -3 19 -5q20 -5 50 -5h5q97 0 149 51t52 145q0 56 -35.5 85t-111.5 29h-5zM336 390q49 0 96.5 -7.5t85 -25.5t60 -48.5t22.5 -77.5q0 -69 -31 -114t-79 -71t-107 -36t-115 -10h-94h-126q24 136 40.5 231
t27.5 158t17 98.5t9 54t3.5 24.5t0.5 9q0 26 -12.5 40.5t-44.5 14.5h-10l5 30h120q39 0 56.5 -14.5t17.5 -52.5q0 -6 -1 -15.5t-4 -30.5t-9.5 -58t-17.5 -99h90z" />
    <glyph glyph-name="afii10047" unicode="&#x42d;" horiz-adv-x="680" 
d="M79 447q7 42 18.5 84.5t34.5 67.5q34 32 95.5 56.5t155.5 24.5q62 0 112.5 -21.5t86 -60t55 -91t19.5 -114.5q0 -85 -29.5 -160t-82 -131.5t-125 -89t-159.5 -32.5q-105 0 -166 39t-94 122l40 27q24 -70 76.5 -106.5t121.5 -36.5q58 0 103.5 23.5t79 63t55 91t32.5 107.5
h-310l8 45h309q6 43 6 79q0 57 -13.5 95.5t-37 62t-56 33.5t-69.5 10q-83 0 -142 -48.5t-94 -139.5h-30z" />
    <glyph glyph-name="afii10048" unicode="&#x42e;" horiz-adv-x="920" 
d="M529 -20q-55 0 -100 19t-77.5 54.5t-50.5 85t-18 111.5q0 34 6 70h-55l-56 -320h-130q24 136 40.5 231t27.5 158t17 98.5t9 54t3.5 24.5t0.5 9q0 26 -12.5 40.5t-44.5 14.5h-10l5 30h120q39 0 56.5 -14.5t17.5 -52.5q0 -6 -1 -16t-4.5 -33t-11 -65.5t-19.5 -113.5h56
q18 71 53 129t82 99.5t103 64t116 22.5q55 0 100 -19.5t77 -54.5t50 -85.5t18 -111.5q0 -94 -31.5 -172.5t-83 -135.5t-118 -89t-135.5 -32zM537 25q46 0 87 37.5t72 98t49 135.5t18 150q0 95 -32.5 142t-86.5 47q-46 0 -87 -38.5t-71.5 -99t-48.5 -136t-18 -150.5
q0 -94 32 -140t86 -46z" />
    <glyph glyph-name="afii10049" unicode="&#x42f;" horiz-adv-x="631" 
d="M400 620q-24 0 -52 -11.5t-52 -35.5t-40.5 -59.5t-16.5 -83.5q0 -30 10 -52.5t25.5 -37t35.5 -21.5t41 -7h60l53 301q-9 1 -20 3q-9 2 -20.5 3t-23.5 1zM244 129q-33 -41 -61.5 -68.5t-54.5 -44.5t-50.5 -24.5t-48.5 -7.5q-19 0 -39 3t-27 7l4 25q23 3 58 25.5t85 84.5
l122 151q-24 5 -48 16.5t-42.5 30.5t-30.5 44.5t-12 57.5q0 48 15.5 83.5t41 61t58 42.5t67 26.5t67.5 13.5t59 4h276l-5 -30h-10q-45 0 -63 -27.5t-25 -72.5l-93 -530h-131l47 272h-44z" />
    <glyph glyph-name="afii10065" unicode="&#x430;" 
d="M296 435q-26 0 -46.5 -16t-36 -41t-26.5 -57t-18 -64.5t-10 -62t-3 -50.5q0 -48 16 -78.5t54 -30.5q23 0 41 10t32 22q16 14 28 33l48 270q-6 18 -17 32q-9 12 -24 22.5t-38 10.5zM284 480q30 0 50 -8.5t32 -19.5q14 -12 23 -27h5l43 45h85l-65 -370l-17 -100h-85l-28 45
h-5q-14 -16 -32 -28q-16 -11 -39 -19t-53 -8q-45 0 -77.5 14t-54 38t-32 57t-10.5 71q0 52 17.5 107t50.5 100t81.5 74t110.5 29z" />
    <glyph glyph-name="afii10066" unicode="&#x431;" 
d="M299 395q-37 0 -62.5 -28t-41.5 -68t-23 -82.5t-7 -72.5q0 -32 6.5 -53t16.5 -33.5t23 -17.5t25 -5q37 0 62.5 28t41 67.5t22.5 82t7 72.5q0 31 -6.5 52.5t-16.5 34t-22.5 18t-24.5 5.5zM306 513q-32 -7 -61 -22t-53.5 -39.5t-43.5 -59.5t-29 -82h5q33 60 82 95t121 35
q39 0 71 -10t55.5 -30.5t36.5 -51.5t13 -74q0 -74 -22 -127.5t-59.5 -88t-87.5 -51.5t-106 -17q-91 0 -141.5 48t-50.5 139q0 96 22.5 172.5t58.5 132t80 88.5t87 43l144 32q44 10 70.5 20.5t33.5 29.5h30l-14 -80q-3 -19 -18.5 -38t-53.5 -27z" />
    <glyph glyph-name="afii10067" unicode="&#x432;" horiz-adv-x="528" 
d="M278 430q-8 0 -21 -1.5t-25 -5.5l-27 -153h35q21 0 41 6.5t35 19t24.5 30.5t9.5 40q0 33 -22.5 48.5t-49.5 15.5zM28 0q15 89 26 151t18 104l11 66t6 37.5t2.5 18.5t0.5 8q0 26 -12.5 40.5t-44.5 14.5h-5l5 30h268q83 0 133 -25.5t50 -76.5q0 -54 -40.5 -84.5
t-106.5 -38.5q57 -7 92.5 -31.5t35.5 -66.5q0 -38 -18 -66t-51 -46t-78 -26.5t-99 -8.5h-64h-129zM210 40q25 0 47 7t38.5 21t26.5 34.5t10 48.5q0 37 -26.5 55.5t-73.5 18.5h-35l-31 -178q11 -4 23.5 -5.5t20.5 -1.5z" />
    <glyph glyph-name="afii10068" unicode="&#x433;" horiz-adv-x="450" 
d="M198 35q60 0 96.5 33.5t53.5 81.5h35q-8 -45 -19.5 -75.5t-34.5 -49.5t-61 -27t-98 -8q-81 0 -132.5 28t-51.5 83q0 31 11.5 55.5t33 44t52.5 36t70 31.5l64 25q40 16 62.5 35t22.5 53q0 24 -17.5 39t-56.5 15q-60 0 -97 -33.5t-53 -81.5h-35q8 45 19.5 75.5t34.5 49.5
t61 27t98 8q75 0 122 -28t47 -82q0 -58 -42.5 -97t-112.5 -67l-56 -22q-47 -18 -76 -38.5t-29 -56.5q0 -24 19.5 -39t69.5 -15z" />
    <glyph glyph-name="afii10069" unicode="&#x434;" horiz-adv-x="562" 
d="M438 390q1 10 1.5 19.5t0.5 19.5q0 39 -8 73t-26 59t-47 39.5t-71 14.5q-22 0 -43.5 -4.5t-40.5 -11t-34 -13t-22 -10.5l-17 42q9 6 27.5 15t43 17.5t54.5 14t62 5.5q57 0 97 -21t65.5 -57.5t37 -86t11.5 -106.5q0 -90 -19 -165t-57 -129.5t-94.5 -84.5t-130.5 -30
q-52 0 -90 13.5t-63 38.5t-37.5 58.5t-12.5 74.5q0 60 20 113.5t56.5 94t87.5 64t113 23.5q49 0 86.5 -21t49.5 -59zM375 229q6 36 6 71q0 25 -4 48t-13.5 40t-24 27t-35.5 10q-36 0 -63 -27.5t-45.5 -68t-28 -88t-9.5 -86.5q0 -63 22 -91.5t56 -28.5q42 0 81.5 46.5
t57.5 147.5z" />
    <glyph glyph-name="afii10070" unicode="&#x435;" horiz-adv-x="508" 
d="M272 245q20 0 35.5 11t26 28t16 37.5t5.5 40.5q0 38 -18.5 55.5t-41.5 17.5q-21 0 -40 -9.5t-35.5 -32t-30 -58.5t-22.5 -90h105zM490 358q0 -43 -20 -73t-52.5 -49t-73 -27.5t-80.5 -8.5h-105q-6 -32 -6 -56q0 -55 23.5 -82t63.5 -27q52 0 88.5 24t68.5 59l27 -23
q-14 -17 -32.5 -35.5t-43.5 -34t-57.5 -25.5t-73.5 -10q-46 0 -81.5 14t-60 39.5t-37.5 61t-13 77.5q0 57 19.5 110.5t55.5 95t87.5 67t115.5 25.5q89 0 138 -32.5t49 -89.5z" />
    <glyph glyph-name="afii10072" unicode="&#x436;" horiz-adv-x="741" 
d="M339 470h130l-39 -225l137 148q18 19 34.5 33.5t35 24t40 14.5t47.5 5h20l-4 -26q-30 0 -57 -11.5t-52 -38.5l-109 -118l93 -176q19 -35 39.5 -53t40.5 -23l-4 -24q-8 -4 -30 -7t-41 -3q-42 0 -74 19.5t-59 70.5l-65 123l-35 -203h-130l35 203l-107 -123
q-45 -51 -84 -70.5t-81 -19.5q-19 0 -39.5 3t-27.5 7l4 24q22 5 48.5 23t57.5 53l155 176l-67 118q-16 27 -38.5 38.5t-52.5 11.5l4 26h20q53 0 81 -19.5t50 -57.5l85 -148z" />
    <glyph glyph-name="afii10073" unicode="&#x437;" horiz-adv-x="461" 
d="M118 265h50q63 0 92.5 24t29.5 80q0 35 -23 50.5t-54 15.5q-45 0 -81.5 -30.5t-47.5 -79.5h-30q8 42 16 71.5t30 48.5t61.5 27t84.5 8q82 0 130.5 -26t48.5 -81t-39 -90t-102 -43q54 -7 85 -33.5t31 -65.5q0 -40 -19 -68.5t-51 -47t-74.5 -27t-90.5 -8.5q-71 0 -111 23
t-60 57l34 25q6 -9 15 -19.5t22.5 -19.5t32.5 -15t45 -6q25 0 47 6.5t39 20.5t27 36t10 54q0 34 -23 51t-83 17h-50z" />
    <glyph glyph-name="afii10074" unicode="&#x438;" horiz-adv-x="567" 
d="M81 340q5 28 5 45q0 26 -12.5 40.5t-44.5 14.5h-10l5 30h120q39 0 56.5 -14.5t17.5 -52.5q0 -28 -7 -63q-12 -71 -19 -113t-10.5 -65t-4.5 -32.5t-1 -15.5q0 -44 17.5 -61.5t49.5 -17.5q23 0 41 10t32 22q16 14 28 33l65 370h130l-82 -470h-85l-28 45h-5q-17 -16 -37 -28
q-18 -11 -42.5 -19t-54.5 -8q-80 0 -119 30.5t-39 98.5q0 6 0.5 15.5t4 32t10.5 63t19 110.5z" />
    <glyph glyph-name="afii10075" unicode="&#x439;" horiz-adv-x="567" 
d="M81 340q5 28 5 45q0 26 -12.5 40.5t-44.5 14.5h-10l5 30h120q39 0 56.5 -14.5t17.5 -52.5q0 -28 -7 -63q-12 -71 -19 -113t-10.5 -65t-4.5 -32.5t-1 -15.5q0 -44 17.5 -61.5t49.5 -17.5q23 0 41 10t32 22q16 14 28 33l65 370h130l-82 -470h-85l-28 45h-5q-17 -16 -37 -28
q-18 -11 -42.5 -19t-54.5 -8q-80 0 -119 30.5t-39 98.5q0 6 0.5 15.5t4 32t10.5 63t19 110.5zM330 575q42 0 72.5 15.5t49.5 34.5l24 -21q-26 -42 -67.5 -68t-90.5 -26t-81 26t-43 68l32 21q11 -19 36.5 -34.5t67.5 -15.5z" />
    <glyph glyph-name="afii10076" unicode="&#x43a;" horiz-adv-x="527" 
d="M197 196l-34 -196h-130q15 89 26 151t18 104l11 66t6 37.5t2.5 18.5t0.5 8q0 26 -12.5 40.5t-44.5 14.5h-10l5 30h120q39 0 56.5 -14.5t17.5 -52.5q0 -6 -1 -15t-3 -25.5t-7 -44.5t-12 -73l147 148q18 18 35 32.5t35.5 24.5t39.5 15t47 5h20l-4 -26q-30 0 -56.5 -12
t-52.5 -38l-118 -118l102 -176q38 -67 80 -76l-4 -24q-8 -4 -30 -7t-41 -3q-42 0 -76 17.5t-59 62.5z" />
    <glyph glyph-name="afii10077" unicode="&#x43b;" horiz-adv-x="569" 
d="M249 350q-18 -101 -42.5 -171t-54.5 -113t-65 -62t-72 -19q-16 0 -33 3t-25 6l5 29q27 4 52.5 19.5t48.5 51t43.5 97t38.5 159.5q3 18 3 34q0 25 -13 40.5t-49 15.5l5 30h450l-82 -470h-130l74 425h-141z" />
    <glyph glyph-name="afii10078" unicode="&#x43c;" horiz-adv-x="669" 
d="M628 480q-23 -129 -36 -203.5t-19 -114.5t-7.5 -54.5t-1.5 -23.5q0 -74 53 -84l-5 -25q-92 0 -133 34.5t-41 104.5q0 6 0.5 15.5t4 33t11 66t20.5 115.5l-204 -344h-33l-112 354l-62 -353h-50l82 469h122l95 -301l185 311h131z" />
    <glyph glyph-name="afii10079" unicode="&#x43d;" horiz-adv-x="583" 
d="M200 215l-37 -215h-130q15 89 26 151t18 104l11 66t6 37.5t2.5 18.5t0.5 8q0 26 -12.5 40.5t-44.5 14.5h-10l5 30h120q39 0 56.5 -14.5t17.5 -52.5q0 -6 -1 -14.5t-3 -24t-6 -40.5t-11 -64h160l37 210h130q-16 -89 -27 -151t-18 -103.5t-11 -66t-6 -37t-2.5 -17.5
t-0.5 -8q0 -27 12.5 -42t45.5 -15h10l-5 -30h-120q-40 0 -57.5 15t-17.5 54q0 6 1 14t3 23.5t6.5 41.5t11.5 67h-160z" />
    <glyph glyph-name="afii10080" unicode="&#x43e;" horiz-adv-x="553" 
d="M234 35q41 0 69 31t45.5 74.5t25 91.5t7.5 81q0 56 -18.5 89t-58.5 33q-41 0 -69 -31t-45.5 -74.5t-25 -91.5t-7.5 -81q0 -56 18.5 -89t58.5 -33zM24 184q0 56 21.5 109.5t60 95t91 66.5t115.5 25q49 0 87 -14.5t63.5 -40.5t38.5 -61.5t13 -77.5q0 -56 -21.5 -109.5
t-60 -95t-91 -66.5t-115.5 -25q-49 0 -87 14.5t-63.5 40.5t-38.5 61.5t-13 77.5z" />
    <glyph glyph-name="afii10081" unicode="&#x43f;" horiz-adv-x="577" 
d="M322 430q-32 0 -57 -9t-40 -22q3 -29 -2 -53l-61 -346h-130l59 340q5 28 5 47q0 25 -12 39t-44 14h-10l5 30h99q34 0 52 -8.5t26 -28.5q20 17 56.5 32t97.5 15q81 0 122 -31.5t41 -100.5q0 -12 -1.5 -25t-3.5 -27l-52 -296h-130l52 297q4 23 4 46q0 48 -21 67.5t-55 19.5
z" />
    <glyph glyph-name="afii10082" unicode="&#x440;" horiz-adv-x="569" 
d="M356 480q44 0 76.5 -13.5t54 -38t32 -58t10.5 -73.5q0 -59 -18.5 -114t-53 -98t-83 -69t-109.5 -26q-25 0 -43 4.5t-31 10.5q-15 6 -26 15l-37 -210h-130q24 137 40.5 232t27.5 157.5t17 98.5t9 54.5t3.5 24.5t0.5 9q0 26 -12 40t-44 14h-10l5 30h99q34 0 52.5 -9
t24.5 -33q10 8 24.5 17t32.5 17t40 13t48 5zM328 435q-38 0 -63.5 -14t-40.5 -27v-5q0 -2 0.5 -5.5t0.5 -8.5v-5.5t-1.5 -13.5t-5 -29.5t-9 -53t-14.5 -84.5t-22 -124q9 -9 21 -15q11 -6 25.5 -10.5t33.5 -4.5q28 0 50 16t38 41.5t26.5 58t17 64.5t9.5 61.5t3 49.5
q0 50 -15.5 79.5t-53.5 29.5z" />
    <glyph glyph-name="afii10083" unicode="&#x441;" horiz-adv-x="498" 
d="M320 435q-45 0 -76 -29.5t-50.5 -72.5t-28 -91t-8.5 -85q0 -122 98 -122q52 0 88.5 24t68.5 59l27 -23q-14 -17 -32.5 -35.5t-44 -34t-59 -25.5t-76.5 -10q-52 0 -90 14.5t-63 40t-37 60t-12 75.5q0 61 20.5 115.5t58 95.5t90.5 65t119 24q21 0 49 -1.5t53 -9t42.5 -23.5
t17.5 -46q0 -17 -3.5 -40.5t-9.5 -54.5h-30q1 6 1 12v12q0 53 -29.5 79.5t-83.5 26.5z" />
    <glyph glyph-name="afii10084" unicode="&#x442;" horiz-adv-x="827" 
d="M217 432q20 16 54.5 32t79.5 16q28 0 49.5 -6.5t37.5 -15.5t26 -18.5t15 -16.5q23 22 58.5 39.5t93.5 17.5q71 0 109.5 -31.5t38.5 -100.5q0 -6 -1 -17t-6.5 -45t-17 -101t-32.5 -185h-130q14 79 23.5 134.5t16 93t10 59.5t5 34.5t2 17.5t0.5 9q0 45 -17.5 63.5
t-44.5 18.5q-28 0 -52.5 -11t-39.5 -27q1 -4 2 -9t2 -12t1 -17q0 -4 -0.5 -9.5t-2 -18t-5.5 -35t-10.5 -60.5t-16 -94.5t-23.5 -136.5h-130q14 79 23.5 134.5t16 93t10 59.5t5 34.5t2 17.5t0.5 9q0 45 -17.5 63.5t-44.5 18.5q-23 0 -47.5 -13.5t-36.5 -26.5v-5q0 -2 0.5 -5
t0.5 -8q0 -2 -0.5 -6t-2 -16.5t-5 -35.5t-10.5 -63.5t-17.5 -101.5t-26.5 -149h-130q15 89 26 151.5t18 104.5l11 66t6 37.5t2.5 18.5t0.5 8q0 26 -12 40t-44 14h-10l5 30h99q30 0 51 -8.5t28 -29.5h4z" />
    <glyph glyph-name="afii10085" unicode="&#x443;" horiz-adv-x="509" 
d="M226 -65q-23 -41 -44 -67t-43 -41t-45.5 -21t-49.5 -6h-40l6 35q26 0 48.5 4.5t42 15.5t37 29.5t34.5 47.5l30 54l-110 394q-11 38 -30.5 57t-48.5 23l3 20h88q45 0 75 -21.5t41 -58.5l71 -252l178 322h53z" />
    <glyph glyph-name="afii10086" unicode="&#x444;" horiz-adv-x="706" 
d="M369 25q25 4 53.5 23.5t53 54t40.5 83.5t16 113q0 67 -26.5 103t-62.5 43zM323 445q-25 -5 -53.5 -24t-53 -53.5t-40.5 -83.5t-16 -113q0 -67 26 -102.5t63 -43.5zM324 480q4 25 7 41t4.5 26.5t2 16.5t0.5 11q0 26 -12.5 40.5t-44.5 14.5h-10l5 30h120q39 0 56.5 -14.5
t17.5 -52.5q0 -6 -0.5 -14t-2.5 -20.5t-5 -31.5t-8 -47q104 -7 157.5 -60.5t53.5 -135.5q0 -60 -21.5 -111.5t-60.5 -91t-93.5 -63.5t-121.5 -28l-32 -180h-130l32 180q-104 7 -158 60t-54 136q0 60 21.5 111.5t60.5 91t94 63.5t122 28z" />
    <glyph glyph-name="afii10087" unicode="&#x445;" horiz-adv-x="497" 
d="M180 209l-67 161q-15 36 -36 56t-43 24l3 20h95q49 0 74 -21.5t40 -58.5l34 -81l159 161h67l-205 -208l68 -162q15 -36 36 -56t43 -24l-3 -20h-95q-49 0 -74 21.5t-40 58.5l-35 81l-159 -161h-67z" />
    <glyph glyph-name="afii10088" unicode="&#x446;" horiz-adv-x="573" 
d="M335 45q-19 -19 -52.5 -37t-81.5 -18q-80 0 -119 30.5t-39 98.5q0 13 1 26.5t4 28.5l29 166q2 12 3.5 23.5t1.5 21.5q0 26 -12.5 40.5t-44.5 14.5h-10l5 30h120q39 0 56.5 -14.5t17.5 -52.5q1 -13 -1.5 -28.5t-5.5 -34.5l-29 -167q-6 -35 -6 -59q0 -44 17.5 -61.5
t49.5 -17.5q18 0 33.5 6t28 16t22.5 21t17 22l65 370h130l-75 -425h30q13 0 21.5 -8t8.5 -20q0 -2 -0.5 -3.5t-0.5 -3.5l-30 -170h-45q1 13 1.5 24.5t0.5 21.5q0 36 -7.5 57.5t-18.5 33t-24.5 17t-25.5 11t-20.5 14t-10.5 26.5h-4z" />
    <glyph glyph-name="afii10089" unicode="&#x447;" horiz-adv-x="553" 
d="M84 278q0 26 6.5 52t6.5 55q0 26 -12.5 40.5t-44.5 14.5h-10l5 30h120q39 0 56.5 -14.5t17.5 -52.5q0 -32 -7.5 -62.5t-7.5 -64.5q0 -38 18 -54.5t50 -16.5q23 0 38 4t31 12l44 249h130l-82 -470h-130l31 178q-17 -7 -42 -12.5t-51 -5.5q-35 0 -65.5 6.5t-53 20.5
t-35.5 36.5t-13 54.5z" />
    <glyph glyph-name="afii10090" unicode="&#x448;" horiz-adv-x="818" 
d="M508 35q19 0 45 18.5t42 46.5l65 370h130l-82 -470h-85l-28 45h-5q-24 -22 -52 -38.5t-73 -16.5q-26 0 -47 6.5t-36 15.5t-25 18.5t-14 16.5q-24 -22 -59 -39.5t-93 -17.5q-71 0 -109.5 31t-38.5 100q0 12 1 25t4 28l29 166q2 12 3.5 23.5t1.5 21.5q0 26 -12.5 40.5
t-44.5 14.5h-10l5 30h120q39 0 56.5 -14.5t17.5 -52.5q0 -13 -2 -28.5t-5 -34.5l-29 -167q-2 -14 -3.5 -27t-1.5 -24q0 -45 17.5 -63.5t44.5 -18.5q28 0 52.5 11t39.5 27q-5 13 -5 37q0 21 6 59l52 296h130l-52 -297q-6 -33 -6 -57q0 -45 16 -63t40 -18z" />
    <glyph glyph-name="afii10091" unicode="&#x449;" horiz-adv-x="828" 
d="M590 45q-24 -22 -52 -38.5t-73 -16.5q-26 0 -47 6.5t-36 15.5t-25 18.5t-14 16.5q-24 -22 -59 -39.5t-93 -17.5q-71 0 -109.5 31t-38.5 100q0 12 1 25t4 28l29 166q2 12 3.5 23.5t1.5 21.5q0 26 -12.5 40.5t-44.5 14.5h-10l5 30h120q39 0 56.5 -14.5t17.5 -52.5
q0 -13 -2 -28.5t-5 -34.5l-29 -167q-2 -14 -3.5 -27t-1.5 -24q0 -45 17.5 -63.5t44.5 -18.5q28 0 52.5 11t39.5 27q-5 13 -5 37q0 21 6 59l52 296h130l-52 -297q-6 -33 -6 -57q0 -45 16 -63t40 -18q19 0 45 18.5t42 46.5l65 370h130l-75 -425h30q13 0 21.5 -8t8.5 -20
q0 -2 -0.5 -3.5t-0.5 -3.5l-30 -170h-45q1 13 1.5 24.5t0.5 21.5q0 36 -7.5 57.5t-18.5 33t-24.5 17t-25.5 11t-20.5 14t-10.5 26.5h-4z" />
    <glyph glyph-name="afii10092" unicode="&#x44a;" horiz-adv-x="597" 
d="M193 425q-53 -4 -80.5 -37t-42.5 -98h-40l25 145q2 15 14 25t27 10h235l-33 -190h75q85 0 133.5 -29.5t48.5 -86.5q0 -39 -17.5 -69.5t-48 -51.5t-73 -32t-92.5 -11h-74h-131zM257 47q11 -4 23.5 -5.5t20.5 -1.5q21 0 42.5 6t39 21t28 39.5t10.5 61.5q0 41 -24.5 56.5
t-60.5 15.5q-8 0 -21.5 -1.5t-24.5 -5.5z" />
    <glyph glyph-name="afii10093" unicode="&#x44b;" horiz-adv-x="743" 
d="M171 47q11 -4 23.5 -5.5t20.5 -1.5q18 0 37 6t35.5 21t27 39.5t10.5 61.5q0 41 -23 56.5t-52 15.5q-8 0 -21.5 -1.5t-24.5 -5.5zM33 0q15 89 26 151t18 104l11 66t6 37.5t2.5 18.5t0.5 8q0 26 -12.5 40.5t-44.5 14.5h-10l5 30h120q39 0 56.5 -14.5t17.5 -52.5
q0 -6 -0.5 -14.5t-2.5 -22t-5.5 -34t-8.5 -52.5h65q85 0 133.5 -29.5t48.5 -86.5q0 -39 -17.5 -69.5t-48 -51.5t-73 -32t-92.5 -11h-63h-132zM695 470q-16 -89 -27 -151t-18 -103.5t-11 -66t-6 -37t-2.5 -17.5t-0.5 -8q0 -27 12.5 -42t45.5 -15h10l-5 -30h-120
q-40 0 -57.5 15t-17.5 54q0 4 0.5 10t2.5 20t6.5 39.5t12 69t18.5 107.5t27 155h130z" />
    <glyph glyph-name="afii10094" unicode="&#x44c;" horiz-adv-x="511" 
d="M171 47q11 -4 23.5 -5.5t20.5 -1.5q21 0 42.5 6t39 21t28 39.5t10.5 61.5q0 41 -24.5 56.5t-60.5 15.5q-8 0 -21.5 -1.5t-24.5 -5.5zM33 0q15 89 26 151t18 104l11 66t6 37.5t2.5 18.5t0.5 8q0 26 -12.5 40.5t-44.5 14.5h-10l5 30h120q39 0 56.5 -14.5t17.5 -52.5
q0 -6 -0.5 -14.5t-2.5 -22t-5.5 -34t-8.5 -52.5h75q85 0 133.5 -29.5t48.5 -86.5q0 -39 -17.5 -69.5t-48 -51.5t-73 -32t-92.5 -11h-73h-132z" />
    <glyph glyph-name="afii10095" unicode="&#x44d;" horiz-adv-x="504" 
d="M239 435q-60 0 -101.5 -33t-56.5 -97h-30q5 28 9.5 50t10 39t12.5 29.5t18 21.5q22 19 63 27t98 8q52 0 90 -14.5t63 -40t37 -60.5t12 -76q0 -59 -20 -113t-57.5 -95t-90.5 -66t-120 -25q-43 0 -73 10t-50.5 25.5t-32.5 34t-20 35.5l35 23q10 -17 21.5 -32.5t26.5 -26.5
t35 -17.5t46 -6.5q116 0 155 175h-189l7 45h189q2 14 3 27.5t1 25.5q0 64 -24.5 95.5t-66.5 31.5z" />
    <glyph glyph-name="afii10096" unicode="&#x44e;" horiz-adv-x="738" 
d="M426 -10q-45 0 -80 14.5t-59 40.5t-36.5 62t-12.5 78q0 8 0.5 15t1.5 15h-40l-37 -215h-130q15 89 26 151t18 104l11 66t6 37.5t2.5 18.5t0.5 8q0 26 -12.5 40.5t-44.5 14.5h-10l5 30h120q39 0 56.5 -14.5t17.5 -52.5q0 -6 -1 -14.5t-3 -24t-6 -40.5t-11 -64h41
q12 47 36.5 87t59 69.5t77 46.5t90.5 17q44 0 78.5 -14.5t58.5 -40.5t36.5 -61.5t12.5 -77.5q0 -60 -21.5 -114t-58.5 -94.5t-86.5 -64t-105.5 -23.5zM434 35q31 0 55.5 29.5t42 73t26.5 93.5t9 91q0 51 -15.5 82t-47.5 31q-26 0 -50 -23t-42.5 -62.5t-29.5 -91.5t-11 -110
q0 -52 15 -82.5t48 -30.5z" />
    <glyph glyph-name="afii10097" unicode="&#x44f;" horiz-adv-x="531" 
d="M269 235q18 0 31.5 3.5t14.5 3.5l32 181q-1 -1 -13.5 3t-30.5 4q-20 0 -40 -6t-36.5 -20.5t-27 -37.5t-10.5 -57q0 -39 23.5 -56.5t56.5 -17.5zM403 0h-130l34 194h-44l-81 -119q-31 -45 -64.5 -67.5t-87.5 -22.5q-19 0 -35.5 3t-26.5 7l3 26q28 4 53 25.5t45 48.5
l79 104q-45 7 -70 34.5t-25 67.5q0 46 19.5 78t53.5 52.5t79 29.5t95 9h260l-5 -30h-5q-45 0 -63 -27.5t-25 -72.5z" />
    <glyph glyph-name="afii10071" unicode="&#x451;" horiz-adv-x="508" 
d="M272 245q20 0 35.5 11t26 28t16 37.5t5.5 40.5q0 38 -18.5 55.5t-41.5 17.5q-21 0 -40 -9.5t-35.5 -32t-30 -58.5t-22.5 -90h105zM490 358q0 -43 -20 -73t-52.5 -49t-73 -27.5t-80.5 -8.5h-105q-6 -32 -6 -56q0 -55 23.5 -82t63.5 -27q52 0 88.5 24t68.5 59l27 -23
q-14 -17 -32.5 -35.5t-43.5 -34t-57.5 -25.5t-73.5 -10q-46 0 -81.5 14t-60 39.5t-37.5 61t-13 77.5q0 57 19.5 110.5t55.5 95t87.5 67t115.5 25.5q89 0 138 -32.5t49 -89.5zM294 601q0 -26 -19.5 -46t-47.5 -20q-23 0 -35 12.5t-12 31.5q0 26 19 47t48 21q23 0 35 -13
t12 -33zM474 601q0 -26 -19.5 -46t-47.5 -20q-23 0 -35 12.5t-12 31.5q0 26 19 47t48 21q23 0 35 -13t12 -33z" />
    <glyph glyph-name="afii10099" unicode="&#x452;" horiz-adv-x="547" 
d="M451 55q-17 -98 -77.5 -146.5t-169.5 -48.5l4 25q43 8 70.5 47.5t42.5 122.5q14 81 22 127.5t12 71t5 33.5t1 14q0 45 -17.5 62t-44.5 17q-23 0 -49.5 -13.5t-49.5 -34.5l-58 -332h-130l87 495h-70l8 45h70l10 60l61 60h80l-21 -120h100l-8 -45h-100l-20 -115
q26 23 60 36.5t68 13.5q31 0 59 -6t49 -20.5t33.5 -39.5t12.5 -64q0 -6 -1 -15t-5 -33.5t-12 -70.5t-22 -126z" />
    <glyph glyph-name="afii10100" unicode="&#x453;" horiz-adv-x="450" 
d="M198 35q60 0 96.5 33.5t53.5 81.5h35q-8 -45 -19.5 -75.5t-34.5 -49.5t-61 -27t-98 -8q-81 0 -132.5 28t-51.5 83q0 31 11.5 55.5t33 44t52.5 36t70 31.5l64 25q40 16 62.5 35t22.5 53q0 24 -17.5 39t-56.5 15q-60 0 -97 -33.5t-53 -81.5h-35q8 45 19.5 75.5t34.5 49.5
t61 27t98 8q75 0 122 -28t47 -82q0 -58 -42.5 -97t-112.5 -67l-56 -22q-47 -18 -76 -38.5t-29 -56.5q0 -24 19.5 -39t69.5 -15zM251 513h-55l67 140h119z" />
    <glyph glyph-name="afii10101" unicode="&#x454;" horiz-adv-x="504" 
d="M320 435q-50 0 -90.5 -44.5t-60.5 -135.5h189l-7 -45h-189q-2 -15 -3 -28t-1 -26q0 -121 97 -121q52 0 88.5 24t68.5 59l27 -23q-14 -17 -32.5 -35.5t-44 -34t-59 -25.5t-76.5 -10q-52 0 -90 14.5t-63 40t-37 60t-12 75.5q0 59 20 113t57 95.5t90.5 66.5t120.5 25
q83 0 122.5 -16.5t39.5 -63.5q0 -17 -3.5 -40.5t-9.5 -54.5h-30q1 6 1 12v12q0 52 -29.5 79t-83.5 27z" />
    <glyph glyph-name="afii10102" unicode="&#x455;" horiz-adv-x="469" 
d="M167 35q17 0 37 3.5t37 12.5t28 23.5t11 36.5q0 25 -22.5 41.5t-54.5 31.5l-48 22q-49 23 -77 51t-28 68t19.5 69.5t50.5 48.5t69 28t76 9q21 0 50 -2t54.5 -10t43.5 -25.5t18 -47.5q0 -17 -2.5 -35.5t-6.5 -39.5h-35v3q0 47 -25.5 79.5t-84.5 32.5q-17 0 -34 -4.5
t-31.5 -14.5t-23.5 -24.5t-9 -35.5q0 -22 15.5 -36.5t43.5 -26.5l56 -25q56 -25 85.5 -52t29.5 -69t-21.5 -72t-54.5 -49t-74 -27.5t-80 -8.5q-21 0 -50 2t-54.5 10t-43.5 25.5t-18 47.5q0 17 2.5 35.5t6.5 39.5h35v-3q0 -47 25.5 -79.5t84.5 -32.5z" />
    <glyph glyph-name="afii10103" unicode="&#x456;" horiz-adv-x="271" 
d="M256 596q0 -29 -15.5 -50.5t-50.5 -21.5q-32 0 -47.5 17.5t-15.5 42.5q0 27 17.5 49.5t48.5 22.5q32 0 47.5 -17.5t15.5 -42.5zM92 340q5 28 5 45q0 26 -12.5 40.5t-44.5 14.5h-10l5 30h120q39 0 56.5 -14.5t17.5 -52.5q0 -13 -2 -28.5t-5 -34.5l-59 -340h-130z" />
    <glyph glyph-name="afii10104" unicode="&#x457;" horiz-adv-x="271" 
d="M178 606q0 -27 -17.5 -49.5t-48.5 -22.5q-32 0 -47.5 17.5t-15.5 42.5q0 27 17.5 49.5t48.5 22.5q32 0 47.5 -17.5t15.5 -42.5zM363 606q0 -27 -17.5 -49.5t-48.5 -22.5q-32 0 -47.5 17.5t-15.5 42.5q0 27 17.5 49.5t48.5 22.5q32 0 47.5 -17.5t15.5 -42.5zM33 0
q15 89 26 151.5t18 104t11 66t6 37.5t2.5 18t0.5 8q0 26 -12.5 40.5t-44.5 14.5h-10l5 30h120q39 0 56.5 -14.5t17.5 -52.5q0 -4 -0.5 -10.5t-2.5 -20.5t-6.5 -40t-11.5 -69t-18 -107.5t-27 -155.5h-130z" />
    <glyph glyph-name="afii10105" unicode="&#x458;" horiz-adv-x="270" 
d="M37 25q14 83 24.5 141t17 97t10.5 61.5t5.5 35t2 17.5t0.5 8q0 26 -12.5 40.5t-44.5 14.5h-10l5 30h120q39 0 56.5 -14.5t17.5 -52.5q0 -4 -0.5 -10t-2.5 -20t-6 -38t-11 -64.5t-17 -100.5t-25 -145q-11 -62 -29 -103.5t-48 -66t-73.5 -35t-104.5 -10.5l4 25
q23 4 41.5 15t33 33t26 56.5t20.5 85.5zM256 596q0 -27 -17.5 -49.5t-48.5 -22.5q-32 0 -47.5 17.5t-15.5 42.5q0 27 17.5 49.5t48.5 22.5q32 0 47.5 -17.5t15.5 -42.5z" />
    <glyph glyph-name="afii10106" unicode="&#x459;" horiz-adv-x="795" 
d="M455 47q11 -4 23.5 -5.5t20.5 -1.5q21 0 42.5 6t39 21t28 39.5t10.5 61.5q0 41 -24.5 56.5t-60.5 15.5q-8 0 -21.5 -1.5t-24.5 -5.5zM145 350q3 18 3 34q0 25 -13 40.5t-49 15.5l5 30h438l-33 -190h75q85 0 133.5 -29.5t48.5 -86.5q0 -39 -17.5 -69.5t-48 -51.5t-73 -32
t-92.5 -11h-77h-128l74 425h-129l-13 -75q-18 -101 -42.5 -171t-54.5 -113t-65 -62t-72 -19q-16 0 -33 3t-25 6l5 29q27 4 52.5 19.5t48.5 51t43.5 97t38.5 159.5z" />
    <glyph glyph-name="afii10107" unicode="&#x45a;" horiz-adv-x="789" 
d="M352 225h-150l-39 -225h-130q15 89 26 151t18 104l11 66t6 37.5t2.5 18.5t0.5 8q0 26 -12.5 40.5t-44.5 14.5h-10l5 30h120q39 0 56.5 -14.5t17.5 -52.5q0 -6 -0.5 -14.5t-3 -23t-6 -37t-9.5 -58.5h150l35 200h130l-35 -200h75q86 0 134.5 -29.5t48.5 -83.5
q0 -37 -17 -66t-48 -49.5t-73 -31t-92 -10.5h-205zM451 47q11 -4 23.5 -5.5t20.5 -1.5q22 0 43 6t37.5 20t27 37t10.5 57q0 39 -24.5 54.5t-60.5 15.5q-8 0 -21 -1.5t-25 -5.5z" />
    <glyph glyph-name="afii10108" unicode="&#x45b;" horiz-adv-x="548" 
d="M229 495l-20 -115q26 23 60 36.5t68 13.5q31 0 59 -6t49 -20.5t33.5 -39.5t12.5 -64q0 -6 -1 -15.5t-6 -39.5t-14.5 -87.5t-27.5 -157.5h-130q18 101 27.5 159t14.5 87.5t6 39.5t1 15q0 45 -17.5 62t-44.5 17q-23 0 -49.5 -13.5t-49.5 -34.5l-58 -332h-130l87 495h-70
l8 45h70l10 60l61 60h80l-21 -120h100l-8 -45h-100z" />
    <glyph glyph-name="afii10109" unicode="&#x45c;" horiz-adv-x="527" 
d="M197 196l-34 -196h-130q15 89 26 151t18 104l11 66t6 37.5t2.5 18.5t0.5 8q0 26 -12.5 40.5t-44.5 14.5h-10l5 30h120q39 0 56.5 -14.5t17.5 -52.5q0 -6 -1 -15t-3 -25.5t-7 -44.5t-12 -73l147 148q18 18 35 32.5t35.5 24.5t39.5 15t47 5h20l-4 -26q-30 0 -56.5 -12
t-52.5 -38l-118 -118l102 -176q38 -67 80 -76l-4 -24q-8 -4 -30 -7t-41 -3q-42 0 -76 17.5t-59 62.5zM318 483h-55l67 140h119z" />
    <glyph glyph-name="afii10110" unicode="&#x45e;" horiz-adv-x="509" 
d="M226 -65q-23 -41 -44 -67t-43 -41t-45.5 -21t-49.5 -6h-40l6 35q26 0 48.5 4.5t42 15.5t37 29.5t34.5 47.5l30 54l-110 394q-11 38 -30.5 57t-48.5 23l3 20h88q45 0 75 -21.5t41 -58.5l71 -252l178 322h53zM336 575q42 0 72.5 15.5t49.5 34.5l24 -21q-26 -42 -67.5 -68
t-90.5 -26t-81 26t-43 68l32 21q11 -19 36.5 -34.5t67.5 -15.5z" />
    <glyph glyph-name="afii10193" unicode="&#x45f;" horiz-adv-x="563" 
d="M33 0q15 89 26 151t18 104l11 66t6 37.5t2.5 18.5t0.5 8q0 26 -12.5 40.5t-44.5 14.5h-10l5 30h120q39 0 56.5 -14.5t17.5 -52.5q0 -6 -1.5 -18t-7 -47.5t-17.5 -104t-33 -188.5h160l75 425h130l-82 -470h-165l-42 -150h-60l12 150h-165z" />
    <glyph glyph-name="afii10050" unicode="&#x490;" horiz-adv-x="541" 
d="M286 615l-108 -615h-130q24 136 40.5 231t27.5 158t17 98.5t9 54t3.5 24.5t0.5 9q0 26 -12.5 40.5t-44.5 14.5h-10l5 30h359q60 0 97.5 27.5t48.5 92.5h30l-15 -85q-3 -15 -9 -29.5t-17 -25.5t-29 -18t-44 -7h-219z" />
    <glyph glyph-name="afii10098" unicode="&#x491;" horiz-adv-x="437" 
d="M232 425l-74 -425h-130q15 89 26 151t18 104l11 66t6 37.5t2.5 18.5t0.5 8q0 26 -12.5 40.5t-44.5 14.5h-5l5 30h295q45 0 74.5 24t39.5 81h30l-12 -70q-5 -30 -25.5 -55t-64.5 -25h-140z" />
    <glyph glyph-name="endash" unicode="&#x2013;" horiz-adv-x="624" 
d="M549 227h-494l11 65h494z" />
    <glyph glyph-name="emdash" unicode="&#x2014;" horiz-adv-x="894" 
d="M819 227h-764l11 65h764z" />
    <glyph glyph-name="quoteleft" unicode="&#x2018;" horiz-adv-x="218" 
d="M156 542q25 0 38 -12.5t13 -33.5q0 -29 -19 -52.5t-53 -23.5q-28 0 -41.5 17.5t-13.5 42.5q0 34 13 64t34 56t48 48t56 40l14 -24q-14 -8 -30.5 -20t-31.5 -28t-26.5 -35.5t-15.5 -41.5z" />
    <glyph glyph-name="quoteright" unicode="&#x2019;" horiz-adv-x="220" 
d="M164 558q-25 0 -38 12.5t-13 33.5q0 29 19 52.5t53 23.5q28 0 41.5 -17.5t13.5 -42.5q0 -34 -13 -64t-34 -56t-48 -48t-56 -40l-14 24q14 8 30.5 20t31.5 28t26.5 35.5t15.5 41.5z" />
    <glyph glyph-name="quotesinglbase" unicode="&#x201a;" horiz-adv-x="230" 
d="M62 -14q-25 0 -38 12.5t-13 33.5q0 30 19.5 53t53.5 23q28 0 41 -17.5t13 -42.5q0 -34 -12.5 -64t-33.5 -56t-48.5 -48t-56.5 -40l-13 24q13 8 29.5 20t31.5 28t27 35.5t16 41.5z" />
    <glyph glyph-name="quotedblleft" unicode="&#x201c;" horiz-adv-x="400" 
d="M156 542q25 0 38 -12.5t13 -33.5q0 -29 -19 -52.5t-53 -23.5q-28 0 -41.5 17.5t-13.5 42.5q0 34 13 64t34 56t48 48t56 40l14 -24q-14 -8 -30.5 -20t-31.5 -28t-26.5 -35.5t-15.5 -41.5zM338 542q25 0 38 -12.5t13 -33.5q0 -29 -19 -52.5t-53 -23.5q-28 0 -41.5 17.5
t-13.5 42.5q0 34 13 64t34 56t48 48t56 40l14 -24q-14 -8 -30.5 -20t-31.5 -28t-26.5 -35.5t-15.5 -41.5z" />
    <glyph glyph-name="quotedblright" unicode="&#x201d;" horiz-adv-x="402" 
d="M346 558q-25 0 -38 12.5t-13 33.5q0 29 19 52.5t53 23.5q28 0 41.5 -17.5t13.5 -42.5q0 -34 -13 -64t-34 -56t-48 -48t-56 -40l-14 24q14 8 30.5 20t31.5 28t26.5 35.5t15.5 41.5zM164 558q-25 0 -38 12.5t-13 33.5q0 29 19 52.5t53 23.5q28 0 41.5 -17.5t13.5 -42.5
q0 -34 -13 -64t-34 -56t-48 -48t-56 -40l-14 24q14 8 30.5 20t31.5 28t26.5 35.5t15.5 41.5z" />
    <glyph glyph-name="quotedblbase" unicode="&#x201e;" horiz-adv-x="412" 
d="M62 -14q-25 0 -38 12.5t-13 33.5q0 30 19.5 53t53.5 23q28 0 41 -17.5t13 -42.5q0 -34 -12.5 -64t-33.5 -56t-48.5 -48t-56.5 -40l-13 24q13 8 29.5 20t31.5 28t27 35.5t16 41.5zM244 -14q-25 0 -38 12.5t-13 33.5q0 30 19.5 53t53.5 23q28 0 41 -17.5t13 -42.5
q0 -34 -12.5 -64t-33.5 -56t-48.5 -48t-56.5 -40l-13 24q13 8 29.5 20t31.5 28t27 35.5t16 41.5z" />
    <glyph glyph-name="dagger" unicode="&#x2020;" horiz-adv-x="542" 
d="M61 475h179l36 205h130l-36 -205h180l-12 -70h-180l-105 -595h-130l105 595h-179z" />
    <glyph glyph-name="daggerdbl" unicode="&#x2021;" horiz-adv-x="560" 
d="M70 475h179l36 205h130l-36 -205h180l-12 -70h-180l-57 -320h180l-12 -70h-180l-36 -205h-130l36 205h-179l12 70h179l57 320h-179z" />
    <glyph glyph-name="bullet" unicode="&#x2022;" horiz-adv-x="352" 
d="M206 453q54 0 85 -28t31 -73q0 -30 -13 -56.5t-35 -46t-51 -31t-60 -11.5q-53 0 -84 27.5t-31 72.5q0 30 12.5 57t34 46.5t50.5 31t61 11.5z" />
    <glyph glyph-name="ellipsis" unicode="&#x2026;" horiz-adv-x="646" 
d="M135 61q0 -29 -20 -52t-53 -23q-25 0 -38 12.5t-13 33.5q0 30 19.5 53t53.5 23q26 0 38.5 -12.5t12.5 -34.5zM345 61q0 -29 -20 -52t-53 -23q-25 0 -38 12.5t-13 33.5q0 30 19.5 53t53.5 23q26 0 38.5 -12.5t12.5 -34.5zM555 61q0 -29 -20 -52t-53 -23q-25 0 -38 12.5
t-13 33.5q0 30 19.5 53t53.5 23q26 0 38.5 -12.5t12.5 -34.5z" />
    <glyph glyph-name="perthousand" unicode="&#x2030;" horiz-adv-x="1072" 
d="M39 0l600 660h106l-600 -660h-106zM551 271q65 0 101 -28.5t36 -81.5q0 -37 -14.5 -67.5t-39.5 -52.5t-59 -34t-72 -12q-66 0 -102.5 28.5t-36.5 81.5q0 37 15 67.5t40.5 52.5t59.5 34t72 12zM542 231q-24 0 -42.5 -11.5t-31 -29.5t-18.5 -41t-6 -46q0 -68 65 -68
q24 0 42.5 11t31 29t19 41t6.5 46q0 33 -17 51t-49 18zM263 665q64 0 100 -28t36 -80q0 -37 -14.5 -68t-39.5 -53t-58.5 -34.5t-72.5 -12.5q-66 0 -102.5 28.5t-36.5 81.5q0 37 15 67.5t40.5 52.5t60 34t72.5 12zM254 625q-24 0 -42.5 -11.5t-31 -29.5t-19 -41t-6.5 -46
q0 -68 65 -68q25 0 43.5 11.5t31 29.5t18.5 41t6 47q0 67 -65 67zM885 271q65 0 101 -28.5t36 -81.5q0 -37 -14.5 -67.5t-39.5 -52.5t-59 -34t-72 -12q-66 0 -102.5 28.5t-36.5 81.5q0 37 15 67.5t40.5 52.5t59.5 34t72 12zM876 231q-24 0 -42.5 -11.5t-31 -29.5t-18.5 -41
t-6 -46q0 -68 65 -68q24 0 42.5 11t31 29t19 41t6.5 46q0 33 -17 51t-49 18z" />
    <glyph glyph-name="guilsinglleft" unicode="&#x2039;" horiz-adv-x="297" 
d="M211 30h-64l-124 195l193 195h64l-132 -194z" />
    <glyph glyph-name="guilsinglright" unicode="&#x203a;" horiz-adv-x="295" 
d="M129 226l-62 194h64l123 -195l-192 -195h-64z" />
    <glyph glyph-name="Euro" unicode="&#x20ac;" horiz-adv-x="741" 
d="M679 447q-2 91 -44.5 139.5t-125.5 48.5q-41 0 -79 -11.5t-71 -39t-60.5 -72.5t-46.5 -112h195l-20 -45h-187l-10 -60h184l-20 -45h-168v-17q0 -44 9.5 -81.5t30.5 -66t54.5 -44.5t81.5 -16q69 0 134.5 36.5t113.5 106.5l30 -27q-31 -42 -64.5 -72t-72 -50t-83 -29.5
t-96.5 -9.5q-68 0 -120 19.5t-87 55t-52.5 84t-17.5 106.5v5h-65l20 45h48q5 28 7 39.5t4 20.5h-46l20 45h40q23 61 61 112t86.5 88.5t106 58.5t118.5 21q94 0 147.5 -24.5t75.5 -56.5q6 -11 8.5 -24.5t2.5 -29.5q0 -23 -3.5 -47.5t-8.5 -50.5h-30z" />
    <glyph glyph-name="afii61352" unicode="&#x2116;" horiz-adv-x="1037" 
d="M558 200l81 460h50l-117 -663h-46l-336 498l-87 -495h-50q24 137 40.5 232t27.5 157t16.5 96.5t8.5 51.5t3.5 22t0.5 7q0 28 -16.5 46t-59.5 18h-5l5 30h70q57 0 89.5 -15t50.5 -45zM894 630q-20 0 -40.5 -9.5t-36.5 -27t-26 -43t-10 -58.5q0 -40 21 -61t53 -21
q21 0 41 9.5t35.5 27t25.5 43.5t10 59q0 39 -20.5 60t-52.5 21zM902 680q72 0 108.5 -36t36.5 -91q0 -39 -14.5 -74.5t-40.5 -61.5t-63.5 -41.5t-82.5 -15.5q-72 0 -108.5 35.5t-36.5 91.5q0 39 14.5 74.5t40.5 61.5t63.5 41.5t82.5 15.5zM986 247h-320l12 65h320z" />
    <glyph glyph-name="trademark" unicode="&#x2122;" horiz-adv-x="942" 
d="M474 660l-6 -32h-121l-58 -331h-96l58 331h-46q-34 0 -58.5 -21t-32.5 -64h-16l9 51q2 12 7.5 24t15 21.5t24.5 15t37 5.5h283zM917 660q-17 -95 -26.5 -150.5t-14 -85.5t-5.5 -41.5t-1 -18.5q0 -29 8 -43t24 -19l-2 -12q-60 0 -91.5 21.5t-31.5 77.5q0 5 0.5 12.5
t3.5 25t8 48t14 81.5l-162 -259h-25l-97 275l-48 -275h-38l64 363h88l85 -243l152 243h95z" />
    <glyph glyph-name="Breve" unicode="&#xf406;" horiz-adv-x="300" 
d="M204 575q42 0 72.5 15.5t49.5 34.5l24 -21q-26 -42 -67.5 -68t-90.5 -26t-81 26t-43 68l32 21q11 -19 36.5 -34.5t67.5 -15.5z" />
    <glyph glyph-name="grave.alt1" horiz-adv-x="227" 
d="M46 665h119l17 -140h-55z" />
    <glyph glyph-name="dieresis.alt1" horiz-adv-x="282" 
d="M175 601q0 -26 -19.5 -46t-47.5 -20q-23 0 -35 12.5t-12 31.5q0 26 19 47t48 21q23 0 35 -13t12 -33zM355 601q0 -26 -19.5 -46t-47.5 -20q-23 0 -35 12.5t-12 31.5q0 26 19 47t48 21q23 0 35 -13t12 -33z" />
    <glyph glyph-name="acute.alt1" horiz-adv-x="201" 
d="M148 700h-55l67 140h119z" />
    <glyph glyph-name="circumflex.alt1" horiz-adv-x="300" 
d="M112 520h-70l102 125h130l58 -125h-70l-61 80z" />
    <glyph glyph-name="dieresis.alt2" horiz-adv-x="282" 
d="M175 601q0 -26 -19.5 -46t-47.5 -20q-23 0 -35 12.5t-12 31.5q0 26 19 47t48 21q23 0 35 -13t12 -33zM355 601q0 -26 -19.5 -46t-47.5 -20q-23 0 -35 12.5t-12 31.5q0 26 19 47t48 21q23 0 35 -13t12 -33z" />
    </font>
</defs>
</svg>
