<?xml version="1.0" standalone="no"?>
<!DOCTYPE svg PUBLIC "-//W3C//DTD SVG 1.1//EN" "http://www.w3.org/Graphics/SVG/1.1/DTD/svg11.dtd" >
<svg>
<metadata>
Created by FontForge 20120731 at Sun Nov 23 07:02:27 2014
 By root
Generated by Fontographer 3.3
</metadata>
<defs>
<font id="SouvenirBoldItalic" horiz-adv-x="1393" >
  <font-face 
    font-family="Souvenir"
    font-weight="700"
    font-style="italic"
    font-stretch="normal"
    units-per-em="2048"
    panose-1="2 11 8 0 0 0 0 0 0 0"
    ascent="1638"
    descent="-410"
    x-height="985"
    cap-height="1499"
    bbox="-231 -447 2450 1893"
    underline-thickness="20"
    underline-position="-123"
    unicode-range="U+0020-2122"
  />
<missing-glyph horiz-adv-x="1536" 
d="M256 0v1280h1024v-1280h-1024zM1248 32v1216h-960v-1216h960z" />
    <glyph glyph-name=".notdef" horiz-adv-x="1536" 
d="M256 0v1280h1024v-1280h-1024zM1248 32v1216h-960v-1216h960z" />
    <glyph glyph-name=".null" horiz-adv-x="0" 
 />
    <glyph glyph-name="nonmarkingreturn" horiz-adv-x="0" 
 />
    <glyph glyph-name="space" unicode=" " 
 />
    <glyph glyph-name="exclam" unicode="!" horiz-adv-x="738" 
d="M123 125q16 72 84.5 114t145.5 42q66 0 112.5 -40t46.5 -118q-11 -48 -48 -83q-39 -35 -88.5 -53t-96.5 -18q-64 0 -110 40.5t-46 115.5zM488 500q-24 -60 -45.5 -86.5t-71.5 -26.5q-40 0 -53 17t-15 53q0 35 2 53l62 869q31 151 248 151q87 0 133 -23.5t46 -89.5
q0 -19 -6 -47l-33 -110z" />
    <glyph glyph-name="quotedbl" unicode="&#x22;" horiz-adv-x="1188" 
d="M424 877l15 489q0 35 26 74.5t66 64.5t80 25q47 0 78.5 -35.5t31.5 -83.5q0 -26 -8 -45l-195 -489h-94zM878 877l15 489q0 35 26.5 74.5t66 64.5t79.5 25q48 0 79 -35.5t31 -83.5q0 -25 -8 -45l-194 -489h-95z" />
    <glyph glyph-name="numbersign" unicode="#" 
d="M838 317q-34 -63 -60 -91q-25 -27 -75 -27q-76 0 -76 94q5 19 25 51l90 161h-236l-106 -186q-36 -63 -61 -92q-26 -28 -73 -28q-79 0 -79 98q7 27 23 51l88 157h-99q-92 0 -92 89q17 88 125 88h164l137 247h-109q-87 0 -87 89q8 45 42.5 66.5t80.5 21.5h174l85 154
q36 64 61 91.5t76 27.5q36 0 56 -25q21 -25 21 -72q-4 -15 -23 -53l-68 -123h236l86 156q36 64 61 90q24 27 74 27q72 0 72 -95q-6 -28 -21 -51l-69 -127h94q90 0 90 -88q-10 -44 -45 -66.5t-80 -22.5h-162l-135 -247h103q92 0 92 -88q-21 -89 -126 -89h-168zM740 929
l-137 -245h237l136 245h-236z" />
    <glyph glyph-name="dollar" unicode="$" 
d="M889 1659q14 59 34 88q21 29 75 29q64 0 64 -57q0 -19 -9 -58l-36 -178q69 -3 147 -28.5t131 -73t53 -115.5q0 -11 -4 -35q-11 -50 -50 -83.5t-90 -33.5q-66 0 -80.5 28t-22.5 94.5t-44 100t-139 33.5q-68 0 -129.5 -20.5t-105.5 -65.5q-44 -44 -58 -112q-4 -29 -4 -39
q0 -85 67 -125q67 -39 235 -105q169 -66 253 -140.5t84 -209.5q0 -52 -10 -96q-24 -118 -107 -212t-200 -147q-116 -54 -234 -57l-27 -129q-4 -20 -11 -53t-18 -57t-31.5 -39t-53.5 -15q-68 0 -68 59q0 15 9 53l37 181q-152 11 -248 62q-63 33 -109 98q-47 66 -47 137
q0 29 4 43q14 76 127 76q52 0 69 -21q17 -20 29 -77q5 -23 11 -51q7 -27 16 -48t26 -39q57 -69 205 -69q120 0 213.5 51.5t118.5 165.5q4 14 4 43q0 62 -47 106q-57 48 -231 119l-74 31q-148 57 -213 127q-72 79 -72 209q0 41 9 73q36 176 183 283t332 123z" />
    <glyph glyph-name="percent" unicode="%" horiz-adv-x="1925" 
d="M206 1121q26 124 98 228q73 105 181 166.5t234 61.5q105 0 180.5 -44t113.5 -122t38 -176q0 -49 -14 -121q-28 -132 -99 -238t-180.5 -167.5t-243.5 -61.5q-159 0 -241 97t-82 250q0 53 15 127zM771 1133q26 113 26 196q0 154 -98 154q-65 0 -111 -63t-69.5 -137.5
t-42.5 -159.5q-29 -169 -29 -224q0 -157 92 -157q68 0 115.5 69.5t71 147.5t45.5 174zM1051 391q26 125 98 230t179.5 166t234.5 61q106 0 181 -43.5t113 -120.5t38 -176q0 -51 -14 -121q-29 -135 -100 -240.5t-180 -167.5q-109 -61 -243 -61q-157 0 -239 96t-82 246
q0 68 14 131zM1615 404q26 119 26 196q0 155 -99 155q-67 0 -113 -66.5t-67.5 -139.5t-42.5 -168q-29 -130 -29 -215q0 -153 93 -153q68 0 115.5 69.5t71 147.5t45.5 174zM492 66q-45 -47 -56 -57t-31 -16q-20 -5 -59 -5q-73 0 -73 33q2 9 19 28t34 37l1280 1356
q49 52 69.5 64t79.5 12q64 0 64 -25q-6 -24 -45 -63z" />
    <glyph glyph-name="ampersand" unicode="&#x26;" horiz-adv-x="1721" 
d="M1133 445l20 -31q164 149 185 248q0 28 -13 45q-12 17 -35 33t-34 30t-11 37q12 55 103 55h317q38 0 59 -12.5t21 -52.5q-10 -36 -61 -55q-59 -23 -81 -40t-69 -73l-303 -328q101 -137 264 -137q25 0 66 10q42 9 61 9q39 0 39 -56q-10 -52 -92 -90q-128 -60 -272 -60
q-108 0 -190 35q-83 33 -165 103q-233 -146 -479 -146q-112 0 -213 36q-100 36 -163 109q-62 72 -62 175q0 41 9 76q60 287 443 448q-69 126 -69 248q0 48 8 86q20 89 82 169q63 81 149 128q158 86 355 86q148 0 253 -64t105 -190q0 -33 -6 -65q-27 -129 -159 -226
q-131 -98 -294 -159zM553 684q-170 -113 -203 -264q-8 -30 -8 -67q0 -97 64 -155t170 -58q72 0 129 20q57 21 135 66zM1088 1215q4 29 4 39q0 59 -39 95q-38 35 -102 35q-68 0 -125.5 -45t-71.5 -112q-4 -16 -4 -45q0 -53 19 -103q20 -51 57 -118q232 117 262 254z" />
    <glyph glyph-name="quotesingle" unicode="'" horiz-adv-x="533" 
d="M324 877l14 489q0 35 26.5 74.5t66 64.5t79.5 25q48 0 79 -35q32 -36 32 -84q0 -25 -8 -45l-195 -489h-94z" />
    <glyph glyph-name="parenleft" unicode="(" horiz-adv-x="697" 
d="M383 -430q-55 0 -89 34q-33 34 -68 99q-134 237 -134 574q0 148 31 291q69 333 313 645q116 152 252 264q63 53 133 53q56 0 56 -55q-6 -26 -78 -133q-261 -377 -345 -764q-41 -192 -41 -395q0 -210 46 -429q18 -74 18 -125q-7 -28 -35 -44q-29 -15 -59 -15z" />
    <glyph glyph-name="parenright" unicode=")" horiz-adv-x="697" 
d="M371 1530q56 0 89 -34q34 -34 69 -97q132 -242 132 -571q0 -153 -30 -293q-24 -115 -68 -225q-43 -110 -106 -218t-137 -203q-117 -150 -254 -266q-68 -53 -134 -53q-55 0 -55 57q6 24 78 133q261 376 344 762q43 205 43 402q0 213 -47 424q-16 62 -16 125
q5 28 33.5 42.5t58.5 14.5z" />
    <glyph glyph-name="asterisk" unicode="*" horiz-adv-x="819" 
d="M583 971q13 -48 13 -70q0 -6 -4 -30q-7 -38 -35 -64t-65 -26q-66 0 -66 81q8 38 41 91l39 69q28 41 35 68q0 20 -8 20q-23 0 -88 -71q-5 -5 -42 -43.5t-65.5 -57t-54.5 -18.5q-66 0 -66 82q11 53 61 70.5t136 31.5q21 3 41 6.5t41.5 11.5t23.5 19q0 26 -116 39
q-67 9 -101 25t-34 73q6 32 33 54q28 22 61 22q41 0 64 -28t61 -89t57 -61q12 0 16 18q0 38 -6 60l-10 57q-12 48 -12 72q0 8 4 32q8 36 36 58t62 22q61 0 61 -86q-7 -38 -56 -117q-48 -79 -52 -96q0 -18 6 -18q20 0 81 65t95.5 95t77.5 30q63 0 63 -78q-9 -46 -53 -70
q-43 -24 -100.5 -34t-105 -18t-50.5 -23q0 -20 81 -32t129 -30.5t48 -72.5q-8 -37 -34 -58q-28 -22 -64 -22q-28 0 -51.5 20t-43.5 52t-34 53q-30 57 -51 57q-15 0 -15 -18q0 -43 2 -60z" />
    <glyph glyph-name="plus" unicode="+" horiz-adv-x="1352" 
d="M649 686l93 435h194l-92 -435h434l-41 -195h-434l-92 -435h-195l93 435h-437l41 195h436z" />
    <glyph glyph-name="comma" unicode="," horiz-adv-x="697" 
d="M211 -6q-54 0 -88 30.5t-34 80.5q0 12 4 32q16 75 86 118.5t147 43.5t121.5 -44.5t44.5 -117.5q0 -24 -6 -49q-18 -86 -82 -169q-65 -82 -150 -142q-101 -78 -143 -78q-18 0 -31 12q-14 13 -14 31q2 10 21 24q143 114 188 234q-31 -6 -64 -6z" />
    <glyph glyph-name="hyphen" unicode="-" horiz-adv-x="697" 
d="M242 463q-107 0 -127 21q-21 23 -21 63q0 20 7 47q15 74 57 95.5t121 21.5h260q81 0 116 -13q35 -12 35 -63q0 -17 -6 -45q-11 -57 -35.5 -84.5t-58 -35t-94.5 -7.5h-254z" />
    <glyph glyph-name="period" unicode="." horiz-adv-x="697" 
d="M101 133q11 51 47 89t85.5 57.5t98.5 19.5q66 0 114 -38t48 -99q0 -10 -4 -31q-16 -71 -84 -116.5t-142 -45.5q-67 0 -117 36.5t-50 97.5q0 10 4 30z" />
    <glyph glyph-name="slash" unicode="/" horiz-adv-x="942" 
d="M39 -209q-38 -60 -54 -75t-63 -15q-61 0 -61 28q1 9 29 50l1095 1636q36 55 54 69.5t69 14.5q53 0 53 -24q-4 -22 -36 -66z" />
    <glyph glyph-name="zero" unicode="0" 
d="M150 768q29 139 92 271q63 133 158 237q112 123 249 191.5t281 68.5q291 0 418 -254q63 -124 63 -297q0 -106 -26 -231q-30 -142 -92 -277.5t-156 -242.5q-106 -122 -247 -193q-140 -71 -286 -71q-125 0 -218 45q-93 43 -150.5 120.5t-85 178t-27.5 215.5q0 111 27 239z
M998 764q47 215 47 371q0 259 -144 259q-82 0 -149 -84t-113 -189q-56 -142 -105 -367q-51 -246 -51 -381q0 -260 152 -260q142 0 228 210t135 441z" />
    <glyph glyph-name="one" unicode="1" 
d="M675 1086q12 55 12 88q0 40 -26.5 54.5t-98.5 14.5h-64q-35 0 -55 12.5t-20 51.5q7 37 37.5 51t80.5 23q145 21 295 88q73 34 115.5 50.5t82.5 16.5q87 0 87 -76q0 -13 -8 -61l-230 -1079q-14 -68 -14 -94q0 -37 22.5 -55.5t80.5 -22.5q57 -8 81.5 -18.5t24.5 -57.5
q-16 -72 -111 -72h-678q-46 0 -70 13.5t-24 58.5q15 63 146 74q66 5 97 20t44 45.5t27 100.5z" />
    <glyph glyph-name="two" unicode="2" 
d="M150 -1q-50 0 -77.5 15t-27.5 64q18 80 127 198t226 216l221 184q160 131 268 250.5t135 247.5q6 27 6 53q0 72 -42 115.5t-117 43.5q-51 0 -110 -25.5t-102.5 -70.5t-54.5 -98q0 -57 7 -76q12 -33 12 -69q-11 -53 -65 -80t-111 -27q-72 0 -113 37.5t-41 102.5q0 22 6 47
q14 62 48 117t83 101q50 45 111 81q181 110 418 110q198 0 319 -80q131 -86 131 -243q0 -40 -8 -76q-21 -99 -84.5 -190t-146.5 -166t-191 -154l-455 -371h310q96 0 148 12.5t124 63.5q72 49 103 49q43 0 43 -55q-10 -35 -35 -76q-23 -37 -76 -154q-29 -67 -59 -81
q-30 -16 -105 -16h-825z" />
    <glyph glyph-name="three" unicode="3" 
d="M553 725q-44 2 -65 16t-21 60q10 44 42 55q33 10 91 13q100 8 158 23q57 16 113 71q37 34 65 92t39 113q8 32 8 73q0 153 -143 153q-63 0 -115 -32q-51 -32 -63 -90q-4 -19 -6 -57q-2 -37 -7 -56q-9 -46 -58 -69q-48 -23 -101 -23q-148 0 -148 101q0 10 4 34
q29 135 187 232q161 102 399 102q109 0 207 -34t159.5 -104t61.5 -171q0 -40 -8 -72q-19 -88 -75 -157t-135.5 -113.5t-170.5 -65.5q131 -23 217 -107t86 -208q0 -39 -8 -74q-22 -104 -92 -194q-69 -90 -172 -154q-188 -112 -434 -112q-216 0 -355 73q-135 76 -135 201
q0 29 4 45q15 73 66 108t125 35q64 0 90 -20.5t26 -89.5q0 -12 -1 -34t-1 -32q0 -47 15 -76q36 -75 141 -75q135 0 217 84q81 85 111 225q10 51 10 94q0 77 -29 125q-51 85 -194 88z" />
    <glyph glyph-name="four" unicode="4" 
d="M1030 246q-10 -46 -10 -90q5 -15 14 -19.5t39 -15.5q31 -13 31 -57q-14 -64 -117 -64h-411q-45 0 -70 11q-24 11 -24 53q5 27 25 39t53.5 21.5t44 14.5t22.5 23q12 21 22 82l31 141h-459q-58 0 -92.5 13.5t-34.5 64.5q14 64 94.5 189.5t157.5 230.5q179 239 387 438
q131 125 201 168q73 47 176 47q97 0 132.5 -15t35.5 -71q0 -34 -13 -86l-176 -825h138q45 0 65 -13q18 -14 18 -63q-9 -45 -35 -59.5t-73 -14.5h-143zM866 1247q-374 -366 -567 -714h416z" />
    <glyph glyph-name="five" unicode="5" 
d="M512 894q153 63 320 63q127 0 231 -41q105 -41 166 -121.5t61 -196.5q0 -49 -12 -104q-23 -114 -93 -216q-69 -103 -171 -175q-196 -133 -469 -133q-202 0 -322 69q-133 73 -133 199q0 12 4 41q15 69 66.5 105t122.5 36q53 0 88 -28t35 -87l-19 -63q-4 -20 -4 -31
q0 -53 42 -78.5t108 -25.5q138 0 228 102t122 250q12 57 12 113q0 106 -52 170.5t-165 64.5q-76 0 -125.5 -23t-114 -64.5t-94.5 -41.5q-51 0 -51 49q0 19 14 72l215 737q347 -22 463 -22q89 0 375 22q43 0 43 -59q-11 -56 -80 -110t-135 -77q-102 -32 -371 -32l-200 4z" />
    <glyph glyph-name="six" unicode="6" 
d="M930 940q177 0 286 -92.5t109 -251.5q0 -47 -12 -102q-24 -112 -88.5 -211t-163.5 -172q-186 -141 -446 -141q-247 0 -377 120q-129 119 -129 336q0 89 21 183q41 193 145.5 362t256.5 297q153 127 336 198q184 70 377 70q175 0 175 -80q-13 -63 -138 -70
q-156 -6 -291.5 -75t-234 -188t-152.5 -273q182 90 326 90zM920 463q16 81 16 135q0 190 -139 190q-85 0 -146 -48q-62 -47 -99 -120q-36 -74 -54 -157q-14 -68 -14 -133q0 -221 157 -221q79 0 136.5 57.5t91 136.5t51.5 160z" />
    <glyph glyph-name="seven" unicode="7" 
d="M647 1249q-82 0 -120.5 -13.5t-71.5 -67.5q-37 -56 -82 -56q-53 0 -53 49q0 19 8 56q19 81 40 153q20 73 30 88q22 28 48 34.5t68 6.5h854q50 0 67 -6.5t17 -32.5q-4 -19 -47 -83l-344 -594l-311 -633q-35 -73 -60.5 -103.5t-58 -38.5t-102.5 -8h-43h-148
q-39 5 -60.5 15.5t-21.5 44.5q7 29 43 80l674 923l148 186h-474z" />
    <glyph glyph-name="eight" unicode="8" 
d="M1309 434q-45 -217 -272 -350q-194 -115 -459 -115q-226 0 -359 84q-153 93 -153 252q0 37 8 70q28 131 141 227q113 97 257 144q-197 122 -197 293q0 39 8 71q14 64 51.5 125t92 111t118.5 86q181 104 418 104q201 0 319 -69q142 -79 142 -224q0 -27 -6 -57
q-14 -70 -68 -132q-53 -63 -126 -109.5t-150 -77.5q246 -134 246 -340q0 -39 -11 -93zM606 662q-194 -121 -226 -273q-7 -30 -7 -55q0 -95 70 -154q71 -59 178 -59q95 0 190 57.5t115 147.5q5 28 5 37q0 51 -29 93q-28 42 -73 75.5t-83 54.5t-107 57zM1125 1176q4 16 4 45
q0 51 -25 91q-24 41 -69 63q-44 21 -99 21q-92 0 -171.5 -56t-98.5 -146q-4 -21 -4 -28q0 -78 73 -127q73 -48 197 -101q97 77 137 121q41 44 56 117z" />
    <glyph glyph-name="nine" unicode="9" 
d="M617 565q-182 0 -295 95t-113 258q0 49 12 104q23 106 92 208t162 169q94 71 207.5 104t231.5 33q163 0 277 -56t171 -159q58 -104 58 -248q0 -85 -20 -178q-40 -186 -143 -355q-105 -169 -254.5 -297t-332.5 -201q-182 -73 -371 -73q-90 0 -142 14.5t-52 63.5
q9 44 48 55.5t99 14.5q241 11 411 153t261 382q-155 -87 -307 -87zM1033 1032q18 87 18 156q0 70 -19 115q-16 40 -52 68t-81 28q-82 0 -140.5 -56.5t-91.5 -135t-50 -160.5q-17 -85 -17 -137q0 -197 142 -197q117 0 190 96q73 97 101 223z" />
    <glyph glyph-name="colon" unicode=":" horiz-adv-x="697" 
d="M99 133q16 77 85 121.5t146 44.5q66 0 113.5 -38t47.5 -99q0 -10 -4 -31q-15 -71 -83 -116.5t-142 -45.5q-67 0 -117.5 36.5t-50.5 97.5q0 8 5 30zM232 762q16 76 84.5 121t146.5 45q67 0 114 -38t47 -99q0 -11 -4 -31q-15 -71 -83 -116.5t-141 -45.5q-67 0 -118 36
q-50 36 -50 97q0 10 4 31z" />
    <glyph glyph-name="semicolon" unicode=";" horiz-adv-x="697" 
d="M228 762q16 76 84.5 121t146.5 45q66 0 114 -38t48 -99q0 -11 -4 -31q-16 -71 -84 -116.5t-142 -45.5q-67 0 -117 36t-50 97q0 8 4 31zM217 -6q-54 0 -88 30.5t-34 80.5q0 10 4 32q16 75 86 118.5t147 43.5t121.5 -44.5t44.5 -117.5q0 -24 -6 -49q-18 -86 -82 -169
q-65 -82 -150 -142q-101 -78 -143 -78q-18 0 -31 12q-14 13 -14 31q2 10 21 24q143 114 188 234q-31 -6 -64 -6z" />
    <glyph glyph-name="less" unicode="&#x3c;" horiz-adv-x="1352" 
d="M1161 -25l-1024 519l39 184l1247 522l-41 -192l-1034 -424l854 -418z" />
    <glyph glyph-name="equal" unicode="=" horiz-adv-x="1352" 
d="M1306 850l-40 -195h-1065l41 195h1064zM1237 522l-41 -195h-1065l41 195h1065z" />
    <glyph glyph-name="greater" unicode="&#x3e;" horiz-adv-x="1352" 
d="M1105 584l-856 424l40 192l1022 -522l-38 -184l-1246 -519l41 191z" />
    <glyph glyph-name="question" unicode="?" horiz-adv-x="1106" 
d="M234 123q16 73 84 114.5t145 41.5q66 0 113 -40t47 -118q-16 -71 -87.5 -111.5t-146.5 -40.5q-65 0 -110 39.5t-45 114.5zM434 670q19 79 23 92t23 28t73 42q72 36 112.5 62t80.5 69q83 88 111 219q10 50 10 84q0 156 -142 156q-63 0 -112 -37q-30 -21 -41 -44.5
t-19 -63.5q-7 -44 -15 -64q-9 -19 -38 -43q-51 -43 -129 -43q-52 0 -85.5 25t-33.5 69q0 8 4 29q16 77 73 135.5t136 94.5q79 37 162 54t156 17q223 0 333 -95q107 -90 107 -239q0 -46 -8 -84q-17 -83 -72 -163q-54 -81 -131 -138q-67 -51 -122 -77t-191 -83
q-51 -19 -68.5 -47t-32.5 -90q-11 -62 -34 -94.5t-80 -32.5q-50 0 -69 16t-19 49q0 15 18 103z" />
    <glyph glyph-name="at" unicode="@" horiz-adv-x="1762" 
d="M1174 615q-59 -98 -64 -119q0 -18 15 -29q14 -10 34 -10q65 0 138 40q73 41 135 99q148 135 186 305q10 59 10 99q0 124 -66.5 217.5t-180.5 142.5t-252 49q-125 0 -262 -49.5t-246 -134.5q-119 -93 -201 -220q-81 -127 -111 -261q-14 -66 -14 -135q0 -150 72.5 -267
t202.5 -182.5t292 -65.5q119 0 237.5 37t224.5 107.5t190 171.5h121q-89 -141 -219.5 -240.5t-284.5 -150t-312 -50.5q-190 0 -340 80.5t-233.5 223t-83.5 317.5q0 70 16 156q69 326 357 555q283 229 635 229q165 0 300.5 -61.5t213 -176.5t77.5 -266q0 -61 -14 -127
q-30 -141 -132.5 -274.5t-246.5 -217.5q-145 -83 -293 -83q-55 0 -92 22q-37 23 -37 66q0 11 9 41q-156 -121 -297 -121q-93 0 -139 52.5t-46 137.5q0 42 9 76q21 96 78 198q57 103 142 192q84 90 185 144t205 54q114 0 160 -88l34 55h215zM1008 703q47 68 92 150t55 130
q0 70 -45 70q-58 0 -127 -57t-131 -142q-62 -84 -106.5 -170.5t-55.5 -138.5q-4 -21 -4 -27q0 -57 56 -57q104 0 266 242z" />
    <glyph glyph-name="A" unicode="A" horiz-adv-x="1516" 
d="M47 0q-72 0 -102.5 12.5t-30.5 57.5q6 30 57 61q34 19 47.5 30.5t26.5 35.5l123 229q86 160 175.5 301t265.5 408q100 157 217 309q35 47 67 60q33 12 96 12q59 0 88 -10.5t43 -35t25 -79.5l211 -983l27 -213q5 -27 13 -37q8 -9 34 -29q26 -18 26 -59q-14 -70 -118 -70
h-347q-49 0 -79.5 11.5t-30.5 54.5q6 28 29.5 42t50 29t30.5 33q0 78 -22 282l-4 33h-574q-45 -84 -85.5 -159t-49.5 -115q0 -27 9.5 -43t28.5 -34q19 -17 28.5 -31t9.5 -37q-8 -41 -49.5 -53.5t-122.5 -12.5h-113zM944 654l-4 33l-110 511l-344 -544h458z" />
    <glyph glyph-name="B" unicode="B" horiz-adv-x="1516" 
d="M64 0q-87 0 -87 70q6 25 20 37.5t44 27.5l25 13q33 15 42.5 37.5t18.5 74.5l209 979q1 2 6.5 28t5.5 38q0 34 -26 47l-19 12q-21 16 -29 27t-8 39q16 69 117 69h744q98 0 171.5 -12t129.5 -49q112 -74 112 -207q0 -29 -6 -63q-24 -115 -127.5 -204.5t-232.5 -137.5
q138 -28 225 -112q86 -83 86 -212q0 -42 -8 -80q-19 -93 -79 -175q-59 -83 -148 -140q-163 -107 -394 -107h-792zM619 817q113 23 223 67q111 44 197 118q87 74 108 174q6 24 6 45q0 139 -248 139q-114 0 -157 -37q-31 -28 -45 -112zM508 299q-10 -64 -10 -69q0 -30 16 -50
q29 -30 135 -30q156 0 279 71q123 72 154 220q6 27 6 51q0 82 -51 145t-132 88l-321 -73z" />
    <glyph glyph-name="C" unicode="C" horiz-adv-x="1557" 
d="M1354 1303q-84 77 -207 77q-217 0 -395 -194q-152 -168 -207 -422q-19 -85 -19 -186q0 -138 35 -230q27 -66 76 -110q50 -45 116 -66.5t144 -21.5q95 0 197.5 42.5t189.5 116.5q18 15 37 31.5t34 27t35.5 19.5t37.5 9q57 0 57 -72q-14 -65 -97 -134t-169 -114
q-100 -53 -212.5 -80t-221.5 -27q-191 0 -342 74q-152 72 -238 207t-86 311q0 76 18 162q37 168 136 316t241 258t309 171.5t332 61.5q126 0 245.5 -35t201.5 -100q48 -32 53 -68q0 -29 -11.5 -111t-19.5 -114q-7 -36 -35 -58t-67 -22q-36 0 -48.5 24.5t-29.5 80.5
q-15 63 -33 102t-57 74z" />
    <glyph glyph-name="D" unicode="D" horiz-adv-x="1680" 
d="M975 1499q121 0 217 -12.5t181 -47.5t155 -101q165 -157 165 -402q0 -76 -20 -176q-23 -105 -66 -204q-42 -99 -108 -188.5t-151 -160.5q-250 -207 -623 -207h-661q-87 0 -87 70q6 25 20 37.5t44 27.5l25 13q33 15 42.5 37.5t18.5 74.5l209 979q1 2 6.5 28t5.5 38
q0 34 -26 47l-19 12q-21 16 -29 27t-8 39q16 69 117 69h592zM518 344q-18 -90 -18 -116q0 -44 29 -63t104 -19q126 0 231 46q106 46 188 129q83 83 137.5 189.5t80.5 227.5q18 88 18 174q0 128 -44 227.5t-137 157.5q-93 56 -230 56q-72 0 -105 -16.5t-46.5 -48.5
t-30.5 -111z" />
    <glyph glyph-name="E" unicode="E" horiz-adv-x="1352" 
d="M525 375q-18 -94 -18 -123q0 -47 24 -68.5t79.5 -28t167.5 -7.5q73 0 120 6t95 29q47 21 99 67q57 52 88 75q32 23 65 23q27 0 43 -17q17 -17 17 -50q-14 -61 -84 -187q-33 -63 -59.5 -78.5t-96.5 -15.5h-1001q-86 0 -86 70q5 25 19 37.5t44 28.5l25 12q33 15 42.5 38
t18.5 75l210 978q0 2 6 28t6 38q0 34 -27 47l-18 12q-21 16 -29 27t-8 39q15 69 116 69h957q88 0 106 -24q8 -14 8 -55q0 -76 -14 -140q-19 -88 -92 -88q-31 0 -46 14t-36 48q-42 65 -111 84q-68 15 -202 15q-128 0 -172 -15q-57 -22 -66 -62l-79 -381h309q62 0 89 13
t59.5 38t59.5 25q51 0 51 -63q0 -22 -10 -78q-18 -83 -37 -128q-19 -44 -71 -44q-27 0 -51 23q-25 24 -45 35.5t-80 11.5h-310z" />
    <glyph glyph-name="F" unicode="F" horiz-adv-x="1270" 
d="M498 260q-3 -15 -5.5 -26.5t-4.5 -23t-2 -17.5q0 -32 25 -45l20 -13q35 -26 35 -65q-16 -70 -115 -70h-389q-86 0 -86 70q5 25 19 38q15 12 45 27l24 13q34 15 43.5 39t18.5 73l209 979q0 2 6 28t6 38q0 34 -27 47l-18 12q-21 16 -29 27t-8 39q15 69 116 69h889
q107 0 131 -16q23 -18 23 -84q0 -35 -6 -111q-12 -59 -24 -87q-12 -27 -54 -27q-28 0 -43 13t-35 42q-57 83 -123.5 103.5t-200.5 20.5q-145 0 -184 -28q-25 -18 -34 -44t-23 -83l-74 -346h299q62 0 90 13.5t60 38t59 24.5q53 0 53 -66q0 -24 -10 -75q-18 -83 -37 -128
q-19 -44 -72 -44q-26 0 -52 24q-25 24 -46 35t-80 11h-299z" />
    <glyph glyph-name="G" unicode="G" horiz-adv-x="1598" 
d="M1643 1114q-28 -65 -90 -65q-33 0 -46 16t-22 51q-32 122 -86 174q-84 83 -227 83q-164 0 -296 -93.5t-218 -241t-119 -305.5q-17 -87 -17 -165q0 -116 34.5 -212.5t110.5 -156.5q75 -59 191 -59q60 0 125 18.5t109 56.5q46 40 69.5 99.5t42.5 144.5q13 57 13 94
q0 44 -27 59.5t-102 15.5h-49q-46 0 -70.5 15.5t-24.5 63.5q13 53 58 67.5t112 14.5h330q120 0 158 -15q24 -10 24 -55q-5 -27 -30 -94l-43 -143q-21 -99 -21 -201q0 -31 -2 -41q-8 -40 -60 -78t-111 -64q-58 -26 -118 -47q-125 -44 -222.5 -63t-213.5 -19q-201 0 -356 70
q-156 68 -243 200t-87 314q0 74 21 178q38 179 135.5 328.5t238.5 254.5q141 106 308.5 161t345.5 55q115 0 236.5 -28.5t201.5 -79.5q57 -41 70 -76q0 -58 -23 -180z" />
    <glyph glyph-name="H" unicode="H" horiz-adv-x="1680" 
d="M505 260q-13 -62 -13 -67q0 -32 25 -45l20 -13q35 -26 35 -65q-16 -70 -115 -70h-389q-86 0 -86 70q6 25 20 37t44 28l24 13q34 15 43 37.5t19 74.5l209 979q0 2 6 27t6 39q0 34 -27 47l-18 12q-21 16 -29 27.5t-8 38.5q15 69 116 69h389q85 0 85 -69q-4 -24 -16.5 -35
t-45.5 -31l-26 -12q-18 -8 -28 -20q-10 -11 -16 -25q-5 -15 -8.5 -31t-7.5 -37l-75 -348h610l75 348q1 2 7 27t6 39q0 34 -27 47l-19 12q-36 27 -36 66q15 69 116 69h389q84 0 84 -69q-4 -24 -16 -36q-13 -11 -45 -30l-27 -12q-18 -8 -28 -20q-10 -11 -15.5 -25.5
t-8.5 -30.5t-7 -37l-209 -979q-2 -12 -7 -33.5t-5 -33.5q0 -32 24 -45l21 -13q35 -26 35 -65q-16 -70 -115 -70h-389q-86 0 -86 70q6 25 19.5 37t43.5 28l25 13q33 15 43 37q9 23 18 75l103 477h-611z" />
    <glyph glyph-name="I" unicode="I" horiz-adv-x="697" 
d="M339 1239q0 2 6 28t6 38q0 34 -27 47l-18 12q-21 16 -29 27.5t-8 38.5q15 69 116 69h389q84 0 84 -69q-4 -24 -16 -35t-45 -31l-27 -12q-18 -8 -28 -20q-10 -11 -15.5 -25.5t-8.5 -30.5t-7 -37l-209 -979q-12 -62 -12 -67q0 -32 24 -45l21 -13q35 -26 35 -65
q-16 -70 -115 -70h-389q-86 0 -86 70q5 25 19 37q15 12 45 28l24 13q34 15 43 37.5t19 74.5z" />
    <glyph glyph-name="J" unicode="J" horiz-adv-x="1147" 
d="M813 1239q1 2 7 27t6 39q0 34 -27 47l-18 12q-21 16 -29 27t-8 39q15 69 116 69h390q83 0 83 -69q-4 -24 -16 -36q-13 -11 -45 -30l-27 -12q-31 -14 -40 -37t-19 -76l-166 -778q-27 -128 -68 -216q-40 -89 -128 -155q-83 -61 -198 -91t-224 -30q-172 0 -296 69.5
t-124 213.5q0 39 8 74q18 82 70 145.5t127 98t157 34.5q59 0 102 -28q44 -29 44 -92q-11 -51 -67 -72.5t-107 -44.5t-65 -90q-4 -25 -4 -33q0 -55 40 -86q41 -31 102 -31q113 0 167.5 79t80.5 206z" />
    <glyph glyph-name="K" unicode="K" horiz-adv-x="1598" 
d="M511 260q-3 -12 -8 -33.5t-5 -33.5q0 -32 25 -45l20 -13q35 -26 35 -65q-16 -70 -115 -70h-389q-86 0 -86 70q6 25 20 37t44 28l25 13q34 15 42.5 37.5t18.5 74.5l209 979q0 2 6 27t6 39q0 34 -26 47l-19 12q-21 16 -29 27t-8 39q15 69 116 69h390q84 0 84 -69
q-4 -24 -17 -35.5t-45 -30.5l-27 -12q-31 -14 -40 -37t-19 -76l-100 -469l393 269q283 226 295 280q0 19 -8 29q-7 11 -23.5 25.5t-24.5 27.5t-8 35q13 63 109 63h252q45 0 78 -12q32 -14 32 -67q-8 -42 -81 -74q-67 -30 -106.5 -62t-119.5 -110l-325 -275
q192 -256 331 -659q25 -78 72 -105q24 -14 32.5 -27t8.5 -48q-13 -60 -111 -60h-391q-112 0 -112 68q5 26 18.5 37.5t43 31t32.5 33.5q0 61 -44 168t-103 212q-59 106 -95 153l-186 -123z" />
    <glyph glyph-name="L" unicode="L" horiz-adv-x="1229" 
d="M341 1239q0 2 6 27t6 39q0 34 -27 47l-18 12q-21 16 -29 27.5t-8 38.5q15 69 116 69h389q84 0 84 -69q-4 -24 -16 -35t-45 -31l-27 -12q-18 -8 -28 -20q-10 -11 -15.5 -25.5t-8.5 -30.5t-7 -37l-206 -964q-9 -35 -9 -64q0 -39 25 -49q26 -11 102 -14h76q107 0 172 17.5
t141 84.5q57 52 88 75t66 23q25 0 42 -17t17 -50q-13 -59 -84 -187q-23 -45 -40.5 -63.5t-42 -24.5t-73.5 -6h-919q-86 0 -86 70q6 25 19.5 37t43.5 29l25 12q33 15 42.5 38t18.5 75z" />
    <glyph glyph-name="M" unicode="M" horiz-adv-x="1884" 
d="M1481 1393q29 48 46 68q17 21 41 29.5t71 8.5h381q53 0 53 -73q-6 -35 -29 -48q-22 -14 -67 -28q-41 -11 -56 -33t-24 -67l-211 -990q-2 -12 -7 -33.5t-5 -33.5q0 -32 25 -45l20 -13q35 -27 35 -65q-16 -70 -115 -70h-389q-86 0 -86 70q6 25 20 37.5t44 27.5l24 13
q34 15 43.5 39t18.5 73l188 889l-506 -823q-40 -62 -56 -82t-44 -34q-28 -13 -79 -13q-50 0 -73.5 5t-37 23t-24.5 58l-180 844l-184 -871q-2 -24 -2 -67q4 -24 17 -34q13 -9 48 -24q21 -10 29 -22.5t8 -44.5q-9 -40 -47.5 -52t-106.5 -12h-178q-64 0 -95 12q-30 11 -30 52
q6 29 21 43t45 24q42 16 59 25t31 33q14 32 27 67l209 983q0 3 1 18q1 16 1 25q0 56 -64 76q-32 10 -48 24q-15 13 -15 48q9 44 43 57q35 12 90 12h399q46 0 66.5 -17.5t25.5 -39t15 -88.5l131 -735z" />
    <glyph glyph-name="N" unicode="N" horiz-adv-x="1557" 
d="M1415 1243q2 25 2 68q-4 25 -18.5 35t-47.5 22q-22 11 -29 23.5t-7 44.5q8 40 46 51.5t108 11.5h178q65 0 94.5 -11.5t29.5 -51.5q-5 -28 -20 -41q-14 -14 -45 -27q-38 -13 -56.5 -22.5t-33.5 -34.5q-9 -15 -27 -68l-235 -1112q-14 -62 -27 -91t-43 -42q-29 -13 -92 -13
q-41 0 -61.5 5.5t-36.5 28.5q-13 16 -31 52.5t-38.5 81.5t-35.5 79l-452 882l-182 -858q-2 -24 -2 -67q4 -24 17 -34q13 -9 48 -24q21 -10 29 -22.5t8 -44.5q-10 -40 -48.5 -52t-105.5 -12h-178q-64 0 -94.5 11.5t-30.5 52.5q6 28 21 42t45 25q42 16 59 25t31 33
q15 33 26 67l193 908q18 88 18 112q0 61 -63 82q-32 10 -48 24t-16 48q10 44 44.5 56.5t89.5 12.5h280q60 0 79.5 -7t47.5 -46q34 -44 71 -107q38 -64 72 -129.5t63 -123.5t66 -133l195 -388z" />
    <glyph glyph-name="O" unicode="O" horiz-adv-x="1762" 
d="M256 191q-131 155 -131 385q0 87 19 178q35 166 127 310q93 143 227 248t293 161.5t325 56.5q147 0 271 -42.5t214 -122.5q89 -79 138 -192t49 -249q0 -82 -18 -170q-35 -168 -131 -313q-96 -144 -233 -250t-299.5 -164t-328.5 -58q-155 0 -294 58q-139 59 -228 164z
M1369 746q24 121 24 231q0 174 -71 286q-71 110 -234 110q-110 0 -206.5 -60t-174.5 -166q-113 -154 -162 -387q-25 -124 -25 -231q0 -112 28 -202t95 -146t176 -56q117 0 211.5 57t162 149t111 201t65.5 214z" />
    <glyph glyph-name="P" unicode="P" 
d="M498 256q-2 -24 -2 -67q5 -24 17.5 -33t48.5 -25q20 -10 28.5 -22.5t8.5 -44.5q-10 -40 -48.5 -52t-105.5 -12h-383q-86 0 -86 70q5 25 19 38q15 12 45 27l24 13q34 15 43.5 39t18.5 73l209 979q0 2 6 28t6 38q0 34 -27 47l-18 12q-21 16 -29 27t-8 39q15 69 116 69h633
q116 0 209 -15t164 -56q149 -89 149 -254q0 -44 -8 -82q-29 -138 -136 -244t-255 -172q-209 -94 -573 -111zM597 723q118 16 227.5 55t194.5 114q84 76 108 188q8 49 8 67q0 100 -66 155q-65 54 -178 54q-95 0 -137 -35q-38 -31 -55 -121z" />
    <glyph glyph-name="Q" unicode="Q" horiz-adv-x="1762" 
d="M738 -31q-185 0 -325 78q-141 76 -216.5 213t-75.5 310q0 84 19 172q36 170 129 315t229 251q135 107 297.5 164.5t329.5 57.5q104 0 202 -23t181 -71t141 -119q131 -159 131 -401q0 -74 -16 -156q-26 -125 -90.5 -241t-158.5 -215t-209 -170.5t-245 -110.5
q52 -44 102 -63.5t119 -19.5q30 0 88.5 8.5t92.5 8.5q41 0 65 -23q25 -24 25 -61q0 -11 -4 -27q-15 -69 -90 -98q-74 -29 -156 -29q-148 0 -266 69t-189 187zM799 338q28 119 106 119q60 0 60 -66q0 -24 -8 -65q-4 -37 -4 -51q0 -51 18 -123q106 35 185.5 131t127.5 214
q49 117 75 234q24 126 24 236q0 177 -69 292q-68 114 -228 114q-220 1 -356 -185q-135 -185 -187 -430q-25 -119 -25 -221q0 -167 65.5 -279t213.5 -123q-8 70 -8 105q0 43 10 98z" />
    <glyph glyph-name="R" unicode="R" horiz-adv-x="1516" 
d="M505 260q-13 -62 -13 -67q0 -32 25 -45l20 -13q35 -26 35 -65q-16 -70 -115 -70h-391q-86 0 -86 70q5 25 19 37q15 12 45 28l24 13q34 15 43 37.5t19 74.5l207 977q12 45 12 68q0 32 -25 45l-20 12q-35 27 -35 66q15 69 114 69l731 2q231 0 328 -55q64 -35 98.5 -96.5
t34.5 -136.5q0 -34 -6 -68q-14 -68 -52 -129t-91.5 -110.5t-118.5 -89t-135 -68.5q120 -169 180 -500q12 -56 23 -79q12 -23 49 -46q18 -13 26 -24t8 -37q-13 -60 -118 -60h-402q-49 0 -79 12q-29 12 -29 56q5 26 30 41q25 16 51 32t31 39q0 107 -52 257.5t-99 220.5
l-209 -33zM613 783q80 1 167 19t166.5 55t137.5 99t75 146q9 43 9 64q0 95 -69 141t-183 46q-112 0 -160 -40q-35 -29 -59 -135z" />
    <glyph glyph-name="S" unicode="S" 
d="M1004 930q193 -46 277 -125q90 -90 90 -225q0 -44 -8 -80q-17 -78 -56.5 -150t-99 -134.5t-130.5 -106.5q-212 -140 -485 -140q-222 0 -375 78q-73 39 -130.5 106.5t-57.5 141.5q0 13 5 35q6 29 24 55t44.5 42t55.5 16q66 0 98 -76q33 -74 50 -103t55 -59q98 -74 248 -74
q75 0 153 26.5t137 80.5t75 131q4 14 4 41q0 82 -72 119q-71 39 -248 73q-210 39 -307 115q-119 96 -119 248q0 44 8 80q16 71 54.5 140t96.5 128q58 60 124.5 102t139.5 67q73 26 147 37t151 11q244 0 430 -106q41 -29 43 -60q0 -71 -27 -184q-18 -84 -92 -84q-34 0 -55 44
q-20 43 -49 105q-28 62 -89 101.5t-176 39.5q-61 0 -125.5 -22.5t-111.5 -67t-61 -108.5q-4 -29 -4 -41q0 -77 56.5 -112.5t160.5 -63.5z" />
    <glyph glyph-name="T" unicode="T" 
d="M685 1237q12 60 12 70q0 40 -70 40q-102 0 -156.5 -31t-115 -84.5t-97.5 -53.5q-61 0 -61 78q3 10 25 65q56 146 85 166q23 12 97 12h1048q74 0 88 -12q19 -16 19 -94q0 -16 -1 -41q-1 -24 -1 -31q0 -43 -4 -65q-18 -78 -95 -78q-36 0 -73.5 53.5t-78.5 84.5t-142 31
q-61 0 -76.5 -21.5t-30.5 -88.5l-206 -977q-3 -12 -8 -33.5t-5 -33.5q0 -32 25 -45l20 -13q35 -26 35 -65q-16 -70 -115 -70h-389q-86 0 -86 70q6 25 20 37t44 28l24 13q34 15 43 37.5t19 74.5z" />
    <glyph glyph-name="U" unicode="U" horiz-adv-x="1557" 
d="M554 645q-4 -21 -14 -75q-10 -53 -14.5 -92.5t-4.5 -69.5q0 -53 12 -105q25 -89 99 -132.5t175 -43.5q89 0 184 42t152 118q49 65 75 147t54 207l134 635q4 24 4 31q0 23 -12 33q-11 11 -41 26q-39 21 -39 66q7 43 43.5 55t90.5 12h178q50 0 78 -12q29 -12 29 -55
q-5 -25 -21 -38q-15 -13 -46 -28q-47 -20 -63.5 -34.5t-26.5 -55.5l-128 -604q-37 -175 -85 -298t-146 -216q-105 -100 -251.5 -144.5t-295.5 -44.5q-129 0 -252 37.5t-190 118.5q-84 100 -84 266q0 103 33 254l127 594q2 12 6 24q3 13 4.5 24t1.5 18q0 34 -26 47l-19 12
q-21 16 -29 27t-8 39q15 69 117 69h395q95 0 95 -69q-8 -43 -62 -62q-30 -12 -46.5 -22t-25 -22.5t-16 -34t-16.5 -52.5z" />
    <glyph glyph-name="V" unicode="V" horiz-adv-x="1516" 
d="M826 266h2q178 272 297 472q232 401 255 518q0 35 -13.5 55.5t-41 42.5t-39.5 37q-12 16 -12 45q13 63 131 63h234q97 0 97 -67q-9 -37 -57 -72q-43 -30 -59 -51q-16 -20 -43 -76q-91 -187 -198 -363t-302 -481q-145 -233 -202 -307q-52 -65 -93.5 -89t-113.5 -24
q-64 0 -94 8.5t-46 32t-40 82.5q-104 247 -156 560l-59 616q0 47 -10 64t-34 44.5t-24 53.5q15 69 148 69h337q113 0 113 -67q-7 -34 -42 -53t-68 -38.5t-41 -56.5q-9 -34 -9 -94q0 -141 54 -430z" />
    <glyph glyph-name="W" unicode="W" horiz-adv-x="2048" 
d="M809 254q-87 -153 -147 -219q-35 -38 -72.5 -52t-87.5 -14q-69 0 -103.5 19t-48.5 53q-13 34 -30 111q-60 289 -64 723q0 79 4 227l6 152q0 51 -5.5 70t-26.5 36q-29 29 -29 70q10 43 48 56t112 13h332q40 0 63 -13.5t23 -57.5q-7 -35 -64 -64q-37 -16 -50 -31.5
t-22 -52.5q-25 -114 -25 -325q0 -76 4 -166l48 -461q71 118 128 223t105 209.5t86 215.5q39 111 62 220q16 89 16 97q0 50 -39 77q-32 30 -32 62q13 67 116 67h371q39 0 58 -14q20 -15 20 -57q-6 -29 -37.5 -47t-59.5 -36q-27 -18 -36 -61q-12 -54 -12 -184q0 -146 14 -317
l78 -461l233 424q162 333 197 497q4 29 4 35q0 32 -13 49t-38 35.5t-36 31.5t-11 40q8 40 46.5 52.5t114.5 12.5h181q86 0 86 -63q-6 -22 -50 -62q-39 -29 -57.5 -49.5t-36.5 -60.5l-80 -209q-28 -81 -82 -203.5t-112.5 -238.5t-112.5 -213l-121 -203q-87 -145 -123 -178
q-51 -50 -155 -50q-48 0 -77.5 9t-48.5 31t-34 63q-24 73 -43 158q-19 86 -31 167.5t-26.5 213.5t-16.5 143z" />
    <glyph glyph-name="X" unicode="X" horiz-adv-x="1516" 
d="M25 0q-43 0 -69 13q-25 13 -25 55q5 28 25.5 43t58.5 31q50 22 76 47q27 24 82 86l438 465q-79 111 -142 241t-126 297q-12 32 -23 48q-11 17 -37 32t-38.5 29.5t-12.5 46.5q10 54 80 65h440q42 -4 64 -15t22 -50q-6 -24 -24 -38q-17 -14 -38 -29.5t-24 -28.5
q0 -34 36 -110t81 -156q46 -81 75 -134q117 113 219 223q103 109 113 156q0 19 -9.5 32t-27.5 28q-19 16 -28 29t-9 36q12 57 103 57h233q53 0 86 -11.5t33 -55.5q-6 -29 -25 -44q-20 -14 -59 -34q-29 -15 -41 -23t-35 -32l-110 -119l-361 -365l273 -487l39 -92
q22 -50 34 -65t50 -36q41 -20 41 -69q-10 -42 -45 -54t-87 -12h-458q-45 17 -45 70q5 25 20 36t42.5 26t29.5 26q0 33 -46.5 131.5t-102.5 197.5t-81 130q-45 -44 -126 -133t-146.5 -173.5t-72.5 -121.5q0 -20 7 -34t22.5 -31.5t23.5 -31.5t8 -32q-11 -49 -72 -60h-309z" />
    <glyph glyph-name="Y" unicode="Y" horiz-adv-x="1516" 
d="M1182 1012l90 109q117 130 129 186q0 19 -9.5 32t-27.5 28q-19 16 -28 29t-9 34q16 69 125 69h178q66 0 91.5 -11.5t25.5 -55.5q-7 -33 -53 -64q-51 -32 -64 -42.5t-45 -49.5l-587 -661l-76 -355q-3 -17 -7 -31q-3 -14 -5 -24.5t-2 -17.5q0 -29 49 -54q37 -16 37 -63
q-16 -70 -115 -70h-387q-96 0 -96 70q10 41 61 61q54 26 65 43t27 88l72 336l-287 654q-14 45 -26.5 60.5t-57.5 43.5q-43 23 -43 76q8 41 52.5 54t119.5 13h64h311q45 0 68.5 -13.5t23.5 -59.5q-5 -26 -30 -40t-53 -28q-27 -14 -32 -35q0 -86 54 -211l161 -348z" />
    <glyph glyph-name="Z" unicode="Z" horiz-adv-x="1270" 
d="M1336 1499q60 0 92 -14t32 -68q-10 -49 -73 -140q-62 -90 -148.5 -193t-152.5 -177q-67 -73 -155 -169l-418 -445q-83 -91 -88 -115q1 -20 48 -20h203q85 0 146 7.5t122 33t123 78.5q66 61 109 61q29 0 42 -14t13 -51q-9 -45 -55 -156l-27 -68q-22 -33 -44 -41t-66 -8
h-920q-70 0 -108.5 19.5t-38.5 89.5q13 63 79.5 145.5t170.5 196.5l311 344l288 307l113 129q20 25 46.5 57.5t29.5 40.5q0 22 -49 22h-142q-110 0 -200 -16q-59 -11 -95 -30q-36 -18 -79 -62q-40 -38 -60.5 -53.5t-48.5 -15.5q-57 0 -57 67q12 51 34 124t40 102
q22 32 100 32h883z" />
    <glyph glyph-name="bracketleft" unicode="[" horiz-adv-x="656" 
d="M359 1401q11 49 23 68t36.5 24.5t85.5 5.5h203q67 0 96.5 -12.5t29.5 -58.5q-9 -44 -73 -68q-69 -22 -93 -38.5t-31 -35.5q-6 -20 -26 -110l-268 -1260q-1 -6 -8.5 -40t-7.5 -52q0 -50 51 -70q39 -12 61.5 -27.5t22.5 -52.5q-9 -47 -47.5 -60.5t-110.5 -13.5h-202
q-67 0 -89 6.5t-22 34.5q0 25 8 58z" />
    <glyph glyph-name="backslash" unicode="\" horiz-adv-x="1311" 
d="M510 1551h148l310 -1551h-147z" />
    <glyph glyph-name="bracketright" unicode="]" horiz-adv-x="656" 
d="M631 1499q66 0 86 -5q21 -6 21 -34q0 -21 -8 -59l-361 -1702q-12 -50 -23 -69t-35 -24.5t-83 -5.5h-203q-69 0 -100 13.5t-31 60.5q8 36 36 50.5t83 29.5q35 12 53.5 28.5t27 37t13.5 47.5t10 57l267 1252q20 84 20 108q0 26 -18 40.5t-74 35.5q-45 18 -45 68
q9 44 48 57.5t113 13.5h203z" />
    <glyph glyph-name="asciicircum" unicode="^" horiz-adv-x="1352" 
d="M58 365l759 1134h185l282 -1134h-194l-225 932l-617 -932h-190z" />
    <glyph glyph-name="underscore" unicode="_" horiz-adv-x="1024" 
d="M920 -102l-41 -197h-1024l40 197h1025z" />
    <glyph glyph-name="grave" unicode="`" horiz-adv-x="778" 
d="M582 1497q41 -2 58.5 -9.5t25 -22t22.5 -56.5l68 -186q16 -41 16 -68q-10 -41 -55 -41q-13 0 -26 7q-12 7 -25 18q-12 10 -25 20l-220 195q-11 11 -19 18q-7 8 -14 17.5t-11 21t-4 29.5q9 36 36 46.5t83 10.5h90z" />
    <glyph glyph-name="a" unicode="a" horiz-adv-x="1188" 
d="M1034 281q-14 -86 -14 -113q7 -24 37 -39q39 -21 39 -63q-9 -43 -41 -54q-32 -13 -84 -13h-205q-54 0 -72 13.5t-18 47.5q0 24 6 67q-129 -158 -350 -158q-134 0 -221 65q-88 63 -88 181q0 39 8 72q22 103 94 174.5t171 112.5t204.5 58t200.5 17h69q8 34 8 68
q0 148 -151 148q-42 0 -73.5 -16.5t-75.5 -49.5t-77 -49.5t-75 -16.5q-107 0 -107 99q20 93 175 131.5t286 38.5q209 0 326 -76q110 -73 110 -211q0 -52 -12 -111zM717 520q-120 0 -218.5 -59.5t-123.5 -175.5q-6 -20 -6 -43q0 -45 26.5 -75t75.5 -30q95 0 178 99
q42 49 59 95.5t32 123.5l14 65h-37z" />
    <glyph glyph-name="b" unicode="b" horiz-adv-x="1270" 
d="M561 895q156 107 312 107q118 0 202 -44q85 -45 128.5 -126t43.5 -189q0 -68 -14 -131q-35 -169 -144 -292.5t-262 -185.5q-154 -64 -323 -64q-93 0 -180 23t-144 69q-77 67 -77 186q0 70 21 160l153 721q22 96 27 153q0 31 -9 44q-9 14 -34 30q-21 13 -30 23
q-9 11 -9 34q7 35 40.5 48.5t100.5 29.5q190 60 254 60q61 0 61 -76q0 -21 -3 -41t-10 -50.5t-7 -33.5zM470 430q-23 -110 -23 -161q0 -158 131 -158q81 0 141.5 56.5t96.5 137.5t53 162q18 80 18 162q0 217 -137 217q-100 0 -174 -84q-50 -57 -74 -172z" />
    <glyph glyph-name="c" unicode="c" horiz-adv-x="1065" 
d="M611 144h8q127 0 256 104q60 51 94 51q45 0 45 -63q-14 -73 -147 -158q-187 -109 -357 -109q-130 0 -234 49q-104 47 -163.5 137t-59.5 210q0 47 13 108q33 157 132 278q100 120 242 185.5t295 65.5q74 0 160 -22t149.5 -73t63.5 -131q-10 -49 -52 -80q-42 -30 -91 -30
q-50 0 -75 23t-51 69q-25 47 -51 70.5t-77 23.5q-113 0 -187 -119t-104 -254h2q-13 -50 -13 -104q0 -101 49.5 -166t152.5 -65z" />
    <glyph glyph-name="d" unicode="d" horiz-adv-x="1270" 
d="M959 1129q21 96 26 153q0 31 -8 44q-9 14 -35 30q-21 13 -30 23q-9 11 -9 34q7 35 41 48.5t101 29.5q190 60 254 60q61 0 61 -76q0 -21 -3 -41t-10 -50.5t-7 -33.5l-228 -1069q-14 -89 -14 -113q8 -25 37 -39q39 -21 39 -63q-9 -43 -41 -54q-32 -13 -84 -13h-205
q-54 0 -72 13.5t-18 47.5q0 26 6 67q-127 -158 -334 -158q-175 0 -278 107.5t-103 276.5q0 56 13 116q31 147 124 270q94 123 228 193q135 70 282 70q121 0 226 -67zM854 639q11 47 11 76q0 40 -21 76q-39 61 -123 61q-122 0 -200 -114.5t-108 -253.5q-16 -69 -16 -140
q0 -211 162 -211q100 0 176 86q40 48 62 146z" />
    <glyph glyph-name="e" unicode="e" horiz-adv-x="1147" 
d="M627 133q138 0 303 123q37 28 51 36.5t41 8.5q21 0 35 -15t14 -40q-10 -49 -77 -103.5t-129 -86.5q-164 -87 -359 -87q-93 0 -176 26q-83 27 -147.5 78.5t-100 123.5t-35.5 160q0 43 11 96q35 165 147 290t268 193q156 66 318 66q90 0 173 -25q82 -27 135.5 -82
t53.5 -137q0 -27 -6 -55q-22 -103 -119.5 -172t-220.5 -107q-57 -17 -123 -29.5t-148.5 -24t-125.5 -17.5q0 -98 59 -159t158 -61zM832 725q4 29 4 39q0 94 -98 94q-80 0 -149 -59t-113 -145t-56 -164q85 6 171.5 30.5t155.5 75.5t85 129z" />
    <glyph glyph-name="f" unicode="f" horiz-adv-x="738" 
d="M496 277q-14 -67 -14 -113q4 -18 37 -37q37 -22 37 -61q-10 -43 -42 -54.5t-84 -11.5h-321q-47 0 -71.5 11.5t-24.5 54.5q4 23 20 35q15 13 41 26q41 18 54 37q14 24 35 112l116 551h-27q-55 0 -79.5 9.5t-24.5 44.5q0 6 4 27q7 32 31 53q17 16 34 20t58 4h39
q24 119 51 205.5t78 161.5q44 66 104 111q61 44 130.5 66t143.5 22q73 0 129 -33t56 -107q-9 -49 -49 -84q-40 -34 -88 -34q-26 0 -46 11t-42 29q-22 19 -27 19q-27 0 -55 -115l-53 -252h59h43q44 0 67 -14t23 -61q-10 -53 -45 -68t-115 -15h-65z" />
    <glyph glyph-name="g" unicode="g" horiz-adv-x="1229" 
d="M881 994l186 -11h113q59 0 89 -14t30 -70q-10 -45 -46.5 -58t-93.5 -15h-53q59 -88 59 -201q0 -39 -10 -92q-52 -245 -286 -379q84 -21 140 -69t56 -126q0 -22 -6 -47q-26 -121 -135 -192q-110 -70 -244 -95.5t-260 -25.5q-171 0 -328.5 40t-157.5 160q17 80 97 122
q78 42 164 42q103 0 103 -53q-2 -9 -15 -25q-14 -18 -16 -31q0 -45 61 -64.5t119 -19.5q102 0 191 33.5t106 120.5q4 21 4 29q0 73 -107 123q-78 -21 -162 -21q-122 0 -217 41.5t-149 121.5q-53 79 -53 190q0 49 12 104q17 74 49.5 142.5t82.5 128t116 104.5
q170 115 424 115zM807 549q14 64 14 131q0 84 -29 138q-30 55 -100 55q-100 0 -169 -110t-94 -228q-17 -89 -17 -152q0 -180 125 -180q112 0 177.5 107.5t92.5 238.5z" />
    <glyph glyph-name="h" unicode="h" horiz-adv-x="1270" 
d="M1123 260q-14 -72 -14 -108q3 -11 30 -35q27 -18 27 -53q-14 -64 -93 -64h-346q-63 0 -63 64q4 30 47 53q38 24 47 35q11 19 31 108l72 340q14 63 14 109q0 126 -129 126q-84 0 -150 -59q-55 -48 -76 -143l-79 -373q-15 -72 -15 -108q3 -11 31 -35q27 -18 27 -53
q-14 -64 -93 -64h-346q-64 0 -64 64q5 30 48 53q38 24 47 35q11 19 31 108l184 869q22 96 27 153q0 31 -9.5 44.5t-33.5 29.5q-21 13 -30 23q-9 11 -9 34q7 35 40.5 48.5t100.5 29.5q190 60 254 60q61 0 61 -76q0 -27 -20 -125l-94 -447q158 99 319 99q188 0 267 -111
q47 -64 47 -158q0 -52 -18 -147z" />
    <glyph glyph-name="i" unicode="i" horiz-adv-x="615" 
d="M287 1272q16 79 86.5 125.5t148.5 46.5q73 0 121.5 -34t48.5 -97q0 -8 -4 -33q-15 -73 -89 -118q-73 -45 -150 -45q-68 0 -115 38.5t-47 116.5zM201 580q20 87 27 153q0 31 -9.5 44.5t-33.5 29.5q-21 13 -30 23q-9 11 -9 35q3 19 19 32.5t36 21.5t44 14q25 5 42 9
q191 60 254 60q61 0 61 -76q0 -29 -20 -125l-115 -541q-14 -81 -14 -108q3 -12 31 -35q26 -17 26 -53q-14 -64 -92 -64h-346q-64 0 -64 64q5 30 48 53q38 25 47 35q10 19 30 108z" />
    <glyph glyph-name="j" unicode="j" horiz-adv-x="615" 
d="M316 1272q16 79 86 125.5t149 46.5q73 0 121.5 -34t48.5 -97q0 -8 -4 -33q-15 -74 -89 -118.5t-151 -44.5q-67 0 -114 39t-47 116zM223 580q22 92 27 153q0 31 -9 44.5t-33 29.5q-21 13 -30 23q-9 11 -9 35q3 19 19 32.5t36 21.5t44 13.5t41 9.5q192 60 254 60t62 -76
q0 -29 -21 -125l-151 -717q-25 -111 -51 -185q-26 -73 -78 -135q-66 -77 -156.5 -120.5t-184.5 -43.5q-79 0 -147 36q-67 35 -67 114q11 48 48 80.5t84 32.5q37 0 59 -15t44.5 -39t30.5 -24q25 0 37 84z" />
    <glyph glyph-name="k" unicode="k" horiz-adv-x="1229" 
d="M877 641l-33 -22q138 -151 231 -422q14 -44 46 -66.5t32 -62.5q-16 -68 -108 -68h-338q-41 0 -64.5 12.5t-23.5 53.5q4 19 21.5 32t36.5 25q18 13 22 29q0 38 -25.5 102t-60 123t-58.5 82l-86 -43l-32 -156q-14 -79 -14 -108q3 -11 30 -35q27 -17 27 -53q-14 -64 -93 -64
h-346q-63 0 -63 64q4 30 47 53q38 24 47 35q11 20 31 108l184 869q21 87 27 153q0 31 -9 44.5t-34 29.5q-21 13 -30 23q-9 11 -9 34q4 20 19 33q16 14 38 22q22 9 44 14q23 5 40 9q191 60 254 60q61 0 61 -76q0 -27 -20 -125l-168 -791q45 15 133 69.5t160 112.5
q72 59 80 93q0 21 -21 35q-35 17 -35 57q8 40 64 51q47 8 211 8h45q47 0 75.5 -11.5t28.5 -47.5q-3 -19 -17 -33.5t-34 -25.5t-39 -21q-42 -20 -143 -104z" />
    <glyph glyph-name="l" unicode="l" horiz-adv-x="615" 
d="M308 1129q20 87 27 153q0 31 -9.5 44.5t-33.5 29.5q-21 13 -30 23q-9 11 -9 34q3 20 19 33q15 14 38 22q22 9 44 14t39 9q192 60 254 60t62 -76q0 -27 -20 -125l-227 -1073q-15 -64 -15 -113q4 -19 37 -37q37 -22 37 -61q-10 -43 -41.5 -54.5t-83.5 -11.5h-322
q-47 0 -71.5 11.5t-24.5 54.5q6 34 62 61q40 18 53 37q17 28 35 113z" />
    <glyph glyph-name="m" unicode="m" horiz-adv-x="1884" 
d="M1737 260q-14 -79 -14 -108q3 -11 30 -35q27 -17 27 -53q-14 -64 -92 -64h-346q-64 0 -64 64q5 30 47 53q38 24 47 35q8 14 31 108l68 318q18 95 18 131q0 108 -100 108q-89 0 -156 -69q-48 -48 -76 -180l-65 -308q-15 -81 -15 -108q4 -12 31 -35q27 -17 27 -53
q-14 -64 -92 -64h-346q-64 0 -64 64q5 30 47 53q38 24 47 35q8 14 31 108l68 318q18 95 18 131q0 108 -100 108q-89 0 -156 -69q-48 -48 -76 -180l-65 -308q-15 -81 -15 -108q3 -12 31 -35q27 -17 27 -53q-14 -64 -92 -64h-347q-64 0 -64 64q5 30 48 53q39 25 47 35
q10 18 31 108l84 392q12 62 12 77q0 42 -45 66q-31 12 -31 55q8 35 77 69t152 59q84 24 120 24q38 0 49.5 -35t11.5 -113q157 148 360 148q94 0 162 -42.5t96 -123.5q146 166 385 166q72 0 136 -24t102 -70q47 -56 47 -148q0 -63 -16 -133z" />
    <glyph glyph-name="n" unicode="n" horiz-adv-x="1270" 
d="M1123 260q-14 -72 -14 -108q3 -11 30 -35q27 -18 27 -53q-14 -64 -93 -64h-346q-63 0 -63 64q4 30 47 53q38 24 47 35q11 19 31 108l70 330q18 89 18 125q0 114 -119 114q-108 0 -176 -83q-38 -45 -66 -168l-67 -318q-15 -81 -15 -108q4 -12 31 -35q27 -17 27 -53
q-14 -64 -92 -64h-347q-63 0 -63 64q4 30 47 53q39 25 47 35q10 18 31 108l84 392q12 62 12 77q0 42 -45 66q-31 12 -31 55q8 35 77 69t152 59q84 24 120 24q38 0 50 -36q11 -35 11 -112q150 148 356 148q85 0 156.5 -27t112.5 -82q41 -58 41 -155q0 -64 -16 -142z" />
    <glyph glyph-name="o" unicode="o" horiz-adv-x="1270" 
d="M174 97q-112 112 -112 280q0 52 12 105q23 104 90.5 201.5t163.5 170.5q197 148 455 148q96 0 180.5 -28.5t150 -82.5t102 -130t36.5 -169q0 -57 -10 -100q-33 -154 -141 -273.5t-256.5 -184t-299.5 -64.5q-242 0 -371 127zM892 504q16 71 16 137q0 94 -39.5 153.5
t-128.5 59.5q-127 0 -204 -109.5t-107 -250.5q-21 -105 -21 -168q0 -215 168 -215q234 0 316 393z" />
    <glyph glyph-name="p" unicode="p" horiz-adv-x="1311" 
d="M393 -101q-14 -66 -14 -112q4 -17 37 -37q37 -22 37 -62q-9 -43 -41 -54t-84 -11h-322q-47 0 -71.5 11t-24.5 54q6 35 61 62q42 19 54 37q14 23 35 112l159 753q13 62 13 77q0 42 -45 66q-31 12 -31 55q7 35 76 69t152.5 58.5t119.5 24.5q39 0 50 -36q11 -35 11 -112
q170 148 347 148q121 0 208 -49t131.5 -136t44.5 -198q0 -67 -14 -129q-22 -107 -79 -202t-140.5 -167t-184.5 -112q-100 -40 -206 -40q-68 0 -128 28t-60 93q4 21 20 36.5t37 15.5q19 0 47 -3.5t45 -3.5q92 0 172 84q89 98 123 258q14 67 14 127q0 98 -37 160.5t-122 62.5
q-87 0 -158 -65q-38 -36 -56.5 -81.5t-33.5 -112.5z" />
    <glyph glyph-name="q" unicode="q" horiz-adv-x="1270" 
d="M740 80q-142 -111 -318 -111q-168 0 -268 105q-101 103 -101 264q0 52 13 113q31 151 126 277q95 127 231 200.5t286 73.5q166 0 287 -99q141 99 204 99q56 0 56 -51q0 -14 -11 -62l-213 -1002q-12 -67 -12 -113q4 -18 37 -36q35 -24 35 -62q-8 -43 -39.5 -54t-83.5 -11
h-322q-47 0 -72.5 11t-25.5 54q9 36 64 62q40 17 53 36q13 25 33 113zM848 588q12 65 12 100q0 164 -137 164q-85 0 -147 -60t-98.5 -145.5t-53.5 -169.5q-17 -67 -17 -141q0 -215 161 -215q92 0 161 76q31 32 43.5 64.5t24.5 86.5z" />
    <glyph glyph-name="r" unicode="r" horiz-adv-x="901" 
d="M496 277q-14 -67 -14 -113q4 -18 37 -37q37 -22 37 -61q-10 -43 -42 -54.5t-84 -11.5h-321q-47 0 -71.5 11.5t-24.5 54.5q4 23 20 35q15 13 41 26q41 18 54 37q14 24 35 113l79 375q1 0 1 5q0 11 -3 50q-1 32 -13 46t-44 30q-41 21 -41 67q12 51 120 92q39 15 118 37
q79 23 110 23q42 0 57 -36t17 -97q0 -60 -2 -80q59 86 144 149q85 64 169 64q57 0 91 -32t34 -85q0 -11 -4 -35q-10 -52 -48 -97q-39 -44 -90 -44q-28 0 -69.5 13t-63.5 13q-56 0 -110 -75q-51 -69 -86 -221z" />
    <glyph glyph-name="s" unicode="s" horiz-adv-x="1024" 
d="M709 613q117 -34 180 -82q63 -47 63 -144q0 -31 -6 -63q-18 -83 -77 -154q-61 -72 -146 -121q-151 -79 -334 -79q-154 0 -260 53q-123 63 -123 176q9 39 38.5 66.5t66.5 27.5q32 0 47.5 -14.5t34.5 -44.5q47 -67 82 -92q35 -27 104 -27q63 0 124.5 31t73.5 90
q0 61 -49 84.5t-166 56t-175 76.5q-60 44 -60 135q0 16 8 66q26 119 112 197.5t201 114.5q116 36 230 36q81 0 170 -20.5t137 -57.5q24 -16 24 -62q0 -19 -10 -75q-9 -45 -27 -73q-17 -28 -56 -28q-30 0 -49.5 31t-38 64.5t-54.5 57t-104 23.5q-61 0 -114 -29t-64 -85
q0 -51 35 -74t90 -37z" />
    <glyph glyph-name="t" unicode="t" horiz-adv-x="778" 
d="M478 301q-10 -47 -10 -71q0 -37 22 -55q21 -17 74 -17q67 0 94 -14q28 -14 28 -66q-17 -78 -153 -78h-281q-82 0 -114.5 17t-32.5 69q0 34 8 72l142 665h-42q-54 0 -81 10t-27 46q0 4 4 24q8 36 32 52q25 15 65 22q57 8 89.5 19.5t61.5 44.5q22 27 51 85q30 59 45 101
q17 42 32 62.5t39 30t64 9.5q53 0 71.5 -8t18.5 -35q0 -8 -8 -55l-53 -246h121q54 0 82 -14t28 -68q-18 -80 -141 -80h-119z" />
    <glyph glyph-name="u" unicode="u" horiz-adv-x="1270" 
d="M189 686q15 64 15 84q0 32 -29 56q-25 20 -25 53q6 28 41 49q46 26 215 57q3 5 27.5 11t45.5 6q89 0 89 -80q0 -19 -13 -88l-100 -469q-16 -78 -16 -117q0 -108 106 -108q41 0 87.5 20t78.5 51q47 45 70 160l67 315q14 61 14 84q0 32 -28 56q-25 20 -25 53q6 28 41 49
q48 26 215 57q68 13 96 13q68 0 78 -47l-143 -670q-14 -86 -14 -113q7 -24 36 -39q39 -21 39 -63q-9 -43 -40 -54q-32 -13 -85 -13h-176q-45 0 -66 11q-21 9 -28.5 34.5t-7.5 79.5q-181 -155 -381 -155q-198 0 -264 154q-8 16 -8 74q0 73 16 149z" />
    <glyph glyph-name="v" unicode="v" horiz-adv-x="1106" 
d="M770 467q43 64 91 163.5t59 147.5q0 31 -8 49q-9 19 -27 40.5t-23 30.5t-5 30q8 36 38 46.5t86 10.5h113q67 0 93 -9t26 -44q-7 -32 -43 -61q-41 -36 -52 -51q-10 -15 -36 -72l-41 -86q-123 -249 -293 -482q-90 -125 -142 -170q-48 -41 -131 -41q-68 0 -101 18t-60 75
q-49 109 -79 222.5t-44.5 230.5t-23.5 257q-2 40 -6 55q-3 16 -21 31q-31 27 -31 64q8 41 43 52t88 11h266q121 0 121 -61q-5 -28 -31 -47q-25 -19 -50 -37t-31 -47q-6 -28 -6 -68q0 -105 34 -262q35 -157 70 -240z" />
    <glyph glyph-name="w" unicode="w" horiz-adv-x="1639" 
d="M1647 985q63 0 89 -10t26 -47q-5 -27 -41 -59q-38 -34 -49 -48t-31 -57l-281 -526q-106 -167 -176 -223q-53 -46 -141 -46q-59 0 -90 14q-30 13 -54 56q-34 64 -50 135t-38 201q-122 -208 -231 -328q-42 -44 -78 -61t-92 -17q-92 0 -123 36t-59 139q-66 232 -70 528
l-2 102q0 58 -10 72q-35 34 -35 76q14 63 108 63h295q44 0 67 -11.5t23 -53.5q-5 -29 -25 -42q-19 -14 -41 -28t-28 -39q-6 -30 -6 -129q0 -94 4 -184q7 -165 53 -283q173 237 230 498q12 64 12 80q0 42 -29 72q-24 28 -24 63q14 57 106 57h271q47 0 72 -10q26 -11 26 -53
q-6 -27 -26.5 -41t-40.5 -28q-21 -13 -27 -40q-4 -24 -4 -104q0 -96 4 -174l55 -320q82 110 175 283q93 174 114 272q4 25 4 33q0 23 -8 35.5t-24 27t-24 27.5t-8 37q9 36 38.5 45.5t86.5 9.5h107z" />
    <glyph glyph-name="x" unicode="x" horiz-adv-x="1147" 
d="M70 0q-66 0 -97 13q-30 12 -30 55q8 37 60 61q51 25 63.5 35.5t71.5 69.5l256 237l-180 326q-14 26 -24 37.5t-34 25.5q-32 26 -32 64q7 37 33.5 49t68.5 12h350q40 0 63 -10.5t23 -48.5q-4 -22 -30 -45.5t-29 -36.5q0 -31 34 -89t74 -114q50 43 107 101t63 90
q0 16 -24.5 41t-24.5 53q9 38 37 48.5t90 10.5h118q56 0 81.5 -9.5t25.5 -45.5q-4 -25 -19 -38.5t-50 -33.5q-28 -16 -37.5 -23.5t-38.5 -39.5q-111 -123 -268 -252l157 -258q15 -31 28.5 -59.5t30.5 -52t40 -38.5q25 -14 37 -27.5t12 -45.5q-5 -26 -31.5 -44t-55.5 -18
h-366q-94 0 -94 64q5 26 34.5 50t31.5 32q0 25 -43 93.5t-68 100.5l-21 33q-42 -34 -105 -101t-71 -98q0 -15 7 -24q6 -8 23 -24q17 -15 26 -29q8 -13 8 -35q-12 -62 -113 -62h-43h-125z" />
    <glyph glyph-name="y" unicode="y" horiz-adv-x="1106" 
d="M488 985q53 0 83.5 -11.5t30.5 -55.5q-4 -21 -34 -47t-43.5 -42t-22.5 -57q-20 -95 -20 -223q0 -90 8 -147q11 -78 38 -155t76 -77q44 0 96 72t98 172.5t79.5 196t42.5 137.5q8 49 8 59q0 36 -37 60q-31 20 -31 61q8 36 37 47q30 10 92 10h117q67 0 93 -9t26 -44
q-7 -30 -47 -65q-28 -28 -37 -46q-11 -16 -23 -47t-30 -80q-17 -50 -21 -59q-52 -145 -147 -321.5t-222 -340.5q-127 -163 -276.5 -268t-302.5 -105q-60 0 -108 31.5t-48 95.5q10 49 52.5 79t91.5 30q38 0 86 -23q49 -22 61 -22q30 0 82 33t90 67q61 55 119 138
q-52 -12 -100 -12q-64 0 -126.5 31t-101.5 79q-75 101 -75 408q0 88 10 262q0 30 -5.5 46t-18 33.5t-16 25.5t-3.5 26q13 57 112 57h267z" />
    <glyph glyph-name="z" unicode="z" horiz-adv-x="1024" 
d="M111 0q-62 0 -99.5 17t-37.5 75q12 63 123 179l584 585h-154q-77 0 -125.5 -15.5t-98.5 -68.5q-58 -67 -98 -67t-40 63q5 32 26.5 89t40.5 89q26 39 108 39h621q57 0 90 -13.5t33 -63.5q-9 -46 -50 -97q-41 -50 -116 -131l-528 -540h153q88 0 139 14q44 12 69 31t62 61
q47 55 86 55q44 0 44 -53q-8 -35 -33.5 -98t-40.5 -90q-21 -38 -51.5 -49t-77.5 -11h-629z" />
    <glyph glyph-name="braceleft" unicode="{" horiz-adv-x="697" 
d="M183 314q12 65 12 88q0 40 -20 77q-36 59 -107 78q54 6 117 52q49 33 67 74q18 42 33 118l78 369q19 89 43.5 150t75.5 104q52 46 119.5 60.5t166.5 14.5h84q-133 -56 -172 -249l-83 -392q-19 -87 -45 -146q-26 -58 -75 -98t-126 -57q137 -35 137 -166q0 -48 -17 -118
l-87 -421q-15 -74 -15 -106q0 -99 80 -146h-86q-88 0 -139.5 10t-95.5 46q-51 42 -51 123q0 34 16 116z" />
    <glyph glyph-name="bar" unicode="|" horiz-adv-x="1352" 
d="M854 1551h142l-330 -1551h-141z" />
    <glyph glyph-name="braceright" unicode="}" horiz-adv-x="697" 
d="M174 273q26 124 78 190q52 67 166 94q-75 18 -106 59t-31 107q0 45 18 135l84 392q10 45 10 96q-3 116 -76 153h85q98 0 158.5 -14.5t95.5 -60.5q28 -43 28 -107q0 -55 -21 -147l-78 -369q-16 -78 -16 -106q0 -54 35 -86q41 -46 96 -52q-81 -20 -139 -78q-38 -38 -53 -72
q-14 -35 -25 -93l-90 -419q-18 -86 -46 -143t-91 -96q-58 -36 -113 -46t-145 -10h-84q69 33 110 91q40 59 62 161z" />
    <glyph glyph-name="asciitilde" unicode="~" horiz-adv-x="1352" 
d="M1338 682q-76 -82 -129.5 -132t-120.5 -84t-146 -34t-200 52l-101 41q-27 10 -58 22.5t-57 19.5t-51 7q-38 0 -71 -15t-60 -39q-28 -23 -53.5 -52t-60.5 -70l-129 100q63 76 123 133q61 57 133.5 93t152.5 36q59 0 121 -19t147.5 -56.5t124.5 -51.5t78 -14q32 0 63 14
q31 15 57.5 37t56 54t49.5 54z" />
    <glyph glyph-name="Odieresis" unicode="&#x2026;" horiz-adv-x="2048" 
d="M94 133q17 77 86 121.5t146 44.5q66 0 114 -38t48 -99q0 -10 -4 -31q-16 -71 -84 -116.5t-142 -45.5q-67 0 -117.5 36.5t-50.5 97.5q0 10 4 30zM776 133q17 77 86 121.5t146 44.5q66 0 113.5 -38t47.5 -99q0 -10 -4 -31q-15 -71 -84 -116.5t-143 -45.5q-67 0 -116.5 36.5
t-49.5 97.5q0 10 4 30zM1458 133q17 77 86 121.5t146 44.5q66 0 113.5 -38t47.5 -99q0 -10 -4 -31q-15 -71 -83 -116.5t-142 -45.5q-68 0 -118 37q-50 35 -50 97q0 10 4 30z" />
    <glyph glyph-name="Udieresis" unicode="&#x2020;" horiz-adv-x="1065" 
d="M721 637l-260 -910q-13 -48 -29 -74t-55 -26q-28 0 -38 17q-9 16 -9 49l123 944l115 273l-226 -35q-30 -6 -59 -6q-49 0 -76 24q-33 30 -33 76q0 10 4 31q10 52 58 90q41 33 92 33q20 0 49 -5l227 -36l21 264q8 100 45 141q50 53 121 53q53 0 86 -43q14 -23 14 -51
q0 -33 -19 -86l-98 -278l228 36q32 7 65 7q42 0 66 -19q38 -29 38 -84q0 -8 -4 -28q-9 -50 -59 -93q-44 -32 -96 -32q-28 0 -59 6l-220 35z" />
    <glyph glyph-name="edieresis" unicode="&#x2018;" horiz-adv-x="656" 
d="M559 1266q50 0 79.5 -32.5t29.5 -96.5q-14 -67 -77.5 -107.5t-131.5 -40.5q-69 0 -109.5 40t-40.5 104q0 23 7 49q31 147 196 272q101 76 140 76q15 0 27.5 -10.5t12.5 -26.5q-2 -11 -20 -24q-128 -99 -168 -209q27 6 55 6z" />
    <glyph glyph-name="iacute" unicode="&#x2019;" horiz-adv-x="656" 
d="M465 1256q-48 0 -79 28t-31 72q0 8 4 29q13 66 76.5 105.5t132.5 39.5t108 -39.5t39 -103.5q0 -31 -4 -47q-16 -75 -70 -147t-127 -126q-100 -76 -139 -76q-16 0 -28.5 11t-12.5 26q2 9 19 25q130 101 169 209q-27 -6 -57 -6z" />
    <glyph glyph-name="igrave" unicode="&#x201c;" horiz-adv-x="1106" 
d="M559 1266q50 0 79.5 -32.5t29.5 -96.5q-14 -67 -77.5 -107.5t-131.5 -40.5q-69 0 -109.5 40t-40.5 104q0 23 7 49q31 147 196 272q101 76 140 76q15 0 27.5 -10.5t12.5 -26.5q-2 -11 -20 -24q-128 -99 -168 -209q27 6 55 6zM1028 1266q50 0 79.5 -32.5t29.5 -96.5
q-14 -67 -78 -107.5t-131 -40.5q-68 0 -109 41t-41 105q0 21 7 47q28 142 196 272q109 76 142 76q14 0 26 -11t12 -28q-2 -9 -20 -22q-128 -102 -168 -209q8 1 27 3q19 3 28 3z" />
    <glyph glyph-name="icircumflex" unicode="&#x201d;" horiz-adv-x="1106" 
d="M934 1256q-106 0 -106 129q13 66 77 105.5t134 39.5q68 0 107.5 -40t39.5 -105q0 -29 -4 -45q-32 -150 -199 -273q-100 -76 -139 -76q-14 0 -26.5 11t-12.5 26q3 13 19 25q127 99 167 209q-27 -6 -57 -6zM465 1254q-108 0 -108 129q15 67 79 107t132 40q69 0 108 -40.5
t39 -104.5q0 -31 -4 -47q-31 -148 -197 -273q-98 -74 -141 -74q-15 0 -28 10t-13 25q5 14 21 25q132 106 169 209q-30 -6 -57 -6z" />
    <glyph glyph-name="ntilde" unicode="&#x2013;" horiz-adv-x="1024" 
d="M187 463q-77 0 -113.5 14t-36.5 66q0 19 6 43q18 81 57 103t123 22h721q77 0 113 -12.5t36 -61.5q0 -8 -4 -37q-13 -63 -35 -91.5t-56 -37t-99 -8.5h-712z" />
    <glyph glyph-name="oacute" unicode="&#x2014;" horiz-adv-x="2048" 
d="M191 481q-101 0 -127 21q-21 23 -21 63q0 23 6 48q16 75 57 95.5t122 20.5h1744q77 0 113 -12q37 -12 37 -61q0 -8 -4 -37q-14 -63 -36 -92t-56 -37.5t-99 -8.5h-1736z" />
    <glyph glyph-name="ocircumflex" unicode="&#x2122;" horiz-adv-x="1721" 
d="M1393 885q-67 -102 -94 -102q-26 0 -37 34l-45 195l-39 272l-129 -587q2 -16 33 -31q30 -10 30 -49q-9 -45 -75 -45q-11 0 -30 1t-26 1q-5 0 -22 -1q-16 -1 -27 -1q-53 0 -53 47q6 30 37 45q24 11 28.5 19.5t12.5 41.5l137 594q14 58 14 66q-1 5 -20 16q-19 7 -26 16.5
t-7 36.5q7 31 25.5 38t56.5 7h88q38 0 48 -6q11 -6 15 -30l2 -35l62 -439q24 27 44 59t42.5 75.5t34.5 66.5l119 227q19 43 31.5 58t34 19.5t73.5 4.5q8 0 26 1t27 1q24 0 34.5 -8.5t10.5 -38.5q-8 -40 -51 -57q-23 -10 -28 -21t-11 -40l-12 -54l-107 -581q0 -21 16.5 -40
t16.5 -42q-6 -30 -23.5 -37.5t-52.5 -7.5h-100q-31 0 -49 7q-19 8 -19 36q7 34 49 47q33 12 37 33l113 557zM436 572q-30 0 -45.5 8t-15.5 39q8 34 45 43q32 10 37.5 21t15.5 57l133 630q0 9 2.5 18t2.5 11q0 8 -17 8q-23 0 -86 -12q-45 -11 -72 -28q-27 -16 -57 -54
q-25 -37 -49 -37q-27 0 -27 47q4 21 29 70q16 42 24 61.5t16 29t23.5 12.5t49.5 3h506q41 0 53.5 -8t13.5 -33q0 -5 -1 -23q-1 -17 -1 -30q0 -51 -4 -76q-12 -49 -49 -49q-23 0 -27 31q-15 49 -46 66q-32 18 -95 24q-15 2 -27.5 4t-13.5 2q-13 0 -19 -33l-135 -634
q-10 -42 -10 -48q0 -21 21 -26q34 -16 34 -47q-6 -31 -27 -39t-57 -8h-125z" />
    <glyph glyph-name="section" unicode="&#xa4;" 
d="M1313 1280q31 26 43 34.5t31 8.5q20 0 34 -18q15 -19 15 -45q-5 -23 -34 -43l-142 -119q68 -135 68 -229q0 -52 -17 -129q-39 -182 -176 -316l80 -100q27 -31 27 -62q-5 -23 -33 -46t-50 -23q-17 0 -26 8.5t-29 34.5l-78 99q-184 -120 -362 -120q-176 0 -307 115
l-131 -109q-8 -5 -22 -17q-14 -11 -27 -17.5t-23 -6.5q-20 0 -35 18q-14 18 -14 44q4 19 14.5 28.5t40.5 34.5l132 109q-62 97 -62 233q0 61 12 125q41 186 174 310l-77 100l-13.5 18t-11.5 20q-4 11 -4 25q5 24 29.5 43t47.5 19q19 0 39 -24q20 -23 49.5 -66t40.5 -51
q80 64 174 95.5t191 31.5q185 0 311 -113zM840 1102q-94 0 -183 -48.5t-151 -129.5t-81 -174q-9 -35 -9 -72q0 -79 36.5 -142t102.5 -99q66 -35 148 -35q93 0 183.5 48t154.5 129t84 175q8 32 8 74q0 78 -38 141t-104.5 98t-150.5 35z" />
    <glyph glyph-name="bullet" unicode="&#xa5;" 
d="M723 1499q62 0 62 -69q-4 -23 -16 -35q-12 -11 -40 -25q-47 -23 -53 -49q0 -86 65 -256.5t126 -300.5q36 37 107 116.5t142.5 166.5t121.5 157q50 71 57 103q0 32 -33 61q-31 24 -31 68q9 41 41.5 52t79.5 11h172q43 0 67.5 -11t24.5 -52q-7 -38 -51 -68q-43 -28 -61 -47
t-60 -74l-403 -491h139q31 0 45 -13.5t14 -52.5q-8 -38 -29 -51q-20 -14 -57 -14h-235l-31 -146h205q44 0 65 -11t21 -54q-9 -43 -30 -54.5t-64 -11.5h-39h-187l-10 -45q-1 -9 -10.5 -60t-9.5 -65q2 -13 9 -20.5t17 -14.5q11 -7 21 -14q24 -15 24 -57q-15 -72 -102 -72h-309
q-51 0 -81 13t-30 61q7 38 64 63q36 15 49 31t20 53l27 127h-184q-63 0 -85 11t-22 55q8 41 38 53t97 12h184l25 119l-12 27h-176q-57 0 -79 11.5t-22 55.5q15 66 101 66h28q14 -2 21 -2h63l-176 485q-13 49 -22 66t-41 39q-30 24 -41 37.5t-11 48.5q13 67 103 67h397z" />
    <glyph glyph-name="bullet" unicode="&#x490;" 
d="M723 1499q62 0 62 -69q-4 -23 -16 -35q-12 -11 -40 -25q-47 -23 -53 -49q0 -86 65 -256.5t126 -300.5q36 37 107 116.5t142.5 166.5t121.5 157q50 71 57 103q0 32 -33 61q-31 24 -31 68q9 41 41.5 52t79.5 11h172q43 0 67.5 -11t24.5 -52q-7 -38 -51 -68q-43 -28 -61 -47
t-60 -74l-403 -491h139q31 0 45 -13.5t14 -52.5q-8 -38 -29 -51q-20 -14 -57 -14h-235l-31 -146h205q44 0 65 -11t21 -54q-9 -43 -30 -54.5t-64 -11.5h-39h-187l-10 -45q-1 -9 -10.5 -60t-9.5 -65q2 -13 9 -20.5t17 -14.5q11 -7 21 -14q24 -15 24 -57q-15 -72 -102 -72h-309
q-51 0 -81 13t-30 61q7 38 64 63q36 15 49 31t20 53l27 127h-184q-63 0 -85 11t-22 55q8 41 38 53t97 12h184l25 119l-12 27h-176q-57 0 -79 11.5t-22 55.5q15 66 101 66h28q14 -2 21 -2h63l-176 485q-13 49 -22 66t-41 39q-30 24 -41 37.5t-11 48.5q13 67 103 67h397z" />
    <glyph glyph-name="germandbls" unicode="&#xa7;" horiz-adv-x="1229" 
d="M358 213q-129 46 -201.5 108.5t-72.5 170.5q0 38 8 73q36 174 258 320q-36 53 -53 92q-16 39 -16 88q0 37 8 72q19 85 77 163t138 130q154 100 363 100q86 0 177 -18.5t156 -53.5q55 -31 55 -110q0 -10 -1 -31t-1 -33q1 -69 -1 -100q-8 -32 -33.5 -52t-57.5 -20
q-26 0 -37.5 16t-33.5 58q-50 105 -101 155q-52 51 -151 51q-84 0 -162 -45q-78 -47 -94 -126q-4 -24 -4 -35q0 -61 47 -96q48 -34 129 -62l172 -61q157 -57 206 -105q72 -68 72 -182q0 -31 -6 -65q-37 -175 -232 -332q74 -96 74 -193q0 -39 -8 -73q-30 -142 -132 -248
q-103 -105 -242 -161q-140 -55 -277 -55q-152 0 -287 66q-52 25 -71 41.5t-23 56.5q-8 36 -8 133q0 96 8 131q6 32 30 54q24 23 54 23q44 0 57 -28q14 -29 49 -131t82.5 -150t139.5 -48q63 0 130 28t118 79q49 52 63 116q4 29 4 39q0 117 -178 181zM697 443l165 -76
q41 48 59 76t27 69q4 18 4 29q0 54 -43.5 85t-113.5 56l-211 74l-123 53q-80 -63 -96 -137q-4 -20 -4 -29q0 -56 40 -84.5t115 -56.5z" />
    <glyph glyph-name="copyright" unicode="&#xa9;" horiz-adv-x="1721" 
d="M1098 1530q184 0 328 -80q145 -81 225 -222t80 -316q0 -89 -16 -162q-45 -211 -189 -391t-346 -284.5t-414 -104.5q-184 0 -328.5 80t-224.5 221t-80 315q0 79 19 164q44 210 187 390q144 180 346 285t413 105zM787 64q185 0 363 93q178 91 304 250q127 158 167 343
q14 71 14 141q0 116 -40.5 215.5t-115 174t-177.5 114.5t-225 40q-139 0 -276 -53t-251 -147.5t-195 -219.5q-80 -126 -109 -265q-17 -77 -17 -144q0 -152 72 -276q70 -124 197.5 -195t288.5 -71zM1229 547q43 0 43 -57q-11 -49 -76 -105q-147 -135 -348 -135
q-174 0 -267 105.5t-93 273.5q0 69 15 131q20 96 71 186q49 90 123 162.5t165.5 115t188.5 42.5q78 0 161 -25t128 -69q16 -17 16 -54q0 -25 -10 -79q-7 -51 -20 -77t-54 -26q-27 0 -39 34t-27 79t-56 74.5t-124 29.5q-97 0 -171 -61t-117.5 -150t-65.5 -188
q-12 -58 -12 -117q0 -116 56 -191t173 -75q81 0 139 28.5t117 94.5q27 29 43 41t41 12z" />
    <glyph glyph-name="acute" unicode="&#xab;" horiz-adv-x="778" 
d="M322 645q-27 -37 -29 -51q0 -6 1 -15t1 -16l60 -219q12 -43 12 -82q-3 -18 -18 -28.5t-33 -10.5q-23 0 -35.5 16t-30.5 48l-131 213q-33 54 -33 92q9 34 74 90l221 215q58 58 84 58q37 0 37 -39q-3 -11 -39 -68zM653 645q-21 -29 -27 -51q0 -20 2 -31l60 -219
q12 -45 12 -82q-3 -18 -18.5 -28.5t-34.5 -10.5q-30 0 -65 64l-131 213q-33 55 -33 92q7 29 74 90l221 215q57 58 84 58q36 0 36 -39q-3 -15 -39 -68z" />
    <glyph glyph-name="dieresis" unicode="&#xac;" horiz-adv-x="1352" 
d="M1086 655h-899l41 195h1093l-137 -647h-195z" />
    <glyph glyph-name="AE" unicode="&#xae;" horiz-adv-x="1721" 
d="M1098 1530q184 0 328 -80q145 -81 225 -222t80 -316q0 -89 -16 -162q-45 -211 -189 -391t-346 -284.5t-414 -104.5q-184 0 -328.5 80t-224.5 221t-80 315q0 79 19 164q44 210 187 390q144 180 346 285t413 105zM787 64q185 0 363 93q178 91 304 250q127 158 167 343
q14 71 14 141q0 116 -40.5 215.5t-115 174t-177.5 114.5t-225 40q-139 0 -276 -53t-251 -147.5t-195 -219.5q-80 -126 -109 -265q-17 -77 -17 -144q0 -152 72 -276q70 -124 197.5 -195t288.5 -71zM735 666l-45 -217q-12 -41 -12 -47q0 -18 27 -23q45 -12 45 -55
q-8 -32 -33 -40.5t-63 -8.5h-144q-37 0 -56.5 9t-19.5 44q8 36 56 47q7 2 16 4.5t14 7.5q14 30 27 115l109 508q20 105 20 113q0 7 -18 12q-22 9 -32 18q-9 10 -9 33q7 34 29.5 43.5t70.5 9.5h383q143 0 201 -53q63 -53 63 -139q0 -14 -4 -39q-19 -83 -88.5 -149
t-163.5 -107q51 -82 76.5 -144t38.5 -147q0 -1 4 -28t11.5 -38.5t25.5 -21.5q17 -13 24 -20.5t7 -28.5q-8 -32 -33 -40q-24 -9 -64 -9h-141q-34 0 -53 8.5t-19 40.5q5 24 22 32q17 9 36 17t22 23q0 56 -17 117q-18 62 -43.5 113t-49.5 83zM758 781q408 59 442 221q4 20 4 30
q0 70 -65 89q-66 17 -170 17q-64 0 -91 -4.5t-40 -19.5q-12 -15 -20 -51t-19 -94z" />
    <glyph glyph-name="infinity" unicode="&#xb0;" horiz-adv-x="819" 
d="M525 922q-110 0 -180 69t-70 173q0 20 8 65q16 81 72 152.5t136 113t163 41.5q109 0 179 -70t70 -176q0 -30 -6 -61q-18 -84 -75 -154q-56 -71 -135 -111q-79 -42 -162 -42zM781 1229q4 28 4 41q0 67 -43 109q-43 40 -115 40q-54 0 -102.5 -25t-81.5 -68q-32 -43 -43 -97
q-6 -27 -6 -45q0 -42 19 -75.5t54.5 -51.5t81.5 -18q82 0 147.5 53.5t84.5 136.5z" />
    <glyph glyph-name="plusminus" unicode="&#xb1;" horiz-adv-x="1352" 
d="M679 850l56 271h196l-58 -271h434l-41 -195h-434l-58 -272h-194l58 272h-437l41 195h437zM1180 250l-41 -195h-1065l41 195h1065z" />
    <glyph glyph-name="yen" unicode="&#xb4;" horiz-adv-x="778" 
d="M445 1157l-22 -14t-25.5 -15t-26.5 -12t-21 -4q-36 0 -36 41q4 21 45 68l145 186q32 41 46.5 56t35.5 22.5t59 7.5h93q52 0 73 -9.5t21 -45.5q-5 -29 -23 -44.5t-61 -41.5z" />
    <glyph glyph-name="yen" unicode="&#x491;" horiz-adv-x="778" 
d="M445 1157l-22 -14t-25.5 -15t-26.5 -12t-21 -4q-36 0 -36 41q4 21 45 68l145 186q32 41 46.5 56t35.5 22.5t59 7.5h93q52 0 73 -9.5t21 -45.5q-5 -29 -23 -44.5t-61 -41.5z" />
    <glyph glyph-name="mu" unicode="&#xb5;" horiz-adv-x="1270" 
d="M848 686q14 61 14 84q0 32 -28 56q-25 20 -25 53q6 28 41 49q48 26 215 57q68 13 96 13q68 0 78 -47l-143 -670q-14 -86 -14 -113q7 -24 36 -39q39 -21 39 -63q-9 -43 -40 -54q-32 -13 -85 -13h-176q-45 0 -66 11q-21 9 -28.5 34.5t-7.5 79.5q-176 -151 -322 -151
q-46 2 -94 40t-86 107l-36 -182q-8 -32 -8 -82q0 -14 1 -42t1 -42q0 -43 -4 -61q-9 -44 -51.5 -66t-98.5 -22q-113 0 -113 88q6 29 43 111t45 116l158 748q15 64 15 84q0 32 -29 56q-25 20 -25 53q6 28 41 49q46 26 215 57q3 5 27.5 11t45.5 6q89 0 89 -80q0 -19 -12 -88
l-101 -469q-16 -78 -16 -117q0 -108 106 -108q41 0 87.5 20t78.5 51q47 45 70 160z" />
    <glyph glyph-name="partialdiff" unicode="&#xb6;" horiz-adv-x="1598" 
d="M1198 -246q-13 -78 -47 -109q-34 -34 -78 -34q-39 0 -65 26q-14 21 -14 47q0 24 10 62l340 1607h-133l-340 -1599q-13 -78 -45 -109q-38 -34 -82 -34q-37 0 -64 26q-14 20 -14 47q0 25 10 62l158 742q-122 5 -241 31t-216.5 79t-156 138.5t-58.5 201.5q0 50 12 109
q23 107 81 201t149 153q147 98 411 98h815h50q39 0 60.5 -13.5t21.5 -57.5q-10 -48 -40.5 -63.5t-80.5 -15.5h-43h-60zM942 1353q-118 0 -210 -27q-93 -26 -159 -95t-91 -186q-11 -50 -11 -86q0 -101 53 -179q52 -77 139.5 -124t192.5 -62l160 759h-74z" />
    <glyph glyph-name="summation" unicode="&#xb7;" horiz-adv-x="574" 
d="M72 750q23 113 128 180q105 68 222 68q63 0 118 -25q56 -26 89 -73t33 -107q0 -29 -4 -45q-15 -72 -70 -128t-127.5 -86t-142.5 -30q-103 0 -178 54q-74 53 -74 145q0 22 6 47z" />
    <glyph glyph-name="pi" unicode="&#xb9;" horiz-adv-x="901" 
d="M332 953q-88 68 -88 186q0 35 5 51q20 95 90.5 167t167 110.5t190.5 38.5q83 0 157 -29t119 -86t45 -135q0 -30 -6 -60q-21 -95 -92.5 -166t-167 -108.5t-189.5 -37.5q-140 0 -231 69zM678 1403q-78 0 -123.5 -60.5t-64.5 -148.5q-11 -46 -11 -82q0 -125 105 -125
q144 0 190 222q9 29 9 69q0 125 -105 125zM826 742q45 0 62 -7q17 -6 17 -32q-4 -21 -25.5 -28t-66.5 -7h-579q-50 0 -69 6t-19 29q5 24 29.5 31.5t76.5 7.5h574z" />
    <glyph glyph-name="pi" unicode="&#x2116;" horiz-adv-x="901" 
d="M332 953q-88 68 -88 186q0 35 5 51q20 95 90.5 167t167 110.5t190.5 38.5q83 0 157 -29t119 -86t45 -135q0 -30 -6 -60q-21 -95 -92.5 -166t-167 -108.5t-189.5 -37.5q-140 0 -231 69zM678 1403q-78 0 -123.5 -60.5t-64.5 -148.5q-11 -46 -11 -82q0 -125 105 -125
q144 0 190 222q9 29 9 69q0 125 -105 125zM826 742q45 0 62 -7q17 -6 17 -32q-4 -21 -25.5 -28t-66.5 -7h-579q-50 0 -69 6t-19 29q5 24 29.5 31.5t76.5 7.5h574z" />
    <glyph glyph-name="ordfeminine" unicode="&#xbb;" horiz-adv-x="778" 
d="M746 682q30 -50 30 -90q-2 -14 -14 -31q-11 -18 -26.5 -33t-28.5 -28l-221 -213q-14 -14 -30 -29t-33 -25q-16 -10 -32 -10q-34 0 -34 39q8 30 49 82l121 181l28 38q17 27 19 31q0 11 -2 21q-3 11 -7 30l-55 203q-10 49 -10 68q5 18 20 28q15 11 33 11q20 0 32 -15.5
t28 -42.5zM412 682q33 -54 33 -90q-5 -28 -70 -92l-221 -213q-8 -8 -21 -20t-25 -22q-12 -9 -24 -15.5t-24 -6.5q-37 0 -37 39q3 11 49 82l150 219q12 13 18 31q0 9 -6 51l-55 203q-10 41 -10 68q4 18 19 28q15 11 33 11q21 0 32 -14.5t28 -43.5z" />
    <glyph glyph-name="questiondown" unicode="&#xc0;" horiz-adv-x="1516" 
d="M68 0q-72 0 -103 13q-30 12 -30 57q6 30 57 61q34 19 47.5 30.5t26.5 35.5l123 229q50 92 98 173t99 161.5t137.5 213t105.5 161.5q103 160 217 309q35 47 67.5 59.5t96.5 12.5q59 0 87.5 -10.5t42.5 -35t26 -79.5l211 -983l27 -213q5 -27 13 -37q8 -9 34 -29
q26 -18 26 -59q-14 -70 -119 -70h-346q-49 0 -80 12q-30 11 -30 54q6 28 29.5 42t50 29t30.5 33q0 78 -23 282l-4 33h-573q-45 -84 -85.5 -159t-49.5 -115q0 -27 9.5 -43t28.5 -34q19 -17 28.5 -31t9.5 -37q-9 -41 -50 -53.5t-123 -12.5h-112zM965 654l-4 33l-111 511
l-343 -544h458z" />
    <glyph glyph-name="questiondown" unicode="&#x410;" horiz-adv-x="1516" 
d="M68 0q-72 0 -103 13q-30 12 -30 57q6 30 57 61q34 19 47.5 30.5t26.5 35.5l123 229q50 92 98 173t99 161.5t137.5 213t105.5 161.5q103 160 217 309q35 47 67.5 59.5t96.5 12.5q59 0 87.5 -10.5t42.5 -35t26 -79.5l211 -983l27 -213q5 -27 13 -37q8 -9 34 -29
q26 -18 26 -59q-14 -70 -119 -70h-346q-49 0 -80 12q-30 11 -30 54q6 28 29.5 42t50 29t30.5 33q0 78 -23 282l-4 33h-573q-45 -84 -85.5 -159t-49.5 -115q0 -27 9.5 -43t28.5 -34q19 -17 28.5 -31t9.5 -37q-9 -41 -50 -53.5t-123 -12.5h-112zM965 654l-4 33l-111 511
l-343 -544h458z" />
    <glyph glyph-name="exclamdown" unicode="&#xc1;" horiz-adv-x="1516" 
d="M819 1347q-54 -3 -86 -39q-19 -22 -26 -67l-66 -309q377 0 574 -82q263 -110 263 -348q0 -38 -10 -96q-41 -202 -284 -336q-76 -42 -175.5 -57t-227.5 -15h-719q-87 0 -87 70q6 25 21 37.5t43 27.5l25 13q32 15 40.5 36.5t20.5 75.5l207 979q12 45 12 68q0 32 -24 45
l-21 12q-20 17 -27.5 28t-7.5 38q16 69 115 69l1055 2q74 0 88 -12q22 -20 22 -100q0 -44 -6 -66q-2 -10 -2 -32t-2 -33q-17 -78 -94 -78q-36 0 -74 54t-79 84q-41 31 -142 31h-326zM506 297q-12 -47 -12 -71q0 -31 16 -50q28 -34 123 -34q88 0 184 33.5t166 96t88 146.5
q6 34 6 64q0 95 -63.5 161t-171 98t-236.5 32z" />
    <glyph glyph-name="exclamdown" unicode="&#x411;" horiz-adv-x="1516" 
d="M819 1347q-54 -3 -86 -39q-19 -22 -26 -67l-66 -309q377 0 574 -82q263 -110 263 -348q0 -38 -10 -96q-41 -202 -284 -336q-76 -42 -175.5 -57t-227.5 -15h-719q-87 0 -87 70q6 25 21 37.5t43 27.5l25 13q32 15 40.5 36.5t20.5 75.5l207 979q12 45 12 68q0 32 -24 45
l-21 12q-20 17 -27.5 28t-7.5 38q16 69 115 69l1055 2q74 0 88 -12q22 -20 22 -100q0 -44 -6 -66q-2 -10 -2 -32t-2 -33q-17 -78 -94 -78q-36 0 -74 54t-79 84q-41 31 -142 31h-326zM506 297q-12 -47 -12 -71q0 -31 16 -50q28 -34 123 -34q88 0 184 33.5t166 96t88 146.5
q6 34 6 64q0 95 -63.5 161t-171 98t-236.5 32z" />
    <glyph glyph-name="logicalnot" unicode="&#xc2;" horiz-adv-x="1516" 
d="M64 0q-87 0 -87 70q6 25 20 37.5t44 27.5l25 13q33 15 42.5 37.5t18.5 74.5l209 979q1 2 6.5 28t5.5 38q0 34 -26 47l-19 12q-21 16 -29 27t-8 39q16 69 117 69h744q98 0 171.5 -12t129.5 -49q112 -74 112 -207q0 -29 -6 -63q-24 -115 -127.5 -204.5t-232.5 -137.5
q138 -28 225 -112q86 -83 86 -212q0 -42 -8 -80q-19 -93 -79 -175q-59 -83 -148 -140q-163 -107 -394 -107h-792zM619 817q113 23 223 67q111 44 197 118q87 74 108 174q6 24 6 45q0 139 -248 139q-114 0 -157 -37q-31 -28 -45 -112zM508 299q-10 -64 -10 -69q0 -30 16 -50
q29 -30 135 -30q156 0 279 71q123 72 154 220q6 27 6 51q0 82 -51 145t-132 88l-321 -73z" />
    <glyph glyph-name="logicalnot" unicode="&#x412;" horiz-adv-x="1516" 
d="M64 0q-87 0 -87 70q6 25 20 37.5t44 27.5l25 13q33 15 42.5 37.5t18.5 74.5l209 979q1 2 6.5 28t5.5 38q0 34 -26 47l-19 12q-21 16 -29 27t-8 39q16 69 117 69h744q98 0 171.5 -12t129.5 -49q112 -74 112 -207q0 -29 -6 -63q-24 -115 -127.5 -204.5t-232.5 -137.5
q138 -28 225 -112q86 -83 86 -212q0 -42 -8 -80q-19 -93 -79 -175q-59 -83 -148 -140q-163 -107 -394 -107h-792zM619 817q113 23 223 67q111 44 197 118q87 74 108 174q6 24 6 45q0 139 -248 139q-114 0 -157 -37q-31 -28 -45 -112zM508 299q-10 -64 -10 -69q0 -30 16 -50
q29 -30 135 -30q156 0 279 71q123 72 154 220q6 27 6 51q0 82 -51 145t-132 88l-321 -73z" />
    <glyph glyph-name="radical" unicode="&#xc3;" horiz-adv-x="1270" 
d="M498 260q-10 -41 -10 -63q0 -37 23 -49l20 -13q35 -26 35 -65q-16 -70 -115 -70h-389q-86 0 -86 70q5 25 19 38q15 12 45 27l24 13q34 15 43.5 39t18.5 73l209 979q0 2 6 28t6 38q0 34 -27 47l-18 12q-21 16 -29 27t-8 39q15 69 116 69h909q107 0 132 -16q24 -19 24 -88
q0 -31 -6 -107q-10 -51 -27 -82.5t-59 -31.5q-56 0 -94 55q-30 44 -59.5 70t-63.5 37q-34 12 -70.5 14.5t-107.5 2.5q-166 0 -205 -28q-25 -19 -34 -44.5t-23 -82.5z" />
    <glyph glyph-name="radical" unicode="&#x413;" horiz-adv-x="1270" 
d="M498 260q-10 -41 -10 -63q0 -37 23 -49l20 -13q35 -26 35 -65q-16 -70 -115 -70h-389q-86 0 -86 70q5 25 19 38q15 12 45 27l24 13q34 15 43.5 39t18.5 73l209 979q0 2 6 28t6 38q0 34 -27 47l-18 12q-21 16 -29 27t-8 39q15 69 116 69h909q107 0 132 -16q24 -19 24 -88
q0 -31 -6 -107q-10 -51 -27 -82.5t-59 -31.5q-56 0 -94 55q-30 44 -59.5 70t-63.5 37q-34 12 -70.5 14.5t-107.5 2.5q-166 0 -205 -28q-25 -19 -34 -44.5t-23 -82.5z" />
    <glyph glyph-name="florin" unicode="&#xc4;" horiz-adv-x="1516" 
d="M-14 150q32 23 46 44q15 21 40 72q51 105 108 212q58 106 123 217t124.5 206t134.5 209q100 145 104 174q0 20 -7 30.5t-23.5 30t-24.5 37.5t-8 48q14 69 130 69h867q84 0 84 -69q-4 -25 -17 -36t-45 -30l-26 -13q-32 -14 -41 -37q-9 -22 -19 -75l-208 -979
q-6 -30 -6 -49q0 -29 12.5 -43.5t42.5 -27.5q22 -12 27 -37q4 -29 4 -54q0 -87 -15 -141q-6 -36 -32 -57q-25 -21 -62 -21q-30 0 -53 28q-22 28 -47 62q-24 33 -70 56q-45 24 -125 24h-729q-102 0 -156 -31t-115.5 -85t-97.5 -54q-61 0 -61 78q3 11 12 32q10 21 12 33
q7 33 35 91q28 59 51 76l15 6t16 4zM850 152q83 0 105 109l205 964q6 29 6 53q0 42 -28 58q-27 15 -97 15h-41q-69 0 -130 -60q-60 -60 -145 -185q-71 -103 -150.5 -233.5t-142.5 -247.5t-107.5 -218.5t-57.5 -162.5q0 -51 17 -71.5t66 -20.5h500z" />
    <glyph glyph-name="florin" unicode="&#x414;" horiz-adv-x="1516" 
d="M-14 150q32 23 46 44q15 21 40 72q51 105 108 212q58 106 123 217t124.5 206t134.5 209q100 145 104 174q0 20 -7 30.5t-23.5 30t-24.5 37.5t-8 48q14 69 130 69h867q84 0 84 -69q-4 -25 -17 -36t-45 -30l-26 -13q-32 -14 -41 -37q-9 -22 -19 -75l-208 -979
q-6 -30 -6 -49q0 -29 12.5 -43.5t42.5 -27.5q22 -12 27 -37q4 -29 4 -54q0 -87 -15 -141q-6 -36 -32 -57q-25 -21 -62 -21q-30 0 -53 28q-22 28 -47 62q-24 33 -70 56q-45 24 -125 24h-729q-102 0 -156 -31t-115.5 -85t-97.5 -54q-61 0 -61 78q3 11 12 32q10 21 12 33
q7 33 35 91q28 59 51 76l15 6t16 4zM850 152q83 0 105 109l205 964q6 29 6 53q0 42 -28 58q-27 15 -97 15h-41q-69 0 -130 -60q-60 -60 -145 -185q-71 -103 -150.5 -233.5t-142.5 -247.5t-107.5 -218.5t-57.5 -162.5q0 -51 17 -71.5t66 -20.5h500z" />
    <glyph glyph-name="approxequal" unicode="&#xc5;" horiz-adv-x="1352" 
d="M525 375q-18 -94 -18 -123q0 -47 24 -68.5t79.5 -28t167.5 -7.5q73 0 120 6t95 29q47 21 99 67q57 52 88 75q32 23 65 23q27 0 43 -17q17 -17 17 -50q-14 -61 -84 -187q-33 -63 -59.5 -78.5t-96.5 -15.5h-1001q-86 0 -86 70q5 25 19 37.5t44 28.5l25 12q33 15 42.5 38
t18.5 75l210 978q0 2 6 28t6 38q0 34 -27 47l-18 12q-21 16 -29 27t-8 39q15 69 116 69h957q88 0 106 -24q8 -14 8 -55q0 -76 -14 -140q-19 -88 -92 -88q-31 0 -46 14t-36 48q-42 65 -111 84q-68 15 -202 15q-128 0 -172 -15q-57 -22 -66 -62l-79 -381h309q62 0 89 13
t59.5 38t59.5 25q51 0 51 -63q0 -22 -10 -78q-18 -83 -37 -128q-19 -44 -71 -44q-27 0 -51 23q-25 24 -45 35.5t-80 11.5h-310z" />
    <glyph glyph-name="approxequal" unicode="&#x415;" horiz-adv-x="1352" 
d="M525 375q-18 -94 -18 -123q0 -47 24 -68.5t79.5 -28t167.5 -7.5q73 0 120 6t95 29q47 21 99 67q57 52 88 75q32 23 65 23q27 0 43 -17q17 -17 17 -50q-14 -61 -84 -187q-33 -63 -59.5 -78.5t-96.5 -15.5h-1001q-86 0 -86 70q5 25 19 37.5t44 28.5l25 12q33 15 42.5 38
t18.5 75l210 978q0 2 6 28t6 38q0 34 -27 47l-18 12q-21 16 -29 27t-8 39q15 69 116 69h957q88 0 106 -24q8 -14 8 -55q0 -76 -14 -140q-19 -88 -92 -88q-31 0 -46 14t-36 48q-42 65 -111 84q-68 15 -202 15q-128 0 -172 -15q-57 -22 -66 -62l-79 -381h309q62 0 89 13
t59.5 38t59.5 25q51 0 51 -63q0 -22 -10 -78q-18 -83 -37 -128q-19 -44 -71 -44q-27 0 -51 23q-25 24 -45 35.5t-80 11.5h-310z" />
    <glyph glyph-name="Delta" unicode="&#xc6;" horiz-adv-x="2335" 
d="M891 0q-85 0 -85 70q5 25 19 37.5t44 27.5l25 13q34 15 43 39t18 73l68 320l-95 92q-54 -45 -154.5 -149.5t-179.5 -204.5t-89 -148q0 -14 17.5 -35t24.5 -31.5t7 -35.5q-10 -43 -49 -55.5t-93 -12.5h-391q-86 0 -86 60q7 32 21 45q15 12 53 30q54 24 117 105
q146 189 297 355t313 304l-207 275q-46 77 -72 109.5t-79 62.5q-54 25 -54 74q13 50 61 67q8 0 38 6q31 6 48 6h252q81 0 81 -63q-7 -31 -31.5 -46t-50.5 -31q-26 -15 -31 -40q0 -47 56.5 -138.5t98.5 -141.5l217 -269l101 469q1 2 6.5 28t5.5 38q0 34 -26 47l-19 12
q-21 16 -29 27t-8 39q15 69 117 69h389q84 0 84 -69q-6 -40 -61 -66l-27 -12q-32 -15 -40.5 -37.5t-18.5 -75.5l-101 -469l332 269q68 55 167.5 149t107.5 131q0 19 -8 29q-7 11 -23.5 25.5t-24.5 27.5t-8 35q12 63 108 63h252q18 0 44 -6t34 -6q33 -14 33 -67
q-9 -42 -82 -74q-67 -30 -106 -62t-119 -110l-326 -275q193 -257 332 -659q24 -78 72 -105q23 -14 32 -27t9 -48q-14 -60 -111 -60h-392q-112 0 -112 68q5 26 17.5 36.5t43 31t34.5 34.5q0 63 -38 164t-89.5 197.5t-84.5 140.5l-135 -92l-67 -320q-3 -15 -6 -26.5t-4.5 -23
t-1.5 -17.5q0 -32 24 -45l21 -13q34 -26 34 -65q-8 -37 -43 -53q-34 -17 -72 -17h-389z" />
    <glyph glyph-name="Delta" unicode="&#x416;" horiz-adv-x="2335" 
d="M891 0q-85 0 -85 70q5 25 19 37.5t44 27.5l25 13q34 15 43 39t18 73l68 320l-95 92q-54 -45 -154.5 -149.5t-179.5 -204.5t-89 -148q0 -14 17.5 -35t24.5 -31.5t7 -35.5q-10 -43 -49 -55.5t-93 -12.5h-391q-86 0 -86 60q7 32 21 45q15 12 53 30q54 24 117 105
q146 189 297 355t313 304l-207 275q-46 77 -72 109.5t-79 62.5q-54 25 -54 74q13 50 61 67q8 0 38 6q31 6 48 6h252q81 0 81 -63q-7 -31 -31.5 -46t-50.5 -31q-26 -15 -31 -40q0 -47 56.5 -138.5t98.5 -141.5l217 -269l101 469q1 2 6.5 28t5.5 38q0 34 -26 47l-19 12
q-21 16 -29 27t-8 39q15 69 117 69h389q84 0 84 -69q-6 -40 -61 -66l-27 -12q-32 -15 -40.5 -37.5t-18.5 -75.5l-101 -469l332 269q68 55 167.5 149t107.5 131q0 19 -8 29q-7 11 -23.5 25.5t-24.5 27.5t-8 35q12 63 108 63h252q18 0 44 -6t34 -6q33 -14 33 -67
q-9 -42 -82 -74q-67 -30 -106 -62t-119 -110l-326 -275q193 -257 332 -659q24 -78 72 -105q23 -14 32 -27t9 -48q-14 -60 -111 -60h-392q-112 0 -112 68q5 26 17.5 36.5t43 31t34.5 34.5q0 63 -38 164t-89.5 197.5t-84.5 140.5l-135 -92l-67 -320q-3 -15 -6 -26.5t-4.5 -23
t-1.5 -17.5q0 -32 24 -45l21 -13q34 -26 34 -65q-8 -37 -43 -53q-34 -17 -72 -17h-389z" />
    <glyph glyph-name="guillemotleft" unicode="&#xc7;" 
d="M989 828q169 -13 271 -83.5t102 -205.5q0 -42 -8 -80q-29 -130 -129 -242t-263.5 -180t-369.5 -68q-222 0 -375 78q-73 39 -130.5 106.5t-57.5 141.5q0 13 4 35q6 29 24.5 55t45 42t55.5 16q66 0 98 -76q33 -74 50 -103t55 -59q98 -74 248 -74q124 0 235 77
q112 77 137 196q8 38 8 80q0 110 -75 168q-75 56 -207 56h-187q-37 0 -57 19.5t-20 48.5q0 36 30 67.5t78 31.5h189q78 0 147.5 34t116.5 94.5t63 137.5q4 29 4 41q0 54 -30 100t-78.5 72t-100.5 26q-115 0 -191.5 -38.5t-131.5 -98.5q-54 -61 -93 -104q-38 -43 -73 -43
q-32 0 -45 19q-14 20 -14 65q34 145 55 184q17 34 67 60q108 50 242.5 78t253.5 28q158 0 273 -32t178 -100q63 -67 63 -169q0 -44 -8 -82q-15 -74 -81 -144t-164 -117.5t-204 -57.5z" />
    <glyph glyph-name="guillemotleft" unicode="&#x417;" 
d="M989 828q169 -13 271 -83.5t102 -205.5q0 -42 -8 -80q-29 -130 -129 -242t-263.5 -180t-369.5 -68q-222 0 -375 78q-73 39 -130.5 106.5t-57.5 141.5q0 13 4 35q6 29 24.5 55t45 42t55.5 16q66 0 98 -76q33 -74 50 -103t55 -59q98 -74 248 -74q124 0 235 77
q112 77 137 196q8 38 8 80q0 110 -75 168q-75 56 -207 56h-187q-37 0 -57 19.5t-20 48.5q0 36 30 67.5t78 31.5h189q78 0 147.5 34t116.5 94.5t63 137.5q4 29 4 41q0 54 -30 100t-78.5 72t-100.5 26q-115 0 -191.5 -38.5t-131.5 -98.5q-54 -61 -93 -104q-38 -43 -73 -43
q-32 0 -45 19q-14 20 -14 65q34 145 55 184q17 34 67 60q108 50 242.5 78t253.5 28q158 0 273 -32t178 -100q63 -67 63 -169q0 -44 -8 -82q-15 -74 -81 -144t-164 -117.5t-204 -57.5z" />
    <glyph glyph-name="guillemotright" unicode="&#xc8;" horiz-adv-x="1680" 
d="M509 260q-3 -12 -8 -33.5t-5 -33.5q0 -32 25 -45l20 -13q35 -26 35 -65q-16 -70 -115 -70h-389q-86 0 -86 70q6 25 20 37t44 28l24 13q34 15 43 37.5t19 74.5l209 979q0 2 6 27t6 39q0 34 -27 47l-18 12q-21 16 -29 27t-8 39q15 69 116 69h390q84 0 84 -69
q-4 -24 -17 -35.5t-44 -30.5l-27 -12q-31 -14 -40 -37t-19 -76l-146 -676l742 615l14 61q0 2 6 27t6 39q0 33 -26 47l-19 12q-21 16 -29 27t-8 39q15 69 116 69h390q84 0 84 -69q-4 -24 -17 -35.5t-44 -30.5l-27 -12q-31 -14 -40 -37t-19 -76l-209 -979q-3 -12 -8 -33.5
t-5 -33.5q0 -32 25 -45l20 -13q35 -26 35 -65q-16 -70 -115 -70h-389q-86 0 -86 70q6 25 20 37t44 28l25 13q34 15 42.5 37.5t18.5 74.5l149 703l-741 -615z" />
    <glyph glyph-name="guillemotright" unicode="&#x418;" horiz-adv-x="1680" 
d="M509 260q-3 -12 -8 -33.5t-5 -33.5q0 -32 25 -45l20 -13q35 -26 35 -65q-16 -70 -115 -70h-389q-86 0 -86 70q6 25 20 37t44 28l24 13q34 15 43 37.5t19 74.5l209 979q0 2 6 27t6 39q0 34 -27 47l-18 12q-21 16 -29 27t-8 39q15 69 116 69h390q84 0 84 -69
q-4 -24 -17 -35.5t-44 -30.5l-27 -12q-31 -14 -40 -37t-19 -76l-146 -676l742 615l14 61q0 2 6 27t6 39q0 33 -26 47l-19 12q-21 16 -29 27t-8 39q15 69 116 69h390q84 0 84 -69q-4 -24 -17 -35.5t-44 -30.5l-27 -12q-31 -14 -40 -37t-19 -76l-209 -979q-3 -12 -8 -33.5
t-5 -33.5q0 -32 25 -45l20 -13q35 -26 35 -65q-16 -70 -115 -70h-389q-86 0 -86 70q6 25 20 37t44 28l25 13q34 15 42.5 37.5t18.5 74.5l149 703l-741 -615z" />
    <glyph glyph-name="ellipsis" unicode="&#xc9;" horiz-adv-x="1680" 
d="M1527 1831q-18 -79 -118 -170q-134 -123 -317 -123q-143 0 -234 90q-79 80 -79 172q0 7 4 35q13 58 55 58q21 0 38.5 -29t46.5 -72.5t78 -69.5q48 -28 132 -28q73 0 149 34t129 93q17 17 29 30t26 22t31 9q30 0 30 -51zM509 260q-3 -12 -8 -33.5t-5 -33.5q0 -32 25 -45
l20 -13q35 -26 35 -65q-16 -70 -115 -70h-389q-86 0 -86 70q6 25 20 37t44 28l24 13q34 15 43 37.5t19 74.5l209 979q0 2 6 27t6 39q0 34 -27 47l-18 12q-21 16 -29 27t-8 39q15 69 116 69h390q84 0 84 -69q-4 -24 -17 -35.5t-44 -30.5l-27 -12q-31 -14 -40 -37t-19 -76
l-146 -676l742 615l14 61q0 2 6 27t6 39q0 33 -26 47l-19 12q-21 16 -29 27t-8 39q15 69 116 69h390q84 0 84 -69q-4 -24 -17 -35.5t-44 -30.5l-27 -12q-31 -14 -40 -37t-19 -76l-209 -979q-3 -12 -8 -33.5t-5 -33.5q0 -32 25 -45l20 -13q35 -26 35 -65q-16 -70 -115 -70
h-389q-86 0 -86 70q6 25 20 37t44 28l25 13q34 15 42.5 37.5t18.5 74.5l149 703l-741 -615z" />
    <glyph glyph-name="ellipsis" unicode="&#x419;" horiz-adv-x="1680" 
d="M1527 1831q-18 -79 -118 -170q-134 -123 -317 -123q-143 0 -234 90q-79 80 -79 172q0 7 4 35q13 58 55 58q21 0 38.5 -29t46.5 -72.5t78 -69.5q48 -28 132 -28q73 0 149 34t129 93q17 17 29 30t26 22t31 9q30 0 30 -51zM509 260q-3 -12 -8 -33.5t-5 -33.5q0 -32 25 -45
l20 -13q35 -26 35 -65q-16 -70 -115 -70h-389q-86 0 -86 70q6 25 20 37t44 28l24 13q34 15 43 37.5t19 74.5l209 979q0 2 6 27t6 39q0 34 -27 47l-18 12q-21 16 -29 27t-8 39q15 69 116 69h390q84 0 84 -69q-4 -24 -17 -35.5t-44 -30.5l-27 -12q-31 -14 -40 -37t-19 -76
l-146 -676l742 615l14 61q0 2 6 27t6 39q0 33 -26 47l-19 12q-21 16 -29 27t-8 39q15 69 116 69h390q84 0 84 -69q-4 -24 -17 -35.5t-44 -30.5l-27 -12q-31 -14 -40 -37t-19 -76l-209 -979q-3 -12 -8 -33.5t-5 -33.5q0 -32 25 -45l20 -13q35 -26 35 -65q-16 -70 -115 -70
h-389q-86 0 -86 70q6 25 20 37t44 28l25 13q34 15 42.5 37.5t18.5 74.5l149 703l-741 -615z" />
    <glyph glyph-name="nonbreakingspace" unicode="&#xca;" horiz-adv-x="1598" 
d="M511 260q-3 -12 -8 -33.5t-5 -33.5q0 -32 25 -45l20 -13q35 -26 35 -65q-16 -70 -115 -70h-389q-86 0 -86 70q6 25 20 37t44 28l25 13q34 15 42.5 37.5t18.5 74.5l209 979q0 2 6 27t6 39q0 34 -26 47l-19 12q-21 16 -29 27t-8 39q15 69 116 69h390q84 0 84 -69
q-4 -24 -17 -35.5t-45 -30.5l-27 -12q-31 -14 -40 -37t-19 -76l-100 -469l393 269q283 226 295 280q0 19 -8 29q-7 11 -23.5 25.5t-24.5 27.5t-8 35q13 63 109 63h252q45 0 78 -12q32 -14 32 -67q-8 -42 -81 -74q-67 -30 -106.5 -62t-119.5 -110l-325 -275
q192 -256 331 -659q25 -78 72 -105q24 -14 32.5 -27t8.5 -48q-13 -60 -111 -60h-391q-112 0 -112 68q5 26 18.5 37.5t43 31t32.5 33.5q0 61 -44 168t-103 212q-59 106 -95 153l-186 -123z" />
    <glyph glyph-name="nonbreakingspace" unicode="&#x41a;" horiz-adv-x="1598" 
d="M511 260q-3 -12 -8 -33.5t-5 -33.5q0 -32 25 -45l20 -13q35 -26 35 -65q-16 -70 -115 -70h-389q-86 0 -86 70q6 25 20 37t44 28l25 13q34 15 42.5 37.5t18.5 74.5l209 979q0 2 6 27t6 39q0 34 -26 47l-19 12q-21 16 -29 27t-8 39q15 69 116 69h390q84 0 84 -69
q-4 -24 -17 -35.5t-45 -30.5l-27 -12q-31 -14 -40 -37t-19 -76l-100 -469l393 269q283 226 295 280q0 19 -8 29q-7 11 -23.5 25.5t-24.5 27.5t-8 35q13 63 109 63h252q45 0 78 -12q32 -14 32 -67q-8 -42 -81 -74q-67 -30 -106.5 -62t-119.5 -110l-325 -275
q192 -256 331 -659q25 -78 72 -105q24 -14 32.5 -27t8.5 -48q-13 -60 -111 -60h-391q-112 0 -112 68q5 26 18.5 37.5t43 31t32.5 33.5q0 61 -44 168t-103 212q-59 106 -95 153l-186 -123z" />
    <glyph glyph-name="Agrave" unicode="&#xcb;" horiz-adv-x="1516" 
d="M666 1284q0 20 -7 30.5t-24 30t-25 37.5t-8 48q15 69 131 69h867q83 0 83 -69q-4 -25 -17 -36q-12 -11 -44 -30l-26 -13q-32 -14 -41 -37q-9 -22 -19 -75l-209 -979q-3 -15 -6 -26.5t-4.5 -23t-1.5 -17.5q0 -32 24 -45l21 -13q34 -26 34 -65q-14 -70 -114 -70h-389
q-86 0 -86 70q5 25 19 37.5t44 27.5l25 13q34 15 43 39t18 73l205 965q8 42 8 55q0 39 -27 56q-28 15 -99 15h-41q-65 0 -133 -69q-67 -69 -144 -180q-99 -145 -198.5 -314t-170 -315.5t-88.5 -228.5q0 -35 14.5 -56t41.5 -42t40 -37t13 -45q-15 -64 -131 -64h-234
q-98 0 -98 68q7 37 55 72q45 30 62 51.5t43 74.5q50 105 107.5 211.5t123 217.5t124.5 206t134 209q100 145 105 174z" />
    <glyph glyph-name="Agrave" unicode="&#x41b;" horiz-adv-x="1516" 
d="M666 1284q0 20 -7 30.5t-24 30t-25 37.5t-8 48q15 69 131 69h867q83 0 83 -69q-4 -25 -17 -36q-12 -11 -44 -30l-26 -13q-32 -14 -41 -37q-9 -22 -19 -75l-209 -979q-3 -15 -6 -26.5t-4.5 -23t-1.5 -17.5q0 -32 24 -45l21 -13q34 -26 34 -65q-14 -70 -114 -70h-389
q-86 0 -86 70q5 25 19 37.5t44 27.5l25 13q34 15 43 39t18 73l205 965q8 42 8 55q0 39 -27 56q-28 15 -99 15h-41q-65 0 -133 -69q-67 -69 -144 -180q-99 -145 -198.5 -314t-170 -315.5t-88.5 -228.5q0 -35 14.5 -56t41.5 -42t40 -37t13 -45q-15 -64 -131 -64h-234
q-98 0 -98 68q7 37 55 72q45 30 62 51.5t43 74.5q50 105 107.5 211.5t123 217.5t124.5 206t134 209q100 145 105 174z" />
    <glyph glyph-name="Atilde" unicode="&#xcc;" horiz-adv-x="1884" 
d="M1481 1393q29 48 46 68q17 21 41 29.5t71 8.5h381q53 0 53 -73q-6 -35 -29 -48q-22 -14 -67 -28q-41 -11 -56 -33t-24 -67l-211 -990q-2 -12 -7 -33.5t-5 -33.5q0 -32 25 -45l20 -13q35 -27 35 -65q-16 -70 -115 -70h-389q-86 0 -86 70q6 25 20 37.5t44 27.5l24 13
q34 15 43.5 39t18.5 73l188 889l-506 -823q-40 -62 -56 -82t-44 -34q-28 -13 -79 -13q-50 0 -73.5 5t-37 23t-24.5 58l-180 844l-184 -871q-2 -24 -2 -67q4 -24 17 -34q13 -9 48 -24q21 -10 29 -22.5t8 -44.5q-9 -40 -47.5 -52t-106.5 -12h-178q-64 0 -95 12q-30 11 -30 52
q6 29 21 43t45 24q42 16 59 25t31 33q14 32 27 67l209 983q0 3 1 18q1 16 1 25q0 56 -64 76q-32 10 -48 24q-15 13 -15 48q9 44 43 57q35 12 90 12h399q46 0 66.5 -17.5t25.5 -39t15 -88.5l131 -735z" />
    <glyph glyph-name="Atilde" unicode="&#x41c;" horiz-adv-x="1884" 
d="M1481 1393q29 48 46 68q17 21 41 29.5t71 8.5h381q53 0 53 -73q-6 -35 -29 -48q-22 -14 -67 -28q-41 -11 -56 -33t-24 -67l-211 -990q-2 -12 -7 -33.5t-5 -33.5q0 -32 25 -45l20 -13q35 -27 35 -65q-16 -70 -115 -70h-389q-86 0 -86 70q6 25 20 37.5t44 27.5l24 13
q34 15 43.5 39t18.5 73l188 889l-506 -823q-40 -62 -56 -82t-44 -34q-28 -13 -79 -13q-50 0 -73.5 5t-37 23t-24.5 58l-180 844l-184 -871q-2 -24 -2 -67q4 -24 17 -34q13 -9 48 -24q21 -10 29 -22.5t8 -44.5q-9 -40 -47.5 -52t-106.5 -12h-178q-64 0 -95 12q-30 11 -30 52
q6 29 21 43t45 24q42 16 59 25t31 33q14 32 27 67l209 983q0 3 1 18q1 16 1 25q0 56 -64 76q-32 10 -48 24q-15 13 -15 48q9 44 43 57q35 12 90 12h399q46 0 66.5 -17.5t25.5 -39t15 -88.5l131 -735z" />
    <glyph glyph-name="Otilde" unicode="&#xcd;" horiz-adv-x="1680" 
d="M509 260q-3 -12 -8 -33.5t-5 -33.5q0 -32 25 -45l20 -13q35 -26 35 -65q-16 -70 -115 -70h-389q-86 0 -86 70q6 25 20 37t44 28l24 13q34 15 43 37.5t19 74.5l209 979q0 2 6 27t6 39q0 34 -27 47l-18 12q-21 16 -29 27t-8 39q15 69 116 69h390q84 0 84 -69
q-4 -24 -17 -35.5t-44 -30.5l-27 -12q-31 -14 -40 -37t-19 -76l-76 -348h610l76 348q0 2 6 27t6 39q0 33 -26 47l-19 12q-21 16 -29 27t-8 39q15 69 116 69h390q84 0 84 -69q-4 -24 -17 -35.5t-44 -30.5l-27 -12q-31 -14 -40 -37t-19 -76l-209 -979q-3 -12 -8 -33.5
t-5 -33.5q0 -32 25 -45l20 -13q35 -26 35 -65q-16 -70 -115 -70h-389q-86 0 -86 70q6 25 20 37t44 28l25 13q34 15 43 37q8 23 18 75l102 477h-610z" />
    <glyph glyph-name="Otilde" unicode="&#x41d;" horiz-adv-x="1680" 
d="M509 260q-3 -12 -8 -33.5t-5 -33.5q0 -32 25 -45l20 -13q35 -26 35 -65q-16 -70 -115 -70h-389q-86 0 -86 70q6 25 20 37t44 28l24 13q34 15 43 37.5t19 74.5l209 979q0 2 6 27t6 39q0 34 -27 47l-18 12q-21 16 -29 27t-8 39q15 69 116 69h390q84 0 84 -69
q-4 -24 -17 -35.5t-44 -30.5l-27 -12q-31 -14 -40 -37t-19 -76l-76 -348h610l76 348q0 2 6 27t6 39q0 33 -26 47l-19 12q-21 16 -29 27t-8 39q15 69 116 69h390q84 0 84 -69q-4 -24 -17 -35.5t-44 -30.5l-27 -12q-31 -14 -40 -37t-19 -76l-209 -979q-3 -12 -8 -33.5
t-5 -33.5q0 -32 25 -45l20 -13q35 -26 35 -65q-16 -70 -115 -70h-389q-86 0 -86 70q6 25 20 37t44 28l25 13q34 15 43 37q8 23 18 75l102 477h-610z" />
    <glyph glyph-name="OE" unicode="&#xce;" horiz-adv-x="1762" 
d="M256 191q-131 155 -131 385q0 87 19 178q35 166 127 310q93 143 227 248t293 161.5t325 56.5q147 0 271 -42.5t214 -122.5q89 -79 138 -192t49 -249q0 -82 -18 -170q-35 -168 -131 -313q-96 -144 -233 -250t-299.5 -164t-328.5 -58q-155 0 -294 58q-139 59 -228 164z
M1369 746q24 121 24 231q0 174 -71 286q-71 110 -234 110q-110 0 -206.5 -60t-174.5 -166q-113 -154 -162 -387q-25 -124 -25 -231q0 -112 28 -202t95 -146t176 -56q117 0 211.5 57t162 149t111 201t65.5 214z" />
    <glyph glyph-name="OE" unicode="&#x41e;" horiz-adv-x="1762" 
d="M256 191q-131 155 -131 385q0 87 19 178q35 166 127 310q93 143 227 248t293 161.5t325 56.5q147 0 271 -42.5t214 -122.5q89 -79 138 -192t49 -249q0 -82 -18 -170q-35 -168 -131 -313q-96 -144 -233 -250t-299.5 -164t-328.5 -58q-155 0 -294 58q-139 59 -228 164z
M1369 746q24 121 24 231q0 174 -71 286q-71 110 -234 110q-110 0 -206.5 -60t-174.5 -166q-113 -154 -162 -387q-25 -124 -25 -231q0 -112 28 -202t95 -146t176 -56q117 0 211.5 57t162 149t111 201t65.5 214z" />
    <glyph glyph-name="oe" unicode="&#xcf;" horiz-adv-x="1680" 
d="M948 1353q-145 0 -184 -28q-18 -13 -28.5 -34.5t-17.5 -48.5t-11 -44l-198 -938q-11 -43 -11 -63q0 -37 23 -49l20 -13q35 -26 35 -65q-16 -70 -115 -70h-389q-86 0 -86 70q6 25 20 37t44 28l24 13q34 15 43 37.5t19 74.5l209 979q0 2 6 27t6 39q0 34 -27 47l-18 12
q-21 16 -29 27t-8 39q15 69 116 69h1373q84 0 84 -69q-4 -25 -18.5 -38.5t-42.5 -27.5l-27 -12q-31 -14 -40 -37t-19 -76l-209 -979q-3 -12 -8 -33.5t-5 -33.5q0 -32 25 -45l20 -13q35 -26 35 -65q-16 -70 -115 -70h-389q-86 0 -86 70q6 25 20 37t44 28l25 13q18 9 29 22.5
t17 29.5t9 31.5t6 28.5l199 938q14 57 14 82q0 28 -15 45q-31 28 -176 28h-193z" />
    <glyph glyph-name="oe" unicode="&#x41f;" horiz-adv-x="1680" 
d="M948 1353q-145 0 -184 -28q-18 -13 -28.5 -34.5t-17.5 -48.5t-11 -44l-198 -938q-11 -43 -11 -63q0 -37 23 -49l20 -13q35 -26 35 -65q-16 -70 -115 -70h-389q-86 0 -86 70q6 25 20 37t44 28l24 13q34 15 43 37.5t19 74.5l209 979q0 2 6 27t6 39q0 34 -27 47l-18 12
q-21 16 -29 27t-8 39q15 69 116 69h1373q84 0 84 -69q-4 -25 -18.5 -38.5t-42.5 -27.5l-27 -12q-31 -14 -40 -37t-19 -76l-209 -979q-3 -12 -8 -33.5t-5 -33.5q0 -32 25 -45l20 -13q35 -26 35 -65q-16 -70 -115 -70h-389q-86 0 -86 70q6 25 20 37t44 28l25 13q18 9 29 22.5
t17 29.5t9 31.5t6 28.5l199 938q14 57 14 82q0 28 -15 45q-31 28 -176 28h-193z" />
    <glyph glyph-name="emdash" unicode="&#xd0;" 
d="M507 256q-2 -24 -2 -67q4 -24 17 -34q13 -9 48 -24q21 -10 29 -22.5t8 -44.5q-10 -41 -41.5 -52.5t-92.5 -11.5h-403q-86 0 -86 70q6 25 20 37t44 28l24 13q34 15 43 37.5t19 74.5l209 979q0 2 6 27t6 39q0 34 -27 47l-18 12q-37 27 -37 66q15 69 116 69h633
q116 0 209 -15t164 -56q149 -88 149 -254q0 -44 -8 -82q-19 -93 -76 -171.5t-138 -137.5q-80 -59 -175 -101q-126 -56 -269 -82.5t-306 -34.5zM605 723q118 16 228 55t194 114t108 188q8 52 8 67q0 100 -65.5 154.5t-178.5 54.5q-95 0 -137 -35q-25 -20 -35 -46.5t-20 -74.5
z" />
    <glyph glyph-name="emdash" unicode="&#x420;" 
d="M507 256q-2 -24 -2 -67q4 -24 17 -34q13 -9 48 -24q21 -10 29 -22.5t8 -44.5q-10 -41 -41.5 -52.5t-92.5 -11.5h-403q-86 0 -86 70q6 25 20 37t44 28l24 13q34 15 43 37.5t19 74.5l209 979q0 2 6 27t6 39q0 34 -27 47l-18 12q-37 27 -37 66q15 69 116 69h633
q116 0 209 -15t164 -56q149 -88 149 -254q0 -44 -8 -82q-19 -93 -76 -171.5t-138 -137.5q-80 -59 -175 -101q-126 -56 -269 -82.5t-306 -34.5zM605 723q118 16 228 55t194 114t108 188q8 52 8 67q0 100 -65.5 154.5t-178.5 54.5q-95 0 -137 -35q-25 -20 -35 -46.5t-20 -74.5
z" />
    <glyph glyph-name="endash" unicode="&#xd1;" horiz-adv-x="1557" 
d="M1354 1303q-84 77 -207 77q-217 0 -395 -194q-152 -168 -207 -422q-19 -85 -19 -186q0 -138 35 -230q27 -66 76 -110q50 -45 116 -66.5t144 -21.5q95 0 197.5 42.5t189.5 116.5q18 15 37 31.5t34 27t35.5 19.5t37.5 9q57 0 57 -72q-14 -65 -97 -134t-169 -114
q-100 -53 -212.5 -80t-221.5 -27q-191 0 -342 74q-152 72 -238 207t-86 311q0 76 18 162q37 168 136 316t241 258t309 171.5t332 61.5q126 0 245.5 -35t201.5 -100q48 -32 53 -68q0 -29 -11.5 -111t-19.5 -114q-7 -36 -35 -58t-67 -22q-36 0 -48.5 24.5t-29.5 80.5
q-15 63 -33 102t-57 74z" />
    <glyph glyph-name="endash" unicode="&#x421;" horiz-adv-x="1557" 
d="M1354 1303q-84 77 -207 77q-217 0 -395 -194q-152 -168 -207 -422q-19 -85 -19 -186q0 -138 35 -230q27 -66 76 -110q50 -45 116 -66.5t144 -21.5q95 0 197.5 42.5t189.5 116.5q18 15 37 31.5t34 27t35.5 19.5t37.5 9q57 0 57 -72q-14 -65 -97 -134t-169 -114
q-100 -53 -212.5 -80t-221.5 -27q-191 0 -342 74q-152 72 -238 207t-86 311q0 76 18 162q37 168 136 316t241 258t309 171.5t332 61.5q126 0 245.5 -35t201.5 -100q48 -32 53 -68q0 -29 -11.5 -111t-19.5 -114q-7 -36 -35 -58t-67 -22q-36 0 -48.5 24.5t-29.5 80.5
q-15 63 -33 102t-57 74z" />
    <glyph glyph-name="quotedblleft" unicode="&#xd2;" 
d="M685 1237q12 60 12 70q0 40 -70 40q-102 0 -156.5 -31t-115 -84.5t-97.5 -53.5q-61 0 -61 78q3 10 25 65q56 146 85 166q23 12 97 12h1048q74 0 88 -12q19 -16 19 -94q0 -16 -1 -41q-1 -24 -1 -31q0 -43 -4 -65q-18 -78 -95 -78q-36 0 -73.5 53.5t-78.5 84.5t-142 31
q-61 0 -76.5 -21.5t-30.5 -88.5l-206 -977q-3 -12 -8 -33.5t-5 -33.5q0 -32 25 -45l20 -13q35 -26 35 -65q-16 -70 -115 -70h-389q-86 0 -86 70q6 25 20 37t44 28l24 13q34 15 43 37.5t19 74.5z" />
    <glyph glyph-name="quotedblleft" unicode="&#x422;" 
d="M685 1237q12 60 12 70q0 40 -70 40q-102 0 -156.5 -31t-115 -84.5t-97.5 -53.5q-61 0 -61 78q3 10 25 65q56 146 85 166q23 12 97 12h1048q74 0 88 -12q19 -16 19 -94q0 -16 -1 -41q-1 -24 -1 -31q0 -43 -4 -65q-18 -78 -95 -78q-36 0 -73.5 53.5t-78.5 84.5t-142 31
q-61 0 -76.5 -21.5t-30.5 -88.5l-206 -977q-3 -12 -8 -33.5t-5 -33.5q0 -32 25 -45l20 -13q35 -26 35 -65q-16 -70 -115 -70h-389q-86 0 -86 70q6 25 20 37t44 28l24 13q34 15 43 37.5t19 74.5z" />
    <glyph glyph-name="quotedblright" unicode="&#xd3;" horiz-adv-x="1516" 
d="M729 1499q53 0 81 -12t28 -55q-9 -44 -36 -59.5t-54.5 -30.5t-36.5 -56q0 -90 43.5 -249.5t104.5 -280.5t112 -121q41 0 66 9.5t51 41.5q90 114 200 311q109 198 122 259q6 27 6 47q0 41 -45 69q-27 20 -27 70q7 36 36.5 46.5t92.5 10.5h172q65 0 91 -9t26 -44
q-7 -29 -47 -65q-7 -8 -19 -20.5t-18 -24.5q-34 -56 -66 -106q-31 -51 -49 -81q-123 -211 -232.5 -384.5t-260 -364t-315 -317t-316.5 -126.5q-59 0 -108 34q-48 35 -48 99q11 49 55.5 84t91.5 35q28 0 50 -13.5t44.5 -27.5t51.5 -14q30 0 82 31q52 32 88 63q32 30 102 112
t99 124q-60 -23 -130 -23q-153 0 -260 129q-56 69 -95 168t-60 182q-20 83 -45.5 199.5t-36.5 138.5t-39 51t-40.5 47.5t-12.5 47.5q7 37 39 56t67 19h395z" />
    <glyph glyph-name="quotedblright" unicode="&#x423;" horiz-adv-x="1516" 
d="M729 1499q53 0 81 -12t28 -55q-9 -44 -36 -59.5t-54.5 -30.5t-36.5 -56q0 -90 43.5 -249.5t104.5 -280.5t112 -121q41 0 66 9.5t51 41.5q90 114 200 311q109 198 122 259q6 27 6 47q0 41 -45 69q-27 20 -27 70q7 36 36.5 46.5t92.5 10.5h172q65 0 91 -9t26 -44
q-7 -29 -47 -65q-7 -8 -19 -20.5t-18 -24.5q-34 -56 -66 -106q-31 -51 -49 -81q-123 -211 -232.5 -384.5t-260 -364t-315 -317t-316.5 -126.5q-59 0 -108 34q-48 35 -48 99q11 49 55.5 84t91.5 35q28 0 50 -13.5t44.5 -27.5t51.5 -14q30 0 82 31q52 32 88 63q32 30 102 112
t99 124q-60 -23 -130 -23q-153 0 -260 129q-56 69 -95 168t-60 182q-20 83 -45.5 199.5t-36.5 138.5t-39 51t-40.5 47.5t-12.5 47.5q7 37 39 56t67 19h395z" />
    <glyph glyph-name="quoteleft" unicode="&#xd4;" horiz-adv-x="1925" 
d="M686 0q-86 0 -86 70q6 25 20 37t44 28l24 13q34 15 43 37.5t19 74.5l6 29l-160 18q-144 16 -256.5 79.5t-173.5 158.5q-63 94 -63 199q0 24 8 69q30 136 135 229.5t242.5 139.5t271.5 51l199 6q0 2 6 27t6 39q0 34 -27 47l-18 12q-37 21 -37 66q15 69 117 69h389
q84 0 84 -69q-4 -25 -18.5 -38.5t-43.5 -27.5l-26 -12q-18 -8 -28 -20q-10 -11 -16 -25q-5 -15 -8.5 -31t-7.5 -37l195 -6q119 -5 227 -42q109 -37 179.5 -113t70.5 -187q0 -42 -8 -78q-18 -87 -80.5 -173t-159.5 -158.5t-214 -118t-244 -56.5l-168 -18l-6 -29
q-13 -62 -13 -67q0 -32 25 -45l20 -13q35 -18 35 -65q-8 -38 -42 -54t-73 -16h-389zM899 965q15 66 15 88q0 29 -18 39t-68 10q-79 0 -150 -43t-121 -115t-67 -149q-8 -33 -8 -72q0 -122 89 -199t218 -83zM1161 441q96 4 191 48q95 45 165 124q69 80 91 182q8 32 8 72
q0 64 -25.5 118t-74.5 85.5t-115 31.5q-49 0 -72 -10.5t-33 -36.5t-24 -90z" />
    <glyph glyph-name="quoteleft" unicode="&#x424;" horiz-adv-x="1925" 
d="M686 0q-86 0 -86 70q6 25 20 37t44 28l24 13q34 15 43 37.5t19 74.5l6 29l-160 18q-144 16 -256.5 79.5t-173.5 158.5q-63 94 -63 199q0 24 8 69q30 136 135 229.5t242.5 139.5t271.5 51l199 6q0 2 6 27t6 39q0 34 -27 47l-18 12q-37 21 -37 66q15 69 117 69h389
q84 0 84 -69q-4 -25 -18.5 -38.5t-43.5 -27.5l-26 -12q-18 -8 -28 -20q-10 -11 -16 -25q-5 -15 -8.5 -31t-7.5 -37l195 -6q119 -5 227 -42q109 -37 179.5 -113t70.5 -187q0 -42 -8 -78q-18 -87 -80.5 -173t-159.5 -158.5t-214 -118t-244 -56.5l-168 -18l-6 -29
q-13 -62 -13 -67q0 -32 25 -45l20 -13q35 -18 35 -65q-8 -38 -42 -54t-73 -16h-389zM899 965q15 66 15 88q0 29 -18 39t-68 10q-79 0 -150 -43t-121 -115t-67 -149q-8 -33 -8 -72q0 -122 89 -199t218 -83zM1161 441q96 4 191 48q95 45 165 124q69 80 91 182q8 32 8 72
q0 64 -25.5 118t-74.5 85.5t-115 31.5q-49 0 -72 -10.5t-33 -36.5t-24 -90z" />
    <glyph glyph-name="quoteright" unicode="&#xd5;" horiz-adv-x="1516" 
d="M25 0q-43 0 -69 13q-25 13 -25 55q5 28 25.5 43t58.5 31q50 22 76 47q27 24 82 86l438 465q-79 111 -142 241t-126 297q-12 32 -23 48q-11 17 -37 32t-38.5 29.5t-12.5 46.5q10 54 80 65h440q42 -4 64 -15t22 -50q-6 -24 -24 -38q-17 -14 -38 -29.5t-24 -28.5
q0 -34 36 -110t81 -156q46 -81 75 -134q117 113 219 223q103 109 113 156q0 19 -9.5 32t-27.5 28q-19 16 -28 29t-9 36q12 57 103 57h233q53 0 86 -11.5t33 -55.5q-6 -29 -25 -44q-20 -14 -59 -34q-29 -15 -41 -23t-35 -32l-110 -119l-361 -365l273 -487l39 -92
q22 -50 34 -65t50 -36q41 -20 41 -69q-10 -42 -45 -54t-87 -12h-458q-45 17 -45 70q5 25 20 36t42.5 26t29.5 26q0 33 -46.5 131.5t-102.5 197.5t-81 130q-45 -44 -126 -133t-146.5 -173.5t-72.5 -121.5q0 -20 7 -34t22.5 -31.5t23.5 -31.5t8 -32q-11 -49 -72 -60h-309z" />
    <glyph glyph-name="quoteright" unicode="&#x425;" horiz-adv-x="1516" 
d="M25 0q-43 0 -69 13q-25 13 -25 55q5 28 25.5 43t58.5 31q50 22 76 47q27 24 82 86l438 465q-79 111 -142 241t-126 297q-12 32 -23 48q-11 17 -37 32t-38.5 29.5t-12.5 46.5q10 54 80 65h440q42 -4 64 -15t22 -50q-6 -24 -24 -38q-17 -14 -38 -29.5t-24 -28.5
q0 -34 36 -110t81 -156q46 -81 75 -134q117 113 219 223q103 109 113 156q0 19 -9.5 32t-27.5 28q-19 16 -28 29t-9 36q12 57 103 57h233q53 0 86 -11.5t33 -55.5q-6 -29 -25 -44q-20 -14 -59 -34q-29 -15 -41 -23t-35 -32l-110 -119l-361 -365l273 -487l39 -92
q22 -50 34 -65t50 -36q41 -20 41 -69q-10 -42 -45 -54t-87 -12h-458q-45 17 -45 70q5 25 20 36t42.5 26t29.5 26q0 33 -46.5 131.5t-102.5 197.5t-81 130q-45 -44 -126 -133t-146.5 -173.5t-72.5 -121.5q0 -20 7 -34t22.5 -31.5t23.5 -31.5t8 -32q-11 -49 -72 -60h-309z" />
    <glyph glyph-name="divide" unicode="&#xd6;" horiz-adv-x="1680" 
d="M72 -1q-86 0 -86 71q9 40 64 65l24 13q34 15 43 37.5t19 74.5l209 979q0 2 6 27t6 39q0 34 -27 47l-18 12q-21 16 -29 27t-8 39q15 69 116 69h390q84 0 84 -69q-4 -24 -17 -35.5t-44 -30.5l-27 -12q-18 -9 -29 -23.5t-16 -29t-9 -31.5q-3 -17 -5 -29l-197 -917
q-4 -19 -6.5 -31t-4 -26t-1.5 -23q0 -30 13 -47q25 -25 265 -25q255 0 288 25q36 26 56 127l197 917q10 38 10 62q0 34 -24 51l-19 12q-21 16 -29 27t-8 39q15 69 116 69h390q84 0 84 -69q-4 -24 -17 -35.5t-44 -30.5l-27 -12q-31 -14 -40 -37t-19 -76l-209 -979
q-6 -30 -6 -51q0 -35 13.5 -48t41.5 -21q20 -7 26 -37q5 -26 5 -54q0 -82 -15 -141q-6 -36 -32 -57q-25 -21 -62 -21q-30 0 -53 28q-22 28 -47 61q-24 33 -70 57q-45 23 -125 23h-1096z" />
    <glyph glyph-name="divide" unicode="&#x426;" horiz-adv-x="1680" 
d="M72 -1q-86 0 -86 71q9 40 64 65l24 13q34 15 43 37.5t19 74.5l209 979q0 2 6 27t6 39q0 34 -27 47l-18 12q-21 16 -29 27t-8 39q15 69 116 69h390q84 0 84 -69q-4 -24 -17 -35.5t-44 -30.5l-27 -12q-18 -9 -29 -23.5t-16 -29t-9 -31.5q-3 -17 -5 -29l-197 -917
q-4 -19 -6.5 -31t-4 -26t-1.5 -23q0 -30 13 -47q25 -25 265 -25q255 0 288 25q36 26 56 127l197 917q10 38 10 62q0 34 -24 51l-19 12q-21 16 -29 27t-8 39q15 69 116 69h390q84 0 84 -69q-4 -24 -17 -35.5t-44 -30.5l-27 -12q-31 -14 -40 -37t-19 -76l-209 -979
q-6 -30 -6 -51q0 -35 13.5 -48t41.5 -21q20 -7 26 -37q5 -26 5 -54q0 -82 -15 -141q-6 -36 -32 -57q-25 -21 -62 -21q-30 0 -53 28q-22 28 -47 61q-24 33 -70 57q-45 23 -125 23h-1096z" />
    <glyph glyph-name="lozenge" unicode="&#xd7;" horiz-adv-x="1639" 
d="M328 1239q12 39 12 68q0 36 -18 45l-19 12q-37 21 -37 66q16 69 117 69h389q84 0 84 -69q-4 -24 -16 -35t-45 -31l-27 -12q-32 -16 -59 -76q-83 -212 -83 -348q0 -107 56 -152q46 -36 123 -36q168 0 402 151l75 348q1 2 7 27t6 39q0 31 -27 47l-18 12q-21 16 -29 27
t-8 39q15 69 116 69h390q83 0 83 -69q-4 -24 -16 -36q-13 -11 -45 -30l-27 -12q-31 -14 -40 -37t-19 -76l-209 -979q-2 -12 -7 -33.5t-5 -33.5q0 -32 24 -45l21 -13q35 -26 35 -65q-16 -70 -115 -70h-389q-86 0 -86 70q6 25 19.5 37t43.5 28l25 13q33 15 42.5 37.5
t18.5 74.5l99 459q-137 -86 -284.5 -136t-276.5 -50q-175 0 -275 94q-88 85 -88 246q0 56 10 115t25 112.5t26.5 87t18.5 51.5z" />
    <glyph glyph-name="lozenge" unicode="&#x427;" horiz-adv-x="1639" 
d="M328 1239q12 39 12 68q0 36 -18 45l-19 12q-37 21 -37 66q16 69 117 69h389q84 0 84 -69q-4 -24 -16 -35t-45 -31l-27 -12q-32 -16 -59 -76q-83 -212 -83 -348q0 -107 56 -152q46 -36 123 -36q168 0 402 151l75 348q1 2 7 27t6 39q0 31 -27 47l-18 12q-21 16 -29 27
t-8 39q15 69 116 69h390q83 0 83 -69q-4 -24 -16 -36q-13 -11 -45 -30l-27 -12q-31 -14 -40 -37t-19 -76l-209 -979q-2 -12 -7 -33.5t-5 -33.5q0 -32 24 -45l21 -13q35 -26 35 -65q-16 -70 -115 -70h-389q-86 0 -86 70q6 25 19.5 37t43.5 28l25 13q33 15 42.5 37.5
t18.5 74.5l99 459q-137 -86 -284.5 -136t-276.5 -50q-175 0 -275 94q-88 85 -88 246q0 56 10 115t25 112.5t26.5 87t18.5 51.5z" />
    <glyph glyph-name="ydieresis" unicode="&#xd8;" horiz-adv-x="2212" 
d="M1399 166q172 0 213 29q36 26 55 127l197 917q10 34 10 62q0 35 -24 51l-19 12q-21 16 -29 27t-8 39q16 69 117 69h389q84 0 84 -69q-4 -24 -17 -35.5t-44 -30.5l-27 -12q-32 -15 -40.5 -37.5t-18.5 -75.5l-209 -979q-3 -12 -8 -33.5t-5 -33.5q0 -32 25 -45l21 -13
q34 -27 34 -65q-15 -71 -114 -71h-1913q-87 0 -87 71q6 25 20 37t44 28l24 13q34 15 43 37.5t19 74.5l209 979q0 2 6 27t6 39q0 34 -27 47l-18 12q-21 16 -29 27.5t-8 38.5q16 69 117 69h389q84 0 84 -69q-4 -24 -16.5 -35t-45.5 -31l-26 -12q-18 -9 -29 -23.5t-16 -29
t-9.5 -36t-5.5 -24.5l-196 -917q-4 -19 -6.5 -31t-4 -26t-1.5 -23q0 -30 14 -47q29 -29 181 -29q88 0 136 22.5t62 92.5l205 958q0 2 6 28t6 38q0 31 -27 47l-18 12q-21 16 -29 27t-8 39q16 69 117 69h389q84 0 84 -69q-4 -25 -17 -36t-44 -30l-27 -12q-18 -8 -28 -20
q-10 -11 -15.5 -25.5t-8.5 -30.5t-7 -37l-205 -958q-4 -15 -4 -39q0 -46 33 -61t100 -15z" />
    <glyph glyph-name="ydieresis" unicode="&#x428;" horiz-adv-x="2212" 
d="M1399 166q172 0 213 29q36 26 55 127l197 917q10 34 10 62q0 35 -24 51l-19 12q-21 16 -29 27t-8 39q16 69 117 69h389q84 0 84 -69q-4 -24 -17 -35.5t-44 -30.5l-27 -12q-32 -15 -40.5 -37.5t-18.5 -75.5l-209 -979q-3 -12 -8 -33.5t-5 -33.5q0 -32 25 -45l21 -13
q34 -27 34 -65q-15 -71 -114 -71h-1913q-87 0 -87 71q6 25 20 37t44 28l24 13q34 15 43 37.5t19 74.5l209 979q0 2 6 27t6 39q0 34 -27 47l-18 12q-21 16 -29 27.5t-8 38.5q16 69 117 69h389q84 0 84 -69q-4 -24 -16.5 -35t-45.5 -31l-26 -12q-18 -9 -29 -23.5t-16 -29
t-9.5 -36t-5.5 -24.5l-196 -917q-4 -19 -6.5 -31t-4 -26t-1.5 -23q0 -30 14 -47q29 -29 181 -29q88 0 136 22.5t62 92.5l205 958q0 2 6 28t6 38q0 31 -27 47l-18 12q-21 16 -29 27t-8 39q16 69 117 69h389q84 0 84 -69q-4 -25 -17 -36t-44 -30l-27 -12q-18 -8 -28 -20
q-10 -11 -15.5 -25.5t-8.5 -30.5t-7 -37l-205 -958q-4 -15 -4 -39q0 -46 33 -61t100 -15z" />
    <glyph glyph-name="Ydieresis" unicode="&#xd9;" horiz-adv-x="2212" 
d="M68 -1q-87 0 -87 71q9 40 64 65l24 13q34 15 43 37.5t19 74.5l209 979q0 2 6 27t6 39q0 34 -27 47l-18 12q-21 16 -29 27.5t-8 38.5q16 69 117 69h389q84 0 84 -69q-4 -24 -16.5 -35t-45.5 -31l-26 -12q-18 -9 -29 -23.5t-16 -29t-9.5 -36t-5.5 -24.5l-196 -917
q-4 -19 -6.5 -31t-4 -26t-1.5 -23q0 -30 14 -47q29 -29 181 -29q88 0 136 22.5t62 92.5l205 958q0 2 6 28t6 38q0 31 -27 47l-18 12q-21 16 -29 27t-8 39q16 69 117 69h389q84 0 84 -69q-4 -25 -17 -36t-44 -30l-27 -12q-18 -8 -28 -20q-10 -11 -15.5 -25.5t-8.5 -30.5
t-7 -37l-205 -958q-4 -15 -4 -39q0 -46 33 -61t100 -15q172 0 213 29q36 26 55 127l197 917q10 34 10 62q0 35 -24 51l-19 12q-21 16 -29 27t-8 39q16 69 117 69h389q84 0 84 -69q-4 -24 -17 -35.5t-44 -30.5l-27 -12q-32 -15 -40.5 -37.5t-18.5 -75.5l-209 -979
q-6 -30 -6 -51q0 -35 13.5 -48t41.5 -21q20 -7 27 -37q4 -29 4 -54q0 -82 -15 -141q-6 -36 -31.5 -57t-62.5 -21q-30 0 -52.5 28t-47 61t-70 56.5t-125.5 23.5h-1636z" />
    <glyph glyph-name="Ydieresis" unicode="&#x429;" horiz-adv-x="2212" 
d="M68 -1q-87 0 -87 71q9 40 64 65l24 13q34 15 43 37.5t19 74.5l209 979q0 2 6 27t6 39q0 34 -27 47l-18 12q-21 16 -29 27.5t-8 38.5q16 69 117 69h389q84 0 84 -69q-4 -24 -16.5 -35t-45.5 -31l-26 -12q-18 -9 -29 -23.5t-16 -29t-9.5 -36t-5.5 -24.5l-196 -917
q-4 -19 -6.5 -31t-4 -26t-1.5 -23q0 -30 14 -47q29 -29 181 -29q88 0 136 22.5t62 92.5l205 958q0 2 6 28t6 38q0 31 -27 47l-18 12q-21 16 -29 27t-8 39q16 69 117 69h389q84 0 84 -69q-4 -25 -17 -36t-44 -30l-27 -12q-18 -8 -28 -20q-10 -11 -15.5 -25.5t-8.5 -30.5
t-7 -37l-205 -958q-4 -15 -4 -39q0 -46 33 -61t100 -15q172 0 213 29q36 26 55 127l197 917q10 34 10 62q0 35 -24 51l-19 12q-21 16 -29 27t-8 39q16 69 117 69h389q84 0 84 -69q-4 -24 -17 -35.5t-44 -30.5l-27 -12q-32 -15 -40.5 -37.5t-18.5 -75.5l-209 -979
q-6 -30 -6 -51q0 -35 13.5 -48t41.5 -21q20 -7 27 -37q4 -29 4 -54q0 -82 -15 -141q-6 -36 -31.5 -57t-62.5 -21q-30 0 -52.5 28t-47 61t-70 56.5t-125.5 23.5h-1636z" />
    <glyph glyph-name="fraction" unicode="&#xda;" horiz-adv-x="1721" 
d="M596 1347q-101 0 -154 -31q-52 -31 -110 -84.5t-94 -53.5q-62 0 -62 78q2 6 12 29.5t13 35.5q9 38 36 94t50 72q22 12 96 12t190 -1t134 -1h403q48 0 77.5 -11t29.5 -52q-6 -28 -20.5 -41.5t-45.5 -26.5q-62 -21 -90 -57q-18 -21 -27 -68l-65 -309q342 -16 526 -117
q101 -54 162 -138q61 -83 61 -191q0 -40 -8 -80q-48 -227 -284 -336q-155 -72 -404 -72h-633q-86 0 -86 70q6 25 20.5 37.5t43.5 27.5l24 13q32 14 40 34.5t22 77.5l207 979q12 61 12 70q0 26 -16 34q-15 6 -60 6zM834 297q-13 -51 -13 -71q0 -30 17 -50q27 -34 123 -34
q131 0 228 73t124 203q6 34 6 64q0 132 -112.5 201t-272.5 91z" />
    <glyph glyph-name="fraction" unicode="&#x42a;" horiz-adv-x="1721" 
d="M596 1347q-101 0 -154 -31q-52 -31 -110 -84.5t-94 -53.5q-62 0 -62 78q2 6 12 29.5t13 35.5q9 38 36 94t50 72q22 12 96 12t190 -1t134 -1h403q48 0 77.5 -11t29.5 -52q-6 -28 -20.5 -41.5t-45.5 -26.5q-62 -21 -90 -57q-18 -21 -27 -68l-65 -309q342 -16 526 -117
q101 -54 162 -138q61 -83 61 -191q0 -40 -8 -80q-48 -227 -284 -336q-155 -72 -404 -72h-633q-86 0 -86 70q6 25 20.5 37.5t43.5 27.5l24 13q32 14 40 34.5t22 77.5l207 979q12 61 12 70q0 26 -16 34q-15 6 -60 6zM834 297q-13 -51 -13 -71q0 -30 17 -50q27 -34 123 -34
q131 0 228 73t124 203q6 34 6 64q0 132 -112.5 201t-272.5 91z" />
    <glyph glyph-name="currency" unicode="&#xdb;" horiz-adv-x="2130" 
d="M641 932q343 -16 527 -117q101 -54 161 -138q61 -83 61 -191q0 -42 -8 -80q-49 -227 -284 -336q-155 -72 -403 -72h-633q-87 0 -87 70q6 25 21 37.5t43 27.5l25 13q32 15 40.5 36.5t20.5 75.5l207 979q12 45 12 68q0 32 -24 45l-21 12q-20 17 -27.5 28t-7.5 38
q16 69 115 69h383q65 0 96 -11.5t31 -51.5q-5 -27 -20 -41.5t-45 -26.5q-36 -11 -55.5 -21.5t-35.5 -35.5q-18 -34 -26 -68zM1751 1239q1 2 7 27t6 39q0 34 -27 47l-18 12q-21 16 -29 27t-8 39q15 69 116 69h390q83 0 83 -69q-4 -24 -16 -36q-13 -11 -45 -30l-27 -12
q-31 -14 -40 -37t-19 -76l-209 -979q-2 -12 -7 -33.5t-5 -33.5q0 -32 24 -45l21 -13q35 -26 35 -65q-16 -70 -115 -70h-389q-86 0 -86 70q6 25 19.5 37t43.5 28l25 13q33 15 42.5 37.5t18.5 74.5zM506 297q-12 -47 -12 -71q0 -31 16 -50q28 -34 123 -34q131 0 228 73
q97 74 124 203q6 34 6 64q0 132 -112.5 201t-272.5 91z" />
    <glyph glyph-name="currency" unicode="&#x42b;" horiz-adv-x="2130" 
d="M641 932q343 -16 527 -117q101 -54 161 -138q61 -83 61 -191q0 -42 -8 -80q-49 -227 -284 -336q-155 -72 -403 -72h-633q-87 0 -87 70q6 25 21 37.5t43 27.5l25 13q32 15 40.5 36.5t20.5 75.5l207 979q12 45 12 68q0 32 -24 45l-21 12q-20 17 -27.5 28t-7.5 38
q16 69 115 69h383q65 0 96 -11.5t31 -51.5q-5 -27 -20 -41.5t-45 -26.5q-36 -11 -55.5 -21.5t-35.5 -35.5q-18 -34 -26 -68zM1751 1239q1 2 7 27t6 39q0 34 -27 47l-18 12q-21 16 -29 27t-8 39q15 69 116 69h390q83 0 83 -69q-4 -24 -16 -36q-13 -11 -45 -30l-27 -12
q-31 -14 -40 -37t-19 -76l-209 -979q-2 -12 -7 -33.5t-5 -33.5q0 -32 24 -45l21 -13q35 -26 35 -65q-16 -70 -115 -70h-389q-86 0 -86 70q6 25 19.5 37t43.5 28l25 13q33 15 42.5 37.5t18.5 74.5zM506 297q-12 -47 -12 -71q0 -31 16 -50q28 -34 123 -34q131 0 228 73
q97 74 124 203q6 34 6 64q0 132 -112.5 201t-272.5 91z" />
    <glyph glyph-name="guilsinglleft" unicode="&#xdc;" 
d="M641 932q343 -16 527 -117q101 -54 161 -138q61 -83 61 -191q0 -42 -8 -80q-49 -227 -284 -336q-155 -72 -403 -72h-633q-87 0 -87 70q6 25 21 37.5t43 27.5l25 13q32 15 40.5 36.5t20.5 75.5l207 979q12 45 12 68q0 32 -24 45l-21 12q-20 17 -27.5 28t-7.5 38
q16 69 115 69h383q65 0 96 -11.5t31 -51.5q-5 -27 -20 -41.5t-45 -26.5q-36 -11 -55.5 -21.5t-35.5 -35.5q-18 -34 -26 -68zM506 297q-12 -47 -12 -71q0 -31 16 -50q28 -34 123 -34q131 0 228 73q97 74 124 203q6 34 6 64q0 132 -112.5 201t-272.5 91z" />
    <glyph glyph-name="guilsinglleft" unicode="&#x42c;" 
d="M641 932q343 -16 527 -117q101 -54 161 -138q61 -83 61 -191q0 -42 -8 -80q-49 -227 -284 -336q-155 -72 -403 -72h-633q-87 0 -87 70q6 25 21 37.5t43 27.5l25 13q32 15 40.5 36.5t20.5 75.5l207 979q12 45 12 68q0 32 -24 45l-21 12q-20 17 -27.5 28t-7.5 38
q16 69 115 69h383q65 0 96 -11.5t31 -51.5q-5 -27 -20 -41.5t-45 -26.5q-36 -11 -55.5 -21.5t-35.5 -35.5q-18 -34 -26 -68zM506 297q-12 -47 -12 -71q0 -31 16 -50q28 -34 123 -34q131 0 228 73q97 74 124 203q6 34 6 64q0 132 -112.5 201t-272.5 91z" />
    <glyph glyph-name="guilsinglright" unicode="&#xdd;" horiz-adv-x="1557" 
d="M1190 891q2 21 2 64q0 133 -47 231q-43 92 -124 144q-82 50 -189 50q-124 0 -240 -78q-52 -33 -84.5 -70.5t-79.5 -104.5q-33 -49 -60 -77q-26 -28 -63 -28q-69 0 -69 80q40 174 67 225q20 37 82 68q109 65 243.5 100t260.5 35q147 0 273 -47.5t220 -133.5t146.5 -205
t52.5 -259q0 -80 -18 -162q-36 -167 -128.5 -306t-227 -240t-292.5 -154.5t-319 -53.5q-234 0 -389 107q-61 43 -110.5 106.5t-49.5 141.5q7 30 31.5 51t54.5 21q18 0 34.5 -9t27.5 -21q12 -12 24 -29t21 -28q56 -74 141 -116.5t180 -42.5q78 0 153.5 21.5t143.5 66
t121 110.5q65 80 116 186t73 203h-600q-38 0 -58 18.5t-20 45.5q0 35 29 62.5t79 27.5h592z" />
    <glyph glyph-name="guilsinglright" unicode="&#x42d;" horiz-adv-x="1557" 
d="M1190 891q2 21 2 64q0 133 -47 231q-43 92 -124 144q-82 50 -189 50q-124 0 -240 -78q-52 -33 -84.5 -70.5t-79.5 -104.5q-33 -49 -60 -77q-26 -28 -63 -28q-69 0 -69 80q40 174 67 225q20 37 82 68q109 65 243.5 100t260.5 35q147 0 273 -47.5t220 -133.5t146.5 -205
t52.5 -259q0 -80 -18 -162q-36 -167 -128.5 -306t-227 -240t-292.5 -154.5t-319 -53.5q-234 0 -389 107q-61 43 -110.5 106.5t-49.5 141.5q7 30 31.5 51t54.5 21q18 0 34.5 -9t27.5 -21q12 -12 24 -29t21 -28q56 -74 141 -116.5t180 -42.5q78 0 153.5 21.5t143.5 66
t121 110.5q65 80 116 186t73 203h-600q-38 0 -58 18.5t-20 45.5q0 35 29 62.5t79 27.5h592z" />
    <glyph glyph-name="fi" unicode="&#xde;" horiz-adv-x="2376" 
d="M763 735l-157 2l-102 -477q-12 -62 -12 -67q0 -32 24 -45l21 -13q35 -26 35 -65q-16 -71 -115 -71h-389q-87 0 -87 71q6 25 21 37q13 12 43 28l25 13q33 15 42.5 37.5t18.5 74.5l209 979q1 2 7 27t6 39q0 34 -27 47l-19 12q-21 16 -28.5 27.5t-7.5 38.5q15 69 116 69h389
q85 0 85 -69q-4 -24 -16.5 -35t-45.5 -31l-26 -12q-18 -8 -28 -20q-10 -11 -16 -25q-5 -15 -8.5 -31t-7.5 -37l-76 -348h168q55 141 151 259q96 119 221.5 204t268.5 131q144 45 293 45q146 0 270.5 -42.5t213.5 -122.5q89 -79 138 -192t49 -249q0 -82 -18 -170
q-35 -168 -130.5 -312.5t-232.5 -250.5t-299.5 -164t-328.5 -58q-155 0 -294 58q-140 59 -228 164q-133 164 -133 385q0 87 17 159zM1991 746q24 121 24 231q0 174 -70 286q-71 110 -235 110q-110 0 -206 -60t-175 -166q-112 -154 -161 -387q-25 -121 -25 -231
q0 -112 28 -202.5t95.5 -146t175.5 -55.5q117 0 211.5 57t161.5 149q68 92 111 201t65 214z" />
    <glyph glyph-name="fi" unicode="&#x42e;" horiz-adv-x="2376" 
d="M763 735l-157 2l-102 -477q-12 -62 -12 -67q0 -32 24 -45l21 -13q35 -26 35 -65q-16 -71 -115 -71h-389q-87 0 -87 71q6 25 21 37q13 12 43 28l25 13q33 15 42.5 37.5t18.5 74.5l209 979q1 2 7 27t6 39q0 34 -27 47l-19 12q-21 16 -28.5 27.5t-7.5 38.5q15 69 116 69h389
q85 0 85 -69q-4 -24 -16.5 -35t-45.5 -31l-26 -12q-18 -8 -28 -20q-10 -11 -16 -25q-5 -15 -8.5 -31t-7.5 -37l-76 -348h168q55 141 151 259q96 119 221.5 204t268.5 131q144 45 293 45q146 0 270.5 -42.5t213.5 -122.5q89 -79 138 -192t49 -249q0 -82 -18 -170
q-35 -168 -130.5 -312.5t-232.5 -250.5t-299.5 -164t-328.5 -58q-155 0 -294 58q-140 59 -228 164q-133 164 -133 385q0 87 17 159zM1991 746q24 121 24 231q0 174 -70 286q-71 110 -235 110q-110 0 -206 -60t-175 -166q-112 -154 -161 -387q-25 -121 -25 -231
q0 -112 28 -202.5t95.5 -146t175.5 -55.5q117 0 211.5 57t161.5 149q68 92 111 201t65 214z" />
    <glyph glyph-name="fl" unicode="&#xdf;" horiz-adv-x="1516" 
d="M1037 625l-197 33q-55 -51 -135 -146.5t-144 -188.5q-63 -94 -74 -143q0 -17 7 -27q7 -9 23 -25q17 -16 25 -28q9 -13 9 -32q-9 -44 -45.5 -56t-91.5 -12h-401q-95 0 -95 60q6 25 18 34q12 10 45 27q47 23 67 45.5t59 79.5q194 329 388 500q-233 120 -233 321q0 41 9 76
q20 97 89 177q68 81 165 124q119 55 352 55l727 -2q86 0 86 -69q-8 -36 -64 -66l-24 -12q-18 -8 -28 -20q-10 -11 -16 -25t-9 -31q-4 -16 -9 -37l-207 -977q-3 -15 -5.5 -26.5t-4.5 -23t-2 -17.5q0 -32 25 -45l20 -13q35 -26 35 -65q-16 -70 -115 -70h-391q-86 0 -86 70
q6 25 20 37.5t44 27.5l24 13q34 15 43 37.5t19 74.5zM1155 1178q13 51 13 82q0 36 -15 53q-28 40 -143 40q-130 0 -226 -61q-96 -63 -125 -190q-6 -30 -6 -57q0 -131 129 -195t289 -67z" />
    <glyph glyph-name="fl" unicode="&#x42f;" horiz-adv-x="1516" 
d="M1037 625l-197 33q-55 -51 -135 -146.5t-144 -188.5q-63 -94 -74 -143q0 -17 7 -27q7 -9 23 -25q17 -16 25 -28q9 -13 9 -32q-9 -44 -45.5 -56t-91.5 -12h-401q-95 0 -95 60q6 25 18 34q12 10 45 27q47 23 67 45.5t59 79.5q194 329 388 500q-233 120 -233 321q0 41 9 76
q20 97 89 177q68 81 165 124q119 55 352 55l727 -2q86 0 86 -69q-8 -36 -64 -66l-24 -12q-18 -8 -28 -20q-10 -11 -16 -25t-9 -31q-4 -16 -9 -37l-207 -977q-3 -15 -5.5 -26.5t-4.5 -23t-2 -17.5q0 -32 25 -45l20 -13q35 -26 35 -65q-16 -70 -115 -70h-391q-86 0 -86 70
q6 25 20 37.5t44 27.5l24 13q34 15 43 37.5t19 74.5zM1155 1178q13 51 13 82q0 36 -15 53q-28 40 -143 40q-130 0 -226 -61q-96 -63 -125 -190q-6 -30 -6 -57q0 -131 129 -195t289 -67z" />
    <glyph glyph-name="daggerdbl" unicode="&#xe0;" horiz-adv-x="1188" 
d="M1034 281q-14 -86 -14 -113q7 -24 37 -39q39 -21 39 -63q-9 -43 -41 -54q-32 -13 -84 -13h-205q-54 0 -72 13.5t-18 47.5q0 24 6 67q-129 -158 -350 -158q-134 0 -221 65q-88 63 -88 181q0 39 8 72q22 103 94 174.5t171 112.5t204.5 58t200.5 17h69q8 34 8 68
q0 148 -151 148q-42 0 -73.5 -16.5t-75.5 -49.5t-77 -49.5t-75 -16.5q-107 0 -107 99q20 93 175 131.5t286 38.5q209 0 326 -76q110 -73 110 -211q0 -52 -12 -111zM717 520q-120 0 -218.5 -59.5t-123.5 -175.5q-6 -20 -6 -43q0 -45 26.5 -75t75.5 -30q95 0 178 99
q42 49 59 95.5t32 123.5l14 65h-37z" />
    <glyph glyph-name="daggerdbl" unicode="&#x430;" horiz-adv-x="1188" 
d="M1034 281q-14 -86 -14 -113q7 -24 37 -39q39 -21 39 -63q-9 -43 -41 -54q-32 -13 -84 -13h-205q-54 0 -72 13.5t-18 47.5q0 24 6 67q-129 -158 -350 -158q-134 0 -221 65q-88 63 -88 181q0 39 8 72q22 103 94 174.5t171 112.5t204.5 58t200.5 17h69q8 34 8 68
q0 148 -151 148q-42 0 -73.5 -16.5t-75.5 -49.5t-77 -49.5t-75 -16.5q-107 0 -107 99q20 93 175 131.5t286 38.5q209 0 326 -76q110 -73 110 -211q0 -52 -12 -111zM717 520q-120 0 -218.5 -59.5t-123.5 -175.5q-6 -20 -6 -43q0 -45 26.5 -75t75.5 -30q95 0 178 99
q42 49 59 95.5t32 123.5l14 65h-37z" />
    <glyph glyph-name="periodcentered" unicode="&#xe1;" horiz-adv-x="1270" 
d="M289 824q112 86 246.5 132t247.5 46q96 0 180.5 -28.5t150 -82.5t102 -130t36.5 -169q0 -57 -10 -100q-33 -154 -141 -273.5t-256.5 -184t-299.5 -64.5q-242 0 -371 127q-96 95 -96 282q0 123 35 287q112 525 432 702q89 49 148.5 64t207.5 47t209 63q55 27 74.5 48
t39.5 50t42 42q14 8 31 8q33 0 47 -39q6 -18 6 -41q0 -58 -33 -141q-38 -104 -136.5 -173.5t-218.5 -88.5l-309 -66q-76 -15 -156 -66t-137 -119.5t-71 -131.5zM892 504q16 71 16 137q0 94 -39.5 153.5t-128.5 59.5q-127 0 -204 -109.5t-108 -250.5q-21 -105 -21 -168
q0 -215 169 -215q234 0 316 393z" />
    <glyph glyph-name="periodcentered" unicode="&#x431;" horiz-adv-x="1270" 
d="M289 824q112 86 246.5 132t247.5 46q96 0 180.5 -28.5t150 -82.5t102 -130t36.5 -169q0 -57 -10 -100q-33 -154 -141 -273.5t-256.5 -184t-299.5 -64.5q-242 0 -371 127q-96 95 -96 282q0 123 35 287q112 525 432 702q89 49 148.5 64t207.5 47t209 63q55 27 74.5 48
t39.5 50t42 42q14 8 31 8q33 0 47 -39q6 -18 6 -41q0 -58 -33 -141q-38 -104 -136.5 -173.5t-218.5 -88.5l-309 -66q-76 -15 -156 -66t-137 -119.5t-71 -131.5zM892 504q16 71 16 137q0 94 -39.5 153.5t-128.5 59.5q-127 0 -204 -109.5t-108 -250.5q-21 -105 -21 -168
q0 -215 169 -215q234 0 316 393z" />
    <glyph glyph-name="quotesinglbase" unicode="&#xe2;" horiz-adv-x="1188" 
d="M-10 68q4 23 30 39t49 32t30 48l131 612q0 25 -8 39t-24 29t-22 24t-6 27q15 67 99 67h612q145 0 213 -41q65 -43 65 -129q0 -27 -6 -61q-13 -65 -83 -122t-144 -85q83 -28 143 -85t60 -134q0 -11 -4 -39q-31 -146 -146 -219q-113 -70 -274 -70h-645q-70 0 -70 68z
M527 137q94 0 166 42q73 41 90 120q0 121 -99 152l-202 -41l-43 -199q0 -41 20 -57.5t68 -16.5zM815 748q0 104 -139 104q-101 0 -117 -71l-49 -236q274 65 305 203z" />
    <glyph glyph-name="quotesinglbase" unicode="&#x432;" horiz-adv-x="1188" 
d="M-10 68q4 23 30 39t49 32t30 48l131 612q0 25 -8 39t-24 29t-22 24t-6 27q15 67 99 67h612q145 0 213 -41q65 -43 65 -129q0 -27 -6 -61q-13 -65 -83 -122t-144 -85q83 -28 143 -85t60 -134q0 -11 -4 -39q-31 -146 -146 -219q-113 -70 -274 -70h-645q-70 0 -70 68z
M527 137q94 0 166 42q73 41 90 120q0 121 -99 152l-202 -41l-43 -199q0 -41 20 -57.5t68 -16.5zM815 748q0 104 -139 104q-101 0 -117 -71l-49 -236q274 65 305 203z" />
    <glyph glyph-name="quotedblbase" unicode="&#xe3;" horiz-adv-x="942" 
d="M435 137q15 -7 37 -25t22 -44q-14 -68 -105 -68h-325q-76 0 -76 68q5 23 36 42t50 27l3 3q13 9 32 88l113 530q10 53 10 70q0 9 -4 18l-2 2q-14 7 -36 26q-21 18 -21 44q13 67 104 67h643q69 0 101 -14h-2q28 -23 28 -78q0 -34 -8 -65q-2 -8 -5 -23q-2 -15 -10 -32
t-24 -28.5t-41 -11.5q-18 0 -29.5 5.5t-22 15.5t-20.5 20q-48 43 -86 59.5t-111 16.5q-59 0 -82 -6.5t-32.5 -28t-22.5 -84.5l-106 -503q-4 -17 -6 -45.5t-2 -45.5z" />
    <glyph glyph-name="quotedblbase" unicode="&#x433;" horiz-adv-x="942" 
d="M435 137q15 -7 37 -25t22 -44q-14 -68 -105 -68h-325q-76 0 -76 68q5 23 36 42t50 27l3 3q13 9 32 88l113 530q10 53 10 70q0 9 -4 18l-2 2q-14 7 -36 26q-21 18 -21 44q13 67 104 67h643q69 0 101 -14h-2q28 -23 28 -78q0 -34 -8 -65q-2 -8 -5 -23q-2 -15 -10 -32
t-24 -28.5t-41 -11.5q-18 0 -29.5 5.5t-22 15.5t-20.5 20q-48 43 -86 59.5t-111 16.5q-59 0 -82 -6.5t-32.5 -28t-22.5 -84.5l-106 -503q-4 -17 -6 -45.5t-2 -45.5z" />
    <glyph glyph-name="perthousand" unicode="&#xe4;" horiz-adv-x="1147" 
d="M31 197q137 267 320 530q39 55 39 86q0 18 -18.5 45.5t-18.5 59.5q15 67 114 67h660q75 0 75 -67q-5 -24 -30 -40.5t-48.5 -32.5t-29.5 -46l-131 -612q0 -27 8 -38q9 -12 27 -27.5t22 -29.5q4 -32 4 -49q-4 -58 -6 -76q-6 -30 -33.5 -52t-58.5 -22q-36 7 -65 41.5t-50 50
t-82 15.5h-542q-61 0 -87.5 -15t-71 -50t-84.5 -42q-58 0 -58 74q3 15 14 41q9 27 17 53q9 25 21 43t34 27l16 9q21 13 25 20q5 6 18 37zM633 208l125 581q0 55 -61 55h-41q-44 0 -76 -35q-105 -126 -226 -325t-140 -287q0 -53 52 -53h263q91 0 104 64z" />
    <glyph glyph-name="perthousand" unicode="&#x434;" horiz-adv-x="1147" 
d="M31 197q137 267 320 530q39 55 39 86q0 18 -18.5 45.5t-18.5 59.5q15 67 114 67h660q75 0 75 -67q-5 -24 -30 -40.5t-48.5 -32.5t-29.5 -46l-131 -612q0 -27 8 -38q9 -12 27 -27.5t22 -29.5q4 -32 4 -49q-4 -58 -6 -76q-6 -30 -33.5 -52t-58.5 -22q-36 7 -65 41.5t-50 50
t-82 15.5h-542q-61 0 -87.5 -15t-71 -50t-84.5 -42q-58 0 -58 74q3 15 14 41q9 27 17 53q9 25 21 43t34 27l16 9q21 13 25 20q5 6 18 37zM633 208l125 581q0 55 -61 55h-41q-44 0 -76 -35q-105 -126 -226 -325t-140 -287q0 -53 52 -53h263q91 0 104 64z" />
    <glyph glyph-name="Acircumflex" unicode="&#xe5;" horiz-adv-x="1147" 
d="M627 133q138 0 303 123q37 28 51 36.5t41 8.5q21 0 35 -15t14 -40q-10 -49 -77 -103.5t-129 -86.5q-164 -87 -359 -87q-93 0 -176 26q-83 27 -147.5 78.5t-100 123.5t-35.5 160q0 43 11 96q35 165 147 290t268 193q156 66 318 66q90 0 173 -25q82 -27 135.5 -82
t53.5 -137q0 -27 -6 -55q-22 -103 -119.5 -172t-220.5 -107q-57 -17 -123 -29.5t-148.5 -24t-125.5 -17.5q0 -98 59 -159t158 -61zM832 725q4 29 4 39q0 94 -98 94q-80 0 -149 -59t-113 -145t-56 -164q85 6 171.5 30.5t155.5 75.5t85 129z" />
    <glyph glyph-name="Acircumflex" unicode="&#x435;" horiz-adv-x="1147" 
d="M627 133q138 0 303 123q37 28 51 36.5t41 8.5q21 0 35 -15t14 -40q-10 -49 -77 -103.5t-129 -86.5q-164 -87 -359 -87q-93 0 -176 26q-83 27 -147.5 78.5t-100 123.5t-35.5 160q0 43 11 96q35 165 147 290t268 193q156 66 318 66q90 0 173 -25q82 -27 135.5 -82
t53.5 -137q0 -27 -6 -55q-22 -103 -119.5 -172t-220.5 -107q-57 -17 -123 -29.5t-148.5 -24t-125.5 -17.5q0 -98 59 -159t158 -61zM832 725q4 29 4 39q0 94 -98 94q-80 0 -149 -59t-113 -145t-56 -164q85 6 171.5 30.5t155.5 75.5t85 129z" />
    <glyph glyph-name="Ecircumflex" unicode="&#xe6;" horiz-adv-x="1762" 
d="M625 0q-63 0 -63 64q4 30 47 53q39 25 47 35q11 19 31 108l33 156l-42 27q-56 -38 -152.5 -142.5t-104.5 -148.5q0 -12 8 -23t16 -19.5t13 -18.5q6 -10 6 -25q-15 -66 -118 -66h-338q-79 0 -79 68q5 25 19 37q14 13 42 26q39 21 70 66q66 85 130 157.5t137.5 141.5
t144.5 123l-21 22l-90 101q-70 86 -98 104q-36 26 -47 38q-10 11 -10 42q7 36 32.5 47.5t75.5 11.5h65h209q41 0 41 -59q-6 -33 -59 -57q-31 -16 -33 -35q0 -62 78.5 -157t134.5 -118l35 166q17 77 17 109q-5 11 -33 35q-25 17 -25 53q13 63 90 63h346q65 0 65 -63
q-7 -31 -49 -53q-37 -24 -45 -35q-11 -18 -33 -109l-34 -166q43 15 120 68t140 113t71 94q0 21 -20 35q-35 17 -35 57q5 25 23.5 42t42.5 17h209h67q44 0 63 -10.5t19 -48.5q-4 -20 -17.5 -34t-33.5 -25t-39 -21q-45 -21 -143 -104l-131 -101l-33 -22q76 -84 132 -191
t99 -231q14 -44 45 -66q33 -23 33 -63q-16 -68 -109 -68h-337q-41 0 -65 12.5t-24 53.5q5 20 23 32q17 13 36 25q18 13 21 29q0 58 -48 156t-87 135l-53 -27l-33 -156q-14 -81 -14 -108q3 -12 31 -35q26 -18 26 -53q-7 -33 -34 -48.5t-58 -15.5h-346z" />
    <glyph glyph-name="Ecircumflex" unicode="&#x436;" horiz-adv-x="1762" 
d="M625 0q-63 0 -63 64q4 30 47 53q39 25 47 35q11 19 31 108l33 156l-42 27q-56 -38 -152.5 -142.5t-104.5 -148.5q0 -12 8 -23t16 -19.5t13 -18.5q6 -10 6 -25q-15 -66 -118 -66h-338q-79 0 -79 68q5 25 19 37q14 13 42 26q39 21 70 66q66 85 130 157.5t137.5 141.5
t144.5 123l-21 22l-90 101q-70 86 -98 104q-36 26 -47 38q-10 11 -10 42q7 36 32.5 47.5t75.5 11.5h65h209q41 0 41 -59q-6 -33 -59 -57q-31 -16 -33 -35q0 -62 78.5 -157t134.5 -118l35 166q17 77 17 109q-5 11 -33 35q-25 17 -25 53q13 63 90 63h346q65 0 65 -63
q-7 -31 -49 -53q-37 -24 -45 -35q-11 -18 -33 -109l-34 -166q43 15 120 68t140 113t71 94q0 21 -20 35q-35 17 -35 57q5 25 23.5 42t42.5 17h209h67q44 0 63 -10.5t19 -48.5q-4 -20 -17.5 -34t-33.5 -25t-39 -21q-45 -21 -143 -104l-131 -101l-33 -22q76 -84 132 -191
t99 -231q14 -44 45 -66q33 -23 33 -63q-16 -68 -109 -68h-337q-41 0 -65 12.5t-24 53.5q5 20 23 32q17 13 36 25q18 13 21 29q0 58 -48 156t-87 135l-53 -27l-33 -156q-14 -81 -14 -108q3 -12 31 -35q26 -18 26 -53q-7 -33 -34 -48.5t-58 -15.5h-346z" />
    <glyph glyph-name="Aacute" unicode="&#xe7;" horiz-adv-x="1024" 
d="M981 291q-17 -82 -97 -154.5t-203 -116.5q-124 -43 -265 -43q-147 0 -244 35.5t-142 92.5q-45 58 -45 125q9 38 41 67q30 29 71 29q57 0 83 -57q30 -67 101 -104q72 -38 153 -38q76 0 140 47q65 46 80 113q4 14 4 43q0 122 -170 122h-125q-82 0 -82 62q0 35 30 62.5
t80 27.5h129q70 0 119.5 35t61.5 94q4 21 4 31q0 47 -32 74q-31 27 -87 27q-90 0 -138 -28.5t-115.5 -86t-111.5 -66.5q-53 0 -57 76q0 69 33 117q28 40 63 59q94 44 181 57q87 11 198 11q106 0 199 -27.5t148 -79.5t55 -121q0 -12 -4 -36q-33 -155 -231 -197
q181 -41 181 -190q0 -28 -6 -62z" />
    <glyph glyph-name="Aacute" unicode="&#x437;" horiz-adv-x="1024" 
d="M981 291q-17 -82 -97 -154.5t-203 -116.5q-124 -43 -265 -43q-147 0 -244 35.5t-142 92.5q-45 58 -45 125q9 38 41 67q30 29 71 29q57 0 83 -57q30 -67 101 -104q72 -38 153 -38q76 0 140 47q65 46 80 113q4 14 4 43q0 122 -170 122h-125q-82 0 -82 62q0 35 30 62.5
t80 27.5h129q70 0 119.5 35t61.5 94q4 21 4 31q0 47 -32 74q-31 27 -87 27q-90 0 -138 -28.5t-115.5 -86t-111.5 -66.5q-53 0 -57 76q0 69 33 117q28 40 63 59q94 44 181 57q87 11 198 11q106 0 199 -27.5t148 -79.5t55 -121q0 -12 -4 -36q-33 -155 -231 -197
q181 -41 181 -190q0 -28 -6 -62z" />
    <glyph glyph-name="Edieresis" unicode="&#xe8;" horiz-adv-x="1270" 
d="M213 725q17 73 17 109q-5 11 -33 35q-25 17 -25 53q14 63 90 63h347q65 0 65 -63q-7 -31 -49 -53q-38 -25 -45 -35q-13 -20 -33 -109l-61 -289l387 320q10 45 10 78q-5 10 -33 35q-24 17 -24 53q13 63 90 63h346q65 0 65 -63q-7 -31 -49 -53q-37 -24 -45 -35
q-10 -17 -33 -109l-98 -465q-14 -66 -14 -108q3 -11 30 -35q27 -18 27 -53q-14 -64 -92 -64h-346q-64 0 -64 64q5 30 47 53q39 24 48 35q10 19 30 108l64 299l-387 -319q-11 -54 -11 -88q4 -12 31 -35q27 -17 27 -53q-14 -64 -92 -64h-347q-63 0 -63 64q4 30 47 53
q39 25 47 35q10 18 31 108z" />
    <glyph glyph-name="Edieresis" unicode="&#x438;" horiz-adv-x="1270" 
d="M213 725q17 73 17 109q-5 11 -33 35q-25 17 -25 53q14 63 90 63h347q65 0 65 -63q-7 -31 -49 -53q-38 -25 -45 -35q-13 -20 -33 -109l-61 -289l387 320q10 45 10 78q-5 10 -33 35q-24 17 -24 53q13 63 90 63h346q65 0 65 -63q-7 -31 -49 -53q-37 -24 -45 -35
q-10 -17 -33 -109l-98 -465q-14 -66 -14 -108q3 -11 30 -35q27 -18 27 -53q-14 -64 -92 -64h-346q-64 0 -64 64q5 30 47 53q39 24 48 35q10 19 30 108l64 299l-387 -319q-11 -54 -11 -88q4 -12 31 -35q27 -17 27 -53q-14 -64 -92 -64h-347q-63 0 -63 64q4 30 47 53
q39 25 47 35q10 18 31 108z" />
    <glyph glyph-name="Egrave" unicode="&#xe9;" horiz-adv-x="1270" 
d="M213 725q17 73 17 109q-5 11 -33 35q-25 17 -25 53q14 63 90 63h347q65 0 65 -63q-7 -31 -49 -53q-38 -25 -45 -35q-13 -20 -33 -109l-61 -289l387 320q10 45 10 78q-5 10 -33 35q-24 17 -24 53q13 63 90 63h346q65 0 65 -63q-7 -31 -49 -53q-37 -24 -45 -35
q-10 -17 -33 -109l-98 -465q-14 -66 -14 -108q3 -11 30 -35q27 -18 27 -53q-14 -64 -92 -64h-346q-64 0 -64 64q5 30 47 53q39 24 48 35q10 19 30 108l64 299l-387 -319q-11 -54 -11 -88q4 -12 31 -35q27 -17 27 -53q-14 -64 -92 -64h-347q-63 0 -63 64q4 30 47 53
q39 25 47 35q10 18 31 108zM1231 1426q-17 -80 -117 -170q-134 -124 -317 -124q-143 0 -234 91q-79 79 -79 172q0 10 4 35q13 57 55 57q21 0 38.5 -28.5t46.5 -72.5q29 -43 77.5 -70.5t132.5 -27.5q73 0 149 34t129 93q9 10 19 21q10 12 20 20q10 9 22 15t25 6q29 0 29 -51z
" />
    <glyph glyph-name="Egrave" unicode="&#x439;" horiz-adv-x="1270" 
d="M213 725q17 73 17 109q-5 11 -33 35q-25 17 -25 53q14 63 90 63h347q65 0 65 -63q-7 -31 -49 -53q-38 -25 -45 -35q-13 -20 -33 -109l-61 -289l387 320q10 45 10 78q-5 10 -33 35q-24 17 -24 53q13 63 90 63h346q65 0 65 -63q-7 -31 -49 -53q-37 -24 -45 -35
q-10 -17 -33 -109l-98 -465q-14 -66 -14 -108q3 -11 30 -35q27 -18 27 -53q-14 -64 -92 -64h-346q-64 0 -64 64q5 30 47 53q39 24 48 35q10 19 30 108l64 299l-387 -319q-11 -54 -11 -88q4 -12 31 -35q27 -17 27 -53q-14 -64 -92 -64h-347q-63 0 -63 64q4 30 47 53
q39 25 47 35q10 18 31 108zM1231 1426q-17 -80 -117 -170q-134 -124 -317 -124q-143 0 -234 91q-79 79 -79 172q0 10 4 35q13 57 55 57q21 0 38.5 -28.5t46.5 -72.5q29 -43 77.5 -70.5t132.5 -27.5q73 0 149 34t129 93q9 10 19 21q10 12 20 20q10 9 22 15t25 6q29 0 29 -51z
" />
    <glyph glyph-name="Iacute" unicode="&#xea;" horiz-adv-x="1229" 
d="M547 725l-35 -166q45 15 133 69.5t159.5 113t79.5 92.5q0 21 -20 35q-35 17 -35 57q5 24 24 41.5t42 17.5h209h45q47 0 75.5 -11.5t28.5 -47.5q-3 -15 -11.5 -26.5t-19.5 -19.5q-10 -7 -25 -15.5t-34 -18.5q-42 -20 -143 -104l-131 -101l-33 -22q76 -84 132 -191t99 -231
q14 -44 45 -66q33 -23 33 -63q-15 -68 -108 -68h-338q-40 0 -64 12.5t-24 53.5q4 19 21.5 32t36.5 25q18 13 21 29q0 38 -25 102.5t-60 124t-57 80.5l-86 -43l-33 -156q-15 -81 -15 -108q4 -12 31 -35q27 -17 27 -53q-14 -64 -92 -64h-347q-63 0 -63 64q4 30 47 53
q39 25 47 35q10 18 31 108l98 465q17 85 17 109q-5 11 -33 35q-25 17 -25 53q14 63 90 63h347q65 0 65 -63q-8 -31 -50 -53q-37 -25 -45 -35q-14 -22 -32 -109z" />
    <glyph glyph-name="Iacute" unicode="&#x43a;" horiz-adv-x="1229" 
d="M547 725l-35 -166q45 15 133 69.5t159.5 113t79.5 92.5q0 21 -20 35q-35 17 -35 57q5 24 24 41.5t42 17.5h209h45q47 0 75.5 -11.5t28.5 -47.5q-3 -15 -11.5 -26.5t-19.5 -19.5q-10 -7 -25 -15.5t-34 -18.5q-42 -20 -143 -104l-131 -101l-33 -22q76 -84 132 -191t99 -231
q14 -44 45 -66q33 -23 33 -63q-15 -68 -108 -68h-338q-40 0 -64 12.5t-24 53.5q4 19 21.5 32t36.5 25q18 13 21 29q0 38 -25 102.5t-60 124t-57 80.5l-86 -43l-33 -156q-15 -81 -15 -108q4 -12 31 -35q27 -17 27 -53q-14 -64 -92 -64h-347q-63 0 -63 64q4 30 47 53
q39 25 47 35q10 18 31 108l98 465q17 85 17 109q-5 11 -33 35q-25 17 -25 53q14 63 90 63h347q65 0 65 -63q-8 -31 -50 -53q-37 -25 -45 -35q-14 -22 -32 -109z" />
    <glyph glyph-name="Icircumflex" unicode="&#xeb;" horiz-adv-x="1147" 
d="M353 918q15 67 114 67h662q75 0 75 -67q-3 -18 -30 -36t-50.5 -36t-29.5 -47l-131 -612q0 -24 8 -39t23 -28.5t22.5 -24.5t7.5 -27q-14 -68 -104 -68h-330q-71 0 -71 68q5 22 31 39q27 17 50 34q24 16 29 46l129 602q0 55 -59 55h-43q-44 0 -76 -35q-105 -126 -226 -325
t-140 -287q0 -20 8 -31t24.5 -25t26.5 -31q10 -16 10 -46q-14 -40 -43.5 -52t-73.5 -12h-153q-86 0 -86 68q6 35 49 61q35 26 55 68q140 271 320 530q39 54 39 88q0 17 -18.5 44.5t-18.5 58.5z" />
    <glyph glyph-name="Icircumflex" unicode="&#x43b;" horiz-adv-x="1147" 
d="M353 918q15 67 114 67h662q75 0 75 -67q-3 -18 -30 -36t-50.5 -36t-29.5 -47l-131 -612q0 -24 8 -39t23 -28.5t22.5 -24.5t7.5 -27q-14 -68 -104 -68h-330q-71 0 -71 68q5 22 31 39q27 17 50 34q24 16 29 46l129 602q0 55 -59 55h-43q-44 0 -76 -35q-105 -126 -226 -325
t-140 -287q0 -20 8 -31t24.5 -25t26.5 -31q10 -16 10 -46q-14 -40 -43.5 -52t-73.5 -12h-153q-86 0 -86 68q6 35 49 61q35 26 55 68q140 271 320 530q39 54 39 88q0 17 -18.5 44.5t-18.5 58.5z" />
    <glyph glyph-name="Idieresis" unicode="&#xec;" horiz-adv-x="1434" 
d="M1147 985h293q57 0 57 -71q-5 -22 -32 -39q-27 -16 -52 -32q-26 -15 -30 -38l-133 -618q0 -22 7 -36q8 -14 22.5 -30t22 -27t7.5 -26q-14 -68 -98 -68h-338q-70 0 -70 68q5 20 32 38t51.5 35.5t29.5 45.5l92 434l-266 -404q-23 -37 -77 -65q-53 -29 -108 -29
q-98 0 -110 68l-92 430l-92 -436q0 -46 31 -56q36 -8 36 -65q-14 -64 -129 -64h-119q-102 0 -102 64q8 45 64 65q27 14 39 24.5t16 31.5l129 608q0 23 -9.5 36.5t-28 28.5t-27.5 27t-9 33q9 44 40 55.5t77 11.5h276q53 0 67.5 -26.5t24.5 -81.5l88 -418l293 444
q49 82 127 82z" />
    <glyph glyph-name="Idieresis" unicode="&#x43c;" horiz-adv-x="1434" 
d="M1147 985h293q57 0 57 -71q-5 -22 -32 -39q-27 -16 -52 -32q-26 -15 -30 -38l-133 -618q0 -22 7 -36q8 -14 22.5 -30t22 -27t7.5 -26q-14 -68 -98 -68h-338q-70 0 -70 68q5 20 32 38t51.5 35.5t29.5 45.5l92 434l-266 -404q-23 -37 -77 -65q-53 -29 -108 -29
q-98 0 -110 68l-92 430l-92 -436q0 -46 31 -56q36 -8 36 -65q-14 -64 -129 -64h-119q-102 0 -102 64q8 45 64 65q27 14 39 24.5t16 31.5l129 608q0 23 -9.5 36.5t-28 28.5t-27.5 27t-9 33q9 44 40 55.5t77 11.5h276q53 0 67.5 -26.5t24.5 -81.5l88 -418l293 444
q49 82 127 82z" />
    <glyph glyph-name="Igrave" unicode="&#xed;" horiz-adv-x="1270" 
d="M213 725q17 73 17 109q-5 11 -33 35q-25 17 -25 53q14 63 90 63h347q65 0 65 -63q-7 -31 -49 -53q-38 -25 -45 -35q-13 -20 -33 -109l-25 -121h320l25 121q16 71 16 109q-5 10 -33 35q-24 17 -24 53q13 63 90 63h346q65 0 65 -63q-7 -31 -49 -53q-37 -24 -45 -35
q-10 -17 -33 -109l-98 -465q-14 -66 -14 -108q3 -11 30 -35q27 -18 27 -53q-14 -64 -92 -64h-346q-64 0 -64 64q5 30 47 53q39 24 48 35q10 19 30 108l43 199h-319l-43 -199q-15 -81 -15 -108q4 -12 31 -35q27 -17 27 -53q-14 -64 -92 -64h-347q-63 0 -63 64q4 30 47 53
q39 25 47 35q10 18 31 108z" />
    <glyph glyph-name="Igrave" unicode="&#x43d;" horiz-adv-x="1270" 
d="M213 725q17 73 17 109q-5 11 -33 35q-25 17 -25 53q14 63 90 63h347q65 0 65 -63q-7 -31 -49 -53q-38 -25 -45 -35q-13 -20 -33 -109l-25 -121h320l25 121q16 71 16 109q-5 10 -33 35q-24 17 -24 53q13 63 90 63h346q65 0 65 -63q-7 -31 -49 -53q-37 -24 -45 -35
q-10 -17 -33 -109l-98 -465q-14 -66 -14 -108q3 -11 30 -35q27 -18 27 -53q-14 -64 -92 -64h-346q-64 0 -64 64q5 30 47 53q39 24 48 35q10 19 30 108l43 199h-319l-43 -199q-15 -81 -15 -108q4 -12 31 -35q27 -17 27 -53q-14 -64 -92 -64h-347q-63 0 -63 64q4 30 47 53
q39 25 47 35q10 18 31 108z" />
    <glyph glyph-name="Oacute" unicode="&#xee;" horiz-adv-x="1270" 
d="M174 97q-112 112 -112 280q0 52 12 105q23 104 90.5 201.5t163.5 170.5q197 148 455 148q96 0 180.5 -28.5t150 -82.5t102 -130t36.5 -169q0 -57 -10 -100q-33 -154 -141 -273.5t-256.5 -184t-299.5 -64.5q-242 0 -371 127zM892 504q16 71 16 137q0 94 -39.5 153.5
t-128.5 59.5q-127 0 -204 -109.5t-107 -250.5q-21 -105 -21 -168q0 -215 168 -215q234 0 316 393z" />
    <glyph glyph-name="Oacute" unicode="&#x43e;" horiz-adv-x="1270" 
d="M174 97q-112 112 -112 280q0 52 12 105q23 104 90.5 201.5t163.5 170.5q197 148 455 148q96 0 180.5 -28.5t150 -82.5t102 -130t36.5 -169q0 -57 -10 -100q-33 -154 -141 -273.5t-256.5 -184t-299.5 -64.5q-242 0 -371 127zM892 504q16 71 16 137q0 94 -39.5 153.5
t-128.5 59.5q-127 0 -204 -109.5t-107 -250.5q-21 -105 -21 -168q0 -215 168 -215q234 0 316 393z" />
    <glyph glyph-name="Ocircumflex" unicode="&#xef;" horiz-adv-x="1270" 
d="M1262 985q65 0 65 -63q-7 -31 -49 -53q-37 -24 -45 -35q-10 -17 -33 -109l-98 -465q-14 -66 -14 -108q3 -11 30 -35q27 -18 27 -53q-14 -64 -92 -64h-346q-64 0 -64 64q5 30 47 53q39 24 48 35q10 19 30 108l99 465q8 30 8 58q0 34 -16.5 47.5t-53.5 13.5h-143
q-47 0 -73 -25.5t-42 -93.5l-98 -465q-15 -81 -15 -108q4 -12 31 -35q27 -17 27 -53q-14 -64 -92 -64h-347q-63 0 -63 64q4 30 47 53q39 25 47 35q10 18 31 108l98 465q17 73 17 109q-5 11 -33 35q-25 17 -25 53q14 63 90 63h1000z" />
    <glyph glyph-name="Ocircumflex" unicode="&#x43f;" horiz-adv-x="1270" 
d="M1262 985q65 0 65 -63q-7 -31 -49 -53q-37 -24 -45 -35q-10 -17 -33 -109l-98 -465q-14 -66 -14 -108q3 -11 30 -35q27 -18 27 -53q-14 -64 -92 -64h-346q-64 0 -64 64q5 30 47 53q39 24 48 35q10 19 30 108l99 465q8 30 8 58q0 34 -16.5 47.5t-53.5 13.5h-143
q-47 0 -73 -25.5t-42 -93.5l-98 -465q-15 -81 -15 -108q4 -12 31 -35q27 -17 27 -53q-14 -64 -92 -64h-347q-63 0 -63 64q4 30 47 53q39 25 47 35q10 18 31 108l98 465q17 73 17 109q-5 11 -33 35q-25 17 -25 53q14 63 90 63h1000z" />
    <glyph glyph-name="apple" unicode="&#xf0;" horiz-adv-x="1311" 
d="M393 -101q-14 -66 -14 -112q4 -17 37 -37q37 -22 37 -62q-9 -43 -41 -54t-84 -11h-322q-47 0 -71.5 11t-24.5 54q6 35 61 62q42 19 54 37q14 23 35 112l159 753q13 62 13 77q0 42 -45 66q-31 12 -31 55q7 35 76 69t152.5 58.5t119.5 24.5q39 0 50 -36q11 -35 11 -112
q170 148 347 148q121 0 208 -49t131.5 -136t44.5 -198q0 -67 -14 -129q-22 -107 -79 -202t-140.5 -167t-184.5 -112q-100 -40 -206 -40q-68 0 -128 28t-60 93q4 21 20 36.5t37 15.5q19 0 47 -3.5t45 -3.5q92 0 172 84q89 98 123 258q14 67 14 127q0 98 -37 160.5t-122 62.5
q-87 0 -158 -65q-38 -36 -56.5 -81.5t-33.5 -112.5z" />
    <glyph glyph-name="apple" unicode="&#x440;" horiz-adv-x="1311" 
d="M393 -101q-14 -66 -14 -112q4 -17 37 -37q37 -22 37 -62q-9 -43 -41 -54t-84 -11h-322q-47 0 -71.5 11t-24.5 54q6 35 61 62q42 19 54 37q14 23 35 112l159 753q13 62 13 77q0 42 -45 66q-31 12 -31 55q7 35 76 69t152.5 58.5t119.5 24.5q39 0 50 -36q11 -35 11 -112
q170 148 347 148q121 0 208 -49t131.5 -136t44.5 -198q0 -67 -14 -129q-22 -107 -79 -202t-140.5 -167t-184.5 -112q-100 -40 -206 -40q-68 0 -128 28t-60 93q4 21 20 36.5t37 15.5q19 0 47 -3.5t45 -3.5q92 0 172 84q89 98 123 258q14 67 14 127q0 98 -37 160.5t-122 62.5
q-87 0 -158 -65q-38 -36 -56.5 -81.5t-33.5 -112.5z" />
    <glyph glyph-name="Ograve" unicode="&#xf1;" horiz-adv-x="1065" 
d="M611 144h8q127 0 256 104q60 51 94 51q45 0 45 -63q-14 -73 -147 -158q-187 -109 -357 -109q-130 0 -234 49q-104 47 -163.5 137t-59.5 210q0 47 13 108q33 157 132 278q100 120 242 185.5t295 65.5q74 0 160 -22t149.5 -73t63.5 -131q-10 -49 -52 -80q-42 -30 -91 -30
q-50 0 -75 23t-51 69q-25 47 -51 70.5t-77 23.5q-113 0 -187 -119t-104 -254h2q-13 -50 -13 -104q0 -101 49.5 -166t152.5 -65z" />
    <glyph glyph-name="Ograve" unicode="&#x441;" horiz-adv-x="1065" 
d="M611 144h8q127 0 256 104q60 51 94 51q45 0 45 -63q-14 -73 -147 -158q-187 -109 -357 -109q-130 0 -234 49q-104 47 -163.5 137t-59.5 210q0 47 13 108q33 157 132 278q100 120 242 185.5t295 65.5q74 0 160 -22t149.5 -73t63.5 -131q-10 -49 -52 -80q-42 -30 -91 -30
q-50 0 -75 23t-51 69q-25 47 -51 70.5t-77 23.5q-113 0 -187 -119t-104 -254h2q-13 -50 -13 -104q0 -101 49.5 -166t152.5 -65z" />
    <glyph glyph-name="Uacute" unicode="&#xf2;" horiz-adv-x="1024" 
d="M393 842q-61 0 -87 -15t-70.5 -50t-83.5 -42q-60 0 -60 74q3 14 8 24q4 11 7 15q5 31 24 67q19 37 47 58q29 12 76 12h772q49 0 74 -12q22 -23 22 -78q0 -25 -4 -47v-4q0 -9 -2 -35q-6 -31 -33 -52.5t-59 -21.5q-36 7 -67 43q-30 35 -49.5 49.5t-79.5 14.5
q-32 0 -44.5 -15.5t-19.5 -50.5l-127 -589q0 -21 7 -33.5t22 -27.5t23 -27q7 -11 7 -31q-13 -68 -104 -68h-319q-37 0 -57.5 13.5t-20.5 54.5q5 25 30 42t49 33t29 44l127 589q4 29 4 35q0 31 -41 31z" />
    <glyph glyph-name="Uacute" unicode="&#x442;" horiz-adv-x="1024" 
d="M393 842q-61 0 -87 -15t-70.5 -50t-83.5 -42q-60 0 -60 74q3 14 8 24q4 11 7 15q5 31 24 67q19 37 47 58q29 12 76 12h772q49 0 74 -12q22 -23 22 -78q0 -25 -4 -47v-4q0 -9 -2 -35q-6 -31 -33 -52.5t-59 -21.5q-36 7 -67 43q-30 35 -49.5 49.5t-79.5 14.5
q-32 0 -44.5 -15.5t-19.5 -50.5l-127 -589q0 -21 7 -33.5t22 -27.5t23 -27q7 -11 7 -31q-13 -68 -104 -68h-319q-37 0 -57.5 13.5t-20.5 54.5q5 25 30 42t49 33t29 44l127 589q4 29 4 35q0 31 -41 31z" />
    <glyph glyph-name="Ucircumflex" unicode="&#xf3;" horiz-adv-x="1106" 
d="M488 985q53 0 83.5 -11.5t30.5 -55.5q-4 -21 -34 -47t-43.5 -42t-22.5 -57q-20 -95 -20 -223q0 -90 8 -147q11 -78 38 -155t76 -77q44 0 96 72t98 172.5t79.5 196t42.5 137.5q8 49 8 59q0 36 -37 60q-31 20 -31 61q8 36 37 47q30 10 92 10h117q67 0 93 -9t26 -44
q-7 -30 -47 -65q-28 -28 -37 -46q-24 -38 -74 -186q-74 -204 -219.5 -445.5t-337.5 -415.5t-391 -174q-60 0 -108 31.5t-48 95.5q10 49 52.5 79t91.5 30q38 0 86 -23q49 -22 61 -22q30 0 82 33t90 67q61 55 119 138q-52 -12 -100 -12q-64 0 -126.5 31t-101.5 79
q-75 101 -75 408q0 88 10 262q0 30 -5.5 46t-18 33.5t-16 25.5t-3.5 26q13 57 112 57h267z" />
    <glyph glyph-name="Ucircumflex" unicode="&#x443;" horiz-adv-x="1106" 
d="M488 985q53 0 83.5 -11.5t30.5 -55.5q-4 -21 -34 -47t-43.5 -42t-22.5 -57q-20 -95 -20 -223q0 -90 8 -147q11 -78 38 -155t76 -77q44 0 96 72t98 172.5t79.5 196t42.5 137.5q8 49 8 59q0 36 -37 60q-31 20 -31 61q8 36 37 47q30 10 92 10h117q67 0 93 -9t26 -44
q-7 -30 -47 -65q-28 -28 -37 -46q-24 -38 -74 -186q-74 -204 -219.5 -445.5t-337.5 -415.5t-391 -174q-60 0 -108 31.5t-48 95.5q10 49 52.5 79t91.5 30q38 0 86 -23q49 -22 61 -22q30 0 82 33t90 67q61 55 119 138q-52 -12 -100 -12q-64 0 -126.5 31t-101.5 79
q-75 101 -75 408q0 88 10 262q0 30 -5.5 46t-18 33.5t-16 25.5t-3.5 26q13 57 112 57h267z" />
    <glyph glyph-name="Ugrave" unicode="&#xf4;" horiz-adv-x="1843" 
d="M977 -101q-14 -69 -14 -112q4 -18 37 -37q37 -22 37 -62q-9 -43 -41 -54t-84 -11h-322q-53 0 -74.5 10.5t-21.5 54.5q6 35 61 62q42 19 54 37q16 27 34 112l33 159q-123 -89 -242 -89q-120 0 -211.5 51.5t-140.5 142.5q-49 92 -49 208q0 57 12 119q31 145 104 261
t186 184q114 67 257 67q88 0 148 -29q60 -28 110 -98l51 241q13 60 13 76q0 41 -45 68q-33 16 -33 55q7 34 83.5 68.5t168.5 59t129 24.5q38 0 49.5 -35t11.5 -113l-94 -444q80 70 152 98q71 29 159 29q117 0 194.5 -45t114.5 -126t37 -188q0 -68 -16 -153
q-30 -144 -120 -263t-219 -189q-130 -69 -271 -69q-123 0 -205 89zM707 205l78 363q18 84 18 114q0 49 -22 80q-41 65 -113 65q-108 0 -176 -107q-68 -109 -96 -243q-13 -48 -13 -108q0 -96 36.5 -165t109.5 -69q94 0 178 70zM1190 135q64 0 123 54.5t100 134.5t58 153
q16 71 16 146q0 204 -141 204q-41 0 -72 -15t-70 -50q-37 -35 -53 -77t-33 -117l-77 -363q45 -70 149 -70z" />
    <glyph glyph-name="Ugrave" unicode="&#x444;" horiz-adv-x="1843" 
d="M977 -101q-14 -69 -14 -112q4 -18 37 -37q37 -22 37 -62q-9 -43 -41 -54t-84 -11h-322q-53 0 -74.5 10.5t-21.5 54.5q6 35 61 62q42 19 54 37q16 27 34 112l33 159q-123 -89 -242 -89q-120 0 -211.5 51.5t-140.5 142.5q-49 92 -49 208q0 57 12 119q31 145 104 261
t186 184q114 67 257 67q88 0 148 -29q60 -28 110 -98l51 241q13 60 13 76q0 41 -45 68q-33 16 -33 55q7 34 83.5 68.5t168.5 59t129 24.5q38 0 49.5 -35t11.5 -113l-94 -444q80 70 152 98q71 29 159 29q117 0 194.5 -45t114.5 -126t37 -188q0 -68 -16 -153
q-30 -144 -120 -263t-219 -189q-130 -69 -271 -69q-123 0 -205 89zM707 205l78 363q18 84 18 114q0 49 -22 80q-41 65 -113 65q-108 0 -176 -107q-68 -109 -96 -243q-13 -48 -13 -108q0 -96 36.5 -165t109.5 -69q94 0 178 70zM1190 135q64 0 123 54.5t100 134.5t58 153
q16 71 16 146q0 204 -141 204q-41 0 -72 -15t-70 -50q-37 -35 -53 -77t-33 -117l-77 -363q45 -70 149 -70z" />
    <glyph glyph-name="dotlessi" unicode="&#xf5;" horiz-adv-x="1147" 
d="M70 0q-66 0 -97 13q-30 12 -30 55q8 37 60 61q51 25 63.5 35.5t71.5 69.5l256 237l-180 326q-14 26 -24 37.5t-34 25.5q-32 26 -32 64q7 37 33.5 49t68.5 12h350q40 0 63 -10.5t23 -48.5q-4 -22 -30 -45.5t-29 -36.5q0 -31 34 -89t74 -114q50 43 107 101t63 90
q0 16 -24.5 41t-24.5 53q9 38 37 48.5t90 10.5h118q56 0 81.5 -9.5t25.5 -45.5q-4 -25 -19 -38.5t-50 -33.5q-28 -16 -37.5 -23.5t-38.5 -39.5q-111 -123 -268 -252l157 -258q15 -31 28.5 -59.5t30.5 -52t40 -38.5q25 -14 37 -27.5t12 -45.5q-5 -26 -31.5 -44t-55.5 -18
h-366q-94 0 -94 64q5 26 34.5 50t31.5 32q0 25 -43 93.5t-68 100.5l-21 33q-42 -34 -105 -101t-71 -98q0 -15 7 -24q6 -8 23 -24q17 -15 26 -29q8 -13 8 -35q-12 -62 -113 -62h-43h-125z" />
    <glyph glyph-name="dotlessi" unicode="&#x445;" horiz-adv-x="1147" 
d="M70 0q-66 0 -97 13q-30 12 -30 55q8 37 60 61q51 25 63.5 35.5t71.5 69.5l256 237l-180 326q-14 26 -24 37.5t-34 25.5q-32 26 -32 64q7 37 33.5 49t68.5 12h350q40 0 63 -10.5t23 -48.5q-4 -22 -30 -45.5t-29 -36.5q0 -31 34 -89t74 -114q50 43 107 101t63 90
q0 16 -24.5 41t-24.5 53q9 38 37 48.5t90 10.5h118q56 0 81.5 -9.5t25.5 -45.5q-4 -25 -19 -38.5t-50 -33.5q-28 -16 -37.5 -23.5t-38.5 -39.5q-111 -123 -268 -252l157 -258q15 -31 28.5 -59.5t30.5 -52t40 -38.5q25 -14 37 -27.5t12 -45.5q-5 -26 -31.5 -44t-55.5 -18
h-366q-94 0 -94 64q5 26 34.5 50t31.5 32q0 25 -43 93.5t-68 100.5l-21 33q-42 -34 -105 -101t-71 -98q0 -15 7 -24q6 -8 23 -24q17 -15 26 -29q8 -13 8 -35q-12 -62 -113 -62h-43h-125z" />
    <glyph glyph-name="circumflex" unicode="&#xf6;" horiz-adv-x="1270" 
d="M824 0h-771q-63 0 -63 64q4 30 47 53q39 25 47 35q10 18 31 108l98 465q17 73 17 109q-5 11 -33 35q-25 17 -25 53q14 63 90 63h347q65 0 65 -63q-7 -31 -49 -53q-38 -25 -45 -35q-13 -20 -33 -109l-98 -465q-6 -33 -6 -55q1 -34 17 -48.5t52 -14.5h144q49 0 73.5 28
t38.5 91l99 464q16 71 16 109q-5 10 -33 35q-24 17 -24 53q13 63 90 63h346q65 0 65 -63q-7 -31 -49 -53q-37 -24 -45 -35q-10 -17 -33 -109l-98 -465q-14 -66 -14 -108q3 -11 30 -35q27 -18 27 -53q-2 -19 -6 -51.5t-6 -45.5q-8 -31 -35 -52.5t-57 -21.5q-37 7 -73.5 42
t-59.5 50t-84 15z" />
    <glyph glyph-name="circumflex" unicode="&#x446;" horiz-adv-x="1270" 
d="M824 0h-771q-63 0 -63 64q4 30 47 53q39 25 47 35q10 18 31 108l98 465q17 73 17 109q-5 11 -33 35q-25 17 -25 53q14 63 90 63h347q65 0 65 -63q-7 -31 -49 -53q-38 -25 -45 -35q-13 -20 -33 -109l-98 -465q-6 -33 -6 -55q1 -34 17 -48.5t52 -14.5h144q49 0 73.5 28
t38.5 91l99 464q16 71 16 109q-5 10 -33 35q-24 17 -24 53q13 63 90 63h346q65 0 65 -63q-7 -31 -49 -53q-37 -24 -45 -35q-10 -17 -33 -109l-98 -465q-14 -66 -14 -108q3 -11 30 -35q27 -18 27 -53q-2 -19 -6 -51.5t-6 -45.5q-8 -31 -35 -52.5t-57 -21.5q-37 7 -73.5 42
t-59.5 50t-84 15z" />
    <glyph glyph-name="tilde" unicode="&#xf7;" horiz-adv-x="1188" 
d="M727 445q-208 -117 -354 -117q-107 0 -197 61q-65 44 -65 152q0 106 60 246q6 18 6 32q0 26 -17 31q-40 17 -40 68q13 67 103 67h332q70 0 70 -67q-9 -43 -61 -62q-35 -12 -55 -57q-60 -126 -60 -205q0 -35 12 -53q24 -37 76 -37q82 0 221 84l29 137q16 62 16 109
q-5 11 -33 35q-24 17 -24 53q13 63 90 63h346q65 0 65 -63q-7 -31 -49 -53q-36 -23 -45 -35q-12 -20 -32 -109l-99 -465q-14 -74 -14 -108q3 -12 31 -35q26 -17 26 -53q-14 -64 -92 -64h-346q-63 0 -63 64q5 30 47 53q39 25 47 35q11 19 30 108z" />
    <glyph glyph-name="tilde" unicode="&#x447;" horiz-adv-x="1188" 
d="M727 445q-208 -117 -354 -117q-107 0 -197 61q-65 44 -65 152q0 106 60 246q6 18 6 32q0 26 -17 31q-40 17 -40 68q13 67 103 67h332q70 0 70 -67q-9 -43 -61 -62q-35 -12 -55 -57q-60 -126 -60 -205q0 -35 12 -53q24 -37 76 -37q82 0 221 84l29 137q16 62 16 109
q-5 11 -33 35q-24 17 -24 53q13 63 90 63h346q65 0 65 -63q-7 -31 -49 -53q-36 -23 -45 -35q-12 -20 -32 -109l-99 -465q-14 -74 -14 -108q3 -12 31 -35q26 -17 26 -53q-14 -64 -92 -64h-346q-63 0 -63 64q5 30 47 53q39 25 47 35q11 19 30 108z" />
    <glyph glyph-name="macron" unicode="&#xf8;" horiz-adv-x="1843" 
d="M1227 142q50 0 74 28q25 28 39 91l98 464q17 68 17 109q-5 10 -33 35q-25 17 -25 53q14 63 90 63h346q66 0 66 -63q-7 -31 -49 -53q-37 -24 -45 -35q-13 -22 -33 -109l-98 -465q-14 -72 -14 -108q3 -11 30 -35q27 -17 27 -53q-14 -64 -93 -64h-1571q-63 0 -63 64
q4 30 47 53q39 25 47 35q10 18 31 108l98 465q17 73 17 109q-5 11 -33 35q-25 17 -25 53q14 63 90 63h347q65 0 65 -63q-7 -31 -49 -53q-38 -25 -45 -35q-13 -20 -33 -109l-98 -465q-6 -33 -6 -55q1 -34 17 -48.5t52 -14.5h103q50 0 74.5 27t37.5 92l99 464q16 71 16 109
q-5 10 -33 35q-24 17 -24 53q13 63 90 63h346q66 0 66 -63q-7 -31 -49 -53q-37 -24 -45 -35q-11 -17 -33 -109l-98 -465q-9 -48 -9 -57q0 -34 17 -47q18 -14 55 -14h102z" />
    <glyph glyph-name="macron" unicode="&#x448;" horiz-adv-x="1843" 
d="M1227 142q50 0 74 28q25 28 39 91l98 464q17 68 17 109q-5 10 -33 35q-25 17 -25 53q14 63 90 63h346q66 0 66 -63q-7 -31 -49 -53q-37 -24 -45 -35q-13 -22 -33 -109l-98 -465q-14 -72 -14 -108q3 -11 30 -35q27 -17 27 -53q-14 -64 -93 -64h-1571q-63 0 -63 64
q4 30 47 53q39 25 47 35q10 18 31 108l98 465q17 73 17 109q-5 11 -33 35q-25 17 -25 53q14 63 90 63h347q65 0 65 -63q-7 -31 -49 -53q-38 -25 -45 -35q-13 -20 -33 -109l-98 -465q-6 -33 -6 -55q1 -34 17 -48.5t52 -14.5h103q50 0 74.5 27t37.5 92l99 464q16 71 16 109
q-5 10 -33 35q-24 17 -24 53q13 63 90 63h346q66 0 66 -63q-7 -31 -49 -53q-37 -24 -45 -35q-11 -17 -33 -109l-98 -465q-9 -48 -9 -57q0 -34 17 -47q18 -14 55 -14h102z" />
    <glyph glyph-name="breve" unicode="&#xf9;" horiz-adv-x="1843" 
d="M53 0q-63 0 -63 64q4 30 47 53q39 25 47 35q10 18 31 108l98 465q17 73 17 109q-5 11 -33 35q-25 17 -25 53q14 63 90 63h347q65 0 65 -63q-7 -31 -49 -53q-38 -25 -45 -35q-13 -20 -33 -109l-98 -465q-6 -33 -6 -55q1 -34 17 -48.5t52 -14.5h103q50 0 74.5 27t37.5 92
l99 464q16 71 16 109q-5 10 -33 35q-24 17 -24 53q13 63 90 63h346q66 0 66 -63q-7 -31 -49 -53q-37 -24 -45 -35q-11 -17 -33 -109l-98 -465q-9 -48 -9 -57q0 -34 17 -47q18 -14 55 -14h102q50 0 74 28q25 28 39 91l98 464q17 68 17 109q-5 10 -33 35q-25 17 -25 53
q14 63 90 63h346q66 0 66 -63q-7 -31 -49 -53q-37 -24 -45 -35q-13 -22 -33 -109l-98 -465q-14 -86 -14 -108q3 -11 30 -35q27 -17 27 -53q-2 -19 -6 -51.5t-7 -45.5q-7 -30 -35 -52q-27 -22 -57 -22q-36 7 -73 42q-36 35 -60 50q-23 15 -84 15h-1342z" />
    <glyph glyph-name="breve" unicode="&#x449;" horiz-adv-x="1843" 
d="M53 0q-63 0 -63 64q4 30 47 53q39 25 47 35q10 18 31 108l98 465q17 73 17 109q-5 11 -33 35q-25 17 -25 53q14 63 90 63h347q65 0 65 -63q-7 -31 -49 -53q-38 -25 -45 -35q-13 -20 -33 -109l-98 -465q-6 -33 -6 -55q1 -34 17 -48.5t52 -14.5h103q50 0 74.5 27t37.5 92
l99 464q16 71 16 109q-5 10 -33 35q-24 17 -24 53q13 63 90 63h346q66 0 66 -63q-7 -31 -49 -53q-37 -24 -45 -35q-11 -17 -33 -109l-98 -465q-9 -48 -9 -57q0 -34 17 -47q18 -14 55 -14h102q50 0 74 28q25 28 39 91l98 464q17 68 17 109q-5 10 -33 35q-25 17 -25 53
q14 63 90 63h346q66 0 66 -63q-7 -31 -49 -53q-37 -24 -45 -35q-13 -22 -33 -109l-98 -465q-14 -86 -14 -108q3 -11 30 -35q27 -17 27 -53q-2 -19 -6 -51.5t-7 -45.5q-7 -30 -35 -52q-27 -22 -57 -22q-36 7 -73 42q-36 35 -60 50q-23 15 -84 15h-1342z" />
    <glyph glyph-name="dotaccent" unicode="&#xfa;" horiz-adv-x="1311" 
d="M787 985q55 0 78.5 -11t23.5 -52q-5 -23 -33.5 -41.5t-55 -35.5t-32.5 -44l-35 -168q97 0 203 -18.5t172 -53.5q155 -76 155 -225q0 -24 -6 -55q-16 -78 -69 -139t-131 -95q-108 -47 -295 -47h-500q-69 0 -69 66q5 25 31 42t50 33t31 48l127 600q0 53 -39 53
q-61 0 -87 -15t-70.5 -50t-83.5 -42q-60 0 -60 74q3 14 8 24q4 11 7 15q5 31 24 67q19 37 47 58q29 12 76 12h533zM729 140q149 0 184 155q4 24 4 37q0 71 -56 118q-58 47 -154 62l-62 -289q-4 -24 -4 -30q0 -28 20 -41q20 -12 68 -12z" />
    <glyph glyph-name="dotaccent" unicode="&#x44a;" horiz-adv-x="1311" 
d="M787 985q55 0 78.5 -11t23.5 -52q-5 -23 -33.5 -41.5t-55 -35.5t-32.5 -44l-35 -168q97 0 203 -18.5t172 -53.5q155 -76 155 -225q0 -24 -6 -55q-16 -78 -69 -139t-131 -95q-108 -47 -295 -47h-500q-69 0 -69 66q5 25 31 42t50 33t31 48l127 600q0 53 -39 53
q-61 0 -87 -15t-70.5 -50t-83.5 -42q-60 0 -60 74q3 14 8 24q4 11 7 15q5 31 24 67q19 37 47 58q29 12 76 12h533zM729 140q149 0 184 155q4 24 4 37q0 71 -56 118q-58 47 -154 62l-62 -289q-4 -24 -4 -30q0 -28 20 -41q20 -12 68 -12z" />
    <glyph glyph-name="ring" unicode="&#xfb;" horiz-adv-x="1721" 
d="M1320 725q16 62 16 109q-5 11 -33 35q-24 17 -24 53q13 63 89 63h346q66 0 66 -63q-7 -31 -49 -53q-37 -24 -45 -35q-10 -17 -33 -109l-98 -465q-14 -74 -14 -108q3 -12 31 -35q26 -18 26 -53q-14 -64 -92 -64h-347q-63 0 -63 64q5 30 48 53q38 25 47 35q10 19 30 108z
M904 561q156 -76 156 -225q0 -26 -7 -55q-34 -161 -201 -234q-108 -47 -295 -47h-499q-70 0 -70 66q5 25 31.5 41.5t50.5 33.5t31 48l129 610q0 21 -8.5 37t-24.5 32q-17 17 -22.5 25.5t-5.5 24.5q16 67 97 67h336q77 0 77 -63q-5 -23 -32 -40t-52 -33q-24 -17 -31 -48
l-35 -168q97 0 203 -18.5t172 -53.5zM525 140q74 0 121 42t63 113q4 24 4 37q0 71 -57.5 118t-153.5 62l-59 -282q-4 -15 -4 -39q0 -28 19 -40q19 -11 67 -11z" />
    <glyph glyph-name="ring" unicode="&#x44b;" horiz-adv-x="1721" 
d="M1320 725q16 62 16 109q-5 11 -33 35q-24 17 -24 53q13 63 89 63h346q66 0 66 -63q-7 -31 -49 -53q-37 -24 -45 -35q-10 -17 -33 -109l-98 -465q-14 -74 -14 -108q3 -12 31 -35q26 -18 26 -53q-14 -64 -92 -64h-347q-63 0 -63 64q5 30 48 53q38 25 47 35q10 19 30 108z
M904 561q156 -76 156 -225q0 -26 -7 -55q-34 -161 -201 -234q-108 -47 -295 -47h-499q-70 0 -70 66q5 25 31.5 41.5t50.5 33.5t31 48l129 610q0 21 -8.5 37t-24.5 32q-17 17 -22.5 25.5t-5.5 24.5q16 67 97 67h336q77 0 77 -63q-5 -23 -32 -40t-52 -33q-24 -17 -31 -48
l-35 -168q97 0 203 -18.5t172 -53.5zM525 140q74 0 121 42t63 113q4 24 4 37q0 71 -57.5 118t-153.5 62l-59 -282q-4 -15 -4 -39q0 -28 19 -40q19 -11 67 -11z" />
    <glyph glyph-name="cedilla" unicode="&#xfc;" horiz-adv-x="1106" 
d="M903 561q156 -76 156 -225q0 -26 -6 -55q-34 -161 -201 -234q-108 -47 -295 -47h-499q-70 0 -70 66q5 25 31.5 41.5t50.5 33.5t31 48l129 610q0 21 -8.5 37t-24.5 32q-17 17 -22.5 25.5t-5.5 24.5q16 67 97 67h336q76 0 76 -63q-5 -23 -32 -40t-51.5 -33.5t-31.5 -47.5
l-34 -168q96 0 202 -18.5t172 -53.5zM525 140q74 0 121 42t63 113q4 24 4 37q0 71 -57.5 118t-153.5 62l-59 -282q-4 -15 -4 -39q0 -28 19 -40q19 -11 67 -11z" />
    <glyph glyph-name="cedilla" unicode="&#x44c;" horiz-adv-x="1106" 
d="M903 561q156 -76 156 -225q0 -26 -6 -55q-34 -161 -201 -234q-108 -47 -295 -47h-499q-70 0 -70 66q5 25 31.5 41.5t50.5 33.5t31 48l129 610q0 21 -8.5 37t-24.5 32q-17 17 -22.5 25.5t-5.5 24.5q16 67 97 67h336q76 0 76 -63q-5 -23 -32 -40t-51.5 -33.5t-31.5 -47.5
l-34 -168q96 0 202 -18.5t172 -53.5zM525 140q74 0 121 42t63 113q4 24 4 37q0 71 -57.5 118t-153.5 62l-59 -282q-4 -15 -4 -39q0 -28 19 -40q19 -11 67 -11z" />
    <glyph glyph-name="hungarumlaut" unicode="&#xfd;" horiz-adv-x="1065" 
d="M701 604q0 248 -150 248q-64 0 -100.5 -26t-113.5 -93t-114 -67q-42 0 -58 30q-17 31 -17 93q6 79 100 131q76 41 173 62q98 20 171 20q134 0 238 -50q103 -49 161 -142.5t58 -217.5q0 -57 -12 -119q-23 -114 -87 -208t-154.5 -160t-198.5 -101t-218 -35q-172 0 -311 109
q-83 68 -83 158q7 26 28 44.5t47 18.5q31 0 73 -51q37 -47 93 -75.5t118 -28.5h9q122 0 206 92q85 92 121 223h-334q-28 0 -44 18q-15 17 -15 43q0 30 23.5 55t67.5 29h323z" />
    <glyph glyph-name="hungarumlaut" unicode="&#x44d;" horiz-adv-x="1065" 
d="M701 604q0 248 -150 248q-64 0 -100.5 -26t-113.5 -93t-114 -67q-42 0 -58 30q-17 31 -17 93q6 79 100 131q76 41 173 62q98 20 171 20q134 0 238 -50q103 -49 161 -142.5t58 -217.5q0 -57 -12 -119q-23 -114 -87 -208t-154.5 -160t-198.5 -101t-218 -35q-172 0 -311 109
q-83 68 -83 158q7 26 28 44.5t47 18.5q31 0 73 -51q37 -47 93 -75.5t118 -28.5h9q122 0 206 92q85 92 121 223h-334q-28 0 -44 18q-15 17 -15 43q0 30 23.5 55t67.5 29h323z" />
    <glyph glyph-name="ogonek" unicode="&#xfe;" horiz-adv-x="1802" 
d="M674 604q64 150 195 250q196 148 454 148q127 0 229.5 -49t162.5 -141q59 -91 59 -212q0 -53 -12 -108q-32 -154 -136 -274q-103 -119 -247 -183q-143 -65 -293 -65q-242 0 -371 127q-96 102 -96 253q0 61 10 107l-137 2l-43 -199q-15 -81 -15 -108q4 -12 31 -35
q27 -17 27 -53q-14 -63 -92 -63h-347q-63 0 -63 63q4 30 47 53q39 25 47 35q10 18 31 108l98 465q17 73 17 109q-5 11 -33 35q-25 17 -25 53q14 64 90 64h347q66 0 66 -64q-8 -31 -50 -53q-37 -25 -45 -35q-12 -20 -33 -109l-25 -121h152zM1412 504q20 84 20 164
q0 186 -152 186q-124 0 -191 -104.5t-99 -255.5q-27 -132 -27 -197q0 -186 153 -186q95 0 154.5 60t89 142t52.5 191z" />
    <glyph glyph-name="ogonek" unicode="&#x44e;" horiz-adv-x="1802" 
d="M674 604q64 150 195 250q196 148 454 148q127 0 229.5 -49t162.5 -141q59 -91 59 -212q0 -53 -12 -108q-32 -154 -136 -274q-103 -119 -247 -183q-143 -65 -293 -65q-242 0 -371 127q-96 102 -96 253q0 61 10 107l-137 2l-43 -199q-15 -81 -15 -108q4 -12 31 -35
q27 -17 27 -53q-14 -63 -92 -63h-347q-63 0 -63 63q4 30 47 53q39 25 47 35q10 18 31 108l98 465q17 73 17 109q-5 11 -33 35q-25 17 -25 53q14 64 90 64h347q66 0 66 -64q-8 -31 -50 -53q-37 -25 -45 -35q-12 -20 -33 -109l-25 -121h152zM1412 504q20 84 20 164
q0 186 -152 186q-124 0 -191 -104.5t-99 -255.5q-27 -132 -27 -197q0 -186 153 -186q95 0 154.5 60t89 142t52.5 191z" />
    <glyph glyph-name="caron" unicode="&#xff;" horiz-adv-x="1229" 
d="M647 404q-71 -55 -145.5 -138t-80.5 -112q0 -15 11 -29.5t15 -23t4 -33.5q-10 -41 -40.5 -54.5t-78.5 -13.5h-319q-82 0 -82 62q11 51 61 69q34 14 66 56q115 154 264 295q-157 88 -157 213q0 28 4 43q14 66 63 123t118 87q87 37 244 37h625q67 0 67 -69q-3 -16 -13 -26
t-29 -21q-20 -10 -27 -15q-33 -20 -43 -78l-123 -569q-6 -24 -6 -39q0 -22 16 -39q4 -3 18 -12.5t20.5 -20.5t6.5 -28q-14 -68 -96 -68h-336q-77 0 -77 68q3 17 15.5 27.5t33 19.5t29.5 14q22 15 29 27q6 13 14 51l40 186zM690 844q-78 0 -120 -30.5t-57 -100.5
q0 -81 83 -124q84 -44 189 -52l47 223q6 24 6 39q0 28 -29 36.5t-119 8.5z" />
    <glyph glyph-name="caron" unicode="&#x44f;" horiz-adv-x="1229" 
d="M647 404q-71 -55 -145.5 -138t-80.5 -112q0 -15 11 -29.5t15 -23t4 -33.5q-10 -41 -40.5 -54.5t-78.5 -13.5h-319q-82 0 -82 62q11 51 61 69q34 14 66 56q115 154 264 295q-157 88 -157 213q0 28 4 43q14 66 63 123t118 87q87 37 244 37h625q67 0 67 -69q-3 -16 -13 -26
t-29 -21q-20 -10 -27 -15q-33 -20 -43 -78l-123 -569q-6 -24 -6 -39q0 -22 16 -39q4 -3 18 -12.5t20.5 -20.5t6.5 -28q-14 -68 -96 -68h-336q-77 0 -77 68q3 17 15.5 27.5t33 19.5t29.5 14q22 15 29 27q6 13 14 51l40 186zM690 844q-78 0 -120 -30.5t-57 -100.5
q0 -81 83 -124q84 -44 189 -52l47 223q6 24 6 39q0 28 -29 36.5t-119 8.5z" />
  </font>
</defs>
</svg>
